<?xml version="1.0" encoding="UTF-8" standalone="no"?>
<svg width="84px" height="84px" viewBox="0 0 84 84" version="1.1" xmlns="http://www.w3.org/2000/svg" xmlns:xlink="http://www.w3.org/1999/xlink">
    <!-- Generator: Sketch 46.2 (44496) - http://www.bohemiancoding.com/sketch -->
    <title>barcode</title>
    <desc>Created with Sketch.</desc>
    <defs></defs>
    <g id="Page-1" stroke="none" stroke-width="1" fill="none" fill-rule="evenodd">
        <g id="barcode" fill-rule="nonzero">
            <g transform="translate(6.000000, 11.000000)">
                <path d="M6,55 C5.448,55 5,54.4588947 5,53.7894737 L5,33.2105263 C5,32.5411053 5.448,32 6,32 C6.552,32 7,32.5411053 7,33.2105263 L7,53.7894737 C7,54.4588947 6.552,55 6,55 Z" id="Shape" fill="#CCCCCC"></path>
                <path d="M66,55 C65.448,55 65,54.4588947 65,53.7894737 L65,33.2105263 C65,32.5411053 65.448,32 66,32 C66.552,32 67,32.5411053 67,33.2105263 L67,53.7894737 C67,54.4588947 66.552,55 66,55 Z" id="Shape" fill="#CCCCCC"></path>
                <path d="M11,45 C10.448,45 10,44.4717273 10,43.8181818 L10,33.1818182 C10,32.5282727 10.448,32 11,32 C11.552,32 12,32.5282727 12,33.1818182 L12,43.8181818 C12,44.4717273 11.552,45 11,45 Z" id="Shape" fill="#CCCCCC"></path>
                <path d="M14,45 C13.448,45 13,44.4717273 13,43.8181818 L13,33.1818182 C13,32.5282727 13.448,32 14,32 C14.552,32 15,32.5282727 15,33.1818182 L15,43.8181818 C15,44.4717273 14.552,45 14,45 Z" id="Shape" fill="#CCCCCC"></path>
                <path d="M20,45 C19.448,45 19,44.4717273 19,43.8181818 L19,33.1818182 C19,32.5282727 19.448,32 20,32 C20.552,32 21,32.5282727 21,33.1818182 L21,43.8181818 C21,44.4717273 20.552,45 20,45 Z" id="Shape" fill="#CCCCCC"></path>
                <path d="M24,45 C23.448,45 23,44.4717273 23,43.8181818 L23,33.1818182 C23,32.5282727 23.448,32 24,32 C24.552,32 25,32.5282727 25,33.1818182 L25,43.8181818 C25,44.4717273 24.552,45 24,45 Z" id="Shape" fill="#CCCCCC"></path>
                <path d="M27,45 C26.448,45 26,44.4717273 26,43.8181818 L26,33.1818182 C26,32.5282727 26.448,32 27,32 C27.552,32 28,32.5282727 28,33.1818182 L28,43.8181818 C28,44.4717273 27.552,45 27,45 Z" id="Shape" fill="#CCCCCC"></path>
                <path d="M35,45 C34.448,45 34,44.4717273 34,43.8181818 L34,33.1818182 C34,32.5282727 34.448,32 35,32 C35.552,32 36,32.5282727 36,33.1818182 L36,43.8181818 C36,44.4717273 35.552,45 35,45 Z" id="Shape" fill="#CCCCCC"></path>
                <path d="M41,45 C40.448,45 40,44.4717273 40,43.8181818 L40,33.1818182 C40,32.5282727 40.448,32 41,32 C41.552,32 42,32.5282727 42,33.1818182 L42,43.8181818 C42,44.4717273 41.552,45 41,45 Z" id="Shape" fill="#CCCCCC"></path>
                <path d="M44,45 C43.448,45 43,44.4717273 43,43.8181818 L43,33.1818182 C43,32.5282727 43.448,32 44,32 C44.552,32 45,32.5282727 45,33.1818182 L45,43.8181818 C45,44.4717273 44.552,45 44,45 Z" id="Shape" fill="#CCCCCC"></path>
                <path d="M50,45 C49.448,45 49,44.4717273 49,43.8181818 L49,33.1818182 C49,32.5282727 49.448,32 50,32 C50.552,32 51,32.5282727 51,33.1818182 L51,43.8181818 C51,44.4717273 50.552,45 50,45 Z" id="Shape" fill="#CCCCCC"></path>
                <path d="M54,45 C53.448,45 53,44.4717273 53,43.8181818 L53,33.1818182 C53,32.5282727 53.448,32 54,32 C54.552,32 55,32.5282727 55,33.1818182 L55,43.8181818 C55,44.4717273 54.552,45 54,45 Z" id="Shape" fill="#CCCCCC"></path>
                <path d="M61,45 C60.448,45 60,44.4717273 60,43.8181818 L60,33.1818182 C60,32.5282727 60.448,32 61,32 C61.552,32 62,32.5282727 62,33.1818182 L62,43.8181818 C62,44.4717273 61.552,45 61,45 Z" id="Shape" fill="#CCCCCC"></path>
                <path d="M6,27 C5.448,27 5,26.4691875 5,25.8125 L5,9.1875 C5,8.5308125 5.448,8 6,8 C6.552,8 7,8.5308125 7,9.1875 L7,25.8125 C7,26.4691875 6.552,27 6,27 Z" id="Shape" fill="#CCCCCC"></path>
                <path d="M66,27 C65.448,27 65,26.4691875 65,25.8125 L65,9.1875 C65,8.5308125 65.448,8 66,8 C66.552,8 67,8.5308125 67,9.1875 L67,25.8125 C67,26.4691875 66.552,27 66,27 Z" id="Shape" fill="#CCCCCC"></path>
                <path d="M11,27 C10.448,27 10,26.4691875 10,25.8125 L10,9.1875 C10,8.5308125 10.448,8 11,8 C11.552,8 12,8.5308125 12,9.1875 L12,25.8125 C12,26.4691875 11.552,27 11,27 Z" id="Shape" fill="#CCCCCC"></path>
                <path d="M14,27 C13.448,27 13,26.4691875 13,25.8125 L13,9.1875 C13,8.5308125 13.448,8 14,8 C14.552,8 15,8.5308125 15,9.1875 L15,25.8125 C15,26.4691875 14.552,27 14,27 Z" id="Shape" fill="#CCCCCC"></path>
                <path d="M20,27 C19.448,27 19,26.4691875 19,25.8125 L19,9.1875 C19,8.5308125 19.448,8 20,8 C20.552,8 21,8.5308125 21,9.1875 L21,25.8125 C21,26.4691875 20.552,27 20,27 Z" id="Shape" fill="#CCCCCC"></path>
                <path d="M24,27 C23.448,27 23,26.4691875 23,25.8125 L23,9.1875 C23,8.5308125 23.448,8 24,8 C24.552,8 25,8.5308125 25,9.1875 L25,25.8125 C25,26.4691875 24.552,27 24,27 Z" id="Shape" fill="#CCCCCC"></path>
                <path d="M27,27 C26.448,27 26,26.4691875 26,25.8125 L26,9.1875 C26,8.5308125 26.448,8 27,8 C27.552,8 28,8.5308125 28,9.1875 L28,25.8125 C28,26.4691875 27.552,27 27,27 Z" id="Shape" fill="#CCCCCC"></path>
                <path d="M35,27 C34.448,27 34,26.4691875 34,25.8125 L34,9.1875 C34,8.5308125 34.448,8 35,8 C35.552,8 36,8.5308125 36,9.1875 L36,25.8125 C36,26.4691875 35.552,27 35,27 Z" id="Shape" fill="#CCCCCC"></path>
                <path d="M41,27 C40.448,27 40,26.4691875 40,25.8125 L40,9.1875 C40,8.5308125 40.448,8 41,8 C41.552,8 42,8.5308125 42,9.1875 L42,25.8125 C42,26.4691875 41.552,27 41,27 Z" id="Shape" fill="#CCCCCC"></path>
                <path d="M44,27 C43.448,27 43,26.4691875 43,25.8125 L43,9.1875 C43,8.5308125 43.448,8 44,8 C44.552,8 45,8.5308125 45,9.1875 L45,25.8125 C45,26.4691875 44.552,27 44,27 Z" id="Shape" fill="#CCCCCC"></path>
                <path d="M50,27 C49.448,27 49,26.4691875 49,25.8125 L49,9.1875 C49,8.5308125 49.448,8 50,8 C50.552,8 51,8.5308125 51,9.1875 L51,25.8125 C51,26.4691875 50.552,27 50,27 Z" id="Shape" fill="#CCCCCC"></path>
                <path d="M54,27 C53.448,27 53,26.4691875 53,25.8125 L53,9.1875 C53,8.5308125 53.448,8 54,8 C54.552,8 55,8.5308125 55,9.1875 L55,25.8125 C55,26.4691875 54.552,27 54,27 Z" id="Shape" fill="#CCCCCC"></path>
                <path d="M61,27 C60.448,27 60,26.4691875 60,25.8125 L60,9.1875 C60,8.5308125 60.448,8 61,8 C61.552,8 62,8.5308125 62,9.1875 L62,25.8125 C62,26.4691875 61.552,27 61,27 Z" id="Shape" fill="#CCCCCC"></path>
                <path d="M11,52 C10.448,52 10,51.404 10,50.6666667 L10,49.3333333 C10,48.596 10.448,48 11,48 C11.552,48 12,48.596 12,49.3333333 L12,50.6666667 C12,51.404 11.552,52 11,52 Z" id="Shape" fill="#CCCCCC"></path>
                <path d="M14,52 C13.448,52 13,51.404 13,50.6666667 L13,49.3333333 C13,48.596 13.448,48 14,48 C14.552,48 15,48.596 15,49.3333333 L15,50.6666667 C15,51.404 14.552,52 14,52 Z" id="Shape" fill="#CCCCCC"></path>
                <path d="M18,52 C17.448,52 17,51.404 17,50.6666667 L17,49.3333333 C17,48.596 17.448,48 18,48 C18.552,48 19,48.596 19,49.3333333 L19,50.6666667 C19,51.404 18.552,52 18,52 Z" id="Shape" fill="#CCCCCC"></path>
                <path d="M21,52 C20.448,52 20,51.404 20,50.6666667 L20,49.3333333 C20,48.596 20.448,48 21,48 C21.552,48 22,48.596 22,49.3333333 L22,50.6666667 C22,51.404 21.552,52 21,52 Z" id="Shape" fill="#CCCCCC"></path>
                <path d="M25,52 C24.448,52 24,51.404 24,50.6666667 L24,49.3333333 C24,48.596 24.448,48 25,48 C25.552,48 26,48.596 26,49.3333333 L26,50.6666667 C26,51.404 25.552,52 25,52 Z" id="Shape" fill="#CCCCCC"></path>
                <path d="M29,52 C28.448,52 28,51.404 28,50.6666667 L28,49.3333333 C28,48.596 28.448,48 29,48 C29.552,48 30,48.596 30,49.3333333 L30,50.6666667 C30,51.404 29.552,52 29,52 Z" id="Shape" fill="#CCCCCC"></path>
                <path d="M32,52 C31.448,52 31,51.404 31,50.6666667 L31,49.3333333 C31,48.596 31.448,48 32,48 C32.552,48 33,48.596 33,49.3333333 L33,50.6666667 C33,51.404 32.552,52 32,52 Z" id="Shape" fill="#CCCCCC"></path>
                <path d="M36,52 C35.448,52 35,51.404 35,50.6666667 L35,49.3333333 C35,48.596 35.448,48 36,48 C36.552,48 37,48.596 37,49.3333333 L37,50.6666667 C37,51.404 36.552,52 36,52 Z" id="Shape" fill="#CCCCCC"></path>
                <path d="M39,52 C38.448,52 38,51.404 38,50.6666667 L38,49.3333333 C38,48.596 38.448,48 39,48 C39.552,48 40,48.596 40,49.3333333 L40,50.6666667 C40,51.404 39.552,52 39,52 Z" id="Shape" fill="#CCCCCC"></path>
                <path d="M43,52 C42.448,52 42,51.404 42,50.6666667 L42,49.3333333 C42,48.596 42.448,48 43,48 C43.552,48 44,48.596 44,49.3333333 L44,50.6666667 C44,51.404 43.552,52 43,52 Z" id="Shape" fill="#CCCCCC"></path>
                <path d="M47,52 C46.448,52 46,51.404 46,50.6666667 L46,49.3333333 C46,48.596 46.448,48 47,48 C47.552,48 48,48.596 48,49.3333333 L48,50.6666667 C48,51.404 47.552,52 47,52 Z" id="Shape" fill="#CCCCCC"></path>
                <path d="M50,52 C49.448,52 49,51.404 49,50.6666667 L49,49.3333333 C49,48.596 49.448,48 50,48 C50.552,48 51,48.596 51,49.3333333 L51,50.6666667 C51,51.404 50.552,52 50,52 Z" id="Shape" fill="#CCCCCC"></path>
                <path d="M54,52 C53.448,52 53,51.404 53,50.6666667 L53,49.3333333 C53,48.596 53.448,48 54,48 C54.552,48 55,48.596 55,49.3333333 L55,50.6666667 C55,51.404 54.552,52 54,52 Z" id="Shape" fill="#CCCCCC"></path>
                <path d="M57,52 C56.448,52 56,51.404 56,50.6666667 L56,49.3333333 C56,48.596 56.448,48 57,48 C57.552,48 58,48.596 58,49.3333333 L58,50.6666667 C58,51.404 57.552,52 57,52 Z" id="Shape" fill="#CCCCCC"></path>
                <path d="M61,52 C60.448,52 60,51.404 60,50.6666667 L60,49.3333333 C60,48.596 60.448,48 61,48 C61.552,48 62,48.596 62,49.3333333 L62,50.6666667 C62,51.404 61.552,52 61,52 Z" id="Shape" fill="#CCCCCC"></path>
                <g id="Group" transform="translate(0.000000, 51.000000)" fill="#4695F6">
                    <path d="M9.6,10.3888889 L0,10.3888889 L0,1.83333333 C0,1.15744444 0.5376,0.611111111 1.2,0.611111111 C1.8624,0.611111111 2.4,1.15744444 2.4,1.83333333 L2.4,7.94444444 L9.6,7.94444444 C10.2624,7.94444444 10.8,8.49077778 10.8,9.16666667 C10.8,9.84255556 10.2624,10.3888889 9.6,10.3888889 Z" id="Shape"></path>
                    <path d="M72,10.3888889 L63.6,10.3888889 C62.9376,10.3888889 62.4,9.84255556 62.4,9.16666667 C62.4,8.49077778 62.9376,7.94444444 63.6,7.94444444 L69.6,7.94444444 L69.6,1.83333333 C69.6,1.15744444 70.1376,0.611111111 70.8,0.611111111 C71.4624,0.611111111 72,1.15744444 72,1.83333333 L72,10.3888889 Z" id="Shape"></path>
                </g>
                <g id="Group" fill="#4695F6">
                    <path d="M70.8,10.3888889 C70.1376,10.3888889 69.6,9.84255556 69.6,9.16666667 L69.6,3.05555556 L62.4,3.05555556 C61.7376,3.05555556 61.2,2.50922222 61.2,1.83333333 C61.2,1.15744444 61.7376,0.611111111 62.4,0.611111111 L72,0.611111111 L72,9.16666667 C72,9.84255556 71.4624,10.3888889 70.8,10.3888889 Z" id="Shape"></path>
                    <path d="M1.2,10.3888889 C0.5376,10.3888889 0,9.84255556 0,9.16666667 L0,0.611111111 L8.4,0.611111111 C9.0624,0.611111111 9.6,1.15744444 9.6,1.83333333 C9.6,2.50922222 9.0624,3.05555556 8.4,3.05555556 L2.4,3.05555556 L2.4,9.16666667 C2.4,9.84255556 1.8624,10.3888889 1.2,10.3888889 Z" id="Shape"></path>
                </g>
                <path d="M70.8,30 L1.2,30 C0.5376,30 0,29.553 0,29 C0,28.447 0.5376,28 1.2,28 L70.8,28 C71.4624,28 72,28.447 72,29 C72,29.553 71.4624,30 70.8,30 Z" id="Shape" fill="#4695F6"></path>
            </g>
        </g>
    </g>
</svg>