<?xml version="1.0" encoding="UTF-8" standalone="no"?>
<svg width="88px" height="84px" viewBox="0 0 88 84" version="1.1" xmlns="http://www.w3.org/2000/svg" xmlns:xlink="http://www.w3.org/1999/xlink">
    <!-- Generator: sketchtool 42 (36781) - http://www.bohemiancoding.com/sketch -->
    <title>008E3B23-30AB-4712-9C26-BF1191B0EA39</title>
    <desc>Created with sketchtool.</desc>
    <defs>
        <ellipse id="path-1" cx="25.0771449" cy="25.0166243" rx="25.0771449" ry="25.0166243"></ellipse>
        <mask id="mask-3" maskContentUnits="userSpaceOnUse" maskUnits="objectBoundingBox" x="-1.06603684" y="-1.06603684" width="52.2863635" height="52.1653223">
            <rect x="-1.06603684" y="-1.06603684" width="52.2863635" height="52.1653223" fill="white"></rect>
            <use xlink:href="#path-1" fill="black"></use>
        </mask>
    </defs>
    <g id="Page-1" stroke="none" stroke-width="1" fill="none" fill-rule="evenodd">
        <g id="16---Add-Ons" transform="translate(-688.000000, -956.000000)">
            <g id="booking-forms" transform="translate(689.000000, 957.000000)">
                <g id="Group-31" transform="translate(0.235070, 0.348022)">
                    <g id="csv-copy-5" transform="translate(39.832395, 24.000000)" fill="#2B94B7">
                        <g id="Group-Copy" transform="translate(0.137569, 0.161670)">
                            <rect id="Rectangle-3-Copy-2" x="0" y="0.116247682" width="22.8187589" height="0.568471965"></rect>
                            <rect id="Rectangle-3-Copy-3" x="0" y="1.53742759" width="11.4093795" height="0.568471965"></rect>
                            <rect id="Rectangle-3-Copy-6" x="0" y="3.24284349" width="22.8187589" height="0.568471965"></rect>
                            <rect id="Rectangle-3-Copy-5" x="0" y="4.6640234" width="22.8187589" height="0.568471965"></rect>
                            <rect id="Rectangle-3-Copy-4" x="0" y="6.08520331" width="11.4093795" height="0.568471965"></rect>
                            <rect id="Rectangle-3-Copy-9" x="0" y="7.79061921" width="22.8187589" height="0.568471965"></rect>
                            <rect id="Rectangle-3-Copy-8" x="0" y="9.21179912" width="22.8187589" height="0.568471965"></rect>
                            <rect id="Rectangle-3-Copy-7" x="0" y="10.632979" width="11.4093795" height="0.568471965"></rect>
                            <rect id="Rectangle-3-Copy-12" x="0" y="12.3383949" width="22.8187589" height="0.568471965"></rect>
                            <rect id="Rectangle-3-Copy-11" x="0" y="13.7595748" width="22.8187589" height="0.568471965"></rect>
                            <rect id="Rectangle-3-Copy-13" x="0" y="15.1807547" width="22.8187589" height="0.568471965"></rect>
                        </g>
                    </g>
                    <g id="Group-4">
                        <g id="csv-copy-6" transform="translate(43.547930, 23.153684)">
                            <g id="Group-2">
                                <path d="M0,2.22327822 C0,0.995395565 0.994589248,0 2.21464201,0 L31.4946412,0 L42.6103969,11.0640103 L42.6103969,56.7917691 C42.6103969,58.0157899 41.6198435,59.0080548 40.3943595,59.0080548 L2.21603749,59.0080548 C0.992153781,59.0080548 0,58.0086184 0,56.7847766 L0,2.22327822 Z" id="Rectangle-1" fill="#DDDDDD"></path>
                                <path d="M31.5020544,0 L42.6178102,11.0640103 L33.7247776,11.0640103 C32.4972015,11.0640103 31.5020544,10.0626394 31.5020544,8.8516342 L31.5020544,0 Z" id="Rectangle-2" fill="#B0B0B0"></path>
                            </g>
                            <g id="Group-Copy" transform="translate(10.137569, 19.161670)" fill="#B0B0B0">
                                <rect id="Rectangle-3" x="0" y="0" width="22.8187589" height="1.42117991"></rect>
                                <rect id="Rectangle-3-Copy" x="0" y="3.69506777" width="22.8187589" height="0.568471965"></rect>
                                <rect id="Rectangle-3-Copy-2" x="0" y="5.11624768" width="22.8187589" height="0.568471965"></rect>
                                <rect id="Rectangle-3-Copy-3" x="0" y="6.53742759" width="11.4093795" height="0.568471965"></rect>
                                <rect id="Rectangle-3-Copy-6" x="0" y="8.24284349" width="22.8187589" height="0.568471965"></rect>
                                <rect id="Rectangle-3-Copy-5" x="0" y="9.6640234" width="22.8187589" height="0.568471965"></rect>
                                <rect id="Rectangle-3-Copy-4" x="0" y="11.0852033" width="11.4093795" height="0.568471965"></rect>
                                <rect id="Rectangle-3-Copy-9" x="0" y="12.7906192" width="22.8187589" height="0.568471965"></rect>
                                <rect id="Rectangle-3-Copy-8" x="0" y="14.2117991" width="22.8187589" height="0.568471965"></rect>
                                <rect id="Rectangle-3-Copy-7" x="0" y="15.632979" width="11.4093795" height="0.568471965"></rect>
                                <rect id="Rectangle-3-Copy-12" x="0" y="17.3383949" width="22.8187589" height="0.568471965"></rect>
                                <rect id="Rectangle-3-Copy-11" x="0" y="18.7595748" width="22.8187589" height="0.568471965"></rect>
                                <rect id="Rectangle-3-Copy-13" x="0" y="20.1807547" width="22.8187589" height="0.568471965"></rect>
                            </g>
                        </g>
                        <g id="csv-copy-7" transform="translate(19.000000, 16.530163)">
                            <g id="Group-2">
                                <path d="M0,2.22327822 C0,0.995395565 0.994589248,0 2.21464201,0 L31.4946412,0 L42.6103969,11.0640103 L42.6103969,56.7917691 C42.6103969,58.0157899 41.6198435,59.0080548 40.3943595,59.0080548 L2.21603749,59.0080548 C0.992153781,59.0080548 0,58.0086184 0,56.7847766 L0,2.22327822 Z" id="Rectangle-1" fill="#4695F6"></path>
                                <path d="M31.5020544,0 L42.6178102,11.0640103 L33.7247776,11.0640103 C32.4972015,11.0640103 31.5020544,10.0626394 31.5020544,8.8516342 L31.5020544,0 Z" id="Rectangle-2" fill="#3D87E2"></path>
                            </g>
                            <g id="Group-Copy" transform="translate(10.137569, 19.161670)" fill="#3D87E2">
                                <rect id="Rectangle-3" x="0" y="-3.39544689e-12" width="22.8187589" height="1.42117991"></rect>
                                <rect id="Rectangle-3-Copy" x="0" y="3.69506777" width="22.8187589" height="0.568471965"></rect>
                                <rect id="Rectangle-3-Copy-2" x="0" y="5.11624768" width="22.8187589" height="0.568471965"></rect>
                                <rect id="Rectangle-3-Copy-3" x="0" y="6.53742759" width="11.4093795" height="0.568471965"></rect>
                                <rect id="Rectangle-3-Copy-6" x="0" y="8.24284349" width="22.8187589" height="0.568471965"></rect>
                                <rect id="Rectangle-3-Copy-5" x="0" y="9.6640234" width="22.8187589" height="0.568471965"></rect>
                                <rect id="Rectangle-3-Copy-4" x="0" y="11.0852033" width="11.4093795" height="0.568471965"></rect>
                                <rect id="Rectangle-3-Copy-9" x="0" y="12.7906192" width="22.8187589" height="0.568471965"></rect>
                                <rect id="Rectangle-3-Copy-8" x="0" y="14.2117991" width="22.8187589" height="0.568471965"></rect>
                                <rect id="Rectangle-3-Copy-7" x="0" y="15.632979" width="11.4093795" height="0.568471965"></rect>
                                <rect id="Rectangle-3-Copy-12" x="0" y="17.3383949" width="22.8187589" height="0.568471965"></rect>
                                <rect id="Rectangle-3-Copy-11" x="0" y="18.7595748" width="22.8187589" height="0.568471965"></rect>
                                <rect id="Rectangle-3-Copy-13" x="0" y="20.1807547" width="22.8187589" height="0.568471965"></rect>
                            </g>
                        </g>
                        <g id="Group-32" transform="translate(0.764930, 0.214083)">
                            <mask id="mask-2" fill="white">
                                <use xlink:href="#path-1"></use>
                            </mask>
                            <g id="Oval-199">
                                <use fill="#FFFFFF" fill-rule="evenodd" xlink:href="#path-1"></use>
                                <use stroke-opacity="0.750679348" stroke="#FFFFFF" mask="url(#mask-3)" stroke-width="2.13207369" xlink:href="#path-1"></use>
                            </g>
                            <g id="Group-31-Copy" mask="url(#mask-2)">
                                <g transform="translate(-7.469788, -28.742505)">
                                    <g id="csv-copy-8" transform="translate(52.013376, 0.000000)" opacity="0.2">
                                        <g id="Group-Copy" transform="translate(0.275138, 38.323339)" fill="#000000">
                                            <rect id="Rectangle-3" x="0" y="0" width="45.6375178" height="2.84235982"></rect>
                                            <rect id="Rectangle-3-Copy" x="0" y="7.39013554" width="45.6375178" height="1.13694393"></rect>
                                            <rect id="Rectangle-3-Copy-2" x="0" y="10.2324954" width="45.6375178" height="1.13694393"></rect>
                                            <rect id="Rectangle-3-Copy-3" x="0" y="13.0748552" width="22.8187589" height="1.13694393"></rect>
                                            <rect id="Rectangle-3-Copy-6" x="0" y="16.485687" width="45.6375178" height="1.13694393"></rect>
                                            <rect id="Rectangle-3-Copy-5" x="0" y="19.3280468" width="45.6375178" height="1.13694393"></rect>
                                            <rect id="Rectangle-3-Copy-4" x="0" y="22.1704066" width="22.8187589" height="1.13694393"></rect>
                                            <rect id="Rectangle-3-Copy-9" x="0" y="25.5812384" width="45.6375178" height="1.13694393"></rect>
                                            <rect id="Rectangle-3-Copy-8" x="0" y="28.4235982" width="45.6375178" height="1.13694393"></rect>
                                            <rect id="Rectangle-3-Copy-7" x="0" y="31.2659581" width="22.8187589" height="1.13694393"></rect>
                                            <rect id="Rectangle-3-Copy-12" x="0" y="34.6767898" width="45.6375178" height="1.13694393"></rect>
                                            <rect id="Rectangle-3-Copy-11" x="0" y="37.5191497" width="45.6375178" height="1.13694393"></rect>
                                            <rect id="Rectangle-3-Copy-13" x="0" y="40.3615095" width="45.6375178" height="1.13694393"></rect>
                                        </g>
                                    </g>
                                    <g id="csv-copy-9" transform="translate(0.000000, 27.936116)">
                                        <g id="Group-2" transform="translate(-0.000000, 0.000000)">
                                            <path d="M-7.10542736e-15,4.45094649 C-1.18604935e-14,1.99275662 1.9891785,0 4.44182459,0 L62.9892824,0 L85.2207939,26.1280206 L85.2207939,117.583538 C85.2207939,120.03158 83.2396869,122.01611 80.7887189,122.01611 L4.43207499,122.01611 C1.98430756,122.01611 2.16458709e-13,120.025174 2.1170012e-13,117.565163 L-7.10542736e-15,4.45094649 Z" id="Rectangle-1" fill="#4695F6"></path>
                                            <path d="M63.0041089,4 L85.2356203,26.1280206 L67.4495552,26.1280206 C64.994403,26.1280206 63.0041089,24.1448325 63.0041089,21.6767037 L63.0041089,4 Z" id="Rectangle-2" fill="#2B94B7"></path>
                                        </g>
                                        <g id="Group-Copy" transform="translate(20.275138, 42.323339)">
                                            <rect id="Rectangle-3" fill="#3D87E2" x="0" y="0" width="45.6375178" height="2.84235982"></rect>
                                            <rect id="Rectangle-3-Copy" fill="#3D87E2" x="0" y="7.39013554" width="45.6375178" height="1.13694393"></rect>
                                            <rect id="Rectangle-3-Copy-2" fill="#2B94B7" x="0" y="10.2324954" width="45.6375178" height="1.13694393"></rect>
                                            <rect id="Rectangle-3-Copy-3" fill="#2B94B7" x="0" y="13.0748552" width="22.8187589" height="1.13694393"></rect>
                                            <rect id="Rectangle-3-Copy-6" fill="#2B94B7" x="0" y="16.485687" width="45.6375178" height="1.13694393"></rect>
                                            <rect id="Rectangle-3-Copy-5" fill="#2B94B7" x="0" y="19.3280468" width="45.6375178" height="1.13694393"></rect>
                                            <rect id="Rectangle-3-Copy-4" fill="#2B94B7" x="0" y="22.1704066" width="22.8187589" height="1.13694393"></rect>
                                            <rect id="Rectangle-3-Copy-9" fill="#2B94B7" x="0" y="25.5812384" width="45.6375178" height="1.13694393"></rect>
                                            <rect id="Rectangle-3-Copy-8" fill="#2B94B7" x="0" y="28.4235982" width="45.6375178" height="1.13694393"></rect>
                                            <rect id="Rectangle-3-Copy-7" fill="#2B94B7" x="0" y="31.2659581" width="22.8187589" height="1.13694393"></rect>
                                            <rect id="Rectangle-3-Copy-12" fill="#2B94B7" x="0" y="34.6767898" width="45.6375178" height="1.13694393"></rect>
                                            <rect id="Rectangle-3-Copy-11" fill="#2B94B7" x="0" y="37.5191497" width="45.6375178" height="1.13694393"></rect>
                                            <rect id="Rectangle-3-Copy-13" fill="#2B94B7" x="0" y="40.3615095" width="45.6375178" height="1.13694393"></rect>
                                        </g>
                                    </g>
                                </g>
                            </g>
                            <path d="M12.8907196,16.851624 L13.5950139,16.851624 L15.985346,20.6946033 L15.985346,23.9520871 L17.4152768,23.9520871 L17.4152768,20.6626672 L20.5205743,15.7125691 L18.8878921,15.7125691 L16.7109825,19.3639318 L14.5767574,15.7125691 L12.8907196,15.7125691 L12.8907196,16.851624 Z M22.5054037,24.0798316 C24.2554683,24.0798316 25.5360033,22.8236777 25.5360033,21.1204181 C25.5360033,19.4384494 24.234126,18.1716501 22.5160748,18.1716501 C20.9367482,18.1716501 19.5068174,19.4490947 19.5068174,21.1204181 C19.5068174,22.8130323 20.8940637,24.0798316 22.5054037,24.0798316 L22.5054037,24.0798316 Z M24.148757,21.1310635 C24.148757,22.0465655 23.5298317,22.8449684 22.5267459,22.8449684 C21.5236601,22.8449684 20.8940637,22.0465655 20.8940637,21.1310635 C20.8940637,20.2262069 21.5236601,19.4065132 22.5267459,19.4065132 C23.5298317,19.4065132 24.148757,20.2155615 24.148757,21.1310635 L24.148757,21.1310635 Z M30.4660633,23.9520871 L32.312168,23.9520871 L32.312168,22.8130323 L31.6932427,22.8130323 L31.6932427,18.2993946 L30.3273387,18.2993946 L30.3273387,21.9720479 C29.847138,22.5043165 29.3989507,22.8449684 28.8867367,22.8449684 C28.2464692,22.8449684 28.0650601,22.5149619 28.0650601,21.801722 L28.0650601,18.2993946 L26.699156,18.2993946 L26.699156,22.2168915 C26.699156,23.1536842 27.0086186,24.0798316 28.3745227,24.0798316 C29.0361325,24.0798316 29.5483465,23.8882149 30.4020365,23.2814287 L30.4660633,23.9520871 Z M32.7603553,19.4384494 L33.3792806,19.4384494 L33.3792806,23.9520871 L34.777198,23.9520871 L34.777198,21.3333256 C34.777198,20.3326606 35.1506874,19.4171586 36.2498133,19.4171586 L36.4525647,19.4171586 L36.4525647,18.1716501 C35.5561902,18.1716501 35.0653184,18.5548835 34.777198,19.2468327 L34.7131712,18.2993946 L32.7603553,18.2993946 L32.7603553,19.4384494 Z M15.302394,26.3579412 L13.8724631,26.3579412 L13.8724631,34.5974592 L18.4290337,34.5974592 L18.4290337,33.2987238 L15.302394,33.2987238 L15.302394,26.3579412 Z M21.683727,34.7252036 C23.4337916,34.7252036 24.7143267,33.4690497 24.7143267,31.7657902 C24.7143267,30.0838214 23.4124493,28.8170221 21.6943981,28.8170221 C20.1150716,28.8170221 18.6851407,30.0944668 18.6851407,31.7657902 C18.6851407,33.4584044 20.0723871,34.7252036 21.683727,34.7252036 L21.683727,34.7252036 Z M23.3270803,31.7764356 C23.3270803,32.6919376 22.7081551,33.4903405 21.7050693,33.4903405 C20.7019835,33.4903405 20.0723871,32.6919376 20.0723871,31.7764356 C20.0723871,30.8715789 20.7019835,30.0518853 21.7050693,30.0518853 C22.7081551,30.0518853 23.3270803,30.8609336 23.3270803,31.7764356 L23.3270803,31.7764356 Z M31.3304245,30.0838214 L31.9493497,30.0838214 L31.9493497,28.9447666 L30.103245,28.9447666 L30.0392183,29.7644603 C29.591031,29.2534824 29.1001592,28.8170221 28.1717713,28.8170221 C26.3896934,28.8170221 25.4399632,30.328665 25.4399632,31.8403078 C25.4399632,33.4903405 26.5604314,34.7252036 28.1290868,34.7252036 C28.82271,34.7252036 29.4416352,34.5016508 29.9645204,33.9268007 L29.9645204,34.363261 C29.9645204,35.1616639 29.5376754,35.7897408 28.2998248,35.7897408 C27.0192898,35.7897408 26.2936532,35.1190824 26.2936532,35.1190824 L25.7494258,36.2474918 C25.7494258,36.2474918 26.7204982,37.0033132 28.4278783,37.0033132 C30.4553922,37.0033132 31.3304245,35.938776 31.3304245,34.4697147 L31.3304245,30.0838214 Z M29.9751915,31.8509532 C29.9751915,32.8090367 29.4416352,33.4903405 28.4705628,33.4903405 C27.4568059,33.4903405 26.8272095,32.7664552 26.8272095,31.8403078 C26.8272095,30.9460966 27.4141214,30.0518853 28.4172072,30.0518853 C29.334924,30.0518853 29.9751915,30.8077067 29.9751915,31.8509532 L29.9751915,31.8509532 Z M35.3961233,34.7252036 C37.1461879,34.7252036 38.4267229,33.4690497 38.4267229,31.7657902 C38.4267229,30.0838214 37.1248456,28.8170221 35.4067944,28.8170221 C33.8274678,28.8170221 32.397537,30.0944668 32.397537,31.7657902 C32.397537,33.4584044 33.7847833,34.7252036 35.3961233,34.7252036 L35.3961233,34.7252036 Z M37.0394766,31.7764356 C37.0394766,32.6919376 36.4205513,33.4903405 35.4174655,33.4903405 C34.4143797,33.4903405 33.7847833,32.6919376 33.7847833,31.7764356 C33.7847833,30.8715789 34.4143797,30.0518853 35.4174655,30.0518853 C36.4205513,30.0518853 37.0394766,30.8609336 37.0394766,31.7764356 L37.0394766,31.7764356 Z" id="Your" fill="#FFFFFF" mask="url(#mask-2)"></path>
                        </g>
                    </g>
                </g>
            </g>
        </g>
    </g>
</svg>