<?xml version="1.0" encoding="UTF-8" standalone="no"?>
<svg width="84px" height="84px" viewBox="0 0 84 84" version="1.1" xmlns="http://www.w3.org/2000/svg" xmlns:xlink="http://www.w3.org/1999/xlink">
    <!-- Generator: Sketch 45.2 (43514) - http://www.bohemiancoding.com/sketch -->
    <title>bumbl</title>
    <desc>Created with Sketch.</desc>
    <defs></defs>
    <g id="Page-1" stroke="none" stroke-width="1" fill="none" fill-rule="evenodd">
        <g id="bumbl" fill-rule="nonzero" fill="#4695F6">
            <g id="xj6xcY.tif" transform="translate(6.000000, 2.000000)">
                <path d="M4.29258602,73.0212202 C7.50611831,78.0226737 17.1782204,80.8975249 21.6834666,79.7869659 C12.3342931,72.8951994 8.92385315,63.2467262 7.40372635,51.8103319 C6.05687826,53.7321502 -2.2053653,62.9159214 4.29258602,73.0212202 Z M33.5451814,32.7733036 C34.3328119,27.2598903 34.4982143,22.1481686 33.4585421,17.0206943 C31.2531768,6.22228066 22.8412834,-0.409567841 12.074375,0.307175881 C7.62426288,0.606475457 3.66248165,2.10297334 1.83517898,6.60821959 C-0.0945156556,11.3340024 0.535588715,15.7683619 4.10355471,19.4781014 C5.77232909,21.1870484 7.6514275,22.677094 9.695731,23.9124609 C16.9419313,28.3546967 25.2041748,30.2292572 33.5451814,32.7733036 Z M39.972246,73.0369728 C39.9171119,72.8951994 39.9013593,72.7140444 39.7989673,72.627405 C31.0326402,64.845616 25.1175355,55.4806898 23.5186456,43.6504803 C23.4477589,43.1385205 22.415963,42.4139004 21.7937349,42.3666426 C17.7295617,42.0909719 14.7050607,44.9500705 14.7050607,49.0536252 C14.5525541,55.3414001 16.2476668,61.5358185 19.5804933,66.8698263 C21.6204597,69.9425178 24.1820928,72.6347648 27.1496221,74.824894 C31.1586611,77.8178898 37.3888181,76.6837019 39.972246,73.0290965 L39.972246,73.0369728 Z M52.2671575,61.7344757 C44.9500705,56.2840729 39.7832147,49.5104509 38.0898092,40.4684532 C38.0267988,40.153401 37.5069627,39.7753384 37.1367763,39.6808227 C34.4745854,39.0270894 31.3476924,41.2560837 31.5052185,43.9419035 C31.9699205,52.2750338 35.0574319,59.3715843 42.1146009,64.2548932 C43.7769714,65.3317564 45.811174,65.6718402 47.7334203,65.1942635 C49.6556666,64.7166868 51.2941813,63.4641267 52.2592812,61.7344757 L52.2671575,61.7344757 Z" id="Shape"></path>
                <path d="M38.7908003,9.64059687 C35.9789596,15.6817225 39.6650701,27.1023642 39.6650701,27.1023642 C39.6650701,27.1023642 49.2820381,23.0696963 52.6688491,17.2018493 C56.0556601,11.3340024 56.0399075,3.72549209 52.1805182,1.49649788 C48.3211289,-0.732496331 41.6420226,3.49707926 38.7908003,9.64059687 Z" id="Shape"></path>
                <path d="M63.3648708,30.7963511 C65.0346473,32.552767 66.5153926,33.8917388 67.7362198,35.4433708 C70.2707121,38.5140542 71.5007369,42.4557889 71.1624123,46.4229395 C70.7449682,51.4322692 66.7910633,54.6851831 61.8132387,54.0550787 C53.9999446,53.0626643 47.391725,45.2887516 47.6831482,37.4203233 C47.9036848,31.387074 52.4561888,27.8506132 58.3712936,29.1186982 L59.8205337,29.4101215" id="Shape"></path>
                <path d="M39.9643697,73.0290965 C37.3888181,76.6758256 31.1586611,77.8100135 27.1417458,74.7855125 C24.1741275,72.60549 21.6099528,69.9240349 19.5647407,66.86195 C16.2319142,61.5279422 14.5368015,55.3335238 14.6893081,49.0457489 C14.6893081,44.9421942 17.7295617,42.0752193 21.7779823,42.3587663 C22.4002104,42.3981478 23.4320063,43.1463968 23.502893,43.642604 C25.0781539,55.4570609 31.0090113,64.8377397 39.7832147,72.6195287 C39.9013593,72.7061681 39.9171119,72.8951994 39.9643697,73.0290965 Z" id="Shape"></path>
                <path d="M52.2592812,61.7344757 C51.2947741,63.4778404 49.6474338,64.74045 47.7133126,65.2187489 C45.7791914,65.6970478 43.7332396,65.3477717 42.067343,64.2548932 C34.9786689,59.3715843 31.930539,52.2671575 31.4579607,43.9419035 C31.3083109,41.2324547 34.4273275,39.0270894 37.0895185,39.6808227 C37.4597048,39.7753384 37.9874172,40.1455247 38.0425514,40.4684532 C39.7753384,49.5025746 44.9421942,56.2840729 52.2592812,61.7344757 Z" id="Shape"></path>
            </g>
        </g>
    </g>
</svg>