<?xml version="1.0" encoding="UTF-8" standalone="no"?>
<svg width="100px" height="100px" viewBox="0 0 100 100" version="1.1" xmlns="http://www.w3.org/2000/svg" xmlns:xlink="http://www.w3.org/1999/xlink">
    <!-- Generator: Sketch 3.8.3 (29802) - http://www.bohemiancoding.com/sketch -->
    <title>fb_bot copy</title>
    <desc>Created with Sketch.</desc>
    <defs>
        <linearGradient x1="50%" y1="0%" x2="50%" y2="100%" id="linearGradient-1">
            <stop stop-color="#3AC2ED" offset="0%"></stop>
            <stop stop-color="#1583A7" offset="100%"></stop>
        </linearGradient>
    </defs>
    <g id="new" stroke="none" stroke-width="1" fill="none" fill-rule="evenodd">
        <g id="fb_bot-copy" fill="url(#linearGradient-1)">
            <path d="M72.5091949,79 L59.5790764,79 L56.097262,79 L55.3453208,79 L55.3453208,61.7188992 L61.0175725,61.7188992 C62.4560687,61.7188992 63.3060891,60.0901432 62.4560687,58.9174389 L51.4221496,43.7048582 C50.7192481,42.7276046 49.2644054,42.7276046 48.5615039,43.7048582 L37.5275848,58.9174389 C36.6775644,60.0901432 37.5112383,61.7188992 38.9660809,61.7188992 L44.6383327,61.7188992 L44.6383327,79 L43.8863915,79 L40.404577,79 L25.4147936,79 C16.8328566,78.5276608 10,70.530469 10,61.8654872 C10,55.8879528 13.2529628,50.6759337 18.0751941,47.8581859 C17.6338374,46.669194 17.4049857,45.3987644 17.4049857,44.0631845 C17.4049857,37.9553496 22.3579894,33.020219 28.4879444,33.020219 C29.8120147,33.020219 31.0870454,33.2482449 32.2803433,33.688009 C35.8275439,26.1957315 43.4777278,21 52.3702493,21 C63.8782182,21.0162876 73.3592154,29.7952822 74.4380875,40.9848357 C83.2815693,42.4995788 90,50.6596462 90,59.8946925 C90,69.7649537 82.2844299,78.3159225 72.5091949,79 L72.5091949,79 Z" id="Shape"></path>
        </g>
    </g>
</svg>