<svg xmlns="http://www.w3.org/2000/svg" xmlns:xlink="http://www.w3.org/1999/xlink" width="35" height="27" viewBox="0 0 35 27">
    <defs>
        <path id="a" d="M32.716.004H2.24C1.005.004 0 .986 0 2.193v22.07c0 .37.309.673.688.673.38 0 .688-.302.688-.673V2.193c0-.465.388-.844.864-.844h30.476c.476 0 .864.379.864.844v22.07c0 .37.309.673.688.673.38 0 .688-.302.688-.673V2.193c0-1.207-1.005-2.19-2.24-2.19z"/>
    </defs>
    <g fill="none" fill-rule="nonzero">
        <g>
            <use fill="#BEC6F1" fill-rule="evenodd" xlink:href="#a"/>
            <path stroke="#666" d="M32.716.504H2.24C1.278.504.5 1.264.5 2.193v22.07c0 .092.082.173.188.173s.188-.08.188-.173V2.193c0-.744.614-1.344 1.364-1.344h30.476c.75 0 1.364.6 1.364 1.344v22.07c0 .092.082.173.188.173s.188-.081.188-.173V2.193c0-.928-.778-1.69-1.74-1.69z"/>
        </g>
        <path fill="#333" d="M8.9 22.018c-1.388 0-2.516 1.107-2.516 2.467s1.128 2.467 2.515 2.467c1.387 0 2.515-1.107 2.515-2.467s-1.128-2.467-2.515-2.467zm0 3.947c-.833 0-1.51-.664-1.51-1.48s.677-1.48 1.51-1.48c.831 0 1.508.664 1.508 1.48s-.677 1.48-1.509 1.48z"/>
        <path fill="#67B9F6" d="M32.04 22.018v-2.96a.494.494 0 0 0-.345-.468l-2.838-.928c-1.07-1.775-2.538-3.465-5.786-4.023l-.018-.003c-5.997-.813-10.499.514-13.39 3.944-2.15.03-4.347.472-5.639 1.283a2.405 2.405 0 0 0-1.103 1.93l-.058 1.225a.498.498 0 0 0-.503.494v1.973c0 .272.225.493.503.493h2.012c.279 0 .502-.224.503-.498v-.008c.008-1.901 1.58-3.44 3.521-3.44 1.945 0 3.521 1.546 3.521 3.453-.036.3.205.493.503.493h9.055c.28 0 .503-.225.503-.498v-.008c.008-1.901 1.581-3.44 3.521-3.44 1.945 0 3.522 1.546 3.522 3.453-.036.3.204.493.503.493h2.012a.498.498 0 0 0 .503-.493v-1.973a.498.498 0 0 0-.503-.494z"/>
        <path fill="#404040" d="M32.04 22.018v-2.96a.494.494 0 0 0-.345-.468l-2.838-.928c-1.07-1.775-2.538-3.465-5.786-4.023l-.018-.003c-5.997-.813-10.499.514-13.39 3.944-2.15.03-4.347.472-5.639 1.283a2.405 2.405 0 0 0-1.103 1.93l-.058 1.225a.498.498 0 0 0-.503.494v1.973c0 .272.225.493.503.493h2.012c.279 0 .502-.224.503-.498v-.008c.008-1.901 1.58-3.44 3.521-3.44 1.945 0 3.521 1.546 3.521 3.453-.036.3.205.493.503.493h9.055c.28 0 .503-.225.503-.498v-.008c.008-1.901 1.581-3.44 3.521-3.44 1.945 0 3.522 1.546 3.522 3.453-.036.3.204.493.503.493h2.012a.498.498 0 0 0 .503-.493v-1.973a.498.498 0 0 0-.503-.494zm-13.583-4.686a.25.25 0 0 1-.252.246h-6.56a.248.248 0 0 1-.166-.433c1.745-1.56 3.965-2.453 6.7-2.69a.255.255 0 0 1 .278.248v2.629zm6.043.002a.25.25 0 0 1-.251.244h-4.534a.25.25 0 0 1-.252-.246v-2.694a.25.25 0 0 1 .25-.25 23.58 23.58 0 0 1 3.193.224c.537.093 1.016.22 1.452.377.1.036.164.131.163.236l-.02 2.11zm2.626.244h-1.368a.25.25 0 0 1-.251-.249l.013-1.337c.002-.204.239-.314.406-.194.544.39.996.854 1.4 1.381.125.164.01.4-.2.4z"/>
        <path fill="#333" d="M26.003 22.018c-1.387 0-2.516 1.107-2.516 2.467s1.129 2.467 2.516 2.467c1.386 0 2.515-1.107 2.515-2.467s-1.129-2.467-2.515-2.467zm0 3.947c-.832 0-1.51-.664-1.51-1.48s.678-1.48 1.51-1.48 1.509.664 1.509 1.48-.677 1.48-1.51 1.48z"/>
        <path fill="#67B9F6" d="M26.046 6.706c0 .266.22.48.492.48a.486.486 0 0 0 .491-.48v-.96c0-.266-.22-.481-.491-.481a.486.486 0 0 0-.492.48v.961zM26.046 9.589c0 .265.22.48.492.48a.486.486 0 0 0 .491-.48v-.961c0-.265-.22-.48-.491-.48a.486.486 0 0 0-.492.48v.96zM26.538 4.304a.486.486 0 0 0 .491-.48v-.961c0-.266-.22-.48-.491-.48a.486.486 0 0 0-.492.48v.96c0 .266.22.481.492.481zM26.053 12.491c0 .265.22.48.492.48a.486.486 0 0 0 .492-.48v-.96c0-.266-.22-.481-.492-.481a.486.486 0 0 0-.492.48v.961zM31.067 13.913a.486.486 0 0 0-.491.48v.96c0 .266.22.481.491.481a.486.486 0 0 0 .492-.48v-.961c0-.265-.22-.48-.492-.48zM31.067 5.265a.486.486 0 0 0-.491.48v.961c0 .266.22.48.491.48a.486.486 0 0 0 .492-.48v-.96c0-.266-.22-.481-.492-.481zM31.067 2.382a.486.486 0 0 0-.491.48v.962c0 .265.22.48.491.48a.486.486 0 0 0 .492-.48v-.961c0-.266-.22-.48-.492-.48zM31.067 11.03a.486.486 0 0 0-.491.48v.961c0 .266.22.48.491.48a.486.486 0 0 0 .492-.48v-.96c0-.266-.22-.481-.492-.481zM31.067 8.147a.486.486 0 0 0-.491.48v.962c0 .265.22.48.491.48a.486.486 0 0 0 .492-.48v-.961c0-.265-.22-.48-.492-.48zM8.419 4.304a.486.486 0 0 0 .491-.48v-.961c0-.266-.22-.48-.491-.48a.486.486 0 0 0-.492.48v.96c0 .266.22.481.492.481zM7.927 6.706c0 .266.22.48.492.48a.486.486 0 0 0 .491-.48v-.96c0-.266-.22-.481-.491-.481a.486.486 0 0 0-.492.48v.961zM7.963 9.609c0 .265.22.48.492.48a.486.486 0 0 0 .492-.48v-.961c0-.266-.22-.48-.492-.48a.486.486 0 0 0-.492.48v.96zM12.486 9.609c0 .265.22.48.492.48a.486.486 0 0 0 .491-.48v-.961c0-.266-.22-.48-.491-.48a.486.486 0 0 0-.492.48v.96zM17.008 9.609c0 .265.22.48.492.48a.486.486 0 0 0 .492-.48v-.961c0-.266-.22-.48-.492-.48a.486.486 0 0 0-.492.48v.96zM21.53 9.609c0 .265.22.48.492.48a.486.486 0 0 0 .492-.48v-.961c0-.266-.22-.48-.492-.48a.486.486 0 0 0-.491.48v.96zM21.53 6.726c0 .265.22.48.492.48a.486.486 0 0 0 .492-.48v-.96c0-.266-.22-.481-.492-.481a.486.486 0 0 0-.491.48v.961zM21.53 11.752c0 .164.22.298.492.298s.492-.134.492-.298v-.404c0-.165-.22-.298-.492-.298-.271 0-.491.133-.491.298v.404zM22.008 4.304a.486.486 0 0 0 .491-.48v-.961c0-.266-.22-.48-.491-.48a.486.486 0 0 0-.492.48v.96c0 .266.22.481.492.481zM17.478 4.304a.486.486 0 0 0 .492-.48v-.961c0-.266-.22-.48-.492-.48a.486.486 0 0 0-.491.48v.96c0 .266.22.481.491.481zM17.008 11.752c0 .164.22.298.492.298s.492-.134.492-.298v-.404c0-.165-.22-.298-.492-.298s-.492.133-.492.298v.404zM17.008 6.726c0 .265.22.48.492.48a.486.486 0 0 0 .492-.48v-.96c0-.266-.22-.481-.492-.481a.486.486 0 0 0-.492.48v.961zM12.948 4.304a.486.486 0 0 0 .492-.48v-.961c0-.266-.22-.48-.492-.48a.486.486 0 0 0-.491.48v.96c0 .266.22.481.491.481zM12.486 6.726c0 .265.22.48.492.48a.486.486 0 0 0 .491-.48v-.96c0-.266-.22-.481-.491-.481a.486.486 0 0 0-.492.48v.961zM12.486 12.183c0 .265.22.48.492.48a.486.486 0 0 0 .491-.48v-.653c0-.265-.22-.48-.491-.48a.486.486 0 0 0-.492.48v.653zM7.963 15.065c0 .266.22.48.492.48a.486.486 0 0 0 .492-.48v-.652c0-.265-.22-.48-.492-.48a.486.486 0 0 0-.492.48v.652zM3.889 4.304a.486.486 0 0 0 .491-.48v-.961c0-.266-.22-.48-.491-.48a.486.486 0 0 0-.492.48v.96c0 .266.22.481.492.481zM3.397 6.706c0 .266.22.48.492.48a.486.486 0 0 0 .491-.48v-.96c0-.266-.22-.481-.491-.481a.486.486 0 0 0-.492.48v.961zM3.397 9.589c0 .265.22.48.492.48a.486.486 0 0 0 .491-.48v-.961c0-.265-.22-.48-.491-.48a.486.486 0 0 0-.492.48v.96zM3.441 15.374c0 .265.22.48.492.48a.486.486 0 0 0 .491-.48v-.961c0-.265-.22-.48-.491-.48a.486.486 0 0 0-.492.48v.96zM3.441 12.491c0 .265.22.48.492.48a.486.486 0 0 0 .491-.48v-.96c0-.266-.22-.481-.491-.481a.486.486 0 0 0-.492.48v.961zM7.963 12.491c0 .265.22.48.492.48a.486.486 0 0 0 .492-.48v-.96c0-.266-.22-.481-.492-.481a.486.486 0 0 0-.492.48v.961z"/>
    </g>
</svg>
