<?xml version="1.0" encoding="UTF-8" standalone="no"?>
<svg width="87px" height="84px" viewBox="0 0 87 84" version="1.1" xmlns="http://www.w3.org/2000/svg" xmlns:xlink="http://www.w3.org/1999/xlink">
    <!-- Generator: sketchtool 42 (36781) - http://www.bohemiancoding.com/sketch -->
    <title>BACC2F94-FBA2-4420-A894-7AEE2B5A69AC</title>
    <desc>Created with sketchtool.</desc>
    <defs></defs>
    <g id="Page-1" stroke="none" stroke-width="1" fill="none" fill-rule="evenodd">
        <g id="16---Add-Ons" transform="translate(-964.000000, -957.000000)">
            <g id="connect-sms-account" transform="translate(964.000000, 957.000000)">
                <path d="M0,46.5 C0,53.343 2.286,59.7045 6.2025,65.0145 C5.99464795,67.4929691 6.01374686,71.929904 4.83333333,75.3103448 C3.65291981,78.6907857 1.56686781,81.5860588 1.56686781,81.5860588 C0.701510613,82.9192417 1.27924848,83.7923084 2.85136504,83.4993298 C2.85136504,83.4993298 12.705,82.2135 21.4095,77.0235 C24.1215,75.345 27.144,73.4085 27.8835,72.8295 C28.335,72.204 29.202,72.015 29.8755,72.423 C30.3225,72.6945 30.606,73.191 30.6075,73.713 C30.612,74.586 27.5027444,76.5762785 27.5027444,76.5762785 C26.1928661,77.4951265 26.396629,78.5216047 27.9654799,78.8481092 C27.9654799,78.8481092 33.1635,80.121 37.4985,80.121 C58.209,80.121 74.9985,65.0685 74.9985,46.5 C74.9985,27.9315 58.2105,12.879 37.5,12.879 C16.7895,12.879 0,27.9315 0,46.5 Z" id="Shape" fill="#4695F6"></path>
                <path d="M49.5,0 C34.545,0 21.6375,7.851 15.6165,19.206 C21.777,15.2295 29.3295,12.879 37.5,12.879 C58.2105,12.879 75,27.9315 75,46.5 C75,53.6025 72.537,60.186 68.3445,65.6145 C76.743,69.672 84.1467496,70.6182954 84.1467496,70.6182954 C85.7225563,70.8959315 86.190038,70.1195688 85.251958,68.8078366 C85.251958,68.8078366 83.8876961,67.6478579 82.1666667,62.7586207 C80.4456372,57.8693835 81.0104509,54.67539 80.7975,52.1355 C84.714,46.8255 87,40.464 87,33.621 C87,15.0525 70.2105,0 49.5,0 Z" id="Shape" fill="#DDDDDD"></path>
                <path d="M47.75,36.5 L26.75,36.5 C25.922,36.5 25.25,35.8295 25.25,35 C25.25,34.1705 25.922,33.5 26.75,33.5 L47.75,33.5 C48.578,33.5 49.25,34.1705 49.25,35 C49.25,35.8295 48.578,36.5 47.75,36.5 Z M56,47 L18.5,47 C17.672,47 17,46.3295 17,45.5 C17,44.6705 17.672,44 18.5,44 L56,44 C56.828,44 57.5,44.6705 57.5,45.5 C57.5,46.3295 56.828,47 56,47 Z M56,57.5 L18.5,57.5 C17.672,57.5 17,56.8295 17,56 C17,55.1705 17.672,54.5 18.5,54.5 L56,54.5 C56.828,54.5 57.5,55.1705 57.5,56 C57.5,56.8295 56.828,57.5 56,57.5 Z" id="Combined-Shape" fill="#FFFFFF"></path>
            </g>
        </g>
    </g>
</svg>