<?xml version="1.0" encoding="UTF-8" standalone="no"?>
<svg width="60px" height="60px" viewBox="0 0 60 60" version="1.1" xmlns="http://www.w3.org/2000/svg" xmlns:xlink="http://www.w3.org/1999/xlink">
    <!-- Generator: Sketch 44.1 (41455) - http://www.bohemiancoding.com/sketch -->
    <title>customer-app-setup</title>
    <desc>Created with Sketch.</desc>
    <defs></defs>
    <g id="Page-1" stroke="none" stroke-width="1" fill="none" fill-rule="evenodd">
        <g id="customer-app-setup">
            <path d="M40.8247059,3 L19.2735294,3 C17.0905882,3 15.3205882,4.76058511 15.3205882,6.93191489 L15.3205882,53.5818617 C15.3205882,55.7537766 17.09,57.5137766 19.2735294,57.5137766 L40.8247059,57.5137766 C43.0088235,57.5137766 44.7788235,55.7537766 44.7788235,53.5818617 L44.7788235,6.93191489 C44.7782353,4.76058511 43.0088235,3 40.8247059,3 Z M27.4047059,5.32462766 L32.6935294,5.32462766 C32.8835294,5.32462766 33.0382353,5.47851064 33.0382353,5.66808511 C33.0382353,5.85707447 32.8835294,6.01095745 32.6935294,6.01095745 L27.4047059,6.01095745 C27.2141176,6.01095745 27.06,5.85707447 27.06,5.66808511 C27.06,5.47851064 27.2147059,5.32462766 27.4047059,5.32462766 Z M22.1329412,4.49962766 C22.4376471,4.49962766 22.6847059,4.74537234 22.6847059,5.04845745 C22.6847059,5.35154255 22.4382353,5.59728723 22.1329412,5.59728723 C21.8276471,5.59728723 21.5811765,5.35154255 21.5811765,5.04845745 C21.5811765,4.74537234 21.8282353,4.49962766 22.1329412,4.49962766 Z M19.6329412,4.17079787 C20.1205882,4.17079787 20.5152941,4.56398936 20.5152941,5.04845745 C20.5152941,5.53292553 20.1205882,5.92611702 19.6329412,5.92611702 C19.1452941,5.92611702 18.7505882,5.53292553 18.7505882,5.04845745 C18.7505882,4.56398936 19.1452941,4.17079787 19.6329412,4.17079787 Z M31.4294118,55.5179787 L28.67,55.5179787 C27.7947059,55.5179787 27.0858824,54.8129255 27.0858824,53.9434574 C27.0858824,53.0734043 27.7947059,52.3683511 28.67,52.3683511 L31.4294118,52.3683511 C32.3047059,52.3683511 33.0135294,53.0734043 33.0135294,53.9434574 C33.0135294,54.8129255 32.3047059,55.5179787 31.4294118,55.5179787 Z M43.1041176,51.1238298 L16.9947059,51.1238298 L16.9947059,9.3893617 L43.1041176,9.3893617 L43.1041176,51.1238298 Z" id="Shape" fill="#1394FF" fill-rule="nonzero"></path>
            <g id="pos-integrations" transform="translate(20.000000, 20.000000)">
                <path d="M10.5875,9.23125 C10.0625,7.9625 10.675,6.51875 11.921875,5.99375 C13.190625,5.46875 14.634375,6.08125 15.159375,7.328125 C15.684375,8.596875 15.071875,10.040625 13.825,10.565625 C12.578125,11.090625 11.1125,10.478125 10.5875,9.23125 L10.5875,9.23125 Z M10.80625,13.190625 C11.659375,13.321875 12.315625,14.065625 12.315625,14.9625 C12.928125,15.00625 13.5625,14.984375 14.175,14.853125 L14.65625,16.0125 C14.765625,16.296875 15.09375,16.428125 15.378125,16.31875 L16.778125,15.75 C17.0625,15.640625 17.19375,15.3125 17.084375,15.028125 L16.603125,13.86875 C17.346875,13.365625 17.98125,12.73125 18.4625,12.009375 L19.621875,12.490625 C19.90625,12.6 20.234375,12.46875 20.34375,12.184375 L20.9125,10.784375 C21.021875,10.5 20.890625,10.171875 20.60625,10.0625 L19.46875,9.58125 C19.64375,8.728125 19.64375,7.83125 19.46875,6.95625 L20.628125,6.475 C20.9125,6.365625 21.04375,6.0375 20.934375,5.753125 L20.34375,4.353125 C20.234375,4.06875 19.90625,3.9375 19.621875,4.046875 L18.4625,4.528125 C17.959375,3.784375 17.325,3.15 16.603125,2.66875 L17.084375,1.53125 C17.19375,1.246875 17.0625,0.91875 16.778125,0.809375 L15.378125,0.240625 C15.09375,0.13125 14.765625,0.2625 14.65625,0.546875 L14.175,1.70625 C13.321875,1.53125 12.425,1.53125 11.55,1.70625 L11.06875,0.546875 C10.959375,0.2625 10.63125,0.13125 10.346875,0.240625 L8.96875,0.809375 C8.684375,0.91875 8.553125,1.246875 8.6625,1.53125 L9.14375,2.690625 C8.4,3.19375 7.765625,3.828125 7.284375,4.55 L6.125,4.06875 C5.840625,3.959375 5.5125,4.090625 5.403125,4.375 L4.834375,5.775 C4.725,6.059375 4.85625,6.3875 5.140625,6.496875 L6.3,6.978125 C6.190625,7.48125 6.146875,8.028125 6.16875,8.553125 C6.95625,8.6625 7.590625,9.275 7.7,10.0625 C7.721875,10.0625 7.721875,10.084375 7.74375,10.084375 C8.05,9.865625 8.421875,9.734375 8.79375,9.734375 C8.946875,9.734375 9.121875,9.75625 9.253125,9.8 L9.253125,9.778125 C8.421875,7.7875 9.384375,5.490625 11.353125,4.68125 C13.34375,3.85 15.640625,4.8125 16.45,6.803125 C17.28125,8.79375 16.31875,11.090625 14.328125,11.9 C13.234375,12.359375 12.053125,12.271875 11.06875,11.76875 C11.15625,12.25 11.046875,12.753125 10.740625,13.16875 C10.80625,13.16875 10.80625,13.16875 10.80625,13.190625 L10.80625,13.190625 Z" id="Shape" fill="#1394FF"></path>
                <path d="M7.940625,18.9875 C7.459375,19.315625 6.9125,19.534375 6.365625,19.621875 L6.365625,20.34375 C6.365625,20.60625 6.146875,20.803125 5.90625,20.803125 L5.11875,20.803125 C4.85625,20.803125 4.659375,20.584375 4.659375,20.34375 L4.659375,19.621875 C4.1125,19.5125 3.565625,19.29375 3.084375,18.965625 L2.559375,19.46875 C2.384375,19.64375 2.078125,19.64375 1.903125,19.46875 L1.35625,18.921875 C1.18125,18.746875 1.18125,18.440625 1.35625,18.265625 L1.859375,17.7625 C1.53125,17.28125 1.3125,16.734375 1.225,16.1875 L0.503125,16.1875 C0.240625,16.1875 0.04375,15.96875 0.04375,15.728125 L0.04375,14.940625 C0.04375,14.678125 0.2625,14.48125 0.503125,14.48125 L1.225,14.48125 C1.334375,13.934375 1.553125,13.3875 1.88125,12.90625 L1.378125,12.403125 C1.203125,12.228125 1.203125,11.921875 1.378125,11.746875 L1.925,11.2 C2.1,11.025 2.40625,11.025 2.58125,11.2 L3.084375,11.703125 C3.565625,11.375 4.1125,11.15625 4.659375,11.06875 L4.659375,10.346875 C4.659375,10.084375 4.878125,9.8875 5.11875,9.8875 L5.90625,9.8875 C6.16875,9.8875 6.365625,10.10625 6.365625,10.346875 L6.365625,11.06875 C6.9125,11.178125 7.459375,11.396875 7.940625,11.725 L8.44375,11.221875 C8.61875,11.046875 8.925,11.046875 9.1,11.221875 L9.646875,11.76875 C9.821875,11.94375 9.821875,12.25 9.646875,12.425 L9.1875,12.90625 C9.515625,13.3875 9.734375,13.934375 9.821875,14.48125 L10.54375,14.48125 C10.80625,14.48125 11.003125,14.7 11.003125,14.940625 L11.003125,15.728125 C11.003125,15.990625 10.784375,16.1875 10.54375,16.1875 L9.821875,16.1875 C9.7125,16.734375 9.49375,17.28125 9.165625,17.7625 L9.66875,18.265625 C9.84375,18.440625 9.84375,18.746875 9.66875,18.921875 L9.121875,19.46875 C8.946875,19.64375 8.640625,19.64375 8.465625,19.46875 L7.940625,18.9875 Z M7,13.846875 C6.190625,13.0375 4.878125,13.015625 4.046875,13.825 C3.2375,14.634375 3.215625,15.946875 4.025,16.778125 C4.834375,17.609375 6.146875,17.609375 6.978125,16.8 C7.809375,15.990625 7.809375,14.678125 7,13.846875 Z" id="Combined-Shape" fill="#DDDDDD"></path>
            </g>
        </g>
    </g>
</svg>