<svg xmlns="http://www.w3.org/2000/svg" xmlns:xlink="http://www.w3.org/1999/xlink" width="22" height="33" viewBox="0 0 22 33">
    <defs>
        <path id="a" d="M1.59 0h18.198c.878 0 1.59.712 1.59 1.59v29.76a1.59 1.59 0 0 1-1.59 1.59H1.59A1.59 1.59 0 0 1 0 31.35V1.59C0 .712.712 0 1.59 0zm-.402 4.026v24.888H20.19V4.026H1.188z"/>
    </defs>
    <g fill="none" fill-rule="evenodd">
        <g>
            <path fill="#FFF" d="M0 3h21v27H0z"/>
            <use fill="#CBCBCB" xlink:href="#a"/>
            <path stroke="#A7A7A7" d="M1.59.5A1.09 1.09 0 0 0 .5 1.59v29.76c0 .602.488 1.09 1.09 1.09h18.198a1.09 1.09 0 0 0 1.09-1.09V1.59A1.09 1.09 0 0 0 19.787.5H1.59zM.688 3.526H20.69v25.888H.688V3.526z"/>
            <circle cx="11" cy="31" r="1" fill="#A7A7A7"/>
        </g>
        <g fill-rule="nonzero">
            <path fill="#FBC67D" d="M10.48 16.847c1.59 0 2.88-1.533 2.88-3.424 0-1.89-.423-3.423-2.88-3.423-2.458 0-2.882 1.533-2.882 3.423 0 1.891 1.29 3.424 2.882 3.424z"/>
            <path fill="#000" d="M5.038 22.115c-.001-.195-.002-.055 0 0zM15.922 22.162c.003-.03.001-.215 0 0z"/>
            <path fill="#FF7C63" d="M15.916 21.936c-.054-3.294-.494-4.232-3.859-4.826 0 0-.473.59-1.577.59-1.105 0-1.578-.59-1.578-.59-3.329.587-3.795 1.512-3.857 4.719-.005.262-.007.276-.008.245v.346S5.84 24 10.48 24c4.64 0 5.441-1.58 5.441-1.58v-.256c0 .019-.002-.017-.005-.228z"/>
        </g>
    </g>
</svg>
