<svg xmlns="http://www.w3.org/2000/svg" width="14" height="14" viewBox="0 0 14 14">
    <path fill="#418AE4" fill-rule="evenodd" d="M13.495 12.88H.615a.486.486 0 0 0-.483.486c0 .26.223.485.482.485h12.892a.486.486 0 0 0 .483-.485.496.496 0 0 0-.495-.485zM.132 8.588L.12 10.893c0 .13.047.26.141.355a.47.47 0 0 0 .342.142l2.284-.011a.47.47 0 0 0 .341-.143l7.888-7.925a.501.501 0 0 0 0-.697L8.856.319a.495.495 0 0 0-.695 0L6.583 1.916.273 8.244a.527.527 0 0 0-.141.343zm8.382-7.228l1.59 1.598-.895.899-1.59-1.597.895-.9zM1.11 8.8l5.816-5.843 1.59 1.597-5.817 5.83-1.6.013.011-1.597z"/>
</svg>
