<?xml version="1.0" encoding="UTF-8" standalone="no"?>
<svg width="93px" height="72px" viewBox="0 0 93 72" version="1.1" xmlns="http://www.w3.org/2000/svg" xmlns:xlink="http://www.w3.org/1999/xlink">
    <!-- Generator: sketchtool 42 (36781) - http://www.bohemiancoding.com/sketch -->
    <title>E5E66D9A-9F52-4456-9C3F-8AB631B24E47</title>
    <desc>Created with sketchtool.</desc>
    <defs>
        <path d="M5.9773277,0 C2.67614077,0 0,2.671619 0,5.97690498 L0,43.0665733 C0,46.3675268 2.68397642,49.0434783 5.9773277,49.0434783 L64.130192,49.0434783 C67.431379,49.0434783 70.1075197,46.3718593 70.1075197,43.0665733 L70.1075197,5.97690498 C70.1075197,2.67595151 67.4235433,0 64.130192,0 L5.9773277,0 Z" id="path-1"></path>
        <path d="M0,0 L31.3418171,27.800107 C33.3912101,29.6386087 36.7150577,29.6386087 38.7657027,27.800107 L70.1075197,0 L0,0 L0,0 Z" id="path-3"></path>
        <filter x="-50%" y="-50%" width="200%" height="200%" filterUnits="objectBoundingBox" id="filter-4">
            <feOffset dx="0" dy="1" in="SourceAlpha" result="shadowOffsetOuter1"></feOffset>
            <feGaussianBlur stdDeviation="0.5" in="shadowOffsetOuter1" result="shadowBlurOuter1"></feGaussianBlur>
            <feColorMatrix values="0 0 0 0 0   0 0 0 0 0   0 0 0 0 0  0 0 0 0.138983243 0" type="matrix" in="shadowBlurOuter1"></feColorMatrix>
        </filter>
    </defs>
    <g id="Page-1" stroke="none" stroke-width="1" fill="none" fill-rule="evenodd">
        <g id="16---Add-Ons" transform="translate(-1236.000000, -1104.000000)">
            <g id="email-parsing" transform="translate(1236.000000, 1104.000000)">
                <g id="Group-30">
                    <mask id="mask-2" fill="white">
                        <use xlink:href="#path-1"></use>
                    </mask>
                    <use id="Shape" fill="#3D87E2" xlink:href="#path-1"></use>
                    <path d="M38.7657027,27.800107 C36.7163096,29.6386087 33.392462,29.6386087 31.3418171,27.800107 L28.7290601,25.4824883 C20.5552744,32.810087 0,49.0434783 0,49.0434783 L27.0502353,49.0434783 L43.0585363,49.0434783 L70.1075197,49.0434783 C70.1075197,49.0434783 49.5522453,32.810087 41.3784597,25.4824883 L38.7657027,27.800107 L38.7657027,27.800107 Z" id="Shape" fill="#4695F6" mask="url(#mask-2)"></path>
                    <g id="Shape" mask="url(#mask-2)">
                        <use fill="black" fill-opacity="1" filter="url(#filter-4)" xlink:href="#path-3"></use>
                        <use fill="#4695F6" fill-rule="evenodd" xlink:href="#path-3"></use>
                    </g>
                </g>
                <g id="pos_integrations" transform="translate(39.688889, 18.782609)">
                    <path d="M26.9178141,23.522854 C25.5830465,20.2898551 27.1402754,16.6109253 30.3103485,15.2731327 C33.536037,13.93534 37.206648,15.4960981 38.5414157,18.6733556 C39.8761833,21.9063545 38.3189544,25.5852843 35.1488812,26.9230769 C31.9788081,28.2608696 28.2525818,26.7001115 26.9178141,23.522854 L26.9178141,23.522854 Z M27.4739673,33.6120401 C29.6429647,33.9464883 31.3114243,35.8416945 31.3114243,38.1270903 C32.8686532,38.238573 34.4814974,38.1828317 36.0387263,37.8483835 L37.2622633,40.8026756 C37.5403399,41.5273133 38.3745697,41.8617614 39.0975688,41.5830546 L42.6569492,40.1337793 C43.3799484,39.8550725 43.7136403,39.0189521 43.4355637,38.2943144 L42.2120267,35.3400223 C44.1029475,34.057971 45.7157917,32.4414716 46.9393287,30.6020067 L49.8869406,31.8283166 C50.6099398,32.1070234 51.4441695,31.7725753 51.7222461,31.0479376 L53.1682444,27.4804905 C53.446321,26.7558528 53.1126291,25.9197324 52.3896299,25.6410256 L49.4976334,24.4147157 C49.9425559,22.2408027 49.9425559,19.9554069 49.4976334,17.7257525 L52.4452453,16.4994426 C53.1682444,16.2207358 53.5019363,15.3846154 53.2238597,14.6599777 L51.7222461,11.0925307 C51.4441695,10.367893 50.6099398,10.0334448 49.8869406,10.3121516 L46.9393287,11.5384615 C45.6601764,9.6432553 44.0473322,8.02675585 42.2120267,6.80044593 L43.4355637,3.90189521 C43.7136403,3.17725753 43.3799484,2.34113712 42.6569492,2.06243032 L39.0975688,0.613154961 C38.3745697,0.334448161 37.5403399,0.668896321 37.2622633,1.393534 L36.0387263,4.34782609 C33.8697289,3.90189521 31.5895009,3.90189521 29.3648881,4.34782609 L28.1413511,1.393534 C27.8632745,0.668896321 27.0290448,0.334448161 26.3060456,0.613154961 L22.8022806,2.06243032 C22.0792814,2.34113712 21.7455895,3.17725753 22.0236661,3.90189521 L23.2472031,6.85618729 C21.3562823,8.13823857 19.743438,9.75473802 18.519901,11.5942029 L15.5722892,10.367893 C14.84929,10.0891862 14.0150602,10.4236343 13.7369836,11.148272 L12.2909854,14.7157191 C12.0129088,15.4403567 12.3466007,16.2764771 13.0695998,16.5551839 L16.0172117,17.7814939 C15.7391351,19.0635452 15.6279045,20.4570792 15.6835198,21.7948718 C17.6856713,22.0735786 19.2985155,23.6343367 19.5765921,25.6410256 C19.6322074,25.6410256 19.6322074,25.696767 19.6878227,25.696767 C20.4664372,25.1393534 21.4118976,24.8049052 22.357358,24.8049052 C22.7466652,24.8049052 23.1915878,24.8606466 23.5252797,24.9721293 L23.5252797,24.916388 C21.4118976,19.8439242 23.8589716,13.9910814 28.8643503,11.9286511 C33.9253442,9.81047938 39.7649527,12.2630992 41.8227194,17.335563 C43.9361015,22.4080268 41.4890275,28.2608696 36.4280336,30.3232999 C33.6472676,31.4938685 30.6440404,31.270903 28.1413511,29.9888517 C28.3638124,31.2151616 28.0857358,32.4972129 27.3071213,33.5562988 C27.4739673,33.5562988 27.4739673,33.5562988 27.4739673,33.6120401 L27.4739673,33.6120401 Z" id="Shape" fill="#DDDDDD"></path>
                    <path d="M20.1883606,48.3835006 C18.9648236,49.219621 17.5744406,49.7770346 16.1840577,50 L16.1840577,51.8394649 C16.1840577,52.5083612 15.6279045,53.0100334 15.016136,53.0100334 L13.0139845,53.0100334 C12.3466007,53.0100334 11.8460628,52.4526198 11.8460628,51.8394649 L11.8460628,50 C10.4556799,49.7212932 9.0652969,49.1638796 7.8417599,48.3277592 L6.50699225,49.6098105 C6.06206971,50.0557414 5.28345525,50.0557414 4.8385327,49.6098105 L3.44814974,48.2162765 C3.00322719,47.7703456 3.00322719,46.9899666 3.44814974,46.5440357 L4.72730207,45.2619844 C3.89307229,44.0356745 3.3369191,42.6421405 3.11445783,41.2486065 L1.27915232,41.2486065 C0.611768503,41.2486065 0.111230637,40.6911929 0.111230637,40.0780379 L0.111230637,38.0713489 C0.111230637,37.4024526 0.667383821,36.9007804 1.27915232,36.9007804 L3.11445783,36.9007804 C3.39253442,35.5072464 3.94868761,34.1137124 4.78291738,32.8874025 L3.50376506,31.6053512 C3.05884251,31.1594203 3.05884251,30.3790412 3.50376506,29.9331104 L4.89414802,28.5395764 C5.33907057,28.0936455 6.11768503,28.0936455 6.56260757,28.5395764 L7.8417599,29.8216276 C9.0652969,28.9855072 10.4556799,28.4280936 11.8460628,28.2051282 L11.8460628,26.3656633 C11.8460628,25.696767 12.402216,25.1950948 13.0139845,25.1950948 L15.016136,25.1950948 C15.6835198,25.1950948 16.1840577,25.7525084 16.1840577,26.3656633 L16.1840577,28.2051282 C17.5744406,28.483835 18.9648236,29.0412486 20.1883606,29.877369 L21.4675129,28.5953177 C21.9124355,28.1493868 22.6910499,28.1493868 23.1359725,28.5953177 L24.5263554,29.9888517 C24.971278,30.4347826 24.971278,31.2151616 24.5263554,31.6610925 L23.3584337,32.8874025 C24.1926635,34.1137124 24.7488167,35.5072464 24.971278,36.9007804 L26.8065835,36.9007804 C27.4739673,36.9007804 27.9745052,37.458194 27.9745052,38.0713489 L27.9745052,40.0780379 C27.9745052,40.7469342 27.418352,41.2486065 26.8065835,41.2486065 L24.971278,41.2486065 C24.6932014,42.6421405 24.1370482,44.0356745 23.3028184,45.2619844 L24.5819707,46.5440357 C25.0268933,46.9899666 25.0268933,47.7703456 24.5819707,48.2162765 L23.1915878,49.6098105 C22.7466652,50.0557414 21.9680508,50.0557414 21.5231282,49.6098105 L20.1883606,48.3835006 Z M17.7969019,35.2842809 C15.7391351,33.2218506 12.402216,33.1661093 10.2888339,35.2285396 C8.23106713,37.2909699 8.17545181,40.6354515 10.2332186,42.7536232 C12.2909854,44.8717949 15.6279045,44.8717949 17.7412866,42.8093645 C19.8546687,40.7469342 19.8546687,37.4024526 17.7969019,35.2842809 Z" id="Combined-Shape" fill="#E5E5E5"></path>
                </g>
            </g>
        </g>
    </g>
</svg>