<?xml version="1.0" encoding="UTF-8" standalone="no"?>
<svg width="100px" height="100px" viewBox="0 0 100 100" version="1.1" xmlns="http://www.w3.org/2000/svg" xmlns:xlink="http://www.w3.org/1999/xlink">
    <!-- Generator: Sketch 3.8.3 (29802) - http://www.bohemiancoding.com/sketch -->
    <title>fb_bot</title>
    <desc>Created with Sketch.</desc>
    <defs>
        <linearGradient x1="50%" y1="0%" x2="50%" y2="100%" id="linearGradient-1">
            <stop stop-color="#4695f6" offset="0%"></stop>
            <stop stop-color="#1583A7" offset="100%"></stop>
        </linearGradient>
    </defs>
    <g id="Page-1" stroke="none" stroke-width="1" fill="none" fill-rule="evenodd">
        <g id="fb_bot">
            <g id="Group" transform="translate(8.000000, 7.000000)">
                <path d="M48.7195122,12.4337349 C28.6823171,12.4337349 12.4390244,27.6821598 12.4390244,46.492191 C12.4390244,57.2103871 17.7147932,66.7708228 25.9597031,73.0139648 L25.9597031,86 L38.3128712,79.1263224 C41.6096633,80.0513501 45.10228,80.550647 48.7195122,80.550647 C68.7567073,80.550647 85,65.3022221 85,46.492191 C85,27.6821598 68.7567073,12.4337349 48.7195122,12.4337349 L48.7195122,12.4337349 Z" id="Shape-Copy" fill="#DDDDDD"></path>
                <path d="M36.2804878,0 C16.2432927,0 0,15.2484249 0,34.058456 C0,44.7766522 5.27576882,54.3370878 13.5206787,60.5802299 L13.5206787,73.5662651 L25.8738468,66.6925875 C29.1706389,67.6176151 32.6632556,68.1169121 36.2804878,68.1169121 C56.3176829,68.1169121 72.5609756,52.8684872 72.5609756,34.058456 C72.5609756,15.2484249 56.3176829,0 36.2804878,0 L36.2804878,0 Z" id="Shape" fill="url(#linearGradient-1)"></path>
                <polygon id="Path" fill="#FFFFFF" points="39.8860021 45.8653875 30.6468717 35.874907 12.6193001 45.8653875 32.4496288 24.5220884 41.9141039 34.5125688 59.7163309 24.5220884"></polygon>
            </g>
        </g>
    </g>
</svg>