<?xml version="1.0" encoding="UTF-8" standalone="no"?>
<svg width="84px" height="84px" viewBox="0 0 84 84" version="1.1" xmlns="http://www.w3.org/2000/svg" xmlns:xlink="http://www.w3.org/1999/xlink">
    <!-- Generator: Sketch 45.2 (43514) - http://www.bohemiancoding.com/sketch -->
    <title>fugu-for-customer</title>
    <desc>Created with Sketch.</desc>
    <defs></defs>
    <g id="Page-1" stroke="none" stroke-width="1" fill="none" fill-rule="evenodd">
        <g id="fugu-for-customer" fill="#4695F6">
            <path d="M41.5,76.9997193 C20.7901275,76.9997193 4,61.3309037 4,42.0006205 C4,22.6705064 20.7901275,7 41.5,7 C62.2098725,7 78.9980463,22.6705064 79,42.0006205 C79,50.4268148 75.8079362,58.1579136 70.490731,64.1981938 C70.3939318,67.5069566 71.1258756,72.2676254 75.1481033,76.3509522 C68.4957799,78.8185328 61.7921263,73.5450388 60.3111877,72.2733741 C54.7804914,75.272379 48.3585323,76.9997193 41.5,76.9997193 Z M23.247555,43.4885025 C29.0733208,43.4885025 33.7960371,38.878835 33.7960371,33.192522 C33.7960371,27.5062089 29.0733208,22.8965414 23.247555,22.8965414 C17.4217892,22.8965414 12.6990729,27.5062089 12.6990729,33.192522 C12.6990729,38.878835 17.4217892,43.4885025 23.247555,43.4885025 Z" id="Fill-1"></path>
        </g>
    </g>
</svg>