<?xml version="1.0" encoding="UTF-8" standalone="no"?>
<svg width="113px" height="70px" viewBox="0 0 113 70" version="1.1" xmlns="http://www.w3.org/2000/svg" xmlns:xlink="http://www.w3.org/1999/xlink">
    <!-- Generator: sketchtool 42 (36781) - http://www.bohemiancoding.com/sketch -->
    <title>6D497A24-F67C-4323-A934-D638331A3D1B</title>
    <desc>Created with sketchtool.</desc>
    <defs>
        <polygon id="path-1" points="67.0659521 0.5698 0 0.5698 0 65.7159183 67.0659521 65.7159183 67.0659521 0.5698"></polygon>
    </defs>
    <g id="Page-1" stroke="none" stroke-width="1" fill="none" fill-rule="evenodd">
        <g id="16---Add-Ons" transform="translate(-1227.000000, -1487.000000)">
            <g id="Group-6-Copy-23" transform="translate(1160.000000, 1442.000000)">
                <g id="gloria-integration" transform="translate(66.000000, 45.000000)">
                    <path d="M77.2276263,43.0868496 C88.3056449,36.9439512 112.599614,44.2454359 112.599614,44.2454359 C113.655411,44.5383237 113.683272,45.0976154 112.655899,45.5254134 C112.655899,45.5254134 109.346939,46.6666667 106.416449,48.9929374 C104.759282,50.308424 103.465965,52.4534619 101.58036,55.2060122 C93.9056735,66.3670285 88.3468974,75.1187927 72.6657859,66.4538171 C76.7755102,61.8333333 75.6122449,63 80.2653061,58.3333333 C84.9183673,53.6666667 91.6375699,50.4578345 91.6375699,50.4578345 C92.6177606,49.9511777 92.5132928,49.5791171 91.4244853,49.675659 C91.4244853,49.675659 78.0939291,49.5248293 67.6295416,62.6247033 C67.6295416,62.6247033 66.1599208,49.2349553 77.2276263,43.0868496 Z" id="Fill-4" fill="#4695F6"></path>
                    <mask id="mask-2" fill="white">
                        <use xlink:href="#path-1"></use>
                    </mask>
                    <g id="Clip-2"></g>
                    <path d="M60.7505132,24.8553382 C47.4259515,7.02722033 1.95599389,0.863662801 1.95599389,0.863662801 C0.875348575,0.700599945 0.698139555,1.12499124 1.54052387,1.83759513 C1.54052387,1.83759513 6.97959184,5.83333333 9.30612245,11.6666667 C11.6326531,17.5 11.3451342,16.2584534 13.2534011,26.5945821 C17.5642887,49.9667569 20.2542963,67.9892813 51.4755732,65.482826 C48.8571429,58.3333333 47.6938776,54.8333333 44.2040816,46.6666667 C40.7142857,38.5 31.4364415,25.1105129 31.4364415,25.1105129 C30.81695,24.200754 31.1107927,23.8541865 32.0879758,24.3737071 C32.0879758,24.3737071 54.7981193,34.5287976 62.1909134,63.0058789 C62.1909134,63.0058789 74.0647617,42.6956065 60.7505132,24.8553382 Z" id="Fill-1" fill="#4695F6" mask="url(#mask-2)"></path>
                </g>
            </g>
        </g>
    </g>
</svg>