<svg xmlns="http://www.w3.org/2000/svg" xmlns:xlink="http://www.w3.org/1999/xlink" width="37" height="22" viewBox="0 0 37 22">
    <defs>
        <linearGradient id="a" x1="21.771%" x2="131.373%" y1="50%" y2="50%">
            <stop offset="0%" stop-color="#9CD218"/>
            <stop offset="100%" stop-color="#65BB28"/>
        </linearGradient>
        <path id="b" d="M21.179.18H0v20.474h21.179V.179z"/>
        <linearGradient id="c" x1="100%" x2="0%" y1="91.563%" y2="0%">
            <stop offset="0%" stop-color="#A0D417"/>
            <stop offset="100%" stop-color="#3BAA32"/>
        </linearGradient>
    </defs>
    <g fill="none" fill-rule="evenodd">
        <path fill="url(#a)" d="M24.388 13.542c2.332-1.288 6.256-1.11 11.773.53-1.087.397-1.939.838-2.556 1.326-.523.413-.932 1.087-1.527 1.952-2.424 3.508-4.179 6.259-9.13 3.535 1.297-1.452.93-1.085 2.399-2.552.98-.977 2.193-1.8 3.64-2.466-2.884-.201-5.427 1.07-7.63 3.815 0 0-.464-4.208 3.03-6.14z"/>
        <mask id="d" fill="#fff">
            <use xlink:href="#b"/>
        </mask>
        <path fill="url(#c)" d="M19.184 7.812C16.38 4.076 9.984 1.532 0 .179c1.47 1.103 2.449 2.265 2.939 3.488.734 1.833.644 1.443 1.246 4.691 1.362 7.346 2.211 13.01 12.07 12.222-.282-2.432-.357-3.863-1.46-6.43-.734-1.71-1.756-3.116-3.066-4.215 4.125 1.573 6.762 4.862 7.91 9.867 0 0 3.75-6.383-.455-11.99z" mask="url(#d)"/>
    </g>
</svg>
