<?xml version="1.0" encoding="UTF-8" standalone="no"?>
<svg width="84px" height="84px" viewBox="0 0 84 84" version="1.1" xmlns="http://www.w3.org/2000/svg" xmlns:xlink="http://www.w3.org/1999/xlink">
    <!-- Generator: Sketch 44.1 (41455) - http://www.bohemiancoding.com/sketch -->
    <title>Laundry</title>
    <desc>Created with Sketch.</desc>
    <defs></defs>
    <g id="Page-1" stroke="none" stroke-width="1" fill="none" fill-rule="evenodd">
        <g id="Laundry" stroke="#4695F6" fill-rule="nonzero" fill="#4695F6">
            <path d="M77.9616582,55.8891 L44.1025625,38.0484 L44.1025625,35.796 C44.1166992,35.79255 44.1308359,35.78775 44.1472285,35.7843 C49.4814336,34.46715 53.0625352,31.15305 53.0625352,26.89215 C53.0625352,21.98085 49.0701152,18 44.1472285,18 C39.6003184,18 35.647752,21.31875 35.2577891,25.76595 C35.2460586,25.8339 35.2389902,25.90425 35.2389902,25.9746 C35.2389902,25.98285 35.236584,25.99095 35.236584,26.0004 C35.236584,26.88405 35.9556016,27.6 36.8415527,27.6 C37.7275039,27.6 38.4465215,26.88405 38.4465215,26.0004 L38.4558457,26.0004 C38.5850312,24.61635 39.2595332,23.6238 39.8516211,23.00505 C40.9466152,21.85785 42.5139863,21.2004 44.1470781,21.2004 C47.2935508,21.2004 49.8525977,23.75385 49.8525977,26.89215 C49.8525977,28.08975 49.3520977,29.1879 48.3604219,30.15585 C47.2019629,31.2867 45.4795391,32.15865 43.3763262,32.67765 C43.3763262,32.67765 40.9395469,33.42765 40.8972871,33.44295 L40.8972871,33.9996 L40.8948809,33.9996 L40.8948809,38.0484 L7.04074805,55.8891 C5.22433008,56.8218 4,58.575 4,60.5859 C4,63.5766 6.7094375,66 10.0508164,66 C10.111875,66 10.2317363,66 10.2317363,66 L74.7705195,66 C74.7705195,66 74.8903809,66 74.9514395,66 C78.2929687,66 81,63.5766 81,60.5859 C81,58.575 79.7780762,56.8218 77.9616582,55.8891 Z M74.9514395,62.7984 L74.7705195,62.7984 L10.2318867,62.7984 L10.0509668,62.7984 C8.51186914,62.7984 7.2099375,61.7859 7.2099375,60.5859 C7.2099375,59.8452 7.69630078,59.1516 8.51171875,58.72965 L8.52585547,58.725 L8.53999219,58.7157 L42.4977441,40.82235 L76.4625645,58.7157 L76.4767012,58.725 L76.4908379,58.72965 C77.3062559,59.15145 77.7926191,59.84535 77.7926191,60.5859 C77.7924687,61.7859 76.4906875,62.7984 74.9514395,62.7984 Z" id="Shape"></path>
        </g>
    </g>
</svg>