<svg xmlns="http://www.w3.org/2000/svg" width="28" height="37" viewBox="0 0 28 37">
    <g fill="none" fill-rule="nonzero">
        <path fill="#CFDCE5" d="M.025 32.799v2.126c0 1.106.888 2.003 1.984 2.003H25.99a1.994 1.994 0 0 0 1.984-2.003V2.003A1.994 1.994 0 0 0 25.991 0H2.01A1.994 1.994 0 0 0 .025 2.003v28.52"/>
        <path fill="#BAC6CC" d="M.025 7.19h27.95v1.05H.025z"/>
        <ellipse cx="14" cy="22.331" fill="#FFF" rx="10.676" ry="10.78"/>
        <path fill="#BAC6CC" d="M14 33.549c-6.126 0-11.11-5.033-11.11-11.219 0-6.185 4.984-11.218 11.11-11.218 6.126 0 11.11 5.033 11.11 11.218 0 6.186-4.984 11.219-11.11 11.219zm0-21.562c-5.648 0-10.243 4.64-10.243 10.343 0 5.704 4.595 10.344 10.243 10.344 5.648 0 10.243-4.64 10.243-10.344 0-5.703-4.595-10.343-10.243-10.343z"/>
        <path fill="#3E9EE6" d="M17.573 24.802a7.095 7.095 0 0 0 1.497 2.412A6.954 6.954 0 0 1 14 29.407c-3.87 0-7.009-3.168-7.009-7.077 0-3.908 3.139-7.076 7.01-7.076 1.994 0 3.793.843 5.069 2.194a7.092 7.092 0 0 0-1.938 4.882c0 .87.156 1.703.441 2.472z"/>
        <path fill="#67B9F6" d="M17.132 22.33c0 .87.156 1.703.44 2.472a4.316 4.316 0 0 1-3.572 1.9c-2.392 0-4.33-1.957-4.33-4.372 0-2.414 1.938-4.372 4.33-4.372 1.483 0 2.793.753 3.573 1.9a7.097 7.097 0 0 0-.441 2.472z"/>
        <ellipse cx="23.052" cy="3.778" fill="#415E72" rx="1.69" ry="1.706"/>
        <path fill="#BAC6CC" d="M23.051 5.922a2.136 2.136 0 0 1-2.123-2.144c0-1.182.953-2.144 2.123-2.144 1.171 0 2.124.962 2.124 2.144a2.136 2.136 0 0 1-2.124 2.144zm0-3.413c-.692 0-1.256.57-1.256 1.269 0 .7.563 1.269 1.256 1.269.693 0 1.257-.57 1.257-1.27 0-.699-.564-1.268-1.257-1.268z"/>
        <g fill="#415E72">
            <path d="M2.511 2.071h3.9v1.313h-3.9zM2.511 4.434h3.9v1.313h-3.9zM8.145 2.071h3.9v1.313h-3.9zM8.145 4.434h3.9v1.313h-3.9z"/>
        </g>
    </g>
</svg>
