<?xml version="1.0" encoding="UTF-8" standalone="no"?>
<svg width="50px" height="273px" viewBox="0 0 50 273" version="1.1" xmlns="http://www.w3.org/2000/svg" xmlns:xlink="http://www.w3.org/1999/xlink">
    <!-- Generator: Sketch 42 (36781) - http://www.bohemiancoding.com/sketch -->
    <title>LOGIN</title>
    <desc>Created with Sketch.</desc>
    <defs></defs>
    <g id="Page-1" stroke="none" stroke-width="1" fill="none" fill-rule="evenodd" opacity="0.100000001">
        <g id="25---Login" transform="translate(-176.000000, -317.000000)" fill="#474747">
            <path d="M76.864,466.868 L76.864,429.4 L64.76,429.4 L64.76,477 L97.06,477 L97.06,466.868 L76.864,466.868 Z M141.416,428.992 C156.172,428.992 167.188,439.328 167.188,453.132 C167.188,467.004 156.172,477.544 141.416,477.544 C126.728,477.544 115.712,467.072 115.712,453.132 C115.712,439.26 126.728,428.992 141.416,428.992 Z M141.552,439.124 C134.208,439.124 128.088,445.176 128.088,453.2 C128.088,461.224 134.276,467.412 141.552,467.412 C148.896,467.412 154.744,461.224 154.744,453.2 C154.744,445.176 148.896,439.124 141.552,439.124 Z M220.316,452.792 L220.316,465.1 C217.46,466.528 214.332,467.412 211.884,467.412 C203.996,467.412 197.944,461.292 197.944,453.2 C197.944,445.244 203.928,439.124 211.748,439.124 C216.168,439.124 220.996,441.096 224.464,444.292 L231.264,436.064 C226.368,431.712 218.888,428.992 211.816,428.992 C196.788,428.992 185.568,439.396 185.568,453.2 C185.568,467.072 196.516,477.544 211,477.544 C217.664,477.544 225.688,474.96 230.788,471.356 L230.788,452.792 L220.316,452.792 Z M267.324,477 L267.324,429.4 L255.22,429.4 L255.22,477 L267.324,477 Z M336.772,477 L336.772,429.4 L325.484,429.4 L325.484,458.776 L303.52,429.4 L292.844,429.4 L292.844,477 L304.2,477 L304.2,447.692 L326.096,477 L336.772,477 Z" id="LOGIN" transform="translate(200.766000, 453.268000) rotate(270.000000) translate(-200.766000, -453.268000) "></path>
        </g>
    </g>
</svg>