<?xml version="1.0" encoding="UTF-8" standalone="no"?>
<svg width="310px" height="73px" viewBox="0 0 310 73" version="1.1" xmlns="http://www.w3.org/2000/svg" xmlns:xlink="http://www.w3.org/1999/xlink">
    <!-- Generator: Sketch 42 (36781) - http://www.bohemiancoding.com/sketch -->
    <title>admin_outer_logo</title>
    <desc>Created with Sketch.</desc>
    <defs></defs>
    <g id="Page-1" stroke="none" stroke-width="1" fill="none" fill-rule="evenodd">
        <g id="admin_outer_logo" fill-rule="nonzero">
            <g id="tookan-black" transform="translate(2.000000, 11.000000)">
                <g id="Group">
                    <path d="M44.3481522,26 C44.3481522,40.2155844 55.7271739,51.7298701 69.7757609,51.7298701 C83.8243478,51.7298701 95.2033696,40.2155844 95.2033696,26 C95.2033696,11.7844156 83.8243478,0.27012987 69.7757609,0.27012987 C55.7271739,0.27012987 44.3481522,11.7844156 44.3481522,26 Z M84.7253261,26 C84.7253261,34.6441558 78.0180435,41.6675325 69.7757609,41.6675325 C61.5334783,41.6675325 54.8261957,34.6441558 54.8261957,26 C54.8261957,17.3558442 61.5334783,10.3324675 69.7757609,10.3324675 C78.0180435,10.3324675 84.7253261,17.3558442 84.7253261,26 Z" id="Shape" fill="#000000"></path>
                    <path d="M127.204783,0.27012987 C113.156196,0.27012987 101.777174,11.7844156 101.777174,26 C101.777174,40.2155844 113.156196,51.7298701 127.204783,51.7298701 C141.25337,51.7298701 152.632391,40.2155844 152.632391,26 C152.632391,11.7844156 141.25337,0.27012987 127.204783,0.27012987 Z M127.204783,41.1272727 C118.662174,41.1272727 111.721304,34.3402597 111.721304,26 C111.721304,17.6597403 118.662174,10.8727273 127.204783,10.8727273 C135.747391,10.8727273 142.688261,17.6597403 142.688261,26 C142.688261,34.3402597 135.747391,41.1272727 127.204783,41.1272727 Z" id="Shape" fill="#000000"></path>
                    <path d="M282.606848,0.27012987 C269.459239,0.506493506 259.148043,11.9532468 259.148043,25.2571429 L259.148043,51.1896104 L269.626087,51.1896104 L269.626087,24.9194805 C269.626087,18.0311688 274.498043,11.8857143 281.272065,11.0077922 C289.447609,9.96103896 296.455217,16.3766234 296.455217,24.4467532 L296.455217,46.5298701 C296.455217,49.0961039 298.52413,51.1896104 301.060217,51.1896104 L306.96663,51.1896104 L306.96663,24.4467532 C306.933261,10.9402597 295.988043,0.0337662338 282.606848,0.27012987 Z" id="Shape" fill="#000000"></path>
                    <path d="M27.6967391,10.3324675 L27.6967391,51.1896104 L16.6180435,51.1896104 L16.6180435,10.3324675 L0.0667391304,10.3324675 L0.0667391304,5.53766234 C0.0667391304,2.63376623 2.4026087,0.27012987 5.2723913,0.27012987 L44.3481522,0.27012987 L44.3481522,5.06493506 C44.3481522,7.96883117 42.0122826,10.3324675 39.1425,10.3324675 L27.6967391,10.3324675 Z" id="Shape" fill="#000000"></path>
                    <path d="M171.486196,37.0415584 L171.486196,51.1896104 L160.674457,51.1896104 L160.674457,0.641558442 L166.280543,0.641558442 C169.150326,0.641558442 171.486196,3.00519481 171.486196,5.90909091 L171.486196,23.2649351 L193.543478,0.641558442 L205.956957,0.641558442 L187.470217,20.225974 L207.391848,51.1896104 L194.611304,51.1896104 L179.928696,28.025974 L171.486196,37.0415584 Z" id="Shape" fill="#000000"></path>
                    <path d="M252.574239,16.038961 C247.9025,18.638961 244.331957,19.8545455 236.823804,19.8545455 L223.37587,19.8545455 C214.799891,19.8545455 207.859022,26.8779221 207.859022,35.5558442 L207.859022,35.5558442 C207.859022,44.2337662 214.799891,51.2571429 223.37587,51.2571429 L233.019674,51.2571429 C243.798043,51.2571429 252.54087,42.4103896 252.54087,31.5038961 L252.574239,16.038961 L252.574239,16.038961 Z M244.165109,28.2623377 C244.165109,36.2311688 240.19413,42.6805195 230.817283,42.6805195 L224.710652,42.6805195 C221.04,42.6805195 218.070109,39.438961 218.070109,35.4883117 C218.070109,31.5376623 221.04,28.2961039 224.710652,28.2961039 L237.290978,28.2961039 C239.893804,28.2961039 242.162935,28.1272727 244.165109,27.8233766 L244.165109,28.2623377 L244.165109,28.2623377 Z" id="Shape" fill="#000000"></path>
                    <path d="M223.475978,13.0675325 L237.95837,13.0675325 C253.541957,13.0675325 252.674348,0.641558442 252.674348,0.641558442 L228.781739,0.641558442 C220.072283,0.641558442 212.697609,7.4961039 212.163696,16.174026 C215.467283,14.2155844 219.338152,13.0675325 223.475978,13.0675325 Z" id="Shape" fill="#2296FF"></path>
                </g>
            </g>
        </g>
    </g>
</svg>