<?xml version="1.0" encoding="UTF-8" standalone="no"?>
<svg width="300px" height="300px" viewBox="0 0 300 300" version="1.1" xmlns="http://www.w3.org/2000/svg" xmlns:xlink="http://www.w3.org/1999/xlink">
    <!-- Generator: Sketch 43.2 (39069) - http://www.bohemiancoding.com/sketch -->
    <title>man-grey</title>
    <desc>Created with Sketch.</desc>
    <defs></defs>
    <g id="Page-1" stroke="none" stroke-width="1" fill="none" fill-rule="evenodd">
        <g id="man-grey" fill-rule="nonzero" fill="#CCCCCC">
            <path d="M151.177226,99.3182018 C162.552231,99.3182018 171.806928,89.9938855 171.806928,78.5334391 C171.806928,67.0729926 162.55278,57.7486764 151.177226,57.7486764 C139.801122,57.7486764 130.545875,67.0724388 130.545875,78.5328852 C130.545875,89.9933317 139.801122,99.3182018 151.177226,99.3182018 Z M183.242403,238.261369 C183.242403,241.014468 181.027542,243.245857 178.294837,243.245857 L164.948502,243.245857 C164.754997,243.247519 164.589529,243.236996 164.42461,243.220381 C164.253644,243.201551 164.104667,243.178844 163.957889,243.148937 C163.724804,243.094661 163.616507,243.068077 163.50931,243.035401 C163.452138,243.018232 163.397165,242.998294 163.341093,242.97891 C163.252036,242.948449 163.16408,242.917435 163.077772,242.88199 C163.015103,242.856513 162.954083,242.828822 162.892513,242.80113 C162.815001,242.765685 162.738589,242.729132 162.663276,242.68981 C162.600057,242.65658 162.537388,242.622796 162.475818,242.586797 C162.404903,242.546367 162.336187,242.503722 162.267471,242.459416 C162.206451,242.420094 162.14653,242.380772 162.087709,242.339234 C162.020642,242.292159 161.956324,242.242314 161.892005,242.191361 C161.836483,242.147608 161.78096,242.104409 161.727087,242.058441 C161.662218,242.003058 161.600099,241.944352 161.53798,241.885092 C161.489603,241.839124 161.440128,241.794264 161.393401,241.74608 C161.330182,241.680728 161.270261,241.612053 161.210891,241.543378 C161.170211,241.496856 161.127332,241.450888 161.088301,241.402704 C161.027281,241.326829 160.970659,241.247077 160.914037,241.167879 C160.756264,240.94247 160.70349,240.850534 160.650716,240.758598 C160.578152,240.633432 160.512184,240.504389 160.450614,240.372577 C160.335721,240.120583 160.298339,240.012032 160.260958,239.904035 C160.184545,239.679179 160.155959,239.565643 160.127923,239.451554 C160.07405,239.225037 160.056458,239.112055 160.039966,238.999073 C160.023938,238.889722 151.360302,214.382092 146.6595,183.430962 C142.170343,153.873351 141.633921,117.805669 141.633921,117.805669 C141.28924,115.074723 143.207247,112.579156 145.917963,112.232457 C148.631978,111.883543 151.105761,113.817525 151.449892,116.54847 C151.449892,116.54847 153.507261,162.393388 156.459999,181.715939 C159.453136,201.302858 169.287518,233.276881 169.287518,233.276881 L178.294837,233.276881 C181.026993,233.276881 183.242403,235.50827 183.242403,238.261369 Z M188.067929,170.318916 C187.463227,170.563709 186.838734,170.67946 186.224136,170.67946 C184.263801,170.67946 182.408463,169.497583 181.631695,167.552525 L172.074097,139.522531 C167.321135,127.609604 162.839739,119.971152 155.196299,118.701216 C152.758248,118.314087 136.18775,118.372239 133.836007,118.775983 C124.858373,120.466278 125.122793,128.610378 119.407254,138.508465 L119.23299,138.811411 L128.776295,162.899782 C129.761411,165.467347 128.494284,168.35392 125.945738,169.346387 C123.398841,170.337746 120.532551,169.061717 119.546886,166.494705 L109.146552,140.173838 C108.605068,138.762674 108.728757,137.180375 109.483536,135.87167 L110.852912,133.497946 C117.421631,122.121682 118.928989,111.441585 132.026297,108.975925 C135.559958,108.308557 153.664753,108.342895 156.807007,108.866266 C170.346297,111.115932 176.525807,123.950989 181.25568,135.805764 L190.813279,163.835758 C191.832477,166.388923 190.603282,169.291557 188.067929,170.318916 Z M155.29525,187.086734 L130.960921,233.276327 L137.42739,233.276327 C140.160096,233.276327 142.374956,235.507716 142.374956,238.260815 C142.374956,241.013914 140.160096,243.245303 137.42739,243.245303 L124.094798,243.245303 C123.897995,243.248073 123.734725,243.236996 123.571456,243.220381 C123.383448,243.198782 123.255361,243.178844 123.127824,243.154475 C123.082196,243.145614 123.037119,243.136199 122.992041,243.12623 C122.894189,243.104076 122.796337,243.0786 122.699035,243.050355 C122.642413,243.03374 122.585791,243.018232 122.530268,243.00051 C122.423071,242.966172 122.377993,242.944573 122.330166,242.926296 C122.24111,242.892512 122.152054,242.859283 122.065197,242.820514 C121.991533,242.787838 121.920618,242.751839 121.849153,242.71584 C121.778788,242.680395 121.708422,242.645503 121.640256,242.606735 C121.557796,242.560213 121.478635,242.509815 121.399474,242.458862 C121.3467,242.425078 121.293926,242.391848 121.242801,242.355849 C121.157593,242.296589 121.075683,242.233452 120.994323,242.168654 C120.951994,242.13487 120.909115,242.101086 120.867886,242.065641 C120.787075,241.996966 120.710113,241.925522 120.634251,241.851862 C120.59467,241.813648 120.55509,241.775987 120.517158,241.736111 C120.447343,241.663559 120.380276,241.588792 120.315407,241.512363 C120.274727,241.465287 120.234597,241.417658 120.195566,241.368921 C120.138944,241.297476 120.08562,241.22437 120.032846,241.149603 C119.990517,241.090343 119.949288,241.029975 119.909707,240.9685 C119.866278,240.900932 119.825598,240.831703 119.785468,240.762474 C119.743689,240.690476 119.703009,240.617924 119.665077,240.543711 C119.632094,240.478912 119.601309,240.41356 119.571074,240.347654 C119.534242,240.266795 119.49796,240.185935 119.465526,240.10286 C119.439139,240.035847 119.4155,239.968833 119.391862,239.900712 C119.363276,239.818191 119.33524,239.735116 119.311052,239.65038 C119.289062,239.573951 119.270921,239.496968 119.25223,239.419432 C119.234089,239.342449 119.215948,239.26602 119.201106,239.18793 C119.183514,239.09544 119.17087,239.001842 119.158776,238.907691 C119.15053,238.842893 119.140635,238.778094 119.135138,238.712188 C119.125243,238.603083 119.121395,238.493425 119.118646,238.383212 C119.115898,238.110727 119.123044,238.004945 119.13074,237.898609 C119.135688,237.833257 119.138436,237.767351 119.145583,237.702552 C119.154379,237.622801 119.168672,237.543603 119.181865,237.463851 C119.196158,237.372469 119.210451,237.281086 119.229692,237.191365 C119.298408,236.919434 119.328643,236.805898 119.365475,236.695132 C119.369323,236.683501 145.92456,183.886139 145.92456,183.886139 C146.801379,181.278144 149.611596,179.878057 152.198074,180.765296 C154.785651,181.649765 156.172069,184.479847 155.29525,187.086734 Z" id="Shape"></path>
        </g>
    </g>
</svg>