<?xml version="1.0" encoding="UTF-8" standalone="no"?>
<svg width="100px" height="100px" viewBox="0 0 100 100" version="1.1" xmlns="http://www.w3.org/2000/svg" xmlns:xlink="http://www.w3.org/1999/xlink">
    <!-- Generator: Sketch 3.8.3 (29802) - http://www.bohemiancoding.com/sketch -->
    <title>masking</title>
    <desc>Created with Sketch.</desc>
    <defs>
        <linearGradient x1="50%" y1="0%" x2="50%" y2="100%" id="linearGradient-1">
            <stop stop-color="#3AC2ED" offset="0%"></stop>
            <stop stop-color="#1583A7" offset="100%"></stop>
        </linearGradient>
    </defs>
    <g id="Page-1" stroke="none" stroke-width="1" fill="none" fill-rule="evenodd">
        <g id="masking">
            <g id="Group-3" transform="translate(2.000000, 2.000000)">
                <path d="M0,4.26446854 C0,1.9092676 1.91645508,0 4.25885722,0 L53.3411428,0 C55.6932447,0 57.6,1.91763639 57.6,4.26446854 L57.6,91.7355315 C57.6,94.0907324 55.6835449,96 53.3411428,96 L4.25885722,96 C1.90675533,96 0,94.0823636 0,91.7355315 L0,4.26446854 Z M3.2,11.7333333 L54.4,11.7333333 L54.4,84.2666667 L3.2,84.2666667 L3.2,11.7333333 Z" id="Combined-Shape" fill="#DDDDDD"></path>
                <path d="M96.3333333,43.5876064 C96.3333333,53.7521144 84.2202457,68.4893674 73.9449071,68.4893674 C71.3889739,68.4893674 68.9204843,67.9561026 66.6770545,67.0243076 C66.6770545,67.0243076 62.1013178,65.0274014 54.0709858,65.2926155 L53.2624909,65.2926155 L53.2624909,65.3379997 C45.2320156,65.0713674 40.6104068,67.0682736 40.6104068,67.0682736 C38.3684104,67.9999268 35.9457929,68.5333333 33.3425542,68.5333333 C23.1130876,68.4892255 11,53.7962222 11,43.6315724 C11,33.4669226 23.1130876,31.6472985 33.3884263,31.6472985 C36.2138577,31.6472985 40.5215297,27.0308712 42.9441472,28.1853326 C42.9441472,28.1853326 47.2518192,34.3107857 53.1736138,34.66535 L54.1598629,34.66535 C60.0829477,34.3107857 64.3891861,28.1853326 64.3891861,28.1853326 C66.8118037,27.0748371 71.0736036,31.6472985 73.9449071,31.6472985 C84.2202457,31.6474404 96.3333333,33.4230985 96.3333333,43.5876064 L96.3333333,43.5876064 Z M77.0412703,50.0676238 C77.0412703,47.4495209 73.7657194,45.3178803 70.3125576,45.3178803 C66.8576757,45.3178803 63.5822681,47.4495209 63.5822681,50.0676238 C63.5822681,52.687145 66.8578191,54.8173674 70.3125576,54.8173674 C73.7657194,54.8175092 77.0412703,52.687145 77.0412703,50.0676238 L77.0412703,50.0676238 Z M42.9441472,50.0676238 C42.9441472,47.4495209 39.6685963,45.3178803 36.2138577,45.3178803 C32.7591191,45.3178803 29.4850017,47.4495209 29.4850017,50.0676238 C29.4850017,52.687145 32.7591191,54.8173674 36.2138577,54.8173674 C39.6685963,54.8173674 42.9441472,52.687145 42.9441472,50.0676238 L42.9441472,50.0676238 Z" id="Shape" fill="url(#linearGradient-1)"></path>
            </g>
        </g>
    </g>
</svg>