<?xml version="1.0" encoding="UTF-8" standalone="no"?>
<svg width="100px" height="100px" viewBox="0 0 100 100" version="1.1" xmlns="http://www.w3.org/2000/svg" xmlns:xlink="http://www.w3.org/1999/xlink">
    <!-- Generator: Sketch 3.8.3 (29802) - http://www.bohemiancoding.com/sketch -->
    <title>message</title>
    <desc>Created with Sketch.</desc>
    <defs>
        <linearGradient x1="50%" y1="0%" x2="50%" y2="100%" id="linearGradient-1">
            <stop stop-color="#3AC2ED" offset="0%"></stop>
            <stop stop-color="#1583A7" offset="100%"></stop>
        </linearGradient>
    </defs>
    <g id="Page-1" stroke="none" stroke-width="1" fill="none" fill-rule="evenodd">
        <g id="message">
            <g id="Group" transform="translate(7.000000, 8.000000)">
                <path d="M37.5,12.879 C16.7895,12.879 0,27.9315 0,46.5 C0,53.343 2.286,59.7045 6.2025,65.0145 C5.688,71.1495 4.2075,79.791 0,84 C0,84 12.705,82.2135 21.4095,77.0235 C21.4185,77.0175 21.423,77.0085 21.4305,77.004 C24.1215,75.345 27.144,73.4085 27.8835,72.8295 C28.335,72.204 29.202,72.015 29.8755,72.423 C30.3225,72.6945 30.606,73.191 30.6075,73.713 C30.612,74.586 30.5955,74.829 25.131,78.24 C29.004,79.455 33.1635,80.121 37.4985,80.121 C58.209,80.121 74.9985,65.0685 74.9985,46.5 C74.9985,27.9315 58.2105,12.879 37.5,12.879 L37.5,12.879 Z" id="Shape" fill="url(#linearGradient-1)"></path>
                <path d="M87,33.621 C87,15.0525 70.2105,0 49.5,0 C34.545,0 21.6375,7.851 15.6165,19.206 C21.777,15.2295 29.3295,12.879 37.5,12.879 C58.2105,12.879 75,27.9315 75,46.5 C75,53.6025 72.537,60.186 68.3445,65.6145 C76.743,69.672 87,71.121 87,71.121 C82.7925,66.9135 81.312,58.272 80.7975,52.1355 C84.714,46.8255 87,40.464 87,33.621 L87,33.621 Z" id="Shape" fill="#DDDDDD"></path>
                <path d="M47.75,36.5 L26.75,36.5 C25.922,36.5 25.25,35.8295 25.25,35 C25.25,34.1705 25.922,33.5 26.75,33.5 L47.75,33.5 C48.578,33.5 49.25,34.1705 49.25,35 C49.25,35.8295 48.578,36.5 47.75,36.5 Z M56,47 L18.5,47 C17.672,47 17,46.3295 17,45.5 C17,44.6705 17.672,44 18.5,44 L56,44 C56.828,44 57.5,44.6705 57.5,45.5 C57.5,46.3295 56.828,47 56,47 Z M56,57.5 L18.5,57.5 C17.672,57.5 17,56.8295 17,56 C17,55.1705 17.672,54.5 18.5,54.5 L56,54.5 C56.828,54.5 57.5,55.1705 57.5,56 C57.5,56.8295 56.828,57.5 56,57.5 Z" id="Combined-Shape" fill="#FFFFFF"></path>
            </g>
        </g>
    </g>
</svg>