<svg xmlns="http://www.w3.org/2000/svg" xmlns:xlink="http://www.w3.org/1999/xlink" width="36" height="33" viewBox="0 0 36 33">
    <defs>
        <path id="a" d="M1.59 0h18.198c.878 0 1.59.712 1.59 1.59v29.76a1.59 1.59 0 0 1-1.59 1.59H1.59A1.59 1.59 0 0 1 0 31.35V1.59C0 .712.712 0 1.59 0zm-.402 4.026v24.888H20.19V4.026H1.188z"/>
    </defs>
    <g fill="none" fill-rule="evenodd">
        <path fill="#DDD" d="M1 3h20v27H1z"/>
        <use fill="#CBCBCB" xlink:href="#a"/>
        <path stroke="#A7A7A7" d="M1.59.5A1.09 1.09 0 0 0 .5 1.59v29.76c0 .602.488 1.09 1.09 1.09h18.198a1.09 1.09 0 0 0 1.09-1.09V1.59A1.09 1.09 0 0 0 19.787.5H1.59zM.688 3.526H20.69v25.888H.688V3.526z"/>
        <circle cx="11" cy="31" r="1" fill="#A7A7A7"/>
        <circle cx="13.5" cy="16.5" r="4.5" fill="#FFF"/>
        <path fill="#FF4A00" d="M35.753 14.956c0 3.487-4.496 8.544-8.31 8.544a7.54 7.54 0 0 1-2.697-.503s-1.698-.685-4.678-.594h-.3v.016c-2.98-.092-4.696.593-4.696.593a7.467 7.467 0 0 1-2.697.503c-3.797-.015-8.293-5.056-8.293-8.544 0-3.488 4.496-4.112 8.31-4.112 1.048 0 2.647-1.584 3.546-1.188 0 0 1.599 2.102 3.797 2.223h.366c2.198-.121 3.796-2.223 3.796-2.223.9-.381 2.48 1.188 3.546 1.188 3.814 0 8.31.61 8.31 4.097zm-7.16 2.223c0-.898-1.216-1.63-2.498-1.63-1.282 0-2.497.732-2.497 1.63 0 .899 1.215 1.63 2.497 1.63 1.282 0 2.498-.731 2.498-1.63zm-12.655 0c0-.898-1.216-1.63-2.498-1.63-1.282 0-2.497.732-2.497 1.63 0 .899 1.215 1.63 2.497 1.63 1.282 0 2.498-.731 2.498-1.63z"/>
    </g>
</svg>
