<svg xmlns="http://www.w3.org/2000/svg" width="36" height="26" viewBox="0 0 36 26">
    <g fill="none" fill-rule="evenodd">
        <path fill="#67B9F6" d="M19.9 4a7.373 7.373 0 0 0-.562 2.825c0 4.103 3.35 7.44 7.468 7.44a7.442 7.442 0 0 0 4.052-1.198c7.33 3.226 4.666 12.058-1.478 12.19-.364.131-.684.203-1.013.203H6.041c-8.162-.434-8.519-12.195 1.798-11.805.248-2.735 2.512-4.814 5.229-4.816.37 0 .74.041 1.102.12a.534.534 0 0 0 .62-.353A6.923 6.923 0 0 1 19.9 4z"/>
        <path fill="#76CC5B" d="M27.402 0c3.541 0 6.401 2.849 6.401 6.377 0 3.528-2.86 6.377-6.401 6.377C23.86 12.754 21 9.905 21 6.377 21 2.85 23.86 0 27.402 0z"/>
        <path fill="#FFF" fill-rule="nonzero" d="M27.5 2.993V2.25a.25.25 0 0 0-.43-.173l-1.153 1.198a.25.25 0 0 0 0 .346L27.07 4.82a.25.25 0 0 0 .43-.173v-.744c1.444 0 2.625 1.228 2.625 2.728 0 .454-.131.909-.306 1.272l.656.682c.306-.59.525-1.227.525-1.954 0-2-1.575-3.637-3.5-3.637zm0 6.364c-1.444 0-2.625-1.227-2.625-2.727 0-.455.131-.91.306-1.273l-.656-.682C24.219 5.266 24 5.902 24 6.63c0 2 1.575 3.636 3.5 3.636v.744a.25.25 0 0 0 .43.173l1.153-1.198a.25.25 0 0 0 0-.347L27.93 8.44a.25.25 0 0 0-.43.174v.743z"/>
    </g>
</svg>
