<?xml version="1.0" encoding="UTF-8" standalone="no"?>
<svg width="78px" height="80px" viewBox="0 0 78 80" version="1.1" xmlns="http://www.w3.org/2000/svg" xmlns:xlink="http://www.w3.org/1999/xlink">
    <!-- Generator: sketchtool 42 (36781) - http://www.bohemiancoding.com/sketch -->
    <title>6220C655-2ACC-4639-A34C-9737D6D875E5</title>
    <desc>Created with sketchtool.</desc>
    <defs></defs>
    <g id="Page-1" stroke="none" stroke-width="1" fill="none" fill-rule="evenodd">
        <g id="16---Add-Ons" transform="translate(-692.000000, -1717.000000)">
            <g id="recurring-task" transform="translate(692.000000, 1717.000000)">
                <g id="calendar-check" fill="#4695F6">
                    <g id="Group">
                        <path d="M48.1076926,40.1643636 L42.0938381,40.1643636 C40.9792313,40.1643636 40.089863,39.2654342 40.089863,38.1565486 L40.089863,32.1311705 C40.089863,31.014428 40.9870732,30.1233555 42.0938381,30.1233555 L48.1076926,30.1233555 C49.2222994,30.1233555 50.1116677,31.0222849 50.1116677,32.1311705 L50.1116677,38.1565486 C50.1116677,39.2732911 49.2144575,40.1643636 48.1076926,40.1643636 Z M5.01156336,59.7469038 C5.01156336,60.0111278 5.20275232,60.2460488 5.42979954,60.2462143 L33.0874028,60.2462143 C34.1914598,60.2462143 35.0787953,61.141208 35.0787953,62.2452386 L35.0787953,63.2686046 C35.0787953,64.3699006 34.1872185,65.2676289 33.0874028,65.2676289 L5.42979954,65.2676289 C2.43026452,65.2676289 0.00016524543,62.7866385 0.00016524543,59.7470694 L0.00016524543,15.5620643 C0.00016524543,12.5123964 2.43026452,10.0410081 5.42979954,10.0410081 L6.52239672,10.0410081 C7.07450013,10.0410081 7.5171798,10.4852897 7.5171798,11.0333388 L7.5171798,12.5517982 C7.5171798,15.3167135 9.76352616,17.5722195 12.5285779,17.5722195 C15.2929687,17.5722195 17.5391498,15.3167135 17.5391498,12.5517982 L17.5391498,11.0333388 C17.5391498,10.4898871 17.9870498,10.0410081 18.5395624,10.0410081 L46.6066302,10.0410081 C47.1586651,10.0410081 47.6070428,10.4852897 47.6070428,11.0333388 L47.6070428,12.5517982 C47.6070428,15.3167135 49.8535544,17.5722195 52.6182756,17.5722195 C55.3821707,17.5722195 57.6288475,15.3167135 57.6288475,12.5517982 L57.6288475,11.0333388 C57.6288475,10.4898871 58.0747559,10.0410081 58.6248119,10.0410081 L59.7187065,10.0410081 C62.7180762,10.0410081 65.1458621,12.5123964 65.1458621,15.5620643 L65.1458621,33.1403623 C65.1458621,34.2516659 64.2461998,35.1439423 63.1364102,35.1439423 L62.1439158,35.1439423 C61.0304015,35.1439423 60.134464,34.2449833 60.134464,33.1360611 L60.134464,26.1021156 C60.134464,25.5601512 59.68504,25.1026031 59.1306475,25.1026031 L6.01537979,25.1026031 C5.45527203,25.1026031 5.01156336,25.550083 5.01156336,26.1020774 L5.01156336,59.7469038 Z M25.0559991,53.2182098 L25.0559991,47.1925337 C25.0559991,46.0757359 25.9532981,45.1846193 27.0601725,45.1846193 L33.074622,45.1846193 C34.189339,45.1846193 35.0787953,46.0835932 35.0787953,47.1925337 L35.0787953,53.2182098 C35.0787953,54.3350076 34.1814964,55.2261241 33.074622,55.2261241 L27.0601725,55.2261241 C25.9454554,55.2261241 25.0559991,54.3271503 25.0559991,53.2182098 Z M25.0559991,38.1565486 L25.0559991,32.1311705 C25.0559991,31.014428 25.9532981,30.1233555 27.0601725,30.1233555 L33.074622,30.1233555 C34.189339,30.1233555 35.0787953,31.0222849 35.0787953,32.1311705 L35.0787953,38.1565486 C35.0787953,39.2732911 34.1814964,40.1643636 33.074622,40.1643636 L27.0601725,40.1643636 C25.9454554,40.1643636 25.0559991,39.2654342 25.0559991,38.1565486 Z M10.0224657,53.2182098 L10.0224657,47.1925337 C10.0224657,46.0757359 10.9197499,45.1846193 12.0266061,45.1846193 L18.0409564,45.1846193 C19.1556551,45.1846193 20.0450967,46.0835932 20.0450967,47.1925337 L20.0450967,53.2182098 C20.0450967,54.3350076 19.1478125,55.2261241 18.0409564,55.2261241 L12.0266061,55.2261241 C10.9119074,55.2261241 10.0224657,54.3271503 10.0224657,53.2182098 Z M20.0450967,32.1311705 L20.0450967,38.1565486 C20.0450967,39.2732911 19.1478125,40.1643636 18.0409564,40.1643636 L12.0266061,40.1643636 C10.9119074,40.1643636 10.0224657,39.2654342 10.0224657,38.1565486 L10.0224657,32.1311705 C10.0224657,31.014428 10.9197499,30.1233555 12.0266061,30.1233555 L18.0409564,30.1233555 C19.1556551,30.1233555 20.0450967,31.0222849 20.0450967,32.1311705 Z M52.6181104,15.0617605 C51.2330232,15.0617605 50.1116677,13.9389741 50.1116677,12.5516327 L50.1116677,2.51029342 C50.1116677,1.12262083 51.2330232,0 52.6181104,0 C54.0025366,0 55.1237268,1.12262083 55.1237268,2.51029342 L55.1237268,12.5517982 C55.1237268,13.9391397 54.0025366,15.0617605 52.6181104,15.0617605 Z M10.0224657,12.5516327 L10.0224657,2.51029342 C10.0224657,1.12262083 11.142995,0 12.5284127,0 C13.9131694,0 15.0336986,1.12262083 15.0336986,2.51029342 L15.0336986,12.5516327 C15.0336986,13.9389741 13.9131694,15.061595 12.5284127,15.061595 C11.142995,15.0617605 10.0224657,13.9389741 10.0224657,12.5516327 Z" id="Combined-Shape"></path>
                    </g>
                </g>
                <path d="M51.1976227,70.2587577 C48.0697151,67.737773 46.0680501,63.8722467 46.0680501,59.5370266 C46.0680501,53.128675 50.4481006,47.759834 56.3681007,46.2290345 L56.3681007,42.6839994 C48.5324102,44.2771303 42.6346999,51.2172616 42.6346999,59.5370266 C42.6346999,64.6783827 44.8879202,69.2886952 48.4562333,72.4396194 C51.2181979,75.0170459 52.9347505,71.577287 51.1976227,70.2587577 Z M71.0021527,46.5102619 C69.2434701,44.9188489 66.6683962,47.4987294 68.3565356,48.7767678 C71.5133464,51.2970163 73.5353415,55.1809475 73.5353415,59.5370266 C73.5353415,65.9463597 69.1545562,71.3161824 63.235046,72.8460002 L63.235046,76.3917715 C71.0707364,74.7969229 76.9684468,67.8577732 76.9684468,59.5367812 C76.9684468,54.3276949 74.6549708,49.66364 71.0021527,46.5102619 Z M57.8850257,49.2000812 L63.4728846,45.8476844 C64.2858466,45.359831 64.2875612,44.5652288 63.4772935,44.0739398 L57.8377519,40.6543037 C57.0265044,40.1637509 56.3717748,40.5340581 56.3756939,41.483998 L56.4060667,48.3637611 C56.4085161,49.3132102 57.0710838,49.6879346 57.8850257,49.2000812 Z M61.7663746,69.8926223 L56.1260981,73.3122585 C55.3150956,73.8035474 55.3168102,74.5979043 56.130752,75.086003 L61.718121,78.4386452 C62.5310831,78.925517 63.1951205,78.5520196 63.1992845,77.6013436 L63.2286775,70.7218258 C63.2316168,69.7726222 62.5759074,69.4020696 61.7663746,69.8926223 Z" id="Shape" stroke="#DDDDDD" fill="#DDDDDD" transform="translate(59.801573, 59.544918) rotate(-345.000000) translate(-59.801573, -59.544918) "></path>
            </g>
        </g>
    </g>
</svg>