<?xml version="1.0" encoding="UTF-8" standalone="no"?>
<svg width="100px" height="100px" viewBox="0 0 100 100" version="1.1" xmlns="http://www.w3.org/2000/svg" xmlns:xlink="http://www.w3.org/1999/xlink">
    <!-- Generator: Sketch 41.2 (35397) - http://www.bohemiancoding.com/sketch -->
    <title>recurring_task</title>
    <desc>Created with Sketch.</desc>
    <defs>
        <polygon id="path-1" points="99.5557608 96.8367185 0 96.8367185 0 0.999489304 99.5557608 0.999489304 99.5557608 96.8367185"></polygon>
        <radialGradient cx="16.9170814%" cy="5.08934706%" fx="16.9170814%" fy="5.08934706%" r="105.696987%" id="radialGradient-3">
            <stop stop-color="#34B7E1" offset="0%"></stop>
            <stop stop-color="#1785A9" offset="100%"></stop>
        </radialGradient>
    </defs>
    <g id="New_Features" stroke="none" stroke-width="1" fill="none" fill-rule="evenodd">
        <g id="recurring_task">
            <g id="Page-1" transform="translate(0.000000, 2.000000)">
                <mask id="mask-2" fill="white">
                    <use xlink:href="#path-1"></use>
                </mask>
                <g id="Clip-2"></g>
            </g>
            <g id="calendar-check" transform="translate(3.000000, 3.000000)" fill="url(#radialGradient-3)">
                <g id="Group">
                    <path d="M59.2784362,47.4229835 L59.2784362,35.5673354 L47.4233745,35.5673354 L47.4233745,47.4229835 L59.2784362,47.4229835 Z M5.92831276,70.544537 L5.92831276,29.6392181 L71.1346708,29.6392181 L71.1346708,41.4952572 L77.0627881,41.4952572 L77.0627881,18.3744856 C77.0627881,14.7736728 74.1908951,11.8556481 70.6428601,11.8556481 L68.1707099,11.8556481 L68.1707099,14.8201955 C68.1707099,18.0847942 65.5130556,20.7479218 62.24357,20.7479218 C58.973107,20.7479218 56.3156481,18.0847942 56.3156481,14.8201955 L56.3156481,11.8556481 L20.7475309,11.8556481 L20.7475309,14.8201955 C20.7475309,18.0847942 18.090463,20.7479218 14.8203909,20.7479218 C11.549537,20.7479218 8.89227366,18.0847942 8.89227366,14.8201955 L8.89227366,11.8556481 L6.42305556,11.8556481 C2.8748251,11.8556481 0.000195473251,14.7736728 0.000195473251,18.3744856 L0.000195473251,70.5447325 C0.000195473251,74.1336214 2.8748251,77.0629835 6.42305556,77.0629835 L41.4956481,77.0629835 L41.4956481,71.1340844 L6.42305556,71.1340844 C6.15447531,71.1338889 5.92831276,70.8565123 5.92831276,70.544537 Z M29.6394136,65.206749 L41.4956481,65.206749 L41.4956481,53.3505144 L29.6394136,53.3505144 L29.6394136,65.206749 Z M29.6394136,47.4229835 L41.4956481,47.4229835 L41.4956481,35.5673354 L29.6394136,35.5673354 L29.6394136,47.4229835 Z M11.8558436,65.206749 L23.7118827,65.206749 L23.7118827,53.3505144 L11.8558436,53.3505144 L11.8558436,65.206749 Z M23.7118827,35.5673354 L11.8558436,35.5673354 L11.8558436,47.4229835 L23.7118827,47.4229835 L23.7118827,35.5673354 Z M62.2433745,17.7837654 C63.8810494,17.7837654 65.2073354,16.4582613 65.2073354,14.8201955 L65.2073354,2.96396091 C65.2073354,1.32550412 63.8810494,0 62.2433745,0 C60.6049177,0 59.2784362,1.32550412 59.2784362,2.96396091 L59.2784362,14.82 C59.2784362,16.4580658 60.6049177,17.7837654 62.2433745,17.7837654 Z M11.8558436,14.82 L11.8558436,2.96396091 C11.8558436,1.32550412 13.1813477,0 14.8201955,0 C16.4582613,0 17.7837654,1.32550412 17.7837654,2.96396091 L17.7837654,14.82 C17.7837654,16.4580658 16.4582613,17.78357 14.8201955,17.78357 C13.1813477,17.7837654 11.8558436,16.4580658 11.8558436,14.82 Z" id="Combined-Shape"></path>
                </g>
            </g>
            <path d="M63.5630415,85.9561236 C59.8629556,82.9795392 57.4951324,78.4154238 57.4951324,73.2967302 C57.4951324,65.7302428 62.6764117,59.3911293 69.6793386,57.5836793 L69.6793386,53.3979753 C60.4102902,55.2790213 53.4337304,63.4733932 53.4337304,73.2967302 C53.4337304,79.367247 56.0991251,84.8107485 60.3201784,88.5311168 C63.5873804,91.5743433 65.6179365,87.5129413 63.5630415,85.9561236 Z M86.9903514,57.9157309 C84.9099585,56.0367131 81.8638345,59.0828371 83.8607799,60.5918463 C87.5950561,63.5675614 89.9869284,68.1534079 89.9869284,73.2967302 C89.9869284,80.8643766 84.8047799,87.2046491 77.8024325,89.01094 L77.8024325,93.1975134 C87.0714809,91.3144391 94.0480407,83.1212261 94.0480407,73.2964404 C94.0480407,67.1459531 91.3113679,61.6389967 86.9903514,57.9157309 Z M71.4737499,61.0916621 L78.0837781,57.1334105 C79.0454527,56.5573908 79.047481,55.6191858 78.0889936,55.0391097 L71.4178285,51.001467 C70.4581821,50.4222601 69.6836848,50.8594903 69.6883208,51.981106 L69.7242496,60.1041999 C69.7271471,61.2252361 70.5109163,61.6676818 71.4737499,61.0916621 Z M76.0651016,85.5238191 L69.3930673,89.5614618 C68.4337106,90.1415379 68.4357389,91.0794532 69.3985725,91.6557626 L76.0080212,95.614304 C76.9696958,96.1891647 77.7552035,95.7481677 77.7601292,94.6256828 L77.794899,86.5028787 C77.798376,85.3821322 77.0227198,84.9446123 76.0651016,85.5238191 Z" id="Shape" stroke="#DDDDDD" fill="#DDDDDD" transform="translate(73.740886, 73.306047) rotate(-345.000000) translate(-73.740886, -73.306047) "></path>
        </g>
    </g>
</svg>