<svg xmlns="http://www.w3.org/2000/svg" width="32" height="32" viewBox="0 0 32 32">
    <g fill="none" fill-rule="nonzero">
        <path fill="#CBCBCB" d="M.518 6.013a.518.518 0 0 0 .519-.518v-3.87c0-.325.263-.588.587-.588h3.87a.518.518 0 1 0 0-1.037h-3.87C.73 0 0 .729 0 1.624v3.87c0 .287.232.519.518.519zM30.376 0h-3.87a.518.518 0 1 0 0 1.037h3.87c.324 0 .587.263.587.587v3.87a.518.518 0 1 0 1.037 0v-3.87C32 .73 31.271 0 30.376 0zM31.482 25.987a.518.518 0 0 0-.519.518v3.87a.588.588 0 0 1-.587.588h-3.87a.518.518 0 1 0 0 1.037h3.87C31.27 32 32 31.271 32 30.376v-3.87a.518.518 0 0 0-.518-.519zM5.495 30.963h-3.87a.588.588 0 0 1-.588-.587v-3.87a.518.518 0 1 0-1.037 0v3.87C0 31.27.729 32 1.624 32h3.87a.518.518 0 1 0 0-1.037z"/>
        <path fill="#FF7C63" d="M31.482 15.482H.518a.518.518 0 1 0 0 1.036h30.964a.518.518 0 1 0 0-1.036z"/>
        <path fill="#000" d="M16 21.564a.518.518 0 0 0-.518.518v1.106a.518.518 0 1 0 1.036 0v-1.106a.518.518 0 0 0-.518-.518zM16 14.307a.518.518 0 0 0 .518-.519V8.812a.518.518 0 1 0-1.036 0v4.976c0 .287.232.519.518.519zM18.212 21.564a.518.518 0 0 0-.519.518v1.106a.518.518 0 1 0 1.037 0v-1.106a.518.518 0 0 0-.518-.518zM18.212 14.307a.518.518 0 0 0 .518-.519V8.812a.518.518 0 1 0-1.037 0v4.976c0 .287.232.519.519.519zM13.788 21.564a.518.518 0 0 0-.518.518v1.106a.518.518 0 1 0 1.037 0v-1.106a.518.518 0 0 0-.519-.518zM13.788 14.307a.518.518 0 0 0 .519-.519V8.812a.518.518 0 1 0-1.037 0v4.976c0 .287.232.519.518.519zM11.577 21.564a.518.518 0 0 0-.519.518v1.106a.518.518 0 1 0 1.037 0v-1.106a.518.518 0 0 0-.518-.518zM11.577 14.307a.518.518 0 0 0 .518-.519V8.812a.518.518 0 1 0-1.037 0v4.976c0 .287.232.519.519.519zM20.423 21.564a.518.518 0 0 0-.518.518v1.106a.518.518 0 1 0 1.037 0v-1.106a.518.518 0 0 0-.519-.518zM20.423 14.307a.518.518 0 0 0 .519-.519V8.812a.518.518 0 1 0-1.037 0v4.976c0 .287.232.519.518.519zM22.635 21.564a.518.518 0 0 0-.518.518v1.106a.518.518 0 1 0 1.036 0v-1.106a.518.518 0 0 0-.518-.518zM22.635 14.307a.518.518 0 0 0 .518-.519V8.812a.518.518 0 1 0-1.036 0v4.976c0 .287.232.519.518.519zM24.847 21.564a.518.518 0 0 0-.519.518v1.106a.518.518 0 1 0 1.037 0v-1.106a.518.518 0 0 0-.518-.518zM24.847 14.307a.518.518 0 0 0 .518-.519V8.812a.518.518 0 1 0-1.037 0v4.976c0 .287.232.519.519.519zM7.153 21.564a.518.518 0 0 0-.518.518v1.106a.518.518 0 1 0 1.037 0v-1.106a.518.518 0 0 0-.519-.518zM7.153 14.307a.518.518 0 0 0 .519-.519V8.812a.518.518 0 1 0-1.037 0v4.976c0 .287.232.519.518.519zM5.46 23.188v-4.976a.518.518 0 1 0-1.037 0v4.976a.518.518 0 1 0 1.037 0zM4.423 8.812v4.976a.518.518 0 1 0 1.037 0V8.812a.518.518 0 1 0-1.037 0zM27.577 23.188v-4.976a.518.518 0 1 0-1.037 0v4.976a.518.518 0 1 0 1.037 0zM27.577 13.788V8.812a.518.518 0 1 0-1.037 0v4.976a.518.518 0 1 0 1.037 0zM9.365 21.564a.518.518 0 0 0-.518.518v1.106a.518.518 0 1 0 1.036 0v-1.106a.518.518 0 0 0-.518-.518zM16 17.693a.518.518 0 0 0-.518.519v1.658a.518.518 0 1 0 1.036 0v-1.658a.518.518 0 0 0-.518-.519zM18.212 17.693a.518.518 0 0 0-.519.519v1.658a.518.518 0 1 0 1.037 0v-1.658a.518.518 0 0 0-.518-.519zM13.788 17.693a.518.518 0 0 0-.518.519v1.658a.518.518 0 1 0 1.037 0v-1.658a.518.518 0 0 0-.519-.519zM11.577 17.693a.518.518 0 0 0-.519.519v1.658a.518.518 0 1 0 1.037 0v-1.658a.518.518 0 0 0-.518-.519zM20.423 17.693a.518.518 0 0 0-.518.519v1.658a.518.518 0 1 0 1.037 0v-1.658a.518.518 0 0 0-.519-.519zM22.635 17.693a.518.518 0 0 0-.518.519v1.658a.518.518 0 1 0 1.036 0v-1.658a.518.518 0 0 0-.518-.519zM24.847 17.693a.518.518 0 0 0-.519.519v1.658a.518.518 0 1 0 1.037 0v-1.658a.518.518 0 0 0-.518-.519zM7.153 17.693a.518.518 0 0 0-.518.519v1.658a.518.518 0 1 0 1.037 0v-1.658a.518.518 0 0 0-.519-.519zM9.365 17.693a.518.518 0 0 0-.518.519v1.658a.518.518 0 1 0 1.036 0v-1.658a.518.518 0 0 0-.518-.519zM9.365 14.307a.518.518 0 0 0 .518-.519V8.812a.518.518 0 1 0-1.036 0v4.976c0 .287.232.519.518.519z"/>
    </g>
</svg>
