<?xml version="1.0" encoding="UTF-8"?>
<svg width="100px" height="100px" viewBox="0 0 100 100" version="1.1" xmlns="http://www.w3.org/2000/svg" xmlns:xlink="http://www.w3.org/1999/xlink">
    <!-- Generator: Sketch 40.3 (33839) - http://www.bohemiancoding.com/sketch -->
    <title>control_agent_schedule</title>
    <desc>Created with Sketch.</desc>
    <defs>
        <polygon id="path-1" points="32.986178 0.789006336 0 0.789006336 0 36.1629051 32.986178 36.1629051"></polygon>
        <path d="M17.9140625,50.3974609 C17.9140625,52.320451 21.4953046,6.61621094 19.5966797,6.61621094 L51.8779297,0.379882812 C49.978949,0.379882812 75.5292969,8.53920097 75.5292969,6.61621094 C75.5292969,6.61621094 79.1455078,69.7606883 79.1455078,69.7451977 C79.1455078,69.7297072 82.2023437,66.8164062 82.2023437,66.8164062 L77.091594,67.7043962 C77.091594,66.057507 75.5306625,65 73.6321265,65 L71.4621551,65 C69.5635302,65 68.0231431,66.7744768 68.0231431,67.7043962 L68.0231431,69.7451977 C66.3635805,69.7958122 63,72.1861794 63,73.8951837 L63,98.8284894 C63,100.569916 64.3938191,104 66.1131472,104 C66.1131472,104 66.1131472,105.595161 66.1131472,106.392741 C67.8300741,106.614648 30.6308594,111.68554 30.6308594,109.947266 L0.823242187,95.0771484 C0.823242187,93.3681442 2.48244898,65.0506145 0.823242187,65 L17.9140625,50.3974609 Z" id="path-3"></path>
        <linearGradient x1="50%" y1="1.78462812%" x2="50%" y2="176.549115%" id="linearGradient-5">
            <stop stop-color="#35B9E3" offset="0%"></stop>
            <stop stop-color="#1785A9" offset="100%"></stop>
        </linearGradient>
        <linearGradient x1="50%" y1="-42.0223667%" x2="50%" y2="137.095047%" id="linearGradient-6">
            <stop stop-color="#35B9E3" offset="0%"></stop>
            <stop stop-color="#1785A9" offset="100%"></stop>
        </linearGradient>
    </defs>
    <g id="new" stroke="none" stroke-width="1" fill="none" fill-rule="evenodd">
        <g id="control_agent_schedule">
            <g id="Group-6" transform="translate(-1.000000, -5.000000)">
                <g id="Page-1" transform="translate(65.000000, 66.000000)">
                    <path d="M11.9174058,20.8474919 C11.9174058,20.4196289 11.5748796,20.072772 11.1517539,20.072772 L8.47979058,20.072772 C8.05735602,20.072772 7.71448429,20.4196289 7.71448429,20.8474919 L7.71448429,23.5528002 C7.71448429,23.9813631 8.05735602,24.3282199 8.47979058,24.3282199 L11.1517539,24.3282199 C11.5748796,24.3282199 11.9174058,23.9813631 11.9174058,23.5528002 L11.9174058,20.8474919 Z" id="Fill-1" fill="#CCCCCC"></path>
                    <path d="M18.5955864,20.8474919 C18.5955864,20.4196289 18.2527147,20.072772 17.8305393,20.072772 L15.1579712,20.072772 C14.7354503,20.072772 14.3925785,20.4196289 14.3925785,20.8474919 L14.3925785,23.5528002 C14.3925785,23.9813631 14.7354503,24.3282199 15.1579712,24.3282199 L17.8305393,24.3282199 C18.2527147,24.3282199 18.5955864,23.9813631 18.5955864,23.5528002 L18.5955864,20.8474919 Z" id="Fill-3" fill="#CCCCCC"></path>
                    <path d="M25.2740262,20.8474919 C25.2740262,20.4196289 24.9312408,20.072772 24.5087199,20.072772 L21.836411,20.072772 C21.4136309,20.072772 21.0707592,20.4196289 21.0707592,20.8474919 L21.0707592,23.5528002 C21.0707592,23.9813631 21.4136309,24.3282199 21.836411,24.3282199 L24.5087199,24.3282199 C24.9312408,24.3282199 25.2740262,23.9813631 25.2740262,23.5528002 L25.2740262,20.8474919 Z" id="Fill-5" fill="#CCCCCC"></path>
                    <path d="M11.9174058,27.610719 C11.9174058,27.1818937 11.5748796,26.8353868 11.1517539,26.8353868 L8.47979058,26.8353868 C8.05735602,26.8353868 7.71448429,27.1818937 7.71448429,27.610719 L7.71448429,30.3157649 C7.71448429,30.7439779 8.05735602,31.0907472 8.47979058,31.0907472 L11.1517539,31.0907472 C11.5748796,31.0907472 11.9174058,30.7439779 11.9174058,30.3157649 L11.9174058,27.610719 Z" id="Fill-7" fill="#CCCCCC"></path>
                    <path d="M18.5955864,27.610719 C18.5955864,27.1818937 18.2527147,26.8353868 17.8305393,26.8353868 L15.1579712,26.8353868 C14.7354503,26.8353868 14.3925785,27.1818937 14.3925785,27.610719 L14.3925785,30.3157649 C14.3925785,30.7439779 14.7354503,31.0907472 15.1579712,31.0907472 L17.8305393,31.0907472 C18.2527147,31.0907472 18.5955864,30.7439779 18.5955864,30.3157649 L18.5955864,27.610719 Z" id="Fill-9" fill="#CCCCCC"></path>
                    <path d="M25.2740262,27.610719 C25.2740262,27.1818937 24.9312408,26.8353868 24.5090654,26.8353868 L21.836411,26.8353868 C21.4136309,26.8353868 21.0707592,27.1818937 21.0707592,27.610719 L21.0707592,30.3157649 C21.0707592,30.7439779 21.4136309,31.0907472 21.836411,31.0907472 L24.5090654,31.0907472 C24.9312408,31.0907472 25.2740262,30.7439779 25.2740262,30.3157649 L25.2740262,27.610719 Z" id="Fill-12" fill="#CCCCCC"></path>
                    <mask id="mask-2" fill="white">
                        <use xlink:href="#path-1"></use>
                    </mask>
                    <g id="Clip-15"></g>
                    <path d="M29.0730864,31.5743347 C29.0730864,32.3052273 28.4879843,32.8981644 27.7657853,32.8981644 L5.16467277,32.8981644 C4.44290576,32.8981644 3.85737173,32.3052273 3.85737173,31.5743347 L3.85737173,19.064394 C3.85737173,18.333414 4.44256021,17.7402145 5.16467277,17.7402145 L27.7657853,17.7402145 C28.4879843,17.7402145 29.0730864,18.333414 29.0730864,19.064394 L29.0730864,31.5743347 Z M30.0520288,5.80405284 L30.0520288,9.93641682 C30.0520288,11.8042824 28.5554529,13.3095449 26.7112539,13.3095449 L24.6039188,13.3095449 C22.7593743,13.3095449 21.2431885,11.8042824 21.2431885,9.93641682 L21.2431885,5.78900634 L11.7449764,5.78900634 L11.7449764,9.93641682 C11.7449764,11.8042824 10.2287906,13.3095449 8.38467801,13.3095449 L6.27691099,13.3095449 C4.43271204,13.3095449 2.93648168,11.8042824 2.93648168,9.93641682 L2.93648168,5.80405284 C1.32449215,5.8532164 0,7.20372733 0,8.86374128 L0,33.0823091 C0,34.7738157 1.35386387,36.1629051 3.02390576,36.1629051 L29.9642592,36.1629051 C31.6319686,36.1629051 32.9881649,34.7707539 32.9881649,33.0823091 L32.9881649,8.86374128 C32.9881649,7.20372733 31.6636728,5.8532164 30.0520288,5.80405284 L30.0520288,5.80405284 Z" id="Fill-14" fill="#CCCCCC" mask="url(#mask-2)"></path>
                    <path d="M6.26948168,11.0941226 L8.35392408,11.0941226 C8.98662565,11.0941226 9.49959424,10.5754557 9.49959424,9.93475471 L9.49959424,3.15980528 C9.49959424,2.51910428 8.98662565,2 8.35392408,2 L6.26948168,2 C5.6367801,2 5.12381152,2.51910428 5.12381152,3.15980528 L5.12381152,9.93475471 C5.12381152,10.5754557 5.6367801,11.0941226 6.26948168,11.0941226" id="Fill-18" fill="#CCCCCC" mask="url(#mask-2)"></path>
                    <path d="M26.6616675,11.0941226 C27.2940236,11.0941226 27.8069921,10.5754557 27.8069921,9.93475471 L27.8069921,3.15980528 C27.8069921,2.51910428 27.2940236,2 26.6616675,2 L24.5772251,2 C23.9445236,2 23.431555,2.51910428 23.431555,3.15980528 L23.431555,9.93475471 C23.431555,10.5754557 23.9445236,11.0941226 24.5772251,11.0941226 L26.6616675,11.0941226 Z" id="Fill-20" fill="#CCCCCC" mask="url(#mask-2)"></path>
                </g>
                <g id="Asset-1">
                    <mask id="mask-4" fill="white">
                        <use xlink:href="#path-3"></use>
                    </mask>
                    <g id="Mask" opacity="0.257133152"></g>
                    <g mask="url(#mask-4)">
                        <g transform="translate(4.000000, 6.000000)">
                            <g>
                                <g id="Layer_2">
                                    <g id="Capa_1">
                                        <path d="M42.7645695,55.8693399 C49.5561258,55.8693399 65.5203642,47.6951264 65.5203642,28.077014 C65.5203642,25.3400618 65.4528146,22.6989453 65.2389073,20.2015821 C64.8701987,15.2885979 63.8653974,10.9365339 61.363245,7.59919985 C58.1546358,3.05828332 52.5395695,0.270594654 42.7870861,0.270594654 C33.0346026,0.270594654 27.4110927,3.04137116 24.2109272,7.58228769 C21.7059603,10.9196217 20.7011589,15.2745045 20.3324503,20.1903073 C20.1072848,22.6876705 20.0509934,25.3287871 20.0509934,28.0629205 C20.0087748,47.6838516 35.9730132,55.8693399 42.7645695,55.8693399 L42.7645695,55.8693399 Z M50.1922185,10.465812 L48.5344371,14.6600291 C44.2534768,13.4479905 41.2756623,13.4479905 36.994702,14.6600291 L35.3369205,10.465812 C40.6874172,8.84224404 44.8389073,8.84224404 50.1922185,10.465812 L50.1922185,10.465812 Z M23.394702,23.8236043 C23.656457,24.3873432 24.7710265,26.6056556 26.4907285,26.8114203 C28.4609272,27.0481906 31.7624172,19.7815967 42.761755,19.7646845 C53.7610927,19.7477723 57.0485099,27.0481906 59.0327815,26.8114203 C60.7581126,26.6028369 61.8698675,24.3957992 62.1288079,23.8236043 C62.1822848,25.2329514 62.2019868,26.6422986 62.2019868,28.0741953 C62.2019868,37.657756 57.9801325,43.5995636 54.4309603,46.8917985 C49.9642384,51.0437352 45.0049669,52.548918 42.761755,52.548918 C40.518543,52.548918 35.5592715,51.0409165 31.0925497,46.8917985 C27.5490066,43.5995636 23.3271523,37.6605746 23.3271523,28.0741953 C23.3271523,26.6535734 23.3271523,25.2301328 23.394702,23.8236043 L23.394702,23.8236043 Z" id="Shape" fill="url(#linearGradient-5)"></path>
                                        <path d="M37.681457,98.7642299 C39.2238411,98.8149664 40.8281457,98.8412742 42.4943709,98.8431533 C79.4018212,98.8431533 84.4708609,85.7164939 84.6678808,85.1583924 C84.7565241,84.9062473 84.7807144,84.6358875 84.738245,84.3719767 C84.3104305,81.7083106 81.8955298,68.223677 76.3733444,64.4973632 C73.1140728,62.2987816 61.5433775,56.0553737 56.7192053,53.4734497 C56.1615127,53.1743684 55.4799524,53.2341062 54.9826159,53.6256592 C52.5461612,55.5774341 49.7012492,56.9533178 46.6599338,57.6507547 C46.1354871,57.7669319 45.704809,58.1399561 45.514404,58.6429351 L42.4971854,66.6085652 L39.4771523,58.634479 L37.681457,98.7642299 Z" id="Shape" fill="url(#linearGradient-6)"></path>
                                        <path d="M65.0559603,57.9495363 C61.8980132,56.2244954 58.832947,54.586834 56.8514901,53.5241862 C56.2009167,53.1743684 55.5193564,53.2341062 55.0220199,53.6256592 C52.5856692,55.5775993 49.7407178,56.953502 46.6993377,57.6507547 C46.1748911,57.7669319 45.744213,58.1399561 45.5538079,58.6429351 L42.5450331,66.6085652 L39.525,58.634479 C39.334595,58.1315001 38.9039169,57.7584758 38.3794702,57.6422986 C35.3381547,56.9448617 32.4932427,55.568978 30.0567881,53.6172031 C29.5594516,53.2256501 28.8778912,53.1659123 28.3201987,53.4649936 C23.4960265,56.0469176 11.9253311,62.2875068 8.6660596,64.4889071 C3.14387417,68.2152209 0.72897351,81.6970358 0.30115894,84.3635206 C0.258689536,84.6274314 0.28287988,84.8977913 0.371523179,85.1499364 C0.568543046,85.7136752 5.63758278,98.8346972 42.5450331,98.8346972 C44.215011,98.8346972 45.8193157,98.8083894 47.357947,98.7557738 C47.4943235,96.9910836 48.2547946,95.3329858 49.502649,94.0795599 L58.3713576,85.1978542 C54.35275,76.7122923 56.0983753,66.6125542 62.7311258,59.9733588 C63.4587588,59.2461018 64.2355415,58.5698944 65.0559603,57.9495363 Z" id="Shape" fill="url(#linearGradient-6)"></path>
                                    </g>
                                </g>
                            </g>
                        </g>
                    </g>
                </g>
            </g>
        </g>
    </g>
</svg>