<?xml version="1.0" encoding="UTF-8" standalone="no"?>
<svg width="500px" height="500px" viewBox="0 0 500 500" version="1.1" xmlns="http://www.w3.org/2000/svg" xmlns:xlink="http://www.w3.org/1999/xlink">
    <!-- Generator: Sketch 42 (36781) - http://www.bohemiancoding.com/sketch -->
    <title>small-logo-blue-white-accent</title>
    <desc>Created with Sketch.</desc>
    <defs></defs>
    <g id="Page-1" stroke="none" stroke-width="1" fill="none" fill-rule="evenodd">
        <g id="small-logo-blue-white-accent" fill-rule="nonzero">
            <g id="Group" transform="translate(93.000000, 75.000000)">
                <path d="M313.958678,106.627013 C281.157025,124.632013 256.08719,133.049935 203.370248,133.049935 L108.948347,133.049935 C48.7338843,133.049935 0,181.686818 0,241.781429 L0,241.781429 C0,301.876039 48.7338843,350.512922 108.948347,350.512922 L176.660331,350.512922 C252.33843,350.512922 313.72438,289.249156 313.72438,213.721688 L313.958678,106.627013 L313.958678,106.627013 Z M254.915702,191.273896 C254.915702,246.458052 227.034298,291.119805 161.196694,291.119805 L118.320248,291.119805 C92.5475207,291.119805 71.6950413,268.672013 71.6950413,241.313766 C71.6950413,213.955519 92.5475207,191.507727 118.320248,191.507727 L206.650413,191.507727 C224.92562,191.507727 240.857851,190.338571 254.915702,188.234091 L254.915702,191.273896 L254.915702,191.273896 Z" id="Shape" fill="#FFFFFF"></path>
                <path d="M109.65124,86.0498701 L211.336364,86.0498701 C320.753306,86.0498701 314.66157,0 314.66157,0 L146.904545,0 C85.7528926,0 33.9731405,47.4677273 30.2243802,107.562338 C53.4198347,94.0001299 80.5983471,86.0498701 109.65124,86.0498701 Z" id="Shape" fill="#2296FF"></path>
            </g>
        </g>
    </g>
</svg>