<svg xmlns="http://www.w3.org/2000/svg" xmlns:xlink="http://www.w3.org/1999/xlink" width="36" height="39" viewBox="0 0 36 39">
    <defs>
        <path id="a" d="M1.59 0h18.198c.878 0 1.59.712 1.59 1.59v29.76a1.59 1.59 0 0 1-1.59 1.59H1.59A1.59 1.59 0 0 1 0 31.35V1.59C0 .712.712 0 1.59 0zm-.402 4.026v24.888H20.19V4.026H1.188z"/>
    </defs>
    <g fill="none" fill-rule="evenodd">
        <g transform="translate(0 6)">
            <path fill="#DDD" d="M1 3h20v27H1z"/>
            <use fill="#CBCBCB" xlink:href="#a"/>
            <path stroke="#A7A7A7" d="M1.59.5A1.09 1.09 0 0 0 .5 1.59v29.76c0 .602.488 1.09 1.09 1.09h18.198a1.09 1.09 0 0 0 1.09-1.09V1.59A1.09 1.09 0 0 0 19.787.5H1.59zM.688 3.526H20.69v25.888H.688V3.526z"/>
            <circle cx="11" cy="31" r="1" fill="#A7A7A7"/>
        </g>
        <path fill="#1394FF" fill-rule="nonzero" d="M19.358 18.113a.354.354 0 0 1-.393.092.36.36 0 0 1-.227-.336v-5.058h-2.735a1.922 1.922 0 0 1-1.914-1.931V1.93c0-1.066.857-1.93 1.914-1.93H33.87c1.057 0 1.914.864 1.914 1.93v8.95c0 1.067-.857 1.93-1.914 1.93H24.19l-4.833 5.303z"/>
        <path fill="#FFF" d="M17.7 7h4.435c.386 0 .699.316.699.705a.702.702 0 0 1-.699.704H17.7A.702.702 0 0 1 17 7.705c0-.39.313-.705.7-.705zM17 4.705c0-.39.313-.705.7-.705h8.797c.385 0 .699.316.699.705a.702.702 0 0 1-.7.704H17.7A.702.702 0 0 1 17 4.705z"/>
    </g>
</svg>
