<svg xmlns="http://www.w3.org/2000/svg" width="31" height="36" viewBox="0 0 31 36">
    <g fill="#11A3EB" fill-rule="evenodd">
        <path d="M1.1 27.1l13.8 8.2c.3.2.9.2 1.2 0L29.9 27c.3-.2.6-.7.6-1.1V9.7c0-.7-.7-1.4-1.6-.9l-13.4 8.3L3.2 9.8l11.7-7c.1 0 .1-.1.2-.1l.4-.2.5.2s.1 0 .1.1l4.7 2.7c.4.2.7.2 1.1.1l.8-.4c.3-.2.3-.4.1-.6L18.3 2 16.2.8c-.3-.2-.7-.2-1-.1L1.5 8.9c-.8.5-.9 1.4-.1 1.9L15 19c.3.2.9.2 1.2 0l12.6-7.6v14.5l-13.3 7.7-13.2-7.9v-5.1c0-.3-.2-.7-.5-.8l-.9-.5c-.2-.1-.4 0-.5.3v6.6c.2.4.4.8.7.9"/>
        <path d="M8.8 19.4c-.2-.1-.4 0-.4.3V21c0 .3.2.6.4.7l4.5 3c.2.1.4 0 .4-.3v-1.3c0-.3-.2-.6-.4-.7l-4.5-3M10.6 24.8c-.2-.1-.4 0-.4.3v1.3c0 .3.2.6.4.8l2.8 2c.2.1.4 0 .4-.3v-1.4c0-.3-.2-.6-.4-.8l-2.8-1.9"/>
    </g>
</svg>
