<?xml version="1.0" encoding="UTF-8" standalone="no"?>
<svg width="100px" height="100px" viewBox="0 0 100 100" version="1.1" xmlns="http://www.w3.org/2000/svg" xmlns:xlink="http://www.w3.org/1999/xlink">
    <!-- Generator: Sketch 42 (36781) - http://www.bohemiancoding.com/sketch -->
    <title>stuart</title>
    <desc>Created with Sketch.</desc>
    <defs>
        <path d="M1.98064516,72.0194444 L39.3741935,94.1138889 C40.1870968,94.6527778 41.8129032,94.6527778 42.6258065,94.1138889 L80.0193548,71.75 C80.8322581,71.2111111 81.6451613,69.8638889 81.6451613,68.7861111 L81.6451613,25.1361111 C81.6451613,23.25 79.7483871,21.3638889 77.3096774,22.7111111 L41,45.075 L7.67096774,25.4055556 L39.3741935,6.54444444 C39.6451613,6.54444444 39.6451613,6.275 39.916129,6.275 L41,5.73611111 L42.3548387,6.275 C42.3548387,6.275 42.6258065,6.275 42.6258065,6.54444444 L55.3612903,13.8194444 C56.4451613,14.3583333 57.2580645,14.3583333 58.3419355,14.0888889 L60.5096774,13.0111111 C61.3225806,12.4722222 61.3225806,11.9333333 60.7806452,11.3944444 L48.5870968,4.38888889 L42.8967742,1.15555556 C42.083871,0.616666667 41,0.616666667 40.1870968,0.886111111 L3.06451613,22.9805556 C0.896774194,24.3277778 0.625806452,26.7527778 2.79354839,28.1 L39.6451613,50.1944444 C40.4580645,50.7333333 42.083871,50.7333333 42.8967742,50.1944444 L77.0387097,29.7166667 L77.0387097,68.7861111 L41,89.5333333 L5.23225806,68.2472222 L5.23225806,54.5055556 C5.23225806,53.6972222 4.69032258,52.6194444 3.87741935,52.35 L1.43870968,51.0027778 C0.896774194,50.7333333 0.35483871,51.0027778 0.0838709677,51.8111111 L0.0838709677,69.5944444 C0.625806452,70.6722222 1.16774194,71.75 1.98064516,72.0194444" id="path-1"></path>
        <polygon id="path-3" points="0.35483871 0.347222222 82.7290323 0.347222222 82.7290323 96.8083333 0.35483871 96.8083333"></polygon>
        <linearGradient x1="50%" y1="0%" x2="50%" y2="100%" id="linearGradient-5">
            <stop stop-color="#3AC1EC" offset="0%"></stop>
            <stop stop-color="#1684A7" offset="100%"></stop>
        </linearGradient>
        <path d="M1.62580645,0.155555556 C1.08387097,-0.113888889 0.541935484,0.155555556 0.541935484,0.963888889 L0.541935484,4.46666667 C0.541935484,5.275 1.08387097,6.08333333 1.62580645,6.62222222 L9.21290323,12.0111111 C9.75483871,12.2805556 10.2967742,12.0111111 10.2967742,11.2027778 L10.2967742,7.43055556 C10.2967742,6.62222222 9.75483871,5.81388889 9.21290323,5.275 L1.62580645,0.155555556" id="path-6"></path>
        <polygon id="path-8" points="0.35483871 0.347222222 82.7290323 0.347222222 82.7290323 96.8083333 0.35483871 96.8083333"></polygon>
        <path d="M1.16774194,1.07777778 C0.625806452,0.808333333 0.0838709677,1.07777778 0.0838709677,1.88611111 L0.0838709677,5.38888889 C0.0838709677,6.19722222 0.625806452,7.00555556 1.16774194,7.275 L13.3612903,15.3583333 C13.9032258,15.6277778 14.4451613,15.3583333 14.4451613,14.55 L14.4451613,11.0472222 C14.4451613,10.2388889 13.9032258,9.43055556 13.3612903,9.16111111 L1.16774194,1.07777778" id="path-10"></path>
        <polygon id="path-12" points="0.35483871 0.347222222 82.7290323 0.347222222 82.7290323 96.8083333 0.35483871 96.8083333"></polygon>
    </defs>
    <g id="New_Features" stroke="none" stroke-width="1" fill="none" fill-rule="evenodd">
        <g id="stuart">
            <g id="stuart-logomark-481d6268" transform="translate(8.000000, 2.000000)">
                <g id="a-link" fill="#0B0B0B">
                    <path d="M2.98064516,73.0194444 L40.3741935,95.1138889 C41.1870968,95.6527778 42.8129032,95.6527778 43.6258065,95.1138889 L81.0193548,72.75 C81.8322581,72.2111111 82.6451613,70.8638889 82.6451613,69.7861111 L82.6451613,26.1361111 C82.6451613,24.25 80.7483871,22.3638889 78.3096774,23.7111111 L42,46.075 L8.67096774,26.4055556 L40.3741935,7.54444444 C40.6451613,7.54444444 40.6451613,7.275 40.916129,7.275 L42,6.73611111 L43.3548387,7.275 C43.3548387,7.275 43.6258065,7.275 43.6258065,7.54444444 L56.3612903,14.8194444 C57.4451613,15.3583333 58.2580645,15.3583333 59.3419355,15.0888889 L61.5096774,14.0111111 C62.3225806,13.4722222 62.3225806,12.9333333 61.7806452,12.3944444 L49.5870968,5.38888889 L43.8967742,2.15555556 C43.083871,1.61666667 42,1.61666667 41.1870968,1.88611111 L4.06451613,23.9805556 C1.89677419,25.3277778 1.62580645,27.7527778 3.79354839,29.1 L40.6451613,51.1944444 C41.4580645,51.7333333 43.083871,51.7333333 43.8967742,51.1944444 L78.0387097,30.7166667 L78.0387097,69.7861111 L42,90.5333333 L6.23225806,69.2472222 L6.23225806,55.5055556 C6.23225806,54.6972222 5.69032258,53.6194444 4.87741935,53.35 L2.43870968,52.0027778 C1.89677419,51.7333333 1.35483871,52.0027778 1.08387097,52.8111111 L1.08387097,70.5944444 C1.62580645,71.6722222 2.16774194,72.75 2.98064516,73.0194444" id="a"></path>
                </g>
                <g id="Clipped" transform="translate(1.000000, 1.000000)">
                    <mask id="mask-2" fill="white">
                        <use xlink:href="#path-1"></use>
                    </mask>
                    <g id="a"></g>
                    <g id="Group" mask="url(#mask-2)">
                        <g transform="translate(-1.000000, -1.000000)">
                            <g id="c-link">
                                <polygon id="c" fill="#0B0B0B" fill-rule="nonzero" points="1.35483871 1.34722222 83.7290323 1.34722222 83.7290323 97.8083333 1.35483871 97.8083333"></polygon>
                            </g>
                            <g id="Clipped" transform="translate(1.000000, 1.000000)">
                                <mask id="mask-4" fill="white">
                                    <use xlink:href="#path-3"></use>
                                </mask>
                                <g id="c"></g>
                                <polygon id="Shape" fill="url(#linearGradient-5)" fill-rule="nonzero" mask="url(#mask-4)" points="-13.4645161 -13.3944444 95.1935484 -13.3944444 95.1935484 108.394444 -13.4645161 108.394444"></polygon>
                            </g>
                        </g>
                    </g>
                </g>
                <g id="e-link" transform="translate(27.096774, 64.666667)" fill="#0B0B0B">
                    <path d="M1.62580645,2.15555556 C1.08387097,1.88611111 0.541935484,2.15555556 0.541935484,2.96388889 L0.541935484,6.46666667 C0.541935484,7.275 1.08387097,8.08333333 1.62580645,8.62222222 L9.21290323,14.0111111 C9.75483871,14.2805556 10.2967742,14.0111111 10.2967742,13.2027778 L10.2967742,9.43055556 C10.2967742,8.62222222 9.75483871,7.81388889 9.21290323,7.275 L1.62580645,2.15555556" id="e"></path>
                </g>
                <g id="Clipped" transform="translate(27.096774, 66.666667)">
                    <mask id="mask-7" fill="white">
                        <use xlink:href="#path-6"></use>
                    </mask>
                    <g id="e"></g>
                    <g id="Group" mask="url(#mask-7)">
                        <g transform="translate(-27.096774, -66.666667)">
                            <g id="g-link">
                                <polygon id="g" fill="#0B0B0B" fill-rule="nonzero" points="1.35483871 1.34722222 83.7290323 1.34722222 83.7290323 97.8083333 1.35483871 97.8083333"></polygon>
                            </g>
                            <g id="Clipped" transform="translate(1.000000, 1.000000)">
                                <mask id="mask-9" fill="white">
                                    <use xlink:href="#path-8"></use>
                                </mask>
                                <g id="g"></g>
                                <polygon id="Shape" fill="url(#linearGradient-5)" fill-rule="nonzero" mask="url(#mask-9)" points="12.8193548 51.8111111 49.9419355 51.8111111 49.9419355 91.4194444 12.8193548 91.4194444"></polygon>
                            </g>
                        </g>
                    </g>
                </g>
                <g id="i-link" transform="translate(21.677419, 51.194444)" fill="#0B0B0B">
                    <path d="M2.16774194,1.07777778 C1.62580645,0.808333333 1.08387097,1.07777778 1.08387097,1.88611111 L1.08387097,5.38888889 C1.08387097,6.19722222 1.62580645,7.00555556 2.16774194,7.275 L14.3612903,15.3583333 C14.9032258,15.6277778 15.4451613,15.3583333 15.4451613,14.55 L15.4451613,11.0472222 C15.4451613,10.2388889 14.9032258,9.43055556 14.3612903,9.16111111 L2.16774194,1.07777778" id="i"></path>
                </g>
                <g id="Clipped" transform="translate(22.677419, 51.194444)">
                    <mask id="mask-11" fill="white">
                        <use xlink:href="#path-10"></use>
                    </mask>
                    <g id="i"></g>
                    <g id="Group" mask="url(#mask-11)">
                        <g transform="translate(-22.677419, -51.194444)">
                            <g id="k-link">
                                <polygon id="k" fill="#0B0B0B" fill-rule="nonzero" points="1.35483871 1.34722222 83.7290323 1.34722222 83.7290323 97.8083333 1.35483871 97.8083333"></polygon>
                            </g>
                            <g id="Clipped" transform="translate(1.000000, 1.000000)">
                                <mask id="mask-13" fill="white">
                                    <use xlink:href="#path-12"></use>
                                </mask>
                                <g id="k"></g>
                                <polygon id="Shape" fill="url(#linearGradient-5)" fill-rule="nonzero" mask="url(#mask-13)" points="8.21290323 37.2611111 49.9419355 37.2611111 49.9419355 79.2944444 8.21290323 79.2944444"></polygon>
                            </g>
                        </g>
                    </g>
                </g>
            </g>
        </g>
    </g>
</svg>