<svg xmlns="http://www.w3.org/2000/svg" width="24" height="33" viewBox="0 0 24 33">
    <g fill="none" fill-rule="nonzero">
        <path fill="#FFF" d="M19.798 18.552v-.2h-4.645v.55h1.009v-.35zM1.6 23.161h6.996v-.997H.591v9.207c0 .574.446 1.046 1.014 1.097a1.103 1.103 0 0 1-.005-.1V23.16zM6.916 11.402v-.997H2.271v10.263H3.28v-9.266zM5.99 2.694C5.894 2.108 5.7 1.557 5.448 1.5c-.416.202-1.458 1.527-2.32 2.945V8.91h1.008V5.243C4.762 4.212 5.484 3.23 5.99 2.694z"/>
        <path fill="#FFDC8D" d="M2 9h6a1 1 0 0 1 1 1v11H1V10a1 1 0 0 1 1-1z"/>
        <rect width="10" height="11" y="21" fill="#5C5F6E" rx="1"/>
        <rect width="10" height="22" x="14" y="10" fill="#5C5F6E" rx="1"/>
        <path fill="#FF7070" d="M8.175 8.91h-.098V3.48c0-.032-.002-.786-.2-1.552C7.441.251 6.455 0 5.906 0c-.691 0-1.436.615-2.49 2.055-.652.892-1.174 1.769-1.196 1.806a.741.741 0 0 0-.104.379v4.67h6.058z"/>
    </g>
</svg>
