<?xml version="1.0" encoding="UTF-8"?>
<svg width="250px" height="57px" viewBox="0 0 250 57" version="1.1" xmlns="http://www.w3.org/2000/svg" xmlns:xlink="http://www.w3.org/1999/xlink">
    <!-- Generator: Sketch 48.1 (47250) - http://www.bohemiancoding.com/sketch -->
    <title>Tookan_250</title>
    <desc>Created with Sketch.</desc>
    <defs></defs>
    <g id="Desktop-Connect" stroke="none" stroke-width="1" fill="none" fill-rule="evenodd" transform="translate(-173.000000, -204.000000)">
        <g id="Tookan_250" transform="translate(173.000000, 204.000000)">
            <g id="Group-2">
                <g id="Weedmaps-icon_text_small">
                    <g>
                        <polygon id="Fill-88" fill="#00CDBE" points="24.3180052 34.0584396 19.7797927 17.5027582 19.6806995 17.5027582 15.3393782 34.0584396 8.08873057 34.0584396 0 9.3956044 7.39896373 9.3956044 12.0841969 26.1385714 12.1839378 26.1385714 16.4255181 9.3956044 23.2338083 9.3956044 27.5744819 26.090967 27.6729275 26.090967 32.357513 9.3956044 39.5608808 9.3956044 31.5194301 34.0584396"></polygon>
                        <path d="M54.2124352,15.2077253 C53.3743523,14.3182747 52.0997409,13.8735495 50.3898964,13.8735495 C49.2720207,13.8735495 48.3439119,14.0551978 47.6023316,14.421 C46.8639896,14.7868022 46.2707254,15.239044 45.8270725,15.7783516 C45.3834197,16.3207912 45.0705959,16.8945495 44.8898964,17.4971209 C44.7091969,18.1021978 44.6029793,18.6415055 44.5686528,19.1206813 L55.9630829,19.1206813 C55.6353627,17.4019121 55.0518135,16.0996813 54.2124352,15.2077253 M46.2966321,28.1824286 C47.3484456,29.168967 48.8607513,29.6612967 50.8335492,29.6612967 C52.2467617,29.6612967 53.4643782,29.3218022 54.4831606,28.6378022 C55.5032383,27.9538022 56.1295337,27.2297143 56.359456,26.4667912 L62.5259067,26.4667912 C61.5382124,29.4245275 60.0265544,31.5397912 57.986399,32.8107033 C55.9481865,34.0841209 53.4805699,34.7186374 50.5874352,34.7186374 C48.5816062,34.7186374 46.7713731,34.4104615 45.1606218,33.7897253 C43.5498705,33.1714945 42.1839378,32.2845495 41.0673575,31.1426703 C39.9494819,29.9982857 39.0867876,28.6296593 38.4773316,27.038044 C37.8678756,25.4483077 37.5647668,23.6988462 37.5647668,21.7909121 C37.5647668,19.9462418 37.8775907,18.2287253 38.501943,16.638989 C39.1262953,15.0498791 40.0142487,13.6737363 41.1664508,12.5130659 C42.3160622,11.3505165 43.6891192,10.4372637 45.2843264,9.77142857 C46.878886,9.10308791 48.6470207,8.76923077 50.5874352,8.76923077 C52.7571244,8.76923077 54.6476684,9.17386813 56.259715,9.9843956 C57.8717617,10.7949231 59.1955959,11.8841868 60.2305699,13.2528132 C61.267487,14.6208132 62.0142487,16.1786044 62.4753886,17.9286923 C62.9352332,19.6756484 63.1010363,21.504033 62.9676166,23.4144725 L44.5686528,23.4144725 C44.6670984,25.6061538 45.242228,27.1983956 46.2966321,28.1824286" id="Fill-89" fill="#00CDBE"></path>
                        <path d="M81.4151554,15.2077253 C80.5757772,14.3182747 79.3024611,13.8735495 77.5913212,13.8735495 C76.4740933,13.8735495 75.5466321,14.0551978 74.8050518,14.421 C74.0667098,14.7868022 73.4734456,15.239044 73.0297927,15.7783516 C72.5861399,16.3207912 72.2733161,16.8945495 72.0926166,17.4971209 C71.9119171,18.1021978 71.8044041,18.6415055 71.7700777,19.1206813 L83.1658031,19.1206813 C82.8380829,17.4019121 82.2545337,16.0996813 81.4151554,15.2077253 M73.498057,28.1824286 C74.5511658,29.168967 76.0621762,29.6612967 78.0362694,29.6612967 C79.4494819,29.6612967 80.6670984,29.3218022 81.6858808,28.6378022 C82.7046632,27.9538022 83.3303109,27.2297143 83.5615285,26.4667912 L89.7286269,26.4667912 C88.7389896,29.4245275 87.2279793,31.5397912 85.1891192,32.8107033 C83.1509067,34.0841209 80.6832902,34.7186374 77.7901554,34.7186374 C75.7843264,34.7186374 73.9740933,34.4104615 72.363342,33.7897253 C70.7512953,33.1714945 69.386658,32.2845495 68.2700777,31.1426703 C67.1522021,29.9982857 66.2882124,28.6296593 65.6800518,27.038044 C65.0705959,25.4483077 64.7668394,23.6988462 64.7668394,21.7909121 C64.7668394,19.9462418 65.0783679,18.2287253 65.7046632,16.638989 C66.3290155,15.0498791 67.2169689,13.6737363 68.3678756,12.5130659 C69.5187824,11.3505165 70.8898964,10.4372637 72.4870466,9.77142857 C74.0816062,9.10308791 75.8484456,8.76923077 77.7901554,8.76923077 C79.9598446,8.76923077 81.8503886,9.17386813 83.4624352,9.9843956 C85.0731865,10.7949231 86.3970207,11.8841868 87.4332902,13.2528132 C88.4689119,14.6208132 89.2169689,16.1786044 89.6781088,17.9286923 C90.1379534,19.6756484 90.3024611,21.504033 90.1703368,23.4144725 L71.7700777,23.4144725 C71.8698187,25.6061538 72.4449482,27.1983956 73.498057,28.1824286" id="Fill-91" fill="#00CDBE"></path>
                        <path d="M110.213731,18.7241868 C110.016192,17.7846264 109.679404,16.9584396 109.201425,16.2431209 C108.725389,15.5271758 108.108161,14.9484066 107.352979,14.5011758 C106.595207,14.0564505 105.643135,13.8353407 104.492228,13.8353407 C103.340026,13.8353407 102.371114,14.0564505 101.582254,14.5011758 C100.792098,14.9484066 100.158031,15.5353187 99.6832902,16.2669231 C99.2046632,16.9979011 98.8601036,17.8322308 98.6463731,18.7717912 C98.4319948,19.7082198 98.3257772,20.6872418 98.3257772,21.7057253 C98.3257772,22.6578132 98.4397668,23.613033 98.6709845,24.5682527 C98.9009067,25.520967 99.2707254,26.3734615 99.7810881,27.1207253 C100.291451,27.867989 100.930699,28.4730659 101.704663,28.9334505 C102.477332,29.3938352 103.406736,29.6230879 104.492228,29.6230879 C105.643135,29.6230879 106.603627,29.401978 107.377591,28.9572527 C108.150259,28.5125275 108.766192,27.914967 109.226036,27.1677033 C109.687176,26.4204396 110.016192,25.5679451 110.213731,24.6158571 C110.411269,23.6606374 110.510363,22.6766044 110.510363,21.6581209 C110.510363,20.6396374 110.411269,19.6606154 110.213731,18.7241868 L110.213731,18.7241868 Z M110.510363,30.9121648 C109.687176,32.2463407 108.611399,33.2122088 107.279145,33.7984945 C105.946244,34.3854066 104.443005,34.6804286 102.765544,34.6804286 C100.858808,34.6804286 99.1800518,34.3246484 97.7338083,33.6068242 C96.2862694,32.8933846 95.0945596,31.9225055 94.1573834,30.6991978 C93.2202073,29.4727582 92.5129534,28.0652967 92.0369171,26.4755604 C91.5589378,24.8864505 91.3212435,23.2315714 91.3212435,21.5134286 C91.3212435,19.8610549 91.5589378,18.2638022 92.0369171,16.7191648 C92.5129534,15.177033 93.2202073,13.8171758 94.1573834,12.6408462 C95.0945596,11.4645165 96.2700777,10.5174396 97.6845855,9.804 C99.0984456,9.08868132 100.742876,8.73102198 102.617228,8.73102198 C104.128886,8.73102198 105.568005,9.04107692 106.933938,9.66243956 C108.298575,10.2806703 109.375648,11.1932967 110.163212,12.4040769 L110.262306,12.4040769 L110.262306,0 L117.267487,0 L117.267487,34.0615714 L110.608161,34.0615714 L110.608161,30.9121648 L110.510363,30.9121648 Z" id="Fill-93" fill="#00CDBE"></path>
                        <path d="M180.80829,18.7623956 C180.612694,17.8228352 180.275259,16.9966484 179.79728,16.2813297 C179.319948,15.5653846 178.704016,14.9866154 177.947539,14.5393846 C177.191062,14.0946593 176.237694,13.8735495 175.086788,13.8735495 C173.935881,13.8735495 172.965674,14.0946593 172.176813,14.5393846 C171.386658,14.9866154 170.753886,15.5735275 170.27785,16.3051319 C169.800518,17.0361099 169.455959,17.8704396 169.242876,18.81 C169.026554,19.7464286 168.921632,20.7254505 168.921632,21.7439341 C168.921632,22.696022 169.035622,23.6512418 169.266839,24.6064615 C169.495466,25.5591758 169.867228,26.4116703 170.375648,27.1589341 C170.88601,27.9061978 171.526554,28.5112747 172.299223,28.9716593 C173.071891,29.432044 174.002591,29.6612967 175.086788,29.6612967 C176.237694,29.6612967 177.199482,29.4401868 177.97215,28.9954615 C178.744819,28.5507363 179.360751,27.9531758 179.821891,27.2059121 C180.281736,26.4586484 180.612694,25.6061538 180.80829,24.6540659 C181.005829,23.6988462 181.104922,22.7148132 181.104922,21.6963297 C181.104922,20.6778462 181.005829,19.6988242 180.80829,18.7623956 L180.80829,18.7623956 Z M181.104922,30.9503736 C180.281736,32.2845495 179.205959,33.2504176 177.874352,33.8367033 C176.542098,34.4236154 175.037565,34.7186374 173.360104,34.7186374 C171.453368,34.7186374 169.775907,34.3628571 168.328368,33.645033 C166.882124,32.9315934 165.689119,31.9607143 164.753238,30.7374066 C163.814767,29.510967 163.108808,28.1035055 162.631477,26.5137692 C162.153497,24.9246593 161.917098,23.2697802 161.917098,21.5516374 C161.917098,19.8992637 162.153497,18.302011 162.631477,16.7573736 C163.108808,15.2152418 163.814767,13.8553846 164.753238,12.6790549 C165.689119,11.5027253 166.864637,10.5556484 168.279145,9.84220879 C169.693005,9.12689011 171.337435,8.76923077 173.211788,8.76923077 C174.723446,8.76923077 176.162565,9.07928571 177.528497,9.70064835 C178.893135,10.3188791 179.970207,11.2315055 180.759067,12.4422857 L180.857513,12.4422857 L180.857513,9.31918681 L187.862047,9.31918681 L187.862047,34.0997802 L181.20272,34.0997802 L181.20272,30.9503736 L181.104922,30.9503736 Z" id="Fill-95" fill="#00CDBE"></path>
                        <path d="M128.370466,9.43757143 L128.370466,12.7736374 C129.390544,11.5033516 130.499352,10.5161868 131.79987,9.81903297 C133.097798,9.12187912 134.587435,8.76923077 136.263601,8.76923077 C137.875648,8.76923077 139.345855,9.07176923 140.678756,9.67684615 C142.01101,10.2794176 143.021373,11.3423736 143.71114,12.8713516 C144.467617,11.7896044 145.496114,10.835011 146.795337,10.0081978 C148.09456,9.18514286 149.631477,8.76923077 151.406736,8.76923077 C152.755181,8.76923077 154.005181,8.92958242 155.154793,9.24527473 C156.306995,9.5666044 157.292746,10.0714615 158.115933,10.7717473 C158.937824,11.4714066 159.578368,12.3846593 160.039508,13.5158901 C160.500648,14.6446154 160.729275,16.0025934 160.729275,17.5942088 L160.729275,34.1004066 L153.724741,34.1004066 L153.724741,20.1203736 C153.724741,19.2941868 153.692358,18.514978 153.626943,17.784 C153.560233,17.0523956 153.380829,16.4185055 153.085492,15.8760659 C152.78886,15.3367582 152.352332,14.9076923 151.776554,14.586989 C151.20013,14.2712967 150.420337,14.1103187 149.43329,14.1103187 C148.448187,14.1103187 147.650907,14.2944725 147.041451,14.6602747 C146.43329,15.0260769 145.957254,15.5027473 145.610104,16.0896593 C145.264896,16.6790769 145.034974,17.3474176 144.920337,18.0940549 C144.805052,18.8413187 144.748057,19.5967253 144.748057,20.3596484 L144.748057,34.1004066 L137.743523,34.1004066 L137.743523,20.2650659 C137.743523,19.5334615 137.727332,18.81 137.694301,18.0940549 C137.661917,17.3787363 137.521373,16.7185385 137.275259,16.1128352 C137.02785,15.5102637 136.617228,15.0260769 136.041451,14.6602747 C135.465026,14.2944725 134.618523,14.1103187 133.500648,14.1103187 C133.17228,14.1103187 132.737047,14.1817253 132.194301,14.3264176 C131.651554,14.4686044 131.123705,14.7391978 130.615285,15.1369451 C130.104922,15.5340659 129.669689,16.1078242 129.307642,16.8550879 C128.945596,17.6023516 128.766192,18.5782418 128.766192,19.789022 L128.766192,34.1004066 L121.761658,34.1004066 L121.761658,9.43757143 L128.370466,9.43757143 Z" id="Fill-97" fill="#00CDBE"></path>
                        <path d="M207.46956,28.9954615 C208.242228,28.5507363 208.86658,27.9694615 209.345207,27.2535165 C209.821891,26.5375714 210.157383,25.7038681 210.356218,24.7486484 C210.553756,23.7959341 210.651554,22.8250549 210.651554,21.8385165 C210.651554,20.851978 210.544041,19.8836044 210.331606,18.9283846 C210.11658,17.9756703 209.764249,17.1231758 209.272021,16.3759121 C208.777202,15.6286484 208.14443,15.0260769 207.371762,14.5631868 C206.599093,14.1028022 205.653497,13.8735495 204.535622,13.8735495 C203.382772,13.8735495 202.421632,14.1028022 201.650259,14.5631868 C200.875648,15.0260769 200.251295,15.6205055 199.775259,16.3521099 C199.297927,17.0837143 198.961788,17.9286923 198.762953,18.8807802 C198.566062,19.836 198.466969,20.8225385 198.466969,21.8385165 C198.466969,22.8250549 198.575777,23.7959341 198.787565,24.7486484 C199.001295,25.7038681 199.346503,26.5375714 199.824482,27.2535165 C200.300518,27.9694615 200.935881,28.5507363 201.723446,28.9954615 C202.512306,29.4401868 203.466321,29.6612967 204.584197,29.6612967 C205.735104,29.6612967 206.696891,29.4401868 207.46956,28.9954615 L207.46956,28.9954615 Z M198.370466,9.43757143 L198.370466,12.5844725 L198.466969,12.5844725 C199.322539,11.2502967 200.406736,10.2794176 201.723446,9.67684615 C203.03886,9.07176923 204.485104,8.76923077 206.064119,8.76923077 C208.069301,8.76923077 209.79728,9.13503297 211.243523,9.86601099 C212.690415,10.5976154 213.890544,11.565989 214.845207,12.7736374 C215.797927,13.9844176 216.505181,15.3918791 216.965026,16.9972747 C217.426166,18.6045495 217.656088,20.2807253 217.656088,22.0308132 C217.656088,23.6831868 217.426166,25.2748022 216.965026,26.8012747 C216.505181,28.3271209 215.805699,29.6794615 214.869819,30.8532857 C213.932642,32.0321209 212.764249,32.9710549 211.365933,33.6688352 C209.96956,34.3684945 208.333549,34.7186374 206.460492,34.7186374 C204.880829,34.7186374 203.425518,34.4104615 202.093264,33.7897253 C200.761658,33.1714945 199.667746,32.2557363 198.812176,31.044956 L198.714378,31.044956 L198.714378,42.7362198 L191.709845,42.7362198 L191.709845,9.43757143 L198.370466,9.43757143 Z" id="Fill-99" fill="#00CDBE"></path>
                        <path d="M226.040155,27.9694615 C226.352979,28.4931099 226.754534,28.9246813 227.248057,29.256033 C227.742228,29.5905165 228.307642,29.8379341 228.951425,29.9982857 C229.590674,30.1561319 230.257124,30.2350549 230.946891,30.2350549 C231.440415,30.2350549 231.959197,30.1799341 232.501943,30.0690659 C233.044689,29.9588242 233.536917,29.7821868 233.98057,29.5429121 C234.426813,29.3061429 234.795337,28.9879451 235.090674,28.5908242 C235.387306,28.1930769 235.535622,27.6907253 235.535622,27.0856484 C235.535622,26.0696703 234.837435,25.3067473 233.439119,24.7962527 C232.040803,24.2882637 230.091321,23.7777692 227.593912,23.2697802 C226.573187,23.0492967 225.579016,22.7862198 224.610104,22.4836813 C223.639249,22.1805165 222.775259,21.7833956 222.018782,21.2885604 C221.262306,20.7968571 220.654793,20.1786264 220.194948,19.4307363 C219.733161,18.6834725 219.501943,17.7683407 219.501943,16.6865934 C219.501943,15.0974835 219.824482,13.7921209 220.466969,12.7736374 C221.106218,11.7582857 221.953368,10.9559011 223.006477,10.3664835 C224.05829,9.77957143 225.24158,9.36616484 226.556995,9.12689011 C227.872409,8.88761538 229.22215,8.76923077 230.602979,8.76923077 C231.983808,8.76923077 233.323187,8.89575824 234.622409,9.15069231 C235.921632,9.40562637 237.079663,9.83469231 238.099741,10.4372637 C239.119819,11.042967 239.966321,11.8453516 240.640544,12.8475495 C241.314119,13.8503736 241.718264,15.1131429 241.849093,16.6396154 L235.189767,16.6396154 C235.090674,15.3367582 234.580311,14.4529451 233.659326,13.9919341 C232.739637,13.5315495 231.654145,13.3004176 230.40544,13.3004176 C230.01101,13.3004176 229.582254,13.3235934 229.122409,13.3711978 C228.661269,13.4188022 228.242228,13.524033 227.864637,13.6818791 C227.486399,13.8397253 227.165155,14.0714835 226.90285,14.3708901 C226.639896,14.6765604 226.507772,15.0818242 226.507772,15.5891868 C226.507772,16.1948901 226.73899,16.6865934 227.198834,17.0680549 C227.658679,17.4495165 228.259067,17.7601978 229,17.9994725 C229.73899,18.2362418 230.584845,18.4523407 231.540155,18.6415055 C232.493523,18.8338022 233.463731,19.0417582 234.451425,19.2628681 C235.468912,19.4864835 236.463083,19.7570769 237.434585,20.0733956 C238.404793,20.3940989 239.268135,20.815022 240.024611,21.3386703 C240.779793,21.8623187 241.387953,22.515 241.849093,23.2935824 C242.310233,24.0752967 242.540155,25.0355275 242.540155,26.1805385 C242.540155,27.800967 242.20272,29.1614505 241.529145,30.2588571 C240.854275,31.3556374 239.975389,32.2375714 238.889896,32.9084176 C237.804404,33.5742527 236.562176,34.0452857 235.165155,34.3158791 C233.768135,34.5845934 232.345207,34.7186374 230.897668,34.7186374 C229.417746,34.7186374 227.971503,34.5764505 226.556995,34.2895714 C225.143782,34.0026923 223.885363,33.5266484 222.783679,32.8583077 C221.681347,32.1924725 220.778497,31.3086593 220.070596,30.2112527 C219.363342,29.1138462 218.977332,27.7408352 218.911917,26.0853297 L225.570596,26.0853297 C225.570596,26.8169341 225.727332,27.4458132 226.040155,27.9694615" id="Fill-101" fill="#00CDBE"></path>
                        <path d="M121.270078,48.7794725 C136.411269,48.7794725 144.07513,43.2197802 144.07513,43.2197802 L147.332902,47.4822527 C147.332902,47.4822527 136.027202,56.7494505 121.270078,56.7494505 C106.512953,56.7494505 95.2072539,47.4822527 95.2072539,47.4822527 L98.4650259,43.2197802 C98.4650259,43.2197802 106.129534,48.7794725 121.270078,48.7794725" id="Fill-103" fill="#000000"></path>
                        <path d="M245.544689,11.9198901 L245.850389,11.9198901 C246.285622,11.9198901 246.555052,11.9036044 246.660622,11.8716593 C246.765544,11.8390879 246.847798,11.7827143 246.908679,11.7012857 C246.96956,11.6204835 247.000648,11.529033 247.000648,11.4256813 C247.000648,11.3260879 246.970855,11.2371429 246.911269,11.1588462 C246.852332,11.0811758 246.767487,11.0254286 246.658031,10.990978 C246.548575,10.9577802 246.279793,10.9408681 245.850389,10.9408681 L245.544689,10.9408681 L245.544689,11.9198901 Z M244.792098,13.9587363 L244.792098,10.3714945 L245.544689,10.3714945 C246.250648,10.3714945 246.645725,10.374 246.731218,10.3802637 C246.98057,10.4003077 247.174223,10.4485385 247.312824,10.5237033 C247.451425,10.5988681 247.56671,10.7134945 247.659326,10.8675824 C247.752591,11.0222967 247.798575,11.1932967 247.798575,11.3818352 C247.798575,11.6405275 247.71114,11.8622637 247.536269,12.0457912 C247.361399,12.2299451 247.115933,12.3439451 246.79987,12.3877912 C246.911917,12.4285055 246.998705,12.4742308 247.059585,12.5224615 C247.120466,12.5706923 247.204016,12.6627692 247.310233,12.7980659 C247.338083,12.8337692 247.428756,12.9790879 247.584197,13.2346484 L248.022021,13.9587363 L247.091321,13.9587363 L246.781088,13.3762088 C246.571244,12.9847253 246.397668,12.7385604 246.26101,12.6370879 C246.124352,12.5356154 245.951425,12.4848791 245.740933,12.4848791 L245.544689,12.4848791 L245.544689,13.9587363 L244.792098,13.9587363 Z M246.375,9.43130769 C245.895078,9.43130769 245.433938,9.54781319 244.992876,9.77957143 C244.551813,10.0125824 244.204016,10.3458132 243.95013,10.7817692 C243.696244,11.2170989 243.569301,11.6724725 243.569301,12.1497692 C243.569301,12.6233077 243.693005,13.0749231 243.941062,13.503989 C244.189119,13.9336813 244.534974,14.2694176 244.979275,14.5099451 C245.422927,14.7510989 245.888601,14.871989 246.375,14.871989 C246.865285,14.871989 247.330959,14.7510989 247.773316,14.5099451 C248.216321,14.2694176 248.562176,13.9336813 248.811528,13.503989 C249.060881,13.0749231 249.185881,12.6233077 249.185881,12.1497692 C249.185881,11.6724725 249.058938,11.2170989 248.805052,10.7817692 C248.550518,10.3458132 248.20272,10.0125824 247.760363,9.77957143 C247.317358,9.54781319 246.85557,9.43130769 246.375,9.43130769 L246.375,9.43130769 Z M246.370466,8.76923077 C246.96956,8.76923077 247.544689,8.91454945 248.095207,9.20456044 C248.645725,9.49394505 249.078368,9.90923077 249.393135,10.4504176 C249.708549,10.9922308 249.865933,11.5584725 249.865933,12.1497692 C249.865933,12.7379341 249.71114,13.2991648 249.402202,13.8328352 C249.093912,14.3671319 248.663212,14.783044 248.111399,15.0818242 C247.559585,15.3806044 246.978627,15.5296813 246.370466,15.5296813 C245.762306,15.5296813 245.181995,15.3806044 244.630181,15.0818242 C244.07772,14.783044 243.647668,14.3671319 243.338731,13.8328352 C243.029793,13.2991648 242.875648,12.7379341 242.875648,12.1497692 C242.875648,11.5584725 243.033031,10.9922308 243.347798,10.4504176 C243.662565,9.90923077 244.095207,9.49394505 244.646373,9.20456044 C245.196891,8.91454945 245.771373,8.76923077 246.370466,8.76923077 L246.370466,8.76923077 Z" id="Fill-105" fill="#00CDBE"></path>
                    </g>
                </g>
            </g>
        </g>
    </g>
</svg>