<?xml version="1.0" encoding="UTF-8" standalone="no"?>
<svg width="100px" height="100px" viewBox="0 0 100 100" version="1.1" xmlns="http://www.w3.org/2000/svg" xmlns:xlink="http://www.w3.org/1999/xlink">
    <!-- Generator: Sketch 3.8.3 (29802) - http://www.bohemiancoding.com/sketch -->
    <title>white_label</title>
    <desc>Created with Sketch.</desc>
    <defs>
        <linearGradient x1="50%" y1="0%" x2="50%" y2="100%" id="linearGradient-1">
            <stop stop-color="#26A69A" offset="0%"></stop>
            <stop stop-color="#00796B" offset="100%"></stop>
        </linearGradient>
        <linearGradient x1="50%" y1="0%" x2="50%" y2="100%" id="linearGradient-2">
            <stop stop-color="#3AC2ED" offset="0%"></stop>
            <stop stop-color="#1583A7" offset="100%"></stop>
        </linearGradient>
    </defs>
    <g id="Page-1" stroke="none" stroke-width="1" fill="none" fill-rule="evenodd">
        <g id="white_label">
            <g id="white_label-copy" transform="translate(5.000000, 9.000000)">
                <path d="M0.164,65.938 C-0.517,68.49 0.996,71.115 3.551,71.803 L19.311,76.024 L8.385,35.255 L0.164,65.938 L0.164,65.938 Z" id="Shape" fill="#DDDDDD"></path>
                <path d="M26.539,78.34 C27.227,80.893 29.85,82.409 32.403,81.727 L50.012,77.006 L17.461,44.459 L26.539,78.34 L26.539,78.34 Z" id="Shape" fill="#DDDDDD"></path>
                <path d="M88.597,38.857 L51.233,1.491 C50.351,0.609 49.155,0.114 47.908,0.113 L22.387,0.11 C18.861,0.11 16,2.97 16,6.497 L15.999,32.022 C15.999,33.269 16.494,34.466 17.376,35.348 L54.742,72.713 C55.678,73.649 56.903,74.116 58.128,74.116 C59.353,74.116 60.578,73.648 61.514,72.713 L88.597,45.626 C90.466,43.756 90.466,40.726 88.597,38.857 L88.597,38.857 Z M29.833,17.776 C27.072,17.776 24.833,15.537 24.833,12.776 C24.833,10.015 27.072,7.776 29.833,7.776 C32.594,7.776 34.833,10.015 34.833,12.776 C34.833,15.538 32.594,17.776 29.833,17.776 L29.833,17.776 Z" id="Shape" fill="url(#linearGradient-2)"></path>
            </g>
        </g>
    </g>
</svg>