<?xml version="1.0" encoding="UTF-8" standalone="no"?>
<svg width="84px" height="84px" viewBox="0 0 84 84" version="1.1" xmlns="http://www.w3.org/2000/svg" xmlns:xlink="http://www.w3.org/1999/xlink">
    <!-- Generator: sketchtool 42 (36781) - http://www.bohemiancoding.com/sketch -->
    <title>EF1FE697-3AC0-41BB-9BDC-C9CC62210B39</title>
    <desc>Created with sketchtool.</desc>
    <defs></defs>
    <g id="Page-1" stroke="none" stroke-width="1" fill="none" fill-rule="evenodd">
        <g id="16---Add-Ons" transform="translate(-691.000000, -1337.000000)" fill-rule="nonzero" fill="#4695F6">
            <g id="Group-6-Copy-11" transform="translate(610.000000, 1301.000000)">
                <g id="zapier" transform="translate(81.000000, 36.000000)">
                    <path d="M52.4996719,42.018375 C52.5011121,45.0471846 51.9547403,48.0512844 50.8869375,50.885625 C48.0515611,51.9532761 45.0467883,52.5004978 42.0170625,52.5009844 L41.981625,52.5009844 C38.8618125,52.4970469 35.8725937,51.9267656 33.114375,50.8869375 C32.0459055,48.0522744 31.4989764,45.0477216 31.5,42.018375 L31.5,41.981625 C31.4985396,38.9533881 32.0443412,35.9498117 33.1110937,33.1156875 C35.94627,32.046043 38.9517119,31.4986491 41.9819531,31.5 L42.0173906,31.5 C45.047292,31.4985401 48.0524111,32.0458248 50.8872656,33.1153594 C51.9551921,35.9492099 52.5015707,38.9529024 52.5,41.9812969 L52.5,42.0180469 L52.4996719,42.018375 Z M83.4165938,35.0001094 L58.9004063,35.0001094 L76.2349219,17.6642813 C74.8743427,15.7530079 73.3566388,13.9586095 71.6976094,12.2997656 L71.6976094,12.2984531 C70.0385299,10.6413827 68.2446234,9.12504051 66.3344062,7.76507813 L48.9985781,25.1009063 L48.9985781,0.58471875 C46.6929332,0.196851461 44.3590415,0.00127210746 42.021,7.10542736e-15 L41.9776875,7.10542736e-15 C39.5994375,0.0013125 37.2700781,0.2034375 35.0001094,0.58471875 L35.0001094,25.1009063 L17.6642813,7.76507813 C15.7537509,9.12467392 13.9606077,10.6421009 12.3037031,12.3014063 L12.2945156,12.3079688 C10.6383188,13.9647439 9.12273898,15.7563527 7.7634375,17.6642813 L25.1005781,35.0001094 L0.58471875,35.0001094 C0.58471875,35.0001094 0,39.6046875 0,41.9855625 L0,42.0144375 C0,44.3953125 0.201796875,46.7286094 0.58471875,48.9998906 L25.1009063,48.9998906 L7.76376562,66.3357188 C10.4910277,70.1629704 13.8370296,73.5089723 17.6642813,76.2362344 L35.0001094,58.8990938 L35.0001094,83.4165938 C37.3032197,83.8025336 39.6342625,83.9976652 41.9694844,84 L42.028875,84 C44.3641064,83.9978895 46.6951676,83.8027564 48.99825,83.4165938 L48.99825,58.8990938 L66.3357188,76.2362344 C68.2455384,74.8758027 70.0390062,73.3590212 71.6976094,71.7015469 L71.7015469,71.6976094 C73.3582879,70.0386972 74.8746087,68.2452549 76.2349219,66.3357188 L58.8977813,48.9998906 L83.4165938,48.9998906 C83.7982031,46.7325469 83.997375,44.4061406 84,42.0305156 L84,41.9694844 C83.997375,39.5938594 83.7982031,37.2674531 83.4165938,35.0001094 L83.4165938,35.0001094 Z" id="Shape"></path>
                </g>
            </g>
        </g>
    </g>
</svg>