<?xml version="1.0" encoding="UTF-8"?>
<svg width="62px" height="71px" viewBox="0 0 62 71" version="1.1" xmlns="http://www.w3.org/2000/svg" xmlns:xlink="http://www.w3.org/1999/xlink">
    <!-- Generator: Sketch 48.2 (47327) - http://www.bohemiancoding.com/sketch -->
    <title>csv</title>
    <desc>Created with Sketch.</desc>
    <defs></defs>
    <g id="Artboard" stroke="none" stroke-width="1" fill="none" fill-rule="evenodd" transform="translate(-33.000000, -212.000000)">
        <g id="csv" transform="translate(33.000000, 212.000000)" fill-rule="nonzero">
            <g id="Group-13" transform="translate(35.000000, 35.500000) scale(-1, 1) translate(-35.000000, -35.500000) translate(8.000000, 0.000000)">
                <path d="M5.28571429,0 C2.85,0 0.857142857,1.996875 0.857142857,4.4375 L0.857142857,66.5625 C0.857142857,69.003125 2.85,71 5.28571429,71 L49.5714286,71 C52.0071429,71 54,69.003125 54,66.5625 L54,17.75 L36.2857143,0 L5.28571429,0 Z" id="Shape" fill="#E2E5E7"></path>
                <path d="M40.7142857,17.75 L54,17.75 L36.2857143,0 L36.2857143,13.3125 C36.2857143,15.753125 38.2785714,17.75 40.7142857,17.75 Z" id="Shape" fill="#B0B7BD"></path>
            </g>
            <path d="M53.1428571,58.40625 C53.1428571,59.6265625 52.1464286,60.625 50.9285714,60.625 L2.21428571,60.625 C0.996428571,60.625 0,59.6265625 0,58.40625 L0,36.21875 C0,34.9984375 0.996428571,34 2.21428571,34 L50.9285714,34 C52.1464286,34 53.1428571,34.9984375 53.1428571,36.21875 L53.1428571,58.40625 Z" id="Shape" fill="#2296FF"></path>
            <g id="Group-10" transform="translate(9.000000, 40.000000)" fill="#FFFFFF">
                <path d="M28.8122401,11.5788302 L24.137883,1.76751772 C23.4470259,0.365267717 25.5373116,-0.786263533 26.3145259,0.684767717 L27.8910973,4.25029897 L29.9260259,8.93408022 L31.9255259,4.25029897 L33.5020973,0.684767717 C34.2106687,-0.662013533 36.2633116,0.187767717 35.6632401,1.66101772 L31.1483116,11.5788302 C30.740883,12.6970802 29.4831687,12.9611115 28.8122401,11.5788302 Z" id="Shape"></path>
                <path d="M13.2055801,3.22616984 C13.6130087,-0.217330161 18.7988658,-0.836361411 21.2434372,1.04513859 C22.4480087,2.01916984 21.1725801,3.56341984 20.1097229,2.78241984 C18.7988658,1.95038859 15.8250801,1.55988859 15.4530801,3.40145109 C14.9747944,6.31245109 22.6760801,4.64616984 22.5520801,9.36545109 C22.4280801,13.8717323 15.9136515,13.9760136 13.4690801,11.9547323 C12.8822944,11.4754823 12.9022229,10.6967011 13.2210801,10.2152323 C13.6816515,9.75595109 14.1931515,9.59620109 14.7976515,10.0932011 C16.2480087,11.0849823 19.9857229,11.8304823 20.2492229,9.30998234 C20.0211515,6.68741984 12.6564372,8.26495109 13.2055801,3.22616984 Z" id="Shape"></path>
                <path d="M0,6.3678125 C0,2.94428125 2.14342857,0 6.2155,0 C7.75664286,0 8.97892857,0.4615 10.2698571,1.57975 C10.7481429,2.02128125 10.8012857,2.80228125 10.323,3.29928125 C9.84471429,3.7230625 9.11842857,3.67203125 8.69328571,3.24603125 C7.96921429,2.48278125 7.22521429,2.272 6.2155,2.272 C3.48971429,2.272 2.18107143,4.20675 2.18107143,6.37003125 C2.18107143,8.57103125 3.472,10.5923125 6.2155,10.5923125 C7.22521429,10.5923125 8.16407143,10.1818438 8.97892857,9.4563125 C9.52585714,9.0303125 10.2875714,9.24109375 10.6064286,9.6693125 C10.8898571,10.0598125 11.0293571,10.7165625 10.4115714,11.3355937 C9.17157143,12.4915625 7.68578571,12.7223125 6.21328571,12.7223125 C1.93085714,12.7223125 0,9.79134375 0,6.3678125 Z" id="Shape"></path>
            </g>
            <path d="M50.9285714,59.90625 L8.85714286,59.90625 L8.85714286,62.125 L50.9285714,62.125 C52.1464286,62.125 53.1428571,61.1265625 53.1428571,59.90625 L53.1428571,57.6875 C53.1428571,58.9078125 52.1464286,59.90625 50.9285714,59.90625 Z" id="Shape" fill="#CAD1D8"></path>
        </g>
    </g>
</svg>