<?xml version="1.0" encoding="UTF-8"?>
<svg width="62px" height="71px" viewBox="0 0 62 71" version="1.1" xmlns="http://www.w3.org/2000/svg" xmlns:xlink="http://www.w3.org/1999/xlink">
    <!-- Generator: Sketch 48.2 (47327) - http://www.bohemiancoding.com/sketch -->
    <title>docx</title>
    <desc>Created with Sketch.</desc>
    <defs></defs>
    <g id="Artboard" stroke="none" stroke-width="1" fill="none" fill-rule="evenodd" transform="translate(-199.000000, -121.000000)">
        <g id="docx" transform="translate(199.000000, 121.000000)" fill-rule="nonzero">
            <g id="Group-16" transform="translate(35.000000, 35.500000) scale(-1, 1) translate(-35.000000, -35.500000) translate(8.000000, 0.000000)">
                <path d="M5.28571429,0 C2.85,0 0.857142857,1.996875 0.857142857,4.4375 L0.857142857,66.5625 C0.857142857,69.003125 2.85,71 5.28571429,71 L49.5714286,71 C52.0071429,71 54,69.003125 54,66.5625 L54,17.75 L36.2857143,0 L5.28571429,0 Z" id="Shape" fill="#E2E5E7"></path>
                <path d="M40.7142857,17.75 L54,17.75 L36.2857143,0 L36.2857143,13.3125 C36.2857143,15.753125 38.2785714,17.75 40.7142857,17.75 Z" id="Shape" fill="#B0B7BD"></path>
            </g>
            <path d="M53.1428571,57.40625 C53.1428571,58.6265625 52.1464286,59.625 50.9285714,59.625 L2.21428571,59.625 C0.996428571,59.625 0,58.6265625 0,57.40625 L0,35.21875 C0,33.9984375 0.996428571,33 2.21428571,33 L50.9285714,33 C52.1464286,33 53.1428571,33.9984375 53.1428571,35.21875 L53.1428571,57.40625 Z" id="Shape" fill="#2296FF"></path>
            <g id="Group-4" transform="translate(5.000000, 40.000000)" fill="#FFFFFF">
                <g id="Group-7">
                    <path d="M1.21729143,11.3571429 C0.702868571,11.3571429 0.14168,11.0813839 0.14168,10.4138571 L0.14168,1.77784821 C0.14168,1.23013393 0.702868571,0.8345625 1.21729143,0.8345625 L4.78512571,0.8345625 C11.9052057,0.8345625 11.7473714,11.3571429 4.92347429,11.3571429 L1.21729143,11.3571429 Z M2.19937143,2.68880357 L2.19937143,9.501 L4.78512571,9.501 C8.99209143,9.501 9.17720571,2.68880357 4.78512571,2.68880357 L2.19937143,2.68880357 Z" id="Shape"></path>
                    <path d="M16.83,11.5092857 C13.9480629,11.631 10.9550571,9.75964286 10.9550571,6.03404464 C10.9550571,2.29323214 13.9461143,0.454205357 16.83,0.454205357 C19.5560514,0.589232143 22.4068114,2.43016071 22.4068114,6.03404464 C22.4068114,9.63983036 19.5560514,11.5092857 16.83,11.5092857 Z M16.6585257,2.4320625 C14.9126057,2.4320625 13.0127486,3.63399107 13.0127486,6.03594643 C13.0127486,8.42458929 14.9145543,9.64173214 16.6585257,9.64173214 C18.4512114,9.64173214 20.3666571,8.42458929 20.3666571,6.03594643 C20.3666571,3.63208929 18.4512114,2.4320625 16.6585257,2.4320625 Z" id="Shape"></path>
                    <path d="M23.76,6.31526786 C23.76,3.3808125 25.6462171,0.857142857 29.22964,0.857142857 C30.5858457,0.857142857 31.6614571,1.25271429 32.7974743,2.21121429 C33.2183657,2.58966964 33.2651314,3.25909821 32.84424,3.68509821 C32.4233486,4.04833929 31.7842171,4.00459821 31.4100914,3.63945536 C30.7729086,2.98524107 30.1181886,2.80457143 29.22964,2.80457143 C26.8309486,2.80457143 25.6793429,4.46292857 25.6793429,6.31716964 C25.6793429,8.20374107 26.81536,9.93626786 29.22964,9.93626786 C30.1181886,9.93626786 30.9443829,9.5844375 31.6614571,8.96255357 C32.1427543,8.59741071 32.8130629,8.77808036 33.0936571,9.145125 C33.3430743,9.47983929 33.4658343,10.0427679 32.9221829,10.5733661 C31.8309829,11.5641964 30.5234914,11.7619821 29.2276914,11.7619821 C25.4591543,11.7619821 23.76,9.24972321 23.76,6.31526786 Z" id="Shape"></path>
                    <path d="M39.0830704,4.55954919 L41.7935333,1.24473669 C42.604139,0.210165264 44.1785847,1.53190634 43.2900362,2.52083491 C42.3566704,3.60104919 41.3745904,4.77254919 40.4392762,5.97257598 L43.6173962,9.83510276 C44.4747676,10.9761742 42.7619733,12.069701 41.9201904,10.9438438 L39.0518933,7.35517419 L36.2323104,11.021817 C35.4372933,12.1305581 33.6757847,10.8848885 34.5643333,9.85031705 L37.6956876,5.97257598 C36.7136076,4.77064741 35.7627047,3.60104919 34.8137504,2.52083491 C33.833619,1.37976348 35.6555333,0.210165264 36.3726076,1.27706705 L39.0830704,4.55954919 Z" id="Shape"></path>
                </g>
            </g>
            <path d="M50.9285714,59.90625 L8.85714286,59.90625 L8.85714286,62.125 L50.9285714,62.125 C52.1464286,62.125 53.1428571,61.1265625 53.1428571,59.90625 L53.1428571,57.6875 C53.1428571,58.9078125 52.1464286,59.90625 50.9285714,59.90625 Z" id="Shape" fill="#CAD1D8"></path>
        </g>
    </g>
</svg>