<?xml version="1.0" encoding="UTF-8"?>
<svg width="63px" height="71px" viewBox="0 0 63 71" version="1.1" xmlns="http://www.w3.org/2000/svg" xmlns:xlink="http://www.w3.org/1999/xlink">
    <!-- Generator: Sketch 48.2 (47327) - http://www.bohemiancoding.com/sketch -->
    <title>xlsx</title>
    <desc>Created with Sketch.</desc>
    <defs></defs>
    <g id="Artboard" stroke="none" stroke-width="1" fill="none" fill-rule="evenodd" transform="translate(-116.000000, -30.000000)">
        <g id="xlsx" transform="translate(116.000000, 30.000000)" fill-rule="nonzero">
            <g id="pdf">
                <g id="Group-5" transform="translate(36.000000, 35.500000) scale(-1, 1) translate(-36.000000, -35.500000) translate(9.000000, 0.000000)">
                    <path d="M4.5,0 C2.025,0 0,1.996875 0,4.4375 L0,66.5625 C0,69.003125 2.025,71 4.5,71 L49.5,71 C51.975,71 54,69.003125 54,66.5625 L54,17.75 L36,0 L4.5,0 Z" id="Shape" fill="#E2E5E7"></path>
                    <path d="M40.5,17.75 L54,17.75 L36,0 L36,13.3125 C36,15.753125 38.025,17.75 40.5,17.75 Z" id="Shape" fill="#B0B7BD"></path>
                </g>
                <path d="M54,57.40625 C54,58.6265625 52.9875,59.625 51.75,59.625 L2.25,59.625 C1.0125,59.625 0,58.6265625 0,57.40625 L0,35.21875 C0,33.9984375 1.0125,33 2.25,33 L51.75,33 C52.9875,33 54,33.9984375 54,35.21875 L54,57.40625 Z" id="Shape" fill="#2296FF"></path>
                <g id="Group-2" transform="translate(8.000000, 40.000000)" fill="#FFFFFF">
                    <g id="Group-8" transform="translate(0.555556, 0.071429)">
                        <path d="M4.93022222,4.40588409 L7.66806349,1.15026467 C8.48685714,0.13416773 10.0772063,1.43230628 9.17968254,2.40357541 C8.23688889,3.46450016 7.24488889,4.61508052 6.30012698,5.79367825 L9.51034921,9.58723135 C10.376381,10.7079265 8.64628571,11.781926 7.796,10.6761735 L4.89873016,7.15158721 L2.05066667,10.7527543 C1.24761905,11.8416964 -0.53168254,10.6182709 0.36584127,9.60217395 L3.5288254,5.79367825 C2.5368254,4.61321269 1.57631746,3.46450016 0.617777778,2.40357541 C-0.372253968,1.28288026 1.46806349,0.13416773 2.19238095,1.1820177 L4.93022222,4.40588409 Z" id="Shape"></path>
                        <path d="M11.4530159,1.71621572 C11.4530159,1.22310985 11.8939048,0.804716996 12.4450159,0.804716996 C12.9488889,0.804716996 13.3740317,1.22497768 13.3740317,1.71621572 L13.3740317,9.19872369 L17.6549841,9.19872369 C19.196127,9.19872369 19.2295873,11.1543367 17.6549841,11.1543367 L12.4469841,11.1543367 C11.895873,11.1543367 11.4549841,10.7826395 11.4549841,10.2447058 L11.4549841,1.71621572 L11.4530159,1.71621572 Z" id="Shape"></path>
                        <path d="M20.6388571,3.0610499 C21.0010159,0.162185108 25.6106667,-0.358938138 27.783619,1.22497768 C28.8543492,2.04495297 27.7206349,3.34495934 26.775873,2.68748485 C25.6106667,1.98705038 22.9673016,1.65831314 22.6366349,3.2086081 C22.2114921,5.65919483 29.0570794,4.25645807 28.9468571,8.22932239 C28.8366349,12.0228755 23.0460317,12.1106633 20.8730794,10.4090745 C20.3514921,10.0056242 20.3692063,9.35001754 20.6526349,8.94469946 C21.0620317,8.55805963 21.5166984,8.42357621 22.0540317,8.84196907 C23.3432381,9.67688696 26.6656508,10.3044762 26.899873,8.18262675 C26.6971429,5.9748573 20.1507302,7.30288106 20.6388571,3.0610499 Z" id="Shape"></path>
                        <path d="M35.1524444,4.40588409 L37.8902857,1.15026467 C38.7090794,0.13416773 40.2994286,1.43230628 39.4019048,2.40357541 C38.4591111,3.46450016 37.4671111,4.61508052 36.5223492,5.79367825 L39.7325714,9.58723135 C40.5986032,10.7079265 38.8685079,11.781926 38.0182222,10.6761735 L35.1209524,7.15158721 L32.2728889,10.7527543 C31.4698413,11.8416964 29.6905397,10.6182709 30.5880635,9.60217395 L33.7510476,5.79367825 C32.7590476,4.61321269 31.7985397,3.46450016 30.84,2.40357541 C29.8499683,1.28288026 31.6902857,0.13416773 32.4146032,1.1820177 L35.1524444,4.40588409 Z" id="Shape"></path>
                    </g>
                </g>
                <path d="M51.75,59.90625 L9,59.90625 L9,62.125 L51.75,62.125 C52.9875,62.125 54,61.1265625 54,59.90625 L54,57.6875 C54,58.9078125 52.9875,59.90625 51.75,59.90625 Z" id="Shape" fill="#CAD1D8"></path>
            </g>
        </g>
    </g>
</svg>