<?xml version="1.0" encoding="UTF-8"?>
<svg width="62px" height="71px" viewBox="0 0 62 71" version="1.1" xmlns="http://www.w3.org/2000/svg" xmlns:xlink="http://www.w3.org/1999/xlink">
    <!-- Generator: Sketch 48.2 (47327) - http://www.bohemiancoding.com/sketch -->
    <title>doc</title>
    <desc>Created with Sketch.</desc>
    <defs></defs>
    <g id="Artboard" stroke="none" stroke-width="1" fill="none" fill-rule="evenodd" transform="translate(-117.000000, -121.000000)">
        <g id="doc" transform="translate(117.000000, 121.000000)" fill-rule="nonzero">
            <g id="Group-15" transform="translate(35.000000, 35.500000) scale(-1, 1) translate(-35.000000, -35.500000) translate(8.000000, 0.000000)">
                <path d="M5.28571429,0 C2.85,0 0.857142857,1.996875 0.857142857,4.4375 L0.857142857,66.5625 C0.857142857,69.003125 2.85,71 5.28571429,71 L49.5714286,71 C52.0071429,71 54,69.003125 54,66.5625 L54,17.75 L36.2857143,0 L5.28571429,0 Z" id="Shape" fill="#E2E5E7"></path>
                <path d="M40.7142857,17.75 L54,17.75 L36.2857143,0 L36.2857143,13.3125 C36.2857143,15.753125 38.2785714,17.75 40.7142857,17.75 Z" id="Shape" fill="#B0B7BD"></path>
            </g>
            <path d="M53.1428571,57.40625 C53.1428571,58.6265625 52.1464286,59.625 50.9285714,59.625 L2.21428571,59.625 C0.996428571,59.625 0,58.6265625 0,57.40625 L0,35.21875 C0,33.9984375 0.996428571,33 2.21428571,33 L50.9285714,33 C52.1464286,33 53.1428571,33.9984375 53.1428571,35.21875 L53.1428571,57.40625 Z" id="Shape" fill="#2296FF"></path>
            <g id="Group-4" transform="translate(7.000000, 39.000000)" fill="#FFFFFF">
                <path d="M1.38328571,13.25 C0.798714286,13.25 0.161,12.9282813 0.161,12.1495 L0.161,2.07415625 C0.161,1.43515625 0.798714286,0.97365625 1.38328571,0.97365625 L5.43764286,0.97365625 C13.5286429,0.97365625 13.3492857,13.25 5.59485714,13.25 L1.38328571,13.25 Z M2.49928571,3.1369375 L2.49928571,11.0845 L5.43764286,11.0845 C10.2182857,11.0845 10.4286429,3.1369375 5.43764286,3.1369375 L2.49928571,3.1369375 Z" id="Shape"></path>
                <path d="M20.125,13.4275 C16.8500714,13.5695 13.4489286,11.38625 13.4489286,7.03971875 C13.4489286,2.6754375 16.8478571,0.52990625 20.125,0.52990625 C23.2227857,0.6874375 26.4622857,2.8351875 26.4622857,7.03971875 C26.4622857,11.2464687 23.2227857,13.4275 20.125,13.4275 Z M19.9301429,2.83740625 C17.9461429,2.83740625 15.7872143,4.23965625 15.7872143,7.0419375 C15.7872143,9.8286875 17.9483571,11.2486875 19.9301429,11.2486875 C21.9672857,11.2486875 24.1439286,9.8286875 24.1439286,7.0419375 C24.1439286,4.2374375 21.9672857,2.83740625 19.9301429,2.83740625 Z" id="Shape"></path>
                <path d="M28.5459286,7.02196875 C28.5459286,3.5984375 30.6893571,0.65415625 34.7614286,0.65415625 C36.3025714,0.65415625 37.5248571,1.11565625 38.8157857,2.23390625 C39.2940714,2.6754375 39.3472143,3.4564375 38.8689286,3.9534375 C38.3906429,4.37721875 37.6643571,4.3261875 37.2392143,3.9001875 C36.5151429,3.1369375 35.7711429,2.92615625 34.7614286,2.92615625 C32.0356429,2.92615625 30.727,4.86090625 30.727,7.0241875 C30.727,9.2251875 32.0179286,11.2464687 34.7614286,11.2464687 C35.7711429,11.2464687 36.71,10.836 37.5248571,10.1104687 C38.0717857,9.68446875 38.8335,9.89525 39.1523571,10.3234687 C39.4357857,10.7139687 39.5752857,11.3707187 38.9575,11.98975 C37.7175,13.1457187 36.2317143,13.3764687 34.7592143,13.3764687 C30.4767857,13.3764687 28.5459286,10.4455 28.5459286,7.02196875 Z" id="Shape"></path>
            </g>
            <path d="M50.9285714,59.90625 L8.85714286,59.90625 L8.85714286,62.125 L50.9285714,62.125 C52.1464286,62.125 53.1428571,61.1265625 53.1428571,59.90625 L53.1428571,57.6875 C53.1428571,58.9078125 52.1464286,59.90625 50.9285714,59.90625 Z" id="Shape" fill="#CAD1D8"></path>
        </g>
    </g>
</svg>