<?xml version="1.0" encoding="UTF-8"?>
<svg width="63px" height="71px" viewBox="0 0 63 71" version="1.1" xmlns="http://www.w3.org/2000/svg" xmlns:xlink="http://www.w3.org/1999/xlink">
    <!-- Generator: Sketch 48.2 (47327) - http://www.bohemiancoding.com/sketch -->
    <title>pdf</title>
    <desc>Created with Sketch.</desc>
    <defs></defs>
    <g id="Artboard" stroke="none" stroke-width="1" fill="none" fill-rule="evenodd" transform="translate(-33.000000, -30.000000)">
        <g id="pdf" transform="translate(33.000000, 30.000000)" fill-rule="nonzero">
            <g>
                <g id="Group-5" transform="translate(36.000000, 35.500000) scale(-1, 1) translate(-36.000000, -35.500000) translate(9.000000, 0.000000)">
                    <path d="M4.5,0 C2.025,0 0,1.996875 0,4.4375 L0,66.5625 C0,69.003125 2.025,71 4.5,71 L49.5,71 C51.975,71 54,69.003125 54,66.5625 L54,17.75 L36,0 L4.5,0 Z" id="Shape" fill="#E2E5E7"></path>
                    <path d="M40.5,17.75 L54,17.75 L36,0 L36,13.3125 C36,15.753125 38.025,17.75 40.5,17.75 Z" id="Shape" fill="#B0B7BD"></path>
                </g>
                <path d="M54,57.6875 C54,58.9078125 52.9875,59.90625 51.75,59.90625 L2.25,59.90625 C1.0125,59.90625 0,58.9078125 0,57.6875 L0,35.5 C0,34.2796875 1.0125,33.28125 2.25,33.28125 L51.75,33.28125 C52.9875,33.28125 54,34.2796875 54,35.5 L54,57.6875 Z" id="Shape" fill="#2296FF"></path>
                <g id="Group" transform="translate(9.703125, 40.769531)" fill="#FFFFFF">
                    <path d="M0.104625,1.269125 C0.104625,0.683375 0.572625,0.044375 1.326375,0.044375 L5.482125,0.044375 C7.822125,0.044375 9.928125,1.588625 9.928125,4.5484375 C9.928125,7.3529375 7.822125,8.9149375 5.482125,8.9149375 L2.478375,8.9149375 L2.478375,11.2579375 C2.478375,12.0389375 1.974375,12.4804687 1.326375,12.4804687 C0.732375,12.4804687 0.104625,12.0389375 0.104625,11.2579375 L0.104625,1.269125 Z M2.478375,2.27865625 L2.478375,6.69840625 L5.482125,6.69840625 C6.688125,6.69840625 7.642125,5.6489375 7.642125,4.5484375 C7.642125,3.30815625 6.688125,2.27865625 5.482125,2.27865625 L2.478375,2.27865625 Z" id="Shape"></path>
                    <path d="M13.451625,12.4804687 C12.857625,12.4804687 12.209625,12.1609688 12.209625,11.3821875 L12.209625,1.304625 C12.209625,0.66784375 12.857625,0.204125 13.451625,0.204125 L17.571375,0.204125 C25.792875,0.204125 25.612875,12.4804688 17.733375,12.4804688 L13.451625,12.4804688 Z M14.585625,2.369625 L14.585625,10.3171875 L17.571375,10.3171875 C22.429125,10.3171875 22.645125,2.369625 17.571375,2.369625 L14.585625,2.369625 Z" id="Shape"></path>
                    <path d="M28.528875,2.511625 L28.528875,5.33165625 L33.116625,5.33165625 C33.764625,5.33165625 34.412625,5.97065625 34.412625,6.5896875 C34.412625,7.1754375 33.764625,7.6546875 33.116625,7.6546875 L28.528875,7.6546875 L28.528875,11.3799687 C28.528875,12.0012188 28.081125,12.47825 27.451125,12.47825 C26.659125,12.47825 26.175375,12.0012188 26.175375,11.3799687 L26.175375,1.30240625 C26.175375,0.665625 26.661375,0.20190625 27.451125,0.20190625 L33.766875,0.20190625 C34.558875,0.20190625 35.026875,0.665625 35.026875,1.30240625 C35.026875,1.87040625 34.558875,2.50940625 33.766875,2.50940625 L28.528875,2.50940625 L28.528875,2.511625 Z" id="Shape"></path>
                </g>
                <path d="M51.75,59.90625 L9,59.90625 L9,62.125 L51.75,62.125 C52.9875,62.125 54,61.1265625 54,59.90625 L54,57.6875 C54,58.9078125 52.9875,59.90625 51.75,59.90625 Z" id="Shape" fill="#CAD1D8"></path>
            </g>
        </g>
    </g>
</svg>