<?xml version="1.0" encoding="UTF-8"?>
<svg width="62px" height="71px" viewBox="0 0 62 71" version="1.1" xmlns="http://www.w3.org/2000/svg" xmlns:xlink="http://www.w3.org/1999/xlink">
    <!-- Generator: Sketch 48.2 (47327) - http://www.bohemiancoding.com/sketch -->
    <title>pptx</title>
    <desc>Created with Sketch.</desc>
    <defs></defs>
    <g id="Artboard" stroke="none" stroke-width="1" fill="none" fill-rule="evenodd" transform="translate(-281.000000, -30.000000)">
        <g id="pptx" transform="translate(281.000000, 30.000000)">
            <g id="Group-12" transform="translate(35.000000, 35.500000) scale(-1, 1) translate(-35.000000, -35.500000) translate(8.000000, 0.000000)" fill-rule="nonzero">
                <path d="M5.28571429,0 C2.85,0 0.857142857,1.996875 0.857142857,4.4375 L0.857142857,66.5625 C0.857142857,69.003125 2.85,71 5.28571429,71 L49.5714286,71 C52.0071429,71 54,69.003125 54,66.5625 L54,17.75 L36.2857143,0 L5.28571429,0 Z" id="Shape" fill="#E2E5E7"></path>
                <path d="M40.7142857,17.75 L54,17.75 L36.2857143,0 L36.2857143,13.3125 C36.2857143,15.753125 38.2785714,17.75 40.7142857,17.75 Z" id="Shape" fill="#B0B7BD"></path>
            </g>
            <path d="M53.1428571,57.40625 C53.1428571,58.6265625 52.1464286,59.625 50.9285714,59.625 L2.21428571,59.625 C0.996428571,59.625 0,58.6265625 0,57.40625 L0,35.21875 C0,33.9984375 0.996428571,33 2.21428571,33 L50.9285714,33 C52.1464286,33 53.1428571,33.9984375 53.1428571,35.21875 L53.1428571,57.40625 Z" id="Shape" fill="#2296FF" fill-rule="nonzero"></path>
            <g id="Group-3" transform="translate(4.000000, 41.000000)" fill="#FFFFFF" fill-rule="nonzero">
                <path d="M0.0631071429,1.269125 C0.0631071429,0.683375 0.523678571,0.044375 1.26546429,0.044375 L5.35525,0.044375 C7.65810714,0.044375 9.73067857,1.588625 9.73067857,4.5484375 C9.73067857,7.3529375 7.65810714,8.9149375 5.35525,8.9149375 L2.39917857,8.9149375 L2.39917857,11.2579375 C2.39917857,12.0389375 1.90539286,12.4804687 1.26767857,12.4804687 C0.683107143,12.4804687 0.0653214286,12.0389375 0.0653214286,11.2579375 L0.0653214286,1.269125 L0.0631071429,1.269125 Z M2.39917857,2.27865625 L2.39917857,6.69840625 L5.35525,6.69840625 C6.54210714,6.69840625 7.48096429,5.6489375 7.48096429,4.5484375 C7.48096429,3.30815625 6.54210714,2.27865625 5.35525,2.27865625 L2.39917857,2.27865625 Z" id="Shape"></path>
                <path d="M11.9870357,1.269125 C11.9870357,0.683375 12.4476071,0.044375 13.1916071,0.044375 L17.2813929,0.044375 C19.58425,0.044375 21.6568214,1.588625 21.6568214,4.5484375 C21.6568214,7.3529375 19.58425,8.9149375 17.2813929,8.9149375 L14.3253214,8.9149375 L14.3253214,11.2579375 C14.3253214,12.0389375 13.8293214,12.4804687 13.1916071,12.4804687 C12.6070357,12.4804687 11.9870357,12.0389375 11.9870357,11.2579375 L11.9870357,1.269125 Z M14.3231071,2.27865625 L14.3231071,6.69840625 L17.2791786,6.69840625 C18.4660357,6.69840625 19.4048929,5.6489375 19.4048929,4.5484375 C19.4048929,3.30815625 18.4660357,2.27865625 17.2791786,2.27865625 L14.3231071,2.27865625 Z" id="Shape"></path>
                <path d="M27.2191071,2.422875 L24.1235357,2.422875 C22.5823929,2.422875 22.5823929,0.15309375 24.1235357,0.15309375 L32.49575,0.15309375 C34.0723214,0.15309375 34.0723214,2.422875 32.49575,2.422875 L29.5573929,2.422875 L29.5573929,11.3821875 C29.5573929,12.9242188 27.2191071,12.9619375 27.2191071,11.3821875 L27.2191071,2.422875 Z" id="Shape"></path>
                <path d="M40.4438214,4.464125 L43.5238929,0.59684375 C44.4450357,-0.61015625 46.2341786,0.931875 45.2244643,2.085625 C44.1638214,3.345875 43.0478214,4.712625 41.9849643,6.11265625 L45.5964643,10.6189375 C46.57075,11.9501875 44.6243929,13.2259688 43.6678214,11.9124688 L40.4083929,7.7256875 L37.2043214,12.0034375 C36.3008929,13.2969688 34.2991786,11.8436875 35.3088929,10.6366875 L38.86725,6.11265625 C37.75125,4.71040625 36.6706786,3.345875 35.5923214,2.085625 C34.4785357,0.754375 36.5488929,-0.61015625 37.36375,0.6345625 L40.4438214,4.464125 Z" id="Shape"></path>
            </g>
            <g id="Group" transform="translate(10.102679, 40.769531)"></g>
            <path d="M50.9285714,59.90625 L8.85714286,59.90625 L8.85714286,62.125 L50.9285714,62.125 C52.1464286,62.125 53.1428571,61.1265625 53.1428571,59.90625 L53.1428571,57.6875 C53.1428571,58.9078125 52.1464286,59.90625 50.9285714,59.90625 Z" id="Shape" fill="#CAD1D8" fill-rule="nonzero"></path>
        </g>
    </g>
</svg>