<?xml version="1.0" encoding="UTF-8"?>
<svg width="62px" height="71px" viewBox="0 0 62 71" version="1.1" xmlns="http://www.w3.org/2000/svg" xmlns:xlink="http://www.w3.org/1999/xlink">
    <!-- Generator: Sketch 48.2 (47327) - http://www.bohemiancoding.com/sketch -->
    <title>txt</title>
    <desc>Created with Sketch.</desc>
    <defs></defs>
    <g id="Artboard" stroke="none" stroke-width="1" fill="none" fill-rule="evenodd" transform="translate(-281.000000, -121.000000)">
        <g id="txt" transform="translate(281.000000, 121.000000)" fill-rule="nonzero">
            <g id="Group-17" transform="translate(35.000000, 35.500000) scale(-1, 1) translate(-35.000000, -35.500000) translate(8.000000, 0.000000)">
                <path d="M5.28571429,0 C2.85,0 0.857142857,1.996875 0.857142857,4.4375 L0.857142857,66.5625 C0.857142857,69.003125 2.85,71 5.28571429,71 L49.5714286,71 C52.0071429,71 54,69.003125 54,66.5625 L54,17.75 L36.2857143,0 L5.28571429,0 Z" id="Shape" fill="#E2E5E7"></path>
                <path d="M40.7142857,17.75 L54,17.75 L36.2857143,0 L36.2857143,13.3125 C36.2857143,15.753125 38.2785714,17.75 40.7142857,17.75 Z" id="Shape" fill="#B0B7BD"></path>
            </g>
            <path d="M53.1428571,57.40625 C53.1428571,58.6265625 52.1464286,59.625 50.9285714,59.625 L2.21428571,59.625 C0.996428571,59.625 0,58.6265625 0,57.40625 L0,35.21875 C0,33.9984375 0.996428571,33 2.21428571,33 L50.9285714,33 C52.1464286,33 53.1428571,33.9984375 53.1428571,35.21875 L53.1428571,57.40625 Z" id="Shape" fill="#2296FF"></path>
            <g id="Group-9" transform="translate(10.000000, 40.000000)" fill="#FFFFFF">
                <path d="M4.25364286,2.27906132 L1.15585714,2.27906132 C-0.385285714,2.27906132 -0.385285714,0.00928007425 1.15585714,0.00928007425 L9.53028571,0.00928007425 C11.1068571,0.00928007425 11.1068571,2.27906132 9.53028571,2.27906132 L6.58971429,2.27906132 L6.58971429,11.2361551 C6.58971429,12.7781863 4.25142857,12.8159051 4.25142857,11.2361551 L4.25142857,2.27906132 L4.25364286,2.27906132 Z" id="Shape"></path>
                <path d="M16.9348571,4.31809257 L20.0171429,0.450811324 C20.9382857,-0.753969926 22.7252143,0.788061324 21.7177143,1.94181132 C20.6548571,3.20206132 19.5410714,4.56881132 18.476,5.96662382 L22.0897143,10.4729051 C23.0617857,11.8041551 21.1154286,13.0821551 20.1588571,11.7686551 L16.9016429,7.58187382 L13.6975714,11.8574051 C12.7941429,13.1509363 10.7924286,11.6976551 11.8043571,10.4906551 L15.3605,5.96662382 C14.2467143,4.56659257 13.1661429,3.20206132 12.0855714,1.94181132 C10.9695714,0.610561324 13.0421429,-0.753969926 13.8547857,0.488530074 L16.9348571,4.31809257 Z" id="Shape"></path>
                <path d="M27.1582143,2.27906132 L24.0626429,2.27906132 C22.5215,2.27906132 22.5215,0.00928007425 24.0626429,0.00928007425 L32.4348571,0.00928007425 C34.0114286,0.00928007425 34.0114286,2.27906132 32.4348571,2.27906132 L29.4965,2.27906132 L29.4965,11.2361551 C29.4965,12.7781863 27.1582143,12.8159051 27.1582143,11.2361551 L27.1582143,2.27906132 Z" id="Shape"></path>
            </g>
            <path d="M50.9285714,59.90625 L8.85714286,59.90625 L8.85714286,62.125 L50.9285714,62.125 C52.1464286,62.125 53.1428571,61.1265625 53.1428571,59.90625 L53.1428571,57.6875 C53.1428571,58.9078125 52.1464286,59.90625 50.9285714,59.90625 Z" id="Shape" fill="#CAD1D8"></path>
        </g>
    </g>
</svg>