<?xml version="1.0" encoding="UTF-8"?>
<svg width="62px" height="71px" viewBox="0 0 62 71" version="1.1" xmlns="http://www.w3.org/2000/svg" xmlns:xlink="http://www.w3.org/1999/xlink">
    <!-- Generator: Sketch 48.2 (47327) - http://www.bohemiancoding.com/sketch -->
    <title>xls</title>
    <desc>Created with Sketch.</desc>
    <defs></defs>
    <g id="Artboard" stroke="none" stroke-width="1" fill="none" fill-rule="evenodd" transform="translate(-199.000000, -30.000000)">
        <g id="xls" transform="translate(199.000000, 30.000000)" fill-rule="nonzero">
            <g id="Group-11" transform="translate(35.000000, 35.500000) scale(-1, 1) translate(-35.000000, -35.500000) translate(8.000000, 0.000000)">
                <path d="M5.28571429,0 C2.85,0 0.857142857,1.996875 0.857142857,4.4375 L0.857142857,66.5625 C0.857142857,69.003125 2.85,71 5.28571429,71 L49.5714286,71 C52.0071429,71 54,69.003125 54,66.5625 L54,17.75 L36.2857143,0 L5.28571429,0 Z" id="Shape" fill="#E2E5E7"></path>
                <path d="M40.7142857,17.75 L54,17.75 L36.2857143,0 L36.2857143,13.3125 C36.2857143,15.753125 38.2785714,17.75 40.7142857,17.75 Z" id="Shape" fill="#B0B7BD"></path>
            </g>
            <path d="M53.1428571,57.6875 C53.1428571,58.9078125 52.1464286,59.90625 50.9285714,59.90625 L2.21428571,59.90625 C0.996428571,59.90625 0,58.9078125 0,57.6875 L0,35.5 C0,34.2796875 0.996428571,33.28125 2.21428571,33.28125 L50.9285714,33.28125 C52.1464286,33.28125 53.1428571,34.2796875 53.1428571,35.5 L53.1428571,57.6875 Z" id="Shape" fill="#2296FF"></path>
            <g id="Group" transform="translate(10.102679, 40.353516)" fill="#FFFFFF">
                <path d="M5.44382143,4.88014062 L8.52389286,1.01285938 C9.44503571,-0.194140625 11.2341786,1.34789063 10.2244643,2.50164062 C9.16382143,3.76189063 8.04782143,5.12864063 6.98496429,6.52867188 L10.5964643,11.0349531 C11.57075,12.3662031 9.62439286,13.6419844 8.66782143,12.3284844 L5.40839286,8.14170312 L2.20432143,12.4194531 C1.30089286,13.7129844 -0.700821429,12.2597031 0.308892857,11.0527031 L3.86725,6.52867187 C2.75125,5.12642187 1.67067857,3.76189062 0.592321429,2.50164062 C-0.521464286,1.17039062 1.54889286,-0.194140625 2.36375,1.05057812 L5.44382143,4.88014062 Z" id="Shape"></path>
                <path d="M12.7819643,1.68514062 C12.7819643,1.09939062 13.2779643,0.602390625 13.8979643,0.602390625 C14.4648214,0.602390625 14.9431071,1.10160938 14.9431071,1.68514062 L14.9431071,10.5734531 L19.7591786,10.5734531 C21.4929643,10.5734531 21.5306071,12.8964844 19.7591786,12.8964844 L13.9001786,12.8964844 C13.2801786,12.8964844 12.7841786,12.4549531 12.7841786,11.8159531 L12.7841786,1.68514063 L12.7819643,1.68514063 Z" id="Shape"></path>
                <path d="M23.1160357,3.28264063 C23.5234643,-0.160859375 28.7093214,-0.779890625 31.1538929,1.10160938 C32.3584643,2.07564063 31.0830357,3.61989063 30.0201786,2.83889063 C28.7093214,2.00685938 25.7355357,1.61635938 25.3635357,3.45792188 C24.88525,6.36892188 32.5865357,4.70264063 32.4625357,9.42192188 C32.3385357,13.9282031 25.8241071,14.0324844 23.3795357,12.0112031 C22.79275,11.5319531 22.8126786,10.7531719 23.1315357,10.2717031 C23.5921071,9.81242188 24.1036071,9.65267188 24.7081071,10.1496719 C26.1584643,11.1414531 29.8961786,11.8869531 30.1596786,9.36645313 C29.9316071,6.74389063 22.5668929,8.32142188 23.1160357,3.28264063 Z" id="Shape"></path>
            </g>
            <path d="M50.9285714,59.90625 L8.85714286,59.90625 L8.85714286,62.125 L50.9285714,62.125 C52.1464286,62.125 53.1428571,61.1265625 53.1428571,59.90625 L53.1428571,57.6875 C53.1428571,58.9078125 52.1464286,59.90625 50.9285714,59.90625 Z" id="Shape" fill="#CAD1D8"></path>
        </g>
    </g>
</svg>