<?xml version="1.0" encoding="UTF-8"?>
<svg width="43px" height="17px" viewBox="0 0 43 17" version="1.1" xmlns="http://www.w3.org/2000/svg" xmlns:xlink="http://www.w3.org/1999/xlink">
    <!-- Generator: Sketch 48.1 (47250) - http://www.bohemiancoding.com/sketch -->
    <title>free</title>
    <desc>Created with Sketch.</desc>
    <defs></defs>
    <g id="Marketplace_v8-Copy-4" stroke="none" stroke-width="1" fill="none" fill-rule="evenodd" transform="translate(-538.000000, -247.000000)">
        <g id="Group-8" transform="translate(221.000000, 228.000000)">
            <g id="tag-(1)" transform="translate(338.500000, 27.500000) scale(-1, 1) translate(-338.500000, -27.500000) translate(317.000000, 19.000000)">
                <g id="free">
                    <path d="M42.5691555,7.05774356 L38.5041252,1.32395617 C37.9686123,0.56884809 36.8829814,0 35.982346,0 L1.90837348,0 C0.856820744,0 0,0.885993485 0,1.97334913 L0,15.0266509 C0,16.1140065 0.856820744,17 1.90837348,17 L35.982346,17 C36.8878497,17 37.9734806,16.4311519 38.5041252,15.6760438 L42.5691555,9.94225644 C43.1436148,9.13680782 43.1436148,7.86822624 42.5691555,7.05774356 Z" id="Shape" fill="#6CC64D" fill-rule="nonzero"></path>
                    <path d="M7.562,12.337 L6,12.337 L6,5 L11.192,5 L11.192,6.375 L7.562,6.375 L7.562,7.926 L11.115,7.926 L11.115,9.301 L7.562,9.301 L7.562,12.337 Z M18.521,12.337 L16.728,12.337 L15.287,9.73 L14.143,9.73 L14.143,12.337 L12.581,12.337 L12.581,5 L16.013,5 C17.542,5 18.477,6.001 18.477,7.365 C18.477,8.663 17.663,9.356 16.871,9.543 L18.521,12.337 Z M15.782,8.355 C16.409,8.355 16.882,7.981 16.882,7.365 C16.882,6.749 16.409,6.375 15.782,6.375 L14.143,6.375 L14.143,8.355 L15.782,8.355 Z M25.146,12.337 L19.954,12.337 L19.954,5 L25.146,5 L25.146,6.375 L21.516,6.375 L21.516,7.926 L25.069,7.926 L25.069,9.301 L21.516,9.301 L21.516,10.962 L25.146,10.962 L25.146,12.337 Z M31.859,12.337 L26.667,12.337 L26.667,5 L31.859,5 L31.859,6.375 L28.229,6.375 L28.229,7.926 L31.782,7.926 L31.782,9.301 L28.229,9.301 L28.229,10.962 L31.859,10.962 L31.859,12.337 Z" id="FREE" fill="#FFFFFF" transform="translate(18.929500, 8.668500) scale(-1, 1) translate(-18.929500, -8.668500) "></path>
                </g>
            </g>
        </g>
    </g>
</svg>