<svg xmlns="http://www.w3.org/2000/svg" xmlns:xlink="http://www.w3.org/1999/xlink" width="29" height="34" viewBox="0 0 29 34">
    <defs>
        <path id="a" d="M20.181 0H2.374C.342 0 0 1.96 0 2.382v30.855a.763.763 0 0 0 1.156.654l3.375-2.024 2.643 1.98a.763.763 0 0 0 .85.044l3.376-2.024 2.642 1.98a.763.763 0 0 0 .85.044l3.376-2.024 2.643 1.98a.763.763 0 0 0 .85.044l3.376-2.024 2.642 1.98a.763.763 0 0 0 1.221-.61V8.858L20.181 0z"/>
    </defs>
    <g fill="none" fill-rule="nonzero">
        <g>
            <use fill="#FAFAFA" fill-rule="evenodd" xlink:href="#a"/>
            <path stroke="#A7A7A7" stroke-width=".8" d="M20.015.4H2.375C1.613.4 1.1.707.763 1.245.527 1.624.4 2.108.4 2.382v30.855a.363.363 0 0 0 .55.311l3.606-2.163.215.162 2.643 1.98a.363.363 0 0 0 .404.021l3.607-2.163.215.162 2.642 1.98a.363.363 0 0 0 .405.021l3.606-2.163.215.162 2.643 1.98a.363.363 0 0 0 .404.021l3.607-2.163.215.162 2.642 1.98a.363.363 0 0 0 .581-.29V9.023L20.015.4z"/>
        </g>
        <path fill="#A7A7A7" d="M22.21 9.107h6.215L20.139.81v6.223c0 1.14.932 2.074 2.071 2.074zM9.23 5.246H5.433c-.42 0-.76.342-.76.763s.34.763.76.763H9.23c.42 0 .76-.342.76-.763a.761.761 0 0 0-.76-.763z"/>
        <path fill="#1394FF" d="M23.659 12.875h-3.797c-.42 0-.76.341-.76.762 0 .422.34.763.76.763h3.797c.42 0 .76-.341.76-.763a.761.761 0 0 0-.76-.762zM23.659 16.689h-3.797c-.42 0-.76.341-.76.762 0 .422.34.763.76.763h3.797c.42 0 .76-.341.76-.763a.761.761 0 0 0-.76-.762zM23.659 20.503h-3.797c-.42 0-.76.341-.76.763 0 .42.34.762.76.762h3.797c.42 0 .76-.341.76-.762a.761.761 0 0 0-.76-.763zM23.659 24.317h-3.797c-.42 0-.76.341-.76.763 0 .42.34.762.76.762h3.797c.42 0 .76-.341.76-.762a.761.761 0 0 0-.76-.763z"/>
        <path fill="#A7A7A7" d="M16.065 12.875H5.433c-.42 0-.76.341-.76.762 0 .422.34.763.76.763h10.632c.42 0 .76-.341.76-.763a.761.761 0 0 0-.76-.762zM16.065 16.689H5.433c-.42 0-.76.341-.76.762 0 .422.34.763.76.763h10.632c.42 0 .76-.341.76-.763a.761.761 0 0 0-.76-.762zM16.065 20.503H5.433c-.42 0-.76.341-.76.763 0 .42.34.762.76.762h10.632c.42 0 .76-.341.76-.762a.761.761 0 0 0-.76-.763zM16.065 24.317H5.433c-.42 0-.76.341-.76.763 0 .42.34.762.76.762h10.632c.42 0 .76-.341.76-.762a.761.761 0 0 0-.76-.763z"/>
    </g>
</svg>
