<?xml version="1.0" encoding="UTF-8" standalone="no"?>
<svg width="84px" height="84px" viewBox="0 0 84 84" version="1.1" xmlns="http://www.w3.org/2000/svg" xmlns:xlink="http://www.w3.org/1999/xlink">
    <!-- Generator: Sketch 44.1 (41455) - http://www.bohemiancoding.com/sketch -->
    <title>beauty</title>
    <desc>Created with Sketch.</desc>
    <defs></defs>
    <g id="Page-1" stroke="none" stroke-width="1" fill="none" fill-rule="evenodd">
        <g id="beauty" fill-rule="nonzero">
            <g id="Group" transform="translate(6.000000, 4.000000)">
                <g id="cosmetics" transform="translate(18.000000, 0.000000)" fill="#DDDDDD">
                    <path d="M52.5112997,58.6928325 L3.98745889,58.6928325 C3.19622281,58.6928325 2.55509814,59.3405685 2.55509814,60.139533 C2.55509814,60.9384975 2.55509814,69.1378173 2.55509814,69.9367817 C2.55509814,70.7357462 3.19622281,71.3834822 3.98745889,71.3834822 L40.1129761,71.3834822 C45.3559894,71.3834822 50.2128382,68.3002741 52.4860902,63.5284772 L53.8019523,60.7668223 C54.0156605,60.3185381 53.9862493,59.7907817 53.7240318,59.3696954 C53.4618143,58.9486091 53.0038408,58.6928325 52.5112997,58.6928325 Z" id="Shape"></path>
                    <path d="M2.68023342,10.6378782 C8.02102918,5.64386802 14.9735172,2.89340102 22.2573581,2.89340102 C38.149687,2.89340102 51.07913,15.9522843 51.07913,32.0037157 C51.07913,40.6574924 47.303618,48.8058883 40.721061,54.3594822 C40.1137401,54.8718071 40.0327639,55.784 40.5400106,56.3972081 C40.8232361,56.7397868 41.2300265,56.9164772 41.6400637,56.9164772 C41.9637772,56.9164772 42.2895915,56.8061421 42.5575385,56.5800711 C49.7940159,50.4751878 53.9440424,41.5174112 53.9440424,32.0035228 C53.9438515,14.3568629 39.7292944,0 22.2573581,0 C14.2496976,0 6.60604775,3.02398985 0.733941645,8.5148934 C0.153549072,9.05769543 0.118599469,9.97297462 0.65602122,10.5593706 C1.19325199,11.1453807 2.09945889,11.1806802 2.68023342,10.6378782 Z" id="Shape"></path>
                    <path d="M1.84036067,49.2416808 C6.57211663,53.5530413 15.8783873,57.9918579 22.2565942,57.9918579 C36.4440318,57.9918579 47.9863767,46.3339594 47.9863767,32.0044873 C47.9863767,17.6750152 36.4440318,6.01711675 22.2565942,6.01711675 C14.1083714,6.01711675 6.35681698,9.97914721 1.52135809,16.6156447 C1.05230769,17.2591371 1.25290178,48.7065946 1.84036067,49.2416808 Z" id="Shape"></path>
                </g>
                <path d="M20.2784085,35.0223046 L19.4552785,35.0223046 L19.4552785,28.281066 C19.4552785,27.4821015 18.8141538,26.8343655 18.0229178,26.8343655 L17.8999257,26.8343655 L17.8999257,13.0424873 C17.8999257,12.4946701 17.5935915,11.9937259 17.1081167,11.7485584 L6.02355438,6.14924873 C5.57971353,5.9251066 5.05241379,5.94883249 4.62996286,6.21251777 C4.20751194,6.47601015 3.95045093,6.94165482 3.95045093,7.44317766 L3.95045093,26.8343655 L3.82745889,26.8343655 C3.03622281,26.8343655 2.39509814,27.4821015 2.39509814,28.281066 L2.39509814,35.0223046 L1.5706313,35.0223046 C0.779395225,35.0223046 0.138270557,35.6700406 0.138270557,36.4690051 L0.138270557,74.443736 C0.138270557,75.2427005 0.779395225,75.8904365 1.5706313,75.8904365 L20.2780265,75.8904365 C21.0692626,75.8904365 21.7103873,75.2427005 21.7103873,74.443736 L21.7103873,36.4690051 C21.7107692,35.6700406 21.0696446,35.0223046 20.2784085,35.0223046 Z" id="Shape" fill="#4695F6"></path>
            </g>
        </g>
    </g>
</svg>