<?xml version="1.0" encoding="UTF-8" standalone="no"?>
<svg width="79px" height="84px" viewBox="0 0 79 84" version="1.1" xmlns="http://www.w3.org/2000/svg" xmlns:xlink="http://www.w3.org/1999/xlink">
    <!-- Generator: sketchtool 42 (36781) - http://www.bohemiancoding.com/sketch -->
    <title>AA9C6B69-B277-4A9C-98B8-938265CBE7E3</title>
    <desc>Created with sketchtool.</desc>
    <defs>
        <rect id="path-1" x="37.2298851" y="38.8387097" width="1.81609195" height="1.80645161" rx="0.903225806"></rect>
        <mask id="mask-2" maskContentUnits="userSpaceOnUse" maskUnits="objectBoundingBox" x="0" y="0" width="1.81609195" height="1.80645161" fill="white">
            <use xlink:href="#path-1"></use>
        </mask>
    </defs>
    <g id="Page-1" stroke="none" stroke-width="1" fill="none" fill-rule="evenodd">
        <g id="16---Add-Ons" transform="translate(-968.000000, -1717.000000)">
            <g id="become-partner" transform="translate(968.000000, 1717.000000)">
                <ellipse id="Oval" fill="#DDDDDD" cx="69.9818676" cy="9.09840199" rx="8.23474121" ry="8.19517618"></ellipse>
                <ellipse id="Oval" fill="#DDDDDD" cx="8.23474121" cy="8.19517618" rx="8.23474121" ry="8.19517618"></ellipse>
                <ellipse id="Oval" fill="#DDDDDD" cx="23.6715228" cy="75.0338859" rx="8.23474121" ry="8.19517618"></ellipse>
                <use id="Rectangle" stroke="#979797" mask="url(#mask-2)" stroke-width="2" fill="#D8D8D8" xlink:href="#path-1"></use>
                <path d="M22.2335678,44.2571961 C18.4766179,35.2260959 22.8597261,24.9493268 31.7824822,21.2123198 C40.8617779,17.4753128 51.1933903,21.8351543 54.9503402,30.7105458 C58.7072902,39.741646 54.3241819,50.0184152 45.4014258,53.7554221 C36.4786697,57.4924291 25.9905178,53.1325876 22.2335678,44.2571961 L22.2335678,44.2571961 Z" id="Path" fill="#4695F6"></path>
                <path d="M23.9091837,15.9598666 C23.8064181,15.8575617 23.6846008,15.8064517 23.5438739,15.8064517 L19.9067855,15.8064517 C19.7660871,15.8064517 19.6444119,15.8575617 19.5414757,15.9598666 C19.4387102,16.062115 19.3873274,16.1832574 19.3873274,16.3232372 C19.3873274,16.4632171 19.4387102,16.5843877 19.5414757,16.6866078 L20.7103418,17.8494389 L15.9719593,22.5626971 C15.9179036,22.6166073 15.8908046,22.6784654 15.8908046,22.7484412 C15.8908046,22.818417 15.9179036,22.8803882 15.9719593,22.9341853 L16.8975889,23.8547882 C16.9516731,23.9086136 17.013776,23.9354838 17.0842105,23.9354838 C17.154645,23.9354838 17.216748,23.9086136 17.2708321,23.8547882 L22.0094422,19.1415301 L23.1782514,20.3042764 C23.2811876,20.406553 23.4030333,20.4578045 23.5437602,20.4578045 C23.6844871,20.4578045 23.8061906,20.406553 23.90907,20.3042764 C24.0118355,20.2020563 24.0632183,20.0808857 24.0632183,19.9409058 L24.0632183,16.3231524 C24.0633036,16.1830594 24.0122336,16.0621433 23.9091837,15.9598666 Z" id="Shape" fill="#B0B0B0" transform="translate(19.977012, 19.870968) scale(1, -1) translate(-19.977012, -19.870968) "></path>
                <path d="M62.9551607,16.8630924 C62.8523951,16.7607875 62.7305778,16.7096775 62.5898509,16.7096775 L58.9527625,16.7096775 C58.8120641,16.7096775 58.6903889,16.7607875 58.5874527,16.8630924 C58.4846872,16.9653408 58.4333044,17.0864832 58.4333044,17.226463 C58.4333044,17.3664429 58.4846872,17.4876135 58.5874527,17.5898336 L59.7563189,18.7526648 L55.0179363,23.4659229 C54.9638806,23.5198331 54.9367817,23.5816912 54.9367817,23.651667 C54.9367817,23.7216428 54.9638806,23.783614 55.0179363,23.8374111 L55.9435659,24.758014 C55.9976501,24.8118394 56.059753,24.8387096 56.1301875,24.8387096 C56.200622,24.8387096 56.262725,24.8118394 56.3168091,24.758014 L61.0554192,20.0447559 L62.2242284,21.2075022 C62.3271646,21.3097788 62.4490103,21.3610303 62.5897372,21.3610303 C62.7304641,21.3610303 62.8521676,21.3097788 62.955047,21.2075022 C63.0578126,21.1052821 63.1091953,20.9841115 63.1091953,20.8441316 L63.1091953,17.2263782 C63.1092806,17.0862852 63.0582106,16.9653691 62.9551607,16.8630924 Z" id="Shape-Copy" fill="#B0B0B0" transform="translate(59.022989, 20.774194) scale(-1, -1) translate(-59.022989, -20.774194) "></path>
                <path d="M34.1521502,57.4843011 C34.0457447,57.3783726 33.9196128,57.3254523 33.7739015,57.3254523 L30.0079905,57.3254523 C29.8623086,57.3254523 29.7363239,57.3783726 29.6297418,57.4843011 C29.5233363,57.590171 29.4701336,57.7156041 29.4701336,57.8605419 C29.4701336,58.0054797 29.5233363,58.1309422 29.6297418,58.2367828 L30.8400081,59.4408004 L25.9337962,64.3209981 C25.8778258,64.3768177 25.8497671,64.4408668 25.8497671,64.5133211 C25.8497671,64.5857753 25.8778258,64.6499416 25.9337962,64.7056441 L26.8922107,65.658854 C26.9482105,65.7145858 27.0125131,65.7424077 27.0854423,65.7424077 C27.1583716,65.7424077 27.2226742,65.7145858 27.2786739,65.658854 L32.1851214,60.7786563 L33.3953289,61.9825861 C33.501911,62.0884853 33.6280724,62.141552 33.7737837,62.141552 C33.919495,62.141552 34.0455092,62.0884853 34.1520324,61.9825861 C34.2584379,61.8767455 34.3116406,61.751283 34.3116406,61.6063452 L34.3116406,57.8604541 C34.3117289,57.7153991 34.2588501,57.5902003 34.1521502,57.4843011 Z" id="Shape-Copy-2" fill="#B0B0B0" transform="translate(30.080704, 61.533930) rotate(-20.000000) translate(-30.080704, -61.533930) "></path>
            </g>
        </g>
    </g>
</svg>