<?xml version="1.0" encoding="UTF-8" standalone="no"?>
<svg width="300px" height="300px" viewBox="0 0 300 300" version="1.1" xmlns="http://www.w3.org/2000/svg" xmlns:xlink="http://www.w3.org/1999/xlink">
    <!-- Generator: Sketch 43.2 (39069) - http://www.bohemiancoding.com/sketch -->
    <title>bike-grey</title>
    <desc>Created with Sketch.</desc>
    <defs></defs>
    <g id="Page-1" stroke="none" stroke-width="1" fill="none" fill-rule="evenodd" opacity="0.200000003">
        <g id="bike-grey" fill-rule="nonzero" fill="#000000">
            <g id="motor-sports-(1)" transform="translate(59.000000, 93.000000)">
                <path d="M53.0974678,83.8084903 L30.5167661,92.5451299 C29.7098538,92.8568994 28.8818947,93.0055032 28.0692749,93.0055032 C25.1972807,93.0055032 22.4979415,91.1587825 21.4441754,88.1743831 C20.0918304,84.3446591 21.9617836,80.0933929 25.62,78.6775487 L51.0951696,68.8211526 C46.022538,61.2139773 37.6034678,56.2327597 28.0682047,56.2327597 C12.5663567,56.2323864 0,69.3853247 0,85.6107792 C0,101.836234 12.5663567,114.989172 28.0682047,114.989172 C42.6133158,114.989172 54.5735965,103.408523 55.994076,88.5765097 C54.7826374,86.8843669 53.8077076,85.183263 53.0974678,83.8084903 Z" id="Shape"></path>
                <path d="M154.57614,56.2323864 C154.399918,56.2323864 154.226193,56.2428409 154.051041,56.2462013 L161.376749,83.6162013 C162.428731,87.5474838 160.237012,91.6269968 156.481409,92.7280844 C155.843942,92.9147727 155.20255,93.0040097 154.572216,93.0040097 C151.484404,93.0040097 148.649152,90.8686688 147.774819,87.6038636 L140.447684,60.228263 C144.456205,57.778539 149.095772,56.341039 154.051041,56.2454545 L148.661994,36.1122403 C148.866398,36.0917045 149.071515,36.058474 149.276275,35.9983604 C151.154076,35.4472565 152.249579,33.4075 151.723766,31.4416721 L148.953082,21.0898052 C148.427269,19.1243506 146.479193,17.9773377 144.600322,18.5276948 C144.395918,18.5878084 144.20293,18.6680844 144.018503,18.7614286 L141.344135,8.77472403 C140.613561,6.04571429 138.456088,3.99363636 135.790994,3.49293831 L117.887673,0.129561688 C114.052877,-0.590308442 110.377538,2.08045455 109.689058,6.09948052 C108.999865,10.1177597 111.553661,13.9601786 115.392737,14.6811688 L128.937234,17.2257305 L130.902433,24.5685552 L117.793497,28.0346104 C116.031632,26.0736364 113.311246,25.187987 110.67576,25.9907468 L103.142439,28.2836526 C100.786982,29.0005357 99.0632865,30.8894481 98.3776608,33.1674188 L82.8051813,37.2842695 L29.6060468,24.8638961 C25.7997895,23.9733929 22.0242105,26.484724 21.1752047,30.469026 C20.3261988,34.4540747 22.7237485,38.4047727 26.531076,39.2934091 L45.5912573,43.7440584 L58.4469181,46.7456331 L71.3043626,60.2036201 C72.6014152,61.5619643 72.6891696,63.7335227 71.5059123,65.2012662 L59.3258889,80.3058442 C61.3809825,84.2102435 64.6282515,88.4771916 66.9648012,88.4771916 L106.299099,88.4771916 C110.75424,88.4771916 114.941836,86.6610877 118.091719,83.3641721 C121.241602,80.0672565 122.976713,75.6838149 122.976713,71.0210877 L122.976713,41.9126461 L130.039158,40.0453896 L134.714398,38.809513 L140.447684,60.2290097 C136.092427,62.8908117 132.485579,66.7444318 130.03131,71.3616071 C128.024018,75.1375649 126.791175,79.4243019 126.553596,83.9903247 C126.525772,84.5268669 126.507936,85.0660227 126.507936,85.6100325 C126.507936,101.835487 139.074292,114.988425 154.57614,114.988425 C170.077988,114.988425 182.644345,101.835487 182.644345,85.6100325 C182.644345,69.3845779 170.077632,56.2323864 154.57614,56.2323864 Z" id="Shape"></path>
            </g>
        </g>
    </g>
</svg>