<svg xmlns="http://www.w3.org/2000/svg" xmlns:xlink="http://www.w3.org/1999/xlink" width="29" height="33" viewBox="0 0 29 33">
    <defs>
        <path id="a" d="M2.071 0C.932 0 0 .928 0 2.063v28.875C0 32.072.932 33 2.071 33h20.715c1.139 0 2.071-.928 2.071-2.063V8.25L16.571 0h-14.5z"/>
    </defs>
    <g fill="none" fill-rule="nonzero">
        <g>
            <use fill="#FAFAFA" fill-rule="evenodd" xlink:href="#a"/>
            <path stroke="#A7A7A7" stroke-width=".8" d="M24.457 8.416L16.407.4H2.07C1.153.4.4 1.15.4 2.063v28.875c0 .913.753 1.662 1.671 1.662h20.715c.918 0 1.671-.75 1.671-1.663V8.418z"/>
        </g>
        <path fill="#1394FF" d="M17.722 24.182v2.379h2.381l6.892-6.949-2.38-2.379-6.893 6.95zm11.09-6.385a.605.605 0 0 0 0-.877l-1.441-1.44a.606.606 0 0 0-.877 0l-1.128 1.127 2.38 2.38 1.066-1.19z"/>
        <path fill="#A7A7A7" d="M17.836 19.317H7.204a.759.759 0 1 0 0 1.517h10.632a.759.759 0 1 0 0-1.517zM12.197 23.341H7.204a.759.759 0 1 0 0 1.517h4.993a.759.759 0 1 0 0-1.517zM17.836 11.268H7.204a.759.759 0 1 0 0 1.517h10.632a.759.759 0 1 0 0-1.517zM17.836 15.293H7.204a.759.759 0 1 0 0 1.517h10.632a.759.759 0 1 0 0-1.517zM18.758 8.25h5.409L16.687.805v5.383c0 1.134.932 2.062 2.07 2.062z"/>
    </g>
</svg>
