<?xml version="1.0" encoding="UTF-8" standalone="no"?>
<svg width="79px" height="73px" viewBox="0 0 79 73" version="1.1" xmlns="http://www.w3.org/2000/svg" xmlns:xlink="http://www.w3.org/1999/xlink">
    <!-- Generator: sketchtool 42 (36781) - http://www.bohemiancoding.com/sketch -->
    <title>845BBC61-901A-4C85-9EA2-70D575896B5B</title>
    <desc>Created with sketchtool.</desc>
    <defs>
        <linearGradient x1="50%" y1="0%" x2="50%" y2="100%" id="linearGradient-1">
            <stop stop-color="#26A69A" offset="0%"></stop>
            <stop stop-color="#00796B" offset="100%"></stop>
        </linearGradient>
    </defs>
    <g id="Page-1" stroke="none" stroke-width="1" fill="none" fill-rule="evenodd">
        <g id="16---Add-Ons" transform="translate(-968.000000, -203.000000)">
            <g id="Group-6-Copy-2" transform="translate(885.000000, 161.000000)">
                <g id="branded-driver-apps" transform="translate(83.000000, 42.000000)">
                    <path d="M3.11698889,63.9221829 L16.0216127,67.427513 C16.5347703,67.5669038 16.8430597,67.2722998 16.7040566,66.7462608 L7.60687677,32.3191905 C7.47062254,31.8035544 7.25255728,31.7928801 7.11593547,32.3100314 L0.143955556,58.7009024 C-0.453811111,60.9728049 0.874266667,63.3096951 3.11698889,63.9221829 Z" id="Shape" fill="#DDDDDD"></path>
                    <path d="M28.4426333,72.7569634 L42.9788186,68.8044424 C43.487254,68.6661943 43.5978718,68.2483265 43.2213124,67.8664662 L16.0049876,40.2670094 C15.6304779,39.8872276 15.4364901,39.9942596 15.5697091,40.4985222 L23.2953444,69.7417073 C23.8992556,72.0145 26.2016667,73.3641098 28.4426333,72.7569634 Z" id="Shape" fill="#DDDDDD"></path>
                    <path d="M77.7684778,34.5922073 L44.9711889,1.32735366 C44.1969889,0.542158537 43.1471667,0.101487805 42.0525778,0.100597561 L19.6508111,0.0979268293 C16.5557667,0.0979268293 14.0444444,2.64402439 14.0444444,5.78391463 L14.0435667,28.5073902 C14.0435667,29.6175244 14.4780667,30.6831463 15.2522667,31.4683415 L48.0513111,64.7323049 C48.8729111,65.5655732 49.9481889,65.9813171 51.0234667,65.9813171 C52.0987444,65.9813171 53.1740222,65.5646829 53.9956222,64.7323049 L77.7684778,40.6182683 C79.4090444,38.9535122 79.4090444,36.2560732 77.7684778,34.5922073 L77.7684778,34.5922073 Z M26.1867444,15.8249756 C23.7632,15.8249756 21.7978556,13.8317195 21.7978556,11.3737561 C21.7978556,8.91579268 23.7632,6.92253659 26.1867444,6.92253659 C28.6102889,6.92253659 30.5756333,8.91579268 30.5756333,11.3737561 C30.5756333,13.8326098 28.6102889,15.8249756 26.1867444,15.8249756 L26.1867444,15.8249756 Z" id="Shape" fill="#4695F6"></path>
                </g>
            </g>
        </g>
    </g>
</svg>