<?xml version="1.0" encoding="UTF-8" standalone="no"?>
<svg width="300px" height="300px" viewBox="0 0 300 300" version="1.1" xmlns="http://www.w3.org/2000/svg" xmlns:xlink="http://www.w3.org/1999/xlink">
    <!-- Generator: Sketch 43.2 (39069) - http://www.bohemiancoding.com/sketch -->
    <title>car-grey</title>
    <desc>Created with Sketch.</desc>
    <defs></defs>
    <g id="Page-1" stroke="none" stroke-width="1" fill="none" fill-rule="evenodd" opacity="0.200000003">
        <g id="car-grey" fill-rule="nonzero" fill="#000000">
            <g id="automobile-(1)" transform="translate(13.000000, 97.000000)">
                <path d="M102.360422,0.0409661836 C78.8572969,2.74268599 57.0063984,12.4982705 39.890625,27.5574396 L102.716203,27.5574396 L102.716203,0 L102.360422,0.0409661836 Z" id="Shape"></path>
                <path d="M175.133859,0.0409661836 C151.630734,2.74268599 129.779836,12.4982705 112.664062,27.5574396 L175.489641,27.5574396 L175.489641,0 L175.133859,0.0409661836 Z" id="Shape-Copy" transform="translate(144.076852, 13.778720) scale(-1, 1) translate(-144.076852, -13.778720) "></path>
                <path d="M248.138016,39.7689469 L216.207188,39.7689469 C216.114469,39.7709952 216.021211,39.7709952 215.927953,39.7689469 L29.6667656,39.7689469 C29.1767578,39.7689469 28.2431016,39.6168599 28.2431016,39.6168599 C26.9574375,41.1592367 25.7143594,42.7384831 24.5144063,44.3556232 C24.4443281,44.4503575 24.3710156,44.5435556 24.2944688,44.6336812 L10.6750547,60.9115942 L9.53278125,60.9115942 C4.26829688,60.9121063 0,64.9667343 0,69.9676812 C0,74.9691401 4.26829688,79.0242802 9.53278125,79.0242802 L10.1618672,79.0242802 L10.1618672,85.8282512 L31.3270781,85.8282512 C33.24075,73.6259614 44.3422031,64.2344638 57.7120313,64.2344638 C71.0813203,64.2344638 82.1827734,73.6254493 84.0964453,85.8282512 L203.874516,85.8282512 C205.788188,73.6259614 216.889641,64.2344638 230.258391,64.2344638 C243.628219,64.2344638 254.729672,73.6254493 256.643344,85.8282512 L276,85.8282512 L276,66.2361739 C276,51.6424831 263.500758,39.7689469 248.138016,39.7689469 Z M151.835039,66.3549758 L139.442531,66.3549758 C135.933234,66.3549758 133.086984,63.6522319 133.086984,60.3175845 C133.086984,56.9829372 135.932695,54.2801932 139.442531,54.2801932 L151.835039,54.2801932 C155.344336,54.2801932 158.190586,56.9829372 158.190586,60.3175845 C158.190586,63.6522319 155.344875,66.3549758 151.835039,66.3549758 Z" id="Shape"></path>
                <path d="M57.7120312,73.2900386 C48.2579531,73.2900386 40.5660703,80.5968696 40.5660703,89.5771691 C40.5660703,98.5574686 48.2579531,105.8643 57.7120312,105.8643 C67.1661094,105.8643 74.8574531,98.5579807 74.8574531,89.5771691 C74.8574531,80.5968696 67.1655703,73.2900386 57.7120312,73.2900386 Z" id="Shape"></path>
                <path d="M230.25893,73.2900386 C220.805391,73.2900386 213.113508,80.5968696 213.113508,89.5771691 C213.113508,98.5574686 220.805391,105.8643 230.25893,105.8643 C239.713547,105.8643 247.404891,98.5579807 247.404891,89.5771691 C247.404891,80.5968696 239.713008,73.2900386 230.25893,73.2900386 Z" id="Shape"></path>
            </g>
        </g>
    </g>
</svg>