<?xml version="1.0" encoding="UTF-8" standalone="no"?>
<svg width="84px" height="84px" viewBox="0 0 84 84" version="1.1" xmlns="http://www.w3.org/2000/svg" xmlns:xlink="http://www.w3.org/1999/xlink">
    <!-- Generator: Sketch 44.1 (41455) - http://www.bohemiancoding.com/sketch -->
    <title>car-wash</title>
    <desc>Created with Sketch.</desc>
    <defs></defs>
    <g id="Page-1" stroke="none" stroke-width="1" fill="none" fill-rule="evenodd">
        <g id="car-wash">
            <path d="M47.2100903,51.6918569 L36.6304055,51.6918569 C35.7493999,51.6918569 35.0353634,52.4070732 35.0353634,53.2891936 C35.0353634,54.1713141 35.7495522,54.8865304 36.6304055,54.8865304 L47.2100903,54.8865304 C48.0909435,54.8865304 48.8051324,54.1713141 48.8051324,53.2891936 C48.8051324,52.4070732 48.0909435,51.6918569 47.2100903,51.6918569 Z M64.1065686,58.6490442 C62.937328,58.6490442 61.9914238,59.5978348 61.9914238,60.7672317 C61.9914238,61.9364761 62.937328,62.8854193 64.1065686,62.8854193 C65.2741333,62.8854193 66.2200375,61.9366287 66.2200375,60.7672317 C66.2200375,59.5978348 65.2741333,58.6490442 64.1065686,58.6490442 Z M19.4629072,58.6490442 C18.2953424,58.6490442 17.3494382,59.5978348 17.3494382,60.7672317 C17.3494382,61.9364761 18.2953424,62.8854193 19.4629072,62.8854193 C20.6321477,62.8854193 21.5780519,61.9366287 21.5780519,60.7672317 C21.5780519,59.5978348 20.6321477,58.6490442 19.4629072,58.6490442 Z M64.1065686,58.6490442 C62.937328,58.6490442 61.9914238,59.5978348 61.9914238,60.7672317 C61.9914238,61.9364761 62.937328,62.8854193 64.1065686,62.8854193 C65.2741333,62.8854193 66.2200375,61.9366287 66.2200375,60.7672317 C66.2200375,59.5978348 65.2741333,58.6490442 64.1065686,58.6490442 Z M19.4629072,58.6490442 C18.2953424,58.6490442 17.3494382,59.5978348 17.3494382,60.7672317 C17.3494382,61.9364761 18.2953424,62.8854193 19.4629072,62.8854193 C20.6321477,62.8854193 21.5780519,61.9366287 21.5780519,60.7672317 C21.5780519,59.5978348 20.6321477,58.6490442 19.4629072,58.6490442 Z M64.1065686,58.6490442 C62.937328,58.6490442 61.9914238,59.5978348 61.9914238,60.7672317 C61.9914238,61.9364761 62.937328,62.8854193 64.1065686,62.8854193 C65.2741333,62.8854193 66.2200375,61.9366287 66.2200375,60.7672317 C66.2200375,59.5978348 65.2741333,58.6490442 64.1065686,58.6490442 Z M75.710767,42.4146409 L60.8493005,36.4500298 C58.3752332,35.4563856 55.7689312,34.9532322 53.1019963,34.9532322 L43.9924316,34.9532322 C40.7289174,34.9532322 37.4652509,35.7358814 34.5557843,37.2183381 L21.0899416,44.0759016 L11.4301102,45.4863485 C9.0885822,45.8282426 6.94784365,47.0038947 5.39911406,48.7977329 C3.85175557,50.590198 3,52.8824601 3,55.251309 L3,60.9603767 C3,61.8421921 3.71464593,62.5577135 4.59504218,62.5577135 L11.4380321,62.5577135 C11.7809586,64.1120274 12.5673585,65.5336114 13.7285249,66.6677663 C15.2725318,68.1709715 17.309524,69 19.4644306,69 C21.6178137,69 23.654806,68.1709715 25.1988129,66.6677663 C26.361655,65.5320858 27.1495784,64.1071454 27.4909814,62.5577135 L56.0798654,62.5577135 C56.4227918,64.1120274 57.2091918,65.5336114 58.3720339,66.6662406 C59.9145174,68.1709715 61.9513573,69 64.1047404,69 C66.259647,69 68.2966393,68.1709715 69.8391227,66.6677663 C71.0019648,65.5336114 71.7883648,64.1118749 72.1312913,62.5577135 L79.4049578,62.5577135 C80.2855064,62.5577135 81,61.8420395 81,60.9603767 L81,50.2451 C81.0001523,46.7787114 78.9233983,43.7054782 75.710767,42.4146409 Z M59.6625404,39.4147906 L71.1345042,44.0200635 L62.4778584,44.0200635 L58.6671243,39.0506222 C59.0006055,39.162451 59.3324108,39.2838913 59.6625404,39.4147906 Z M45.4886025,38.1480583 L53.1019963,38.1480583 C53.392364,38.1480583 53.681056,38.1544659 53.9680722,38.1688069 L58.4550614,44.0200635 L45.4886025,44.0200635 L45.4886025,38.1480583 Z M36.0009199,40.0665406 C37.9612831,39.068167 40.1099436,38.4452514 42.2983658,38.2327309 L42.2983658,44.0200635 L28.2376196,44.0200635 L36.0009199,40.0665406 Z M11.6438489,48.690786 C10.9883125,50.9127166 9.0311485,52.580385 6.66082746,52.8072465 C7.4917119,50.7195716 9.35320381,49.1141489 11.6438489,48.690786 Z M19.4629072,65.8053265 C16.6843041,65.8053265 14.4320497,63.549832 14.4320497,60.7672317 C14.4320497,57.9846314 16.6843041,55.729137 19.4629072,55.729137 C22.2415102,55.729137 24.4937646,57.9846314 24.4937646,60.7672317 C24.493917,63.549832 22.2416626,65.8053265 19.4629072,65.8053265 Z M64.1065686,65.8053265 C61.3279655,65.8053265 59.0740353,63.549832 59.0740353,60.7672317 C59.0740353,57.9846314 61.3279655,55.729137 64.1065686,55.729137 C66.8851717,55.729137 69.137426,57.9846314 69.137426,60.7672317 C69.137426,63.549832 66.8851717,65.8053265 64.1065686,65.8053265 Z M77.8099156,59.36304 L72.2047211,59.36304 C71.5363878,55.4909858 68.1612054,52.5341583 64.1048928,52.5341583 C60.0501036,52.5341583 56.6749212,55.4909858 56.0065879,59.36304 L27.5644113,59.36304 C26.8960779,55.4909858 23.5192198,52.5341583 19.4645829,52.5341583 C15.4082703,52.5341583 12.033088,55.4909858 11.3647546,59.36304 L6.1902367,59.36304 L6.1902367,56.0277032 C10.7092182,55.986206 14.4384481,52.5805375 14.9951133,48.1940402 L21.702517,47.2148896 L61.6916107,47.2148896 C61.6926264,47.2148896 65.0582111,47.2148896 71.7883648,47.2148896 L71.7883648,49.2946312 C71.7883648,52.2178948 74.1634085,54.5963552 77.0809494,54.5963552 L77.8099156,54.5963552 L77.8099156,59.36304 Z M77.0809494,51.4016816 C75.9228299,51.4016816 74.9786015,50.4560949 74.9786015,49.2947838 L74.9786015,47.2150422 L76.8496911,47.2150422 C77.4605907,48.0808383 77.8099156,49.1286424 77.8099156,50.2452525 L77.8099156,51.4016816 L77.0809494,51.4016816 Z M19.4629072,58.6490442 C20.6321477,58.6490442 21.5780519,59.5978348 21.5780519,60.7672317 C21.5780519,61.9366287 20.6321477,62.8854193 19.4629072,62.8854193 C18.2953424,62.8854193 17.3494382,61.9364761 17.3494382,60.7672317 C17.3494382,59.5978348 18.2953424,58.6490442 19.4629072,58.6490442 Z" id="Shape-Copy" fill="#4695F6" fill-rule="nonzero"></path>
            <path d="M57.9439984,16.7027061 L60.3262023,20.9665426 C61.218329,22.5632691 60.9390824,24.582138 59.6470525,25.8760266 C58.8725354,26.6518105 57.8426896,27.0789874 56.7473359,27.0789874 C55.6519822,27.0789874 54.6221365,26.6516579 53.847467,25.8760266 C52.5555895,24.582138 52.2763428,22.5632691 53.1683172,20.9665426 L55.5509781,16.7027061 C55.7933575,16.2689689 56.2511514,16.0001526 56.7474883,16.0001526 C57.2438252,16.0001526 57.7014667,16.2688164 57.9439984,16.7027061 Z M57.7083222,23.9340495 C58.136409,23.5053469 58.2290341,22.8363573 57.9333343,22.3072681 L56.7474883,20.1848087 L55.5614899,22.3072681 C55.2660948,22.8363573 55.3585676,23.5053469 55.7868067,23.9340495 C56.3163546,24.4646643 57.1786219,24.4646643 57.7083222,23.9340495 Z" id="Path" fill="#DDDDDD"></path>
            <path d="M47.0862858,16 C47.5827751,16 48.0404166,16.2686638 48.2826436,16.7025536 L50.6651522,20.9662375 C51.5574313,22.5631165 51.2781846,24.5819855 49.9861548,25.875874 C49.2116376,26.6516579 48.1817919,27.0788349 47.0864382,27.0788349 C45.9909321,27.0788349 44.9610864,26.6515053 44.1864169,25.875874 C42.8945393,24.5819855 42.6152927,22.562964 43.5075718,20.9662375 L45.8897757,16.7025536 C46.132155,16.2688164 46.5897966,16 47.0862858,16 Z M48.0472721,23.9340495 C48.4753588,23.5053469 48.567984,22.8363573 48.2722842,22.3072681 L47.0862858,20.1848087 L45.9005921,22.3071155 C45.6048923,22.8363573 45.6973651,23.5051943 46.1256043,23.9340495 C46.6551522,24.4646643 47.5175718,24.4645118 48.0472721,23.9340495 Z" id="Path" fill="#DDDDDD"></path>
            <path d="M37.4250834,16 C37.9215726,16 38.3792141,16.2686638 38.6215935,16.7025536 L41.0039497,20.9662375 C41.8962288,22.5631165 41.6169822,24.5819855 40.3249523,25.875874 C39.5504352,26.6516579 38.5204371,27.0788349 37.4250834,27.0788349 C36.3295773,27.0788349 35.2997315,26.6515053 34.5252144,25.875874 C33.2331845,24.5819855 32.9539379,22.562964 33.846217,20.9662375 L36.2285732,16.7025536 C36.4709526,16.2688164 36.9285941,16 37.4250834,16 Z M38.3860696,23.9340495 C38.8141564,23.5053469 38.9067816,22.8363573 38.6109294,22.3071155 L37.4250834,20.1848087 L36.2392373,22.3071155 C35.9436898,22.8363573 36.0361627,23.5051943 36.4642494,23.9340495 C36.9942544,24.4646643 37.856217,24.4645118 38.3860696,23.9340495 Z" id="Path" fill="#DDDDDD"></path>
            <path d="M27.7640332,16 C28.2605225,16 28.718164,16.2688164 28.9605434,16.7025536 L31.3430519,20.9662375 C32.235331,22.5631165 31.9560844,24.5819855 30.6640545,25.875874 C29.8895374,26.6516579 28.8595393,27.0788349 27.7641856,27.0788349 C26.6688319,27.0788349 25.6388338,26.6515053 24.8643166,25.875874 C23.5722868,24.582138 23.2930401,22.5631165 24.1851669,20.96639 L26.5675231,16.7025536 C26.8099025,16.2688164 27.267544,16 27.7640332,16 Z M28.7250195,23.9340495 C29.1531063,23.5053469 29.2455791,22.8363573 28.9498793,22.3072681 L27.7640332,20.1848087 L26.5781872,22.3072681 C26.2826397,22.8363573 26.3751126,23.5051943 26.8031993,23.9340495 C27.3330519,24.4645118 28.1950145,24.4646643 28.7250195,23.9340495 Z" id="Path" fill="#DDDDDD"></path>
        </g>
    </g>
</svg>