<svg xmlns="http://www.w3.org/2000/svg" width="34" height="32" viewBox="0 0 34 32">
    <g fill="none" fill-rule="evenodd">
        <path fill="#76CC5B" d="M10.459 9.776c-1.521-3.62.253-7.74 3.865-9.238 3.675-1.498 7.857.25 9.378 3.807 1.52 3.62-.254 7.74-3.865 9.239-3.612 1.498-7.858-.25-9.378-3.808z"/>
        <path fill="#DDD" d="M16.925 31.314c2.418 0 4.378-1.932 4.378-4.315 0-2.383-1.96-4.314-4.378-4.314s-4.378 1.931-4.378 4.314 1.96 4.315 4.378 4.315z"/>
        <path fill="#A7A7A7" d="M16.92 20.84a.215.215 0 0 0 .158-.065l1.103-1.104a.216.216 0 0 0 .065-.157.21.21 0 0 0-.063-.156.21.21 0 0 0-.156-.063l-.706.004.017-2.858c0-.033-.01-.06-.031-.08a.108.108 0 0 0-.08-.032l-.559.003a.11.11 0 0 0-.113.113l-.017 2.859-.705.004a.216.216 0 0 0-.158.065.216.216 0 0 0-.064.157c0 .062.02.114.063.156l1.09 1.09a.21.21 0 0 0 .156.063z"/>
        <path fill="#FFD24D" d="M30.86 27.773c2.093-1.209 2.825-3.862 1.633-5.926-1.191-2.063-3.854-2.756-5.948-1.548-2.094 1.21-2.826 3.862-1.634 5.926 1.191 2.064 3.855 2.757 5.949 1.548z"/>
        <path fill="#A7A7A7" d="M25.618 18.704a.215.215 0 0 0 .104-.135l.404-1.507a.216.216 0 0 0-.023-.169.21.21 0 0 0-.132-.104.21.21 0 0 0-.167.024l-.609.356-1.414-2.484a.108.108 0 0 0-.068-.054.108.108 0 0 0-.085.013l-.482.282a.11.11 0 0 0-.041.155l1.414 2.484-.608.356a.216.216 0 0 0-.104.135.216.216 0 0 0 .022.168.21.21 0 0 0 .133.104l1.49.4a.21.21 0 0 0 .166-.024z"/>
        <g>
            <path fill="#FF4A00" d="M3.027 27.636c2.094 1.209 4.757.516 5.949-1.548 1.191-2.064.46-4.717-1.634-5.926-2.094-1.208-4.757-.515-5.949 1.548-1.191 2.064-.46 4.717 1.634 5.926z"/>
            <path fill="#A7A7A7" d="M8.26 18.562c.055.03.11.038.169.023l1.508-.404a.216.216 0 0 0 .134-.104.21.21 0 0 0 .024-.167.21.21 0 0 0-.104-.132l-.613-.35 1.444-2.466a.108.108 0 0 0 .013-.086.108.108 0 0 0-.054-.067l-.485-.276a.11.11 0 0 0-.155.041l-1.444 2.467-.613-.349a.216.216 0 0 0-.168-.023.216.216 0 0 0-.135.104.21.21 0 0 0-.023.167l.399 1.49a.21.21 0 0 0 .104.132z"/>
        </g>
    </g>
</svg>
