<?xml version="1.0" encoding="UTF-8" standalone="no"?>
<svg width="84px" height="84px" viewBox="0 0 84 84" version="1.1" xmlns="http://www.w3.org/2000/svg" xmlns:xlink="http://www.w3.org/1999/xlink">
    <!-- Generator: sketchtool 42 (36781) - http://www.bohemiancoding.com/sketch -->
    <title>CBE4E71D-E650-40A0-9E2A-D2D26DA83C18</title>
    <desc>Created with sketchtool.</desc>
    <defs></defs>
    <g id="Page-1" stroke="none" stroke-width="1" fill="none" fill-rule="evenodd">
        <g id="16---Add-Ons" transform="translate(-691.000000, -577.000000)">
            <g id="create-task-from-app" transform="translate(691.000000, 577.000000)">
                <g id="Group-5">
                    <path d="M0,33.6 C0,52.1472 15.0528,67.2 33.6,67.2 C33.6,67.2 32.2440234,53.9749219 43.4060156,43.1349023 C54.5680078,32.2948828 67.2,33.6 67.2,33.6 C67.2,15.0528 52.1472,0 33.6,0 C15.0528,0 0,15.0528 0,33.6 Z M11.0479069,36.9124544 C9.58550828,35.4570211 9.98002448,33.7456384 11.2,32.6666667 C11.2,32.6666667 11.2,33.6 11.2,32.6666667 C11.2,31.7333333 11.2,32.6666667 11.2,32.6666667 C12.1766604,31.5605424 14.1960563,31.7917531 15.7103014,33.1829563 L22.7914319,39.6887007 C24.3057423,41.0799639 26.6744207,40.9823342 28.0764114,39.4766657 L46.6485219,19.5311398 C48.0530252,18.0227729 50.3680765,17.9791771 51.8225871,19.4370265 L51.1290129,18.7418602 C52.5820669,20.1982498 52.5807776,22.5524926 51.1208146,24.005502 L27.2391854,47.7733848 C25.7816036,49.2240243 23.4087753,49.214449 21.9520931,47.7647049 L11.0479069,36.9124544 Z" id="Shape" fill="#4695F6"></path>
                    <path d="M71.794012,76.7345892 C69.8759281,78.0476152 67.6962874,78.9229659 65.5166467,79.2731062 L65.5166467,82.1617635 C65.5166467,83.2121844 64.6447904,84 63.6857485,84 L60.5470659,84 C59.5008383,84 58.7161677,83.1246493 58.7161677,82.1617635 L58.7161677,79.2731062 C56.5365269,78.8354309 54.3568862,77.9600802 52.4388024,76.6470541 L50.3463473,78.6603607 C49.6488623,79.3606413 48.4282635,79.3606413 47.7307784,78.6603607 L45.5511377,76.471984 C44.8536527,75.7717034 44.8536527,74.5462124 45.5511377,73.8459319 L47.5564072,71.8326253 C46.2486228,69.9068537 45.3767665,67.718477 45.028024,65.5301002 L42.1508982,65.5301002 C41.1046707,65.5301002 40.32,64.6547495 40.32,63.6918637 L40.32,60.5406012 C40.32,59.4901804 41.1918563,58.7023647 42.1508982,58.7023647 L45.028024,58.7023647 C45.4639521,56.513988 46.3358084,54.3256112 47.6435928,52.3998397 L45.6383234,50.3865331 C44.9408383,49.6862525 44.9408383,48.4607615 45.6383234,47.760481 L47.8179641,45.5721042 C48.5154491,44.8718236 49.7360479,44.8718236 50.4335329,45.5721042 L52.4388024,47.5854108 C54.3568862,46.2723848 56.5365269,45.3970341 58.7161677,45.0468938 L58.7161677,42.1582365 C58.7161677,41.1078156 59.588024,40.32 60.5470659,40.32 L63.6857485,40.32 C64.731976,40.32 65.5166467,41.1953507 65.5166467,42.1582365 L65.5166467,45.0468938 C67.6962874,45.4845691 69.8759281,46.3599198 71.794012,47.6729459 L73.7992814,45.6596393 C74.4967665,44.9593587 75.7173653,44.9593587 76.4148503,45.6596393 L78.594491,47.848016 C79.291976,48.5482966 79.291976,49.7737876 78.594491,50.4740681 L76.7635928,52.3998397 C78.0713772,54.3256112 78.9432335,56.513988 79.291976,58.7023647 L82.1691018,58.7023647 C83.2153293,58.7023647 84,59.5777154 84,60.5406012 L84,63.6918637 C84,64.7422846 83.1281437,65.5301002 82.1691018,65.5301002 L79.291976,65.5301002 C78.8560479,67.718477 77.9841916,69.9068537 76.6764072,71.8326253 L78.6816766,73.8459319 C79.3791617,74.5462124 79.3791617,75.7717034 78.6816766,76.471984 L76.5020359,78.6603607 C75.8045509,79.3606413 74.5839521,79.3606413 73.8864671,78.6603607 L71.794012,76.7345892 Z M68.0450299,56.1638477 C64.8191617,52.9250501 59.588024,52.837515 56.2749701,56.0763126 C53.0491018,59.3151102 52.9619162,64.5672144 56.1877844,67.8935471 C59.4136527,71.2198798 64.6447904,71.2198798 67.9578443,67.9810822 C71.2708982,64.7422846 71.2708982,59.4901804 68.0450299,56.1638477 Z" id="Combined-Shape" fill="#DDDDDD"></path>
                </g>
            </g>
        </g>
    </g>
</svg>