<svg xmlns="http://www.w3.org/2000/svg" xmlns:xlink="http://www.w3.org/1999/xlink" width="26" height="30" viewBox="0 0 26 30">
    <defs>
        <path id="a" d="M.929 0C.418 0 0 .394 0 .875v12.25c0 .481.418.875.929.875h9.285c.511 0 .929-.394.929-.875V3.5L7.429 0h-6.5z"/>
    </defs>
    <g fill="none" fill-rule="nonzero">
        <path fill="#FBC67D" d="M11.872 14.672c3.448 0 6.243-3.284 6.243-7.336 0-4.052-.917-7.336-6.243-7.336C6.547 0 5.63 3.284 5.63 7.336c0 4.052 2.795 7.336 6.243 7.336z"/>
        <path fill="#000" d="M.082 25.96c-.002-.417-.005-.117 0 0zM23.664 26.062c.008-.067.002-.46 0 0z"/>
        <path fill="#FF7C63" d="M23.65 25.577c-.115-7.058-1.068-9.07-8.36-10.342 0 0-1.026 1.265-3.418 1.265-2.392 0-3.418-1.265-3.418-1.265C1.242 16.494.23 18.475.098 25.348c-.01.56-.016.59-.018.525l.001.742S1.817 30 11.872 30s11.791-3.385 11.791-3.385v-.549c-.001.04-.005-.038-.013-.49z"/>
        <g transform="translate(14 15)">
            <use fill="#FAFAFA" fill-rule="evenodd" xlink:href="#a"/>
            <path stroke="#A7A7A7" stroke-width=".5" d="M10.893 3.608L7.329.25H.93C.553.25.25.535.25.875v12.25c0 .34.303.625.679.625h9.285c.376 0 .679-.285.679-.625V3.608z"/>
        </g>
        <path fill="#A7A7A7" d="M21.995 23.195H17.23a.332.332 0 0 0-.34.322c0 .178.152.322.34.322h4.766c.188 0 .34-.144.34-.322a.331.331 0 0 0-.34-.322zM19.467 24.902H17.23a.332.332 0 0 0-.34.322c0 .178.152.322.34.322h2.238c.188 0 .34-.144.34-.322a.331.331 0 0 0-.34-.322zM21.995 19.78H17.23a.332.332 0 0 0-.34.322c0 .178.152.322.34.322h4.766c.188 0 .34-.144.34-.322a.331.331 0 0 0-.34-.322zM21.995 21.488H17.23a.332.332 0 0 0-.34.322c0 .177.152.321.34.321h4.766c.188 0 .34-.144.34-.321a.331.331 0 0 0-.34-.322zM22.409 18.5h2.424l-3.353-3.159v2.284c0 .481.418.875.929.875z"/>
    </g>
</svg>
