<?xml version="1.0" encoding="UTF-8" standalone="no"?>
<svg width="64px" height="72px" viewBox="0 0 64 72" version="1.1" xmlns="http://www.w3.org/2000/svg" xmlns:xlink="http://www.w3.org/1999/xlink">
    <!-- Generator: sketchtool 42 (36781) - http://www.bohemiancoding.com/sketch -->
    <title>74470DE2-3E21-4FF4-BF67-9B27CA93DFFF</title>
    <desc>Created with sketchtool.</desc>
    <defs></defs>
    <g id="Page-1" stroke="none" stroke-width="1" fill="none" fill-rule="evenodd">
        <g id="16---Add-Ons" transform="translate(-1251.000000, -725.000000)">
            <g id="custom-csv" transform="translate(1251.000000, 725.000000)">
                <polygon id="Rectangle-402-Copy" fill="#4695F6" points="6.93333333 46.3820225 6.93333333 48.8 0.790123457 48.8"></polygon>
                <path d="M0.281880226,49.6969831 C0.126202076,49.201593 0.408691406,48.8 0.929394603,48.8 L63.0706054,48.8 C63.5838959,48.8 63.8740883,49.2006689 63.7181198,49.6969831 L58.751016,65.5030169 C58.5953379,65.998407 58.0430122,66.4 57.5278253,66.4 L6.47217472,66.4 C5.95230327,66.4 5.40495253,65.9993311 5.24898397,65.5030169 L0.281880226,49.6969831 Z" id="Rectangle" fill="#4695F6"></path>
                <g id="Group-2" transform="translate(6.400000, 0.000000)">
                    <path d="M0,3.15936183 C0,1.41449447 1.41198573,0 3.15593445,0 L37.7777778,0 L51.1111111,13.4831461 L51.1111111,68.7481087 C51.1111111,70.4944351 49.6907625,71.9101124 47.9524537,71.9101124 L3.1586574,71.9101124 C1.41417909,71.9101124 0,70.505924 0,68.7507505 L0,3.15936183 Z" id="Rectangle-1" fill="#DDDDDD"></path>
                    <path d="M37.7866699,0 L51.1200033,13.4831461 L40.9464838,13.4831461 C39.2013668,13.4831461 37.7866699,12.0656971 37.7866699,10.3219474 L37.7866699,0 Z" id="Rectangle-2" fill="#B0B0B0"></path>
                </g>
                <g id="Group-Copy" transform="translate(18.400000, 20.580674)" fill="#B0B0B0">
                    <rect id="Rectangle-3" x="0" y="0" width="27.3710692" height="1.73191961"></rect>
                    <rect id="Rectangle-3-Copy" x="0" y="4.50299098" width="27.3710692" height="0.692767843"></rect>
                    <rect id="Rectangle-3-Copy-2" x="0" y="6.23491059" width="27.3710692" height="0.692767843"></rect>
                    <rect id="Rectangle-3-Copy-3" x="0" y="7.96683019" width="13.6855346" height="0.692767843"></rect>
                    <rect id="Rectangle-3-Copy-6" x="0" y="10.0451337" width="27.3710692" height="0.692767843"></rect>
                    <rect id="Rectangle-3-Copy-5" x="0" y="11.7770533" width="27.3710692" height="0.692767843"></rect>
                    <rect id="Rectangle-3-Copy-4" x="0" y="13.5089729" width="13.6855346" height="0.692767843"></rect>
                    <rect id="Rectangle-3-Copy-9" x="0" y="15.5872765" width="27.3710692" height="0.692767843"></rect>
                    <rect id="Rectangle-3-Copy-8" x="0" y="17.3191961" width="27.3710692" height="0.692767843"></rect>
                    <rect id="Rectangle-3-Copy-7" x="0" y="19.0511157" width="13.6855346" height="0.692767843"></rect>
                    <rect id="Rectangle-3-Copy-12" x="0" y="21.1294192" width="27.3710692" height="0.692767843"></rect>
                    <rect id="Rectangle-3-Copy-11" x="0" y="22.8613388" width="27.3710692" height="0.692767843"></rect>
                    <rect id="Rectangle-3-Copy-13" x="0" y="24.5932584" width="27.3710692" height="0.692767843"></rect>
                </g>
                <path d="M0.281880226,49.6969831 C0.126202076,49.201593 0.408691406,48.8 0.929394603,48.8 L63.0706054,48.8 C63.5838959,48.8 63.8740883,49.2006689 63.7181198,49.6969831 L58.751016,65.5030169 C58.5953379,65.998407 58.0430122,66.4 57.5278253,66.4 L6.47217472,66.4 C5.95230327,66.4 5.40495253,65.9993311 5.24898397,65.5030169 L0.281880226,49.6969831 Z" id="Rectangle" fill="#4695F6"></path>
                <path d="M19.5348958,53.663448 C20.3473999,52.8326855 21.3810701,52.4173104 22.6359375,52.4173104 C24.3151126,52.4173104 25.5428781,52.9741868 26.3192708,54.0879565 C26.7480924,54.7133107 26.9782985,55.3409379 27.0098958,55.9708567 L24.9244792,55.9708567 C24.7890618,55.487006 24.6152788,55.1218411 24.403125,54.8753511 C24.0239564,54.4371467 23.4619829,54.2180478 22.7171875,54.2180478 C21.9588504,54.2180478 21.3607661,54.5272968 20.9229167,55.1458041 C20.4850673,55.7643114 20.2661458,56.639566 20.2661458,57.7715941 C20.2661458,58.9036222 20.4974803,59.7514895 20.9601562,60.3152212 C21.4228322,60.878953 22.0107603,61.1608146 22.7239583,61.1608146 C23.455212,61.1608146 24.0126717,60.9188929 24.3963542,60.4350421 C24.608508,60.1748582 24.7845479,59.7845883 24.9244792,59.2642205 L26.9895833,59.2642205 C26.8090269,60.3642962 26.3474864,61.2589502 25.6049479,61.9482093 C24.8624095,62.6374683 23.9111169,62.9820927 22.7510417,62.9820927 C21.3156178,62.9820927 20.1871569,62.5165075 19.365625,61.585323 C18.5440931,60.649574 18.1333333,59.3669323 18.1333333,57.7373596 C18.1333333,55.9754125 18.6005162,54.6174556 19.5348958,53.663448 L19.5348958,53.663448 Z M30.090625,59.5860253 C30.1538198,60.0470529 30.2779505,60.3916772 30.4630208,60.6199087 C30.8015642,61.03529 31.3815931,61.2429775 32.203125,61.2429775 C32.6951413,61.2429775 33.0946165,61.1882028 33.4015625,61.0786517 C33.9838571,60.8686787 34.275,60.4784088 34.275,59.9078301 C34.275,59.5746121 34.130557,59.3167144 33.8416667,59.1341292 C33.5527763,58.9561087 33.099135,58.7986313 32.4807292,58.6616924 L31.4244792,58.4220506 C30.3862795,58.1846898 29.6685784,57.9267921 29.2713542,57.6483497 C28.5987814,57.1827575 28.2625,56.45471 28.2625,55.4641854 C28.2625,54.5603887 28.5874967,53.8095184 29.2375,53.211552 C29.8875032,52.6135855 30.8421812,52.3146067 32.1015625,52.3146067 C33.1533039,52.3146067 34.0504303,52.5964684 34.7929687,53.1602001 C35.5355072,53.7239319 35.9248262,54.5421295 35.9609375,55.6148174 L33.9567708,55.6148174 C33.9206595,55.0077217 33.6588566,54.5763707 33.1713542,54.3207514 C32.8463525,54.1518601 32.4423635,54.0674157 31.959375,54.0674157 C31.4222195,54.0674157 30.9934044,54.1769652 30.6729167,54.3960674 C30.352429,54.6151696 30.1921875,54.9209952 30.1921875,55.3135534 C30.1921875,55.6741591 30.350172,55.9434682 30.6661458,56.1214888 C30.8692718,56.2401691 31.3026008,56.3793882 31.9661458,56.5391503 L33.6859375,56.9568118 C34.4397607,57.139397 35.008505,57.383601 35.3921875,57.6894312 C35.9880238,58.1641527 36.2859375,58.8511191 36.2859375,59.7503511 C36.2859375,60.6724063 35.9372431,61.4381114 35.2398437,62.0474895 C34.5424444,62.6568675 33.557298,62.961552 32.284375,62.961552 C30.9843685,62.961552 29.9619829,62.6614321 29.2171875,62.0611833 C28.4723921,61.4609345 28.1,60.6358901 28.1,59.5860253 L30.090625,59.5860253 Z M43.6729167,52.6090239 L45.8395833,52.6090239 L42.4338542,62.7013694 L40.4635417,62.7013694 L37.0916667,52.6090239 L39.3192708,52.6090239 L41.4859375,60.2707163 L43.6729167,52.6090239 Z" id="CSV" fill="#FFFFFF"></path>
            </g>
        </g>
    </g>
</svg>