<svg xmlns="http://www.w3.org/2000/svg" width="38" height="26" viewBox="0 0 38 26">
    <g fill="none" fill-rule="evenodd">
        <path fill="#FFDC8D" fill-rule="nonzero" d="M36.747 15.887l-20.455 7.648L21.55 12.06c1.952.265 2.99.313 3.11.144l2.087-1.879 10 5.563z"/>
        <path fill="#C29F4F" fill-rule="nonzero" d="M31.683 1.168L23.997 12.99 11.875 8.328z"/>
        <path fill="#FFDC8D" fill-rule="nonzero" d="M20.934 11.929l-4.395 10.54-5.852-13.123zM31.914 1.168l4.945 14.143-10.734-6.055z"/>
        <path fill="#C29F4F" fill-rule="nonzero" d="M37.797 14.13c.08.212.12.43.12.645 0 .758-.477 1.473-1.248 1.752L17.677 23.94a1.941 1.941 0 0 1-1.46-.055 1.87 1.87 0 0 1-.993-1.048l-4.87-12.86a1.815 1.815 0 0 1 .057-1.426 1.88 1.88 0 0 1 1.072-.97L30.476.167a1.938 1.938 0 0 1 1.46.056c.463.207.815.58.992 1.047l4.87 12.86zm-2.133-.261L31.44 2.713 28.025 9.63l7.64 4.238zm-16.926 7.7L34.283 15.4l-7.406-4.165-1.51 2.112a.963.963 0 0 1-1.02.368l-2.554-.641-3.055 8.494zm5.443-9.822l4.99-9.118L14.111 8.62l10.069 3.126zm-7.51 9.536l3.183-8.697-7.407-2.458 4.223 11.155z"/>
        <g fill="#C29F4F" fill-rule="nonzero">
            <path d="M11.12 23.094a.927.927 0 0 1-.564 1.198l-3.596 1.3a.985.985 0 0 1-.331.059.954.954 0 0 1-.896-.61.927.927 0 0 1 .564-1.198l3.597-1.3a.962.962 0 0 1 1.226.55zM6.252 14.436a.927.927 0 0 1-.563 1.198l-2.221.803a.976.976 0 0 1-.332.058.955.955 0 0 1-.895-.609.927.927 0 0 1 .564-1.198l2.221-.803a.96.96 0 0 1 1.226.551zM3.5 21.501a.926.926 0 0 1-.564 1.197l-1.65.597a.976.976 0 0 1-.331.058.955.955 0 0 1-.896-.609.927.927 0 0 1 .564-1.198l1.65-.596A.961.961 0 0 1 3.5 21.5z"/>
        </g>
    </g>
</svg>
