<?xml version="1.0" encoding="UTF-8" standalone="no"?>
<svg width="100px" height="100px" viewBox="0 0 100 100" version="1.1" xmlns="http://www.w3.org/2000/svg" xmlns:xlink="http://www.w3.org/1999/xlink">
    <!-- Generator: Sketch 3.8.3 (29802) - http://www.bohemiancoding.com/sketch -->
    <title>email_parse</title>
    <desc>Created with Sketch.</desc>
    <defs>
        <path d="M5.9715723,0 C2.67356399,0 0,2.67863712 0,5.97643348 L0,41.0235665 C0,44.3242596 2.67277112,47 5.9715723,47 L61.1526487,47 C64.450657,47 67.124221,44.3213629 67.124221,41.0235665 L67.124221,5.97643348 C67.124221,2.67574041 64.4514499,0 61.1526487,0 L5.9715723,0 Z" id="path-1"></path>
        <linearGradient x1="50%" y1="0%" x2="50%" y2="100%" id="linearGradient-3">
            <stop stop-color="#3AC2ED" offset="0%"></stop>
            <stop stop-color="#1583A7" offset="100%"></stop>
        </linearGradient>
    </defs>
    <g id="new" stroke="none" stroke-width="1" fill="none" fill-rule="evenodd">
        <g id="email_parse">
            <g id="Group" transform="translate(5.000000, 16.000000)">
                <g id="Group-30">
                    <mask id="mask-2" fill="white">
                        <use xlink:href="#path-1"></use>
                    </mask>
                    <use id="Shape" fill="#1683A7" xlink:href="#path-1"></use>
                    <path d="M37.1160983,26.6417692 C35.1539135,28.4036667 31.9715062,28.4036667 30.0081227,26.6417692 L27.5065469,24.4207179 C19.6805819,31.443 0,47 0,47 L25.8991615,47 L41.2262582,47 L67.124221,47 C67.124221,47 47.4436391,31.443 39.6176742,24.4207179 L37.1160983,26.6417692 L37.1160983,26.6417692 Z" id="Shape" fill="url(#linearGradient-3)" mask="url(#mask-2)"></path>
                    <path d="M0,0 L30.0081227,26.6417692 C31.9703076,28.4036667 35.1527148,28.4036667 37.1160983,26.6417692 L67.124221,0 L0,0 L0,0 Z" id="Shape" fill="url(#linearGradient-3)" mask="url(#mask-2)"></path>
                </g>
                <g id="pos_integrations" transform="translate(38.000000, 18.000000)">
                    <path d="M25.7723752,22.542735 C24.4944062,19.4444444 25.9853701,15.9188034 29.0205465,14.6367521 C32.1089716,13.3547009 35.6233864,14.8504274 36.9013554,17.8952991 C38.1793244,20.9935897 36.6883606,24.5192308 33.6531842,25.8012821 C30.6180077,27.0833333 27.0503442,25.5876068 25.7723752,22.542735 L25.7723752,22.542735 Z M26.3048623,32.2115385 C28.381562,32.5320513 29.9790232,34.3482906 29.9790232,36.5384615 C31.4699871,36.6452991 33.0141997,36.5918803 34.5051635,36.2713675 L35.6766351,39.1025641 C35.9428787,39.7970085 36.7416093,40.1175214 37.4338425,39.8504274 L40.8417599,38.4615385 C41.5339931,38.1944444 41.8534854,37.3931624 41.5872418,36.6987179 L40.4157702,33.8675214 C42.2262263,32.6388889 43.7704389,31.0897436 44.9419105,29.3269231 L47.7640921,30.5021368 C48.4563253,30.7692308 49.2550559,30.4487179 49.5212995,29.7542735 L50.9057659,26.3354701 C51.1720095,25.6410256 50.8525172,24.8397436 50.160284,24.5726496 L47.3913511,23.3974359 C47.8173408,21.3141026 47.8173408,19.1239316 47.3913511,16.9871795 L50.2135327,15.8119658 C50.9057659,15.5448718 51.2252582,14.7435897 50.9590146,14.0491453 L49.5212995,10.6303419 C49.2550559,9.93589744 48.4563253,9.61538462 47.7640921,9.88247863 L44.9419105,11.0576923 C43.7171902,9.24145299 42.1729776,7.69230769 40.4157702,6.51709402 L41.5872418,3.73931624 C41.8534854,3.04487179 41.5339931,2.24358974 40.8417599,1.97649573 L37.4338425,0.587606838 C36.7416093,0.320512821 35.9428787,0.641025641 35.6766351,1.33547009 L34.5051635,4.16666667 C32.4284639,3.73931624 30.2452668,3.73931624 28.1153184,4.16666667 L26.9438468,1.33547009 C26.6776033,0.641025641 25.8788726,0.320512821 25.1866394,0.587606838 L21.8319707,1.97649573 C21.1397375,2.24358974 20.8202453,3.04487179 21.0864888,3.73931624 L22.2579604,6.57051282 C20.4475043,7.7991453 18.9032917,9.3482906 17.7318201,11.1111111 L14.9096386,9.93589744 C14.2174053,9.66880342 13.4186747,9.98931624 13.1524312,10.6837607 L11.7679647,14.1025641 C11.5017212,14.7970085 11.8212134,15.5982906 12.5134466,15.8653846 L15.3356282,17.0405983 C15.0693847,18.2692308 14.9628873,19.6047009 15.016136,20.8867521 C16.9330895,21.1538462 18.4773021,22.6495726 18.7435456,24.5726496 C18.7967943,24.5726496 18.7967943,24.6260684 18.850043,24.6260684 C19.595525,24.0918803 20.500753,23.7713675 21.4059811,23.7713675 C21.778722,23.7713675 22.2047117,23.8247863 22.524204,23.9316239 L22.524204,23.8782051 C20.500753,19.017094 22.8436962,13.4081197 27.63608,11.4316239 C32.4817126,9.4017094 38.072827,11.7521368 40.0430293,16.6132479 C42.0664802,21.474359 39.723537,27.0833333 34.8779045,29.0598291 C32.215469,30.1816239 29.3400387,29.9679487 26.9438468,28.7393162 C27.1568417,29.9145299 26.8905981,31.1431624 26.1451162,32.1581197 C26.3048623,32.1581197 26.3048623,32.1581197 26.3048623,32.2115385 L26.3048623,32.2115385 Z" id="Shape" fill="#DDDDDD"></path>
                    <path d="M19.3292814,46.3675214 C18.1578098,47.1688034 16.8265921,47.7029915 15.4953744,47.9166667 L15.4953744,49.6794872 C15.4953744,50.3205128 14.9628873,50.8012821 14.3771515,50.8012821 L12.4601979,50.8012821 C11.8212134,50.8012821 11.341975,50.267094 11.341975,49.6794872 L11.341975,47.9166667 C10.0107573,47.6495726 8.67953959,47.1153846 7.50806799,46.3141026 L6.23009897,47.542735 C5.80410929,47.9700855 5.05862737,47.9700855 4.63263769,47.542735 L3.30141997,46.207265 C2.87543029,45.7799145 2.87543029,45.0320513 3.30141997,44.6047009 L4.52614028,43.3760684 C3.72740964,42.2008547 3.19492255,40.8653846 2.98192771,39.5299145 L1.22472031,39.5299145 C0.5857358,39.5299145 0.106497418,38.9957265 0.106497418,38.4081197 L0.106497418,36.4850427 C0.106497418,35.8440171 0.638984509,35.3632479 1.22472031,35.3632479 L2.98192771,35.3632479 C3.24817126,34.0277778 3.78065835,32.6923077 4.57938898,31.517094 L3.35466867,30.2884615 C2.928679,29.8611111 2.928679,29.1132479 3.35466867,28.6858974 L4.6858864,27.3504274 C5.11187608,26.9230769 5.857358,26.9230769 6.28334768,27.3504274 L7.50806799,28.5790598 C8.67953959,27.7777778 10.0107573,27.2435897 11.341975,27.0299145 L11.341975,25.267094 C11.341975,24.6260684 11.8744621,24.1452991 12.4601979,24.1452991 L14.3771515,24.1452991 C15.016136,24.1452991 15.4953744,24.6794872 15.4953744,25.267094 L15.4953744,27.0299145 C16.8265921,27.2970085 18.1578098,27.8311966 19.3292814,28.6324786 L20.5540017,27.4038462 C20.9799914,26.9764957 21.7254733,26.9764957 22.151463,27.4038462 L23.4826807,28.7393162 C23.9086704,29.1666667 23.9086704,29.9145299 23.4826807,30.3418803 L22.3644578,31.517094 C23.1631885,32.6923077 23.6956756,34.0277778 23.9086704,35.3632479 L25.6658778,35.3632479 C26.3048623,35.3632479 26.7841007,35.8974359 26.7841007,36.4850427 L26.7841007,38.4081197 C26.7841007,39.0491453 26.2516136,39.5299145 25.6658778,39.5299145 L23.9086704,39.5299145 C23.6424269,40.8653846 23.1099398,42.2008547 22.3112091,43.3760684 L23.5359294,44.6047009 C23.9619191,45.0320513 23.9619191,45.7799145 23.5359294,46.207265 L22.2047117,47.542735 C21.778722,47.9700855 21.0332401,47.9700855 20.6072504,47.542735 L19.3292814,46.3675214 Z M17.0395869,33.8141026 C15.0693847,31.8376068 11.8744621,31.784188 9.85101119,33.7606838 C7.88080895,35.7371795 7.82756024,38.9423077 9.79776248,40.9722222 C11.7679647,43.0021368 14.9628873,43.0021368 16.9863382,41.025641 C19.0097892,39.0491453 19.0097892,35.8440171 17.0395869,33.8141026 Z" id="Combined-Shape" fill="#E5E5E5"></path>
                </g>
            </g>
        </g>
    </g>
</svg>