<?xml version="1.0" encoding="UTF-8" standalone="no"?>
<svg width="100px" height="100px" viewBox="0 0 100 100" version="1.1" xmlns="http://www.w3.org/2000/svg" xmlns:xlink="http://www.w3.org/1999/xlink">
    <!-- Generator: Sketch 39.1 (31720) - http://www.bohemiancoding.com/sketch -->
    <title>email_bcc</title>
    <desc>Created with Sketch.</desc>
    <defs>
        <path d="M5.9715723,0 C2.67356399,0 0,2.67863712 0,5.97643348 L0,41.0235665 C0,44.3242596 2.67277112,47 5.9715723,47 L61.1526487,47 C64.450657,47 67.124221,44.3213629 67.124221,41.0235665 L67.124221,5.97643348 C67.124221,2.67574041 64.4514499,0 61.1526487,0 L5.9715723,0 Z" id="path-1"></path>
        <linearGradient x1="50%" y1="0%" x2="50%" y2="100%" id="linearGradient-3">
            <stop stop-color="#3AC2ED" offset="0%"></stop>
            <stop stop-color="#1583A7" offset="100%"></stop>
        </linearGradient>
    </defs>
    <g id="new" stroke="none" stroke-width="1" fill="none" fill-rule="evenodd">
        <g id="email_bcc">
            <g id="Group-2" transform="translate(8.000000, 9.000000)">
                <g id="Group" transform="translate(2.000000, 62.000000)" fill="#DDDDDD">
                    <rect id="Rectangle" x="0" y="0" width="80" height="4" rx="2"></rect>
                    <rect id="Rectangle-Copy" x="10" y="8" width="60" height="4" rx="2"></rect>
                    <rect id="Rectangle-Copy-2" x="20" y="16" width="40" height="4" rx="2"></rect>
                </g>
                <g id="Group-30" transform="translate(42.000000, 37.500000) rotate(30.000000) translate(-42.000000, -37.500000) translate(8.000000, 14.000000)">
                    <mask id="mask-2" fill="white">
                        <use xlink:href="#path-1"></use>
                    </mask>
                    <use id="Shape" fill="#1683A7" xlink:href="#path-1"></use>
                    <path d="M37.1160983,26.6417692 C35.1539135,28.4036667 31.9715062,28.4036667 30.0081227,26.6417692 L27.5065469,24.4207179 C19.6805819,31.443 0,47 0,47 L25.8991615,47 L41.2262582,47 L67.124221,47 C67.124221,47 47.4436391,31.443 39.6176742,24.4207179 L37.1160983,26.6417692 L37.1160983,26.6417692 Z" id="Shape" fill="url(#linearGradient-3)" mask="url(#mask-2)"></path>
                    <path d="M0,0 L30.0081227,26.6417692 C31.9703076,28.4036667 35.1527148,28.4036667 37.1160983,26.6417692 L67.124221,0 L0,0 L0,0 Z" id="Shape" fill="url(#linearGradient-3)" mask="url(#mask-2)"></path>
                </g>
            </g>
        </g>
    </g>
</svg>