<svg xmlns="http://www.w3.org/2000/svg" xmlns:xlink="http://www.w3.org/1999/xlink" width="32" height="31" viewBox="0 0 32 31">
    <defs>
        <path id="a" d="M1.033 0h11.538c.57 0 1.033.463 1.033 1.033v19.894c0 .57-.463 1.033-1.033 1.033H1.033C.463 21.96 0 21.497 0 20.927V1.033C0 .463.463 0 1.033 0zM.756 2.684v16.592h12.092V2.684H.756z"/>
    </defs>
    <g fill="none" fill-rule="evenodd">
        <path fill="#FF7C63" d="M8.5 16C3.806 16 0 12.418 0 8s3.806-8 8.5-8S17 3.582 17 8c0 1.926-.724 3.693-1.929 5.074-.022.756.144 1.844 1.056 2.778-1.508.564-3.027-.642-3.363-.932A8.869 8.869 0 0 1 8.5 16zm-4-7a2.5 2.5 0 1 0 0-5 2.5 2.5 0 0 0 0 5z"/>
        <g transform="translate(18 9)">
            <path fill="#FFF" d="M0 2h13.364v18H0z"/>
            <use fill="#CBCBCB" xlink:href="#a"/>
            <path stroke="#A7A7A7" stroke-width=".65" d="M1.033.325a.708.708 0 0 0-.708.708v19.894c0 .39.317.708.708.708h11.538a.708.708 0 0 0 .708-.708V1.033a.708.708 0 0 0-.708-.708H1.033zM.431 2.359h12.742v17.242H.431V2.359z"/>
            <ellipse cx="7" cy="20.667" fill="#A7A7A7" rx="1" ry="1"/>
        </g>
        <g fill-rule="nonzero">
            <path fill="#FBC67D" d="M24.669 20.231c1.012 0 1.833-1.022 1.833-2.282s-.27-2.282-1.833-2.282c-1.564 0-1.834 1.021-1.834 2.282 0 1.26.821 2.282 1.834 2.282z"/>
            <path fill="#000" d="M21.207 23.81c-.002-.26-.003-.073 0 0zM28.132 23.84c.005-.04.002-.28 0 0z"/>
            <path fill="#FF7C63" d="M28.128 23.624c-.034-2.196-.314-2.822-2.455-3.218 0 0-.302.394-1.004.394-.703 0-1.004-.394-1.004-.394-2.118.392-2.415 1.009-2.454 3.147-.003.174-.005.183-.006.163v.23S21.716 25 24.67 25c2.953 0 3.463-1.053 3.463-1.053v-.17c0 .012-.002-.013-.004-.153z"/>
        </g>
    </g>
</svg>
