<svg xmlns="http://www.w3.org/2000/svg" width="36" height="36" viewBox="0 0 36 36">
    <path fill="#FF4A00" fill-rule="nonzero" d="M22.5 18.008c0 1.298-.234 2.585-.691 3.8a10.792 10.792 0 0 1-3.802.692h-.015a10.792 10.792 0 0 1-3.8-.691 10.766 10.766 0 0 1-.692-3.801v-.016c0-1.298.233-2.585.69-3.8a10.757 10.757 0 0 1 3.802-.692h.015c1.299 0 2.587.234 3.802.692a10.76 10.76 0 0 1 .691 3.8v.016zM35.75 15H25.243l7.43-7.43a18.072 18.072 0 0 0-1.945-2.299 18.14 18.14 0 0 0-2.299-1.943l-7.43 7.43V.25A18.086 18.086 0 0 0 18.01 0h-.019c-1.019 0-2.017.087-2.99.25v10.508l-7.43-7.43a17.974 17.974 0 0 0-2.297 1.944l-.004.003c-.71.71-1.36 1.478-1.942 2.295l7.43 7.43H.251S0 16.973 0 17.994v.012c0 1.02.086 2.02.25 2.994h10.508l-7.43 7.43a18.128 18.128 0 0 0 4.242 4.243l7.43-7.43V35.75c.987.165 1.986.249 2.987.25h.025c1.001 0 2-.085 2.987-.25V25.242l7.43 7.43a18.14 18.14 0 0 0 2.299-1.943l.001-.001c.71-.711 1.36-1.48 1.943-2.298L25.242 21H35.75a18.1 18.1 0 0 0 .25-2.987v-.026A18.1 18.1 0 0 0 35.75 15z"/>
</svg>
