<svg xmlns="http://www.w3.org/2000/svg" width="36" height="33" viewBox="0 0 36 33">
    <path fill="#FF834E" fill-rule="evenodd" d="M15.113 18.626c2.106 0 4.15-.327 6.094-.9a23.774 23.774 0 0 0 4.846-2.047 26.23 26.23 0 0 1 1.043 1.576c.225.389.45.778.675 1.228l.225.41.04.081c0 .02 0-.02-.02-.061-.02-.02-.02-.041-.02-.062 0 0 0 .02.02.02l.02.042.062.143c.082.184.184.389.266.573.634 1.535.96 3.193.94 4.708-.02.757-.122 1.494-.327 2.149l-.02.102-.02.041-.021.082-.102.184-.02.041c.02-.04.02-.02 0-.02v.02l-.021.062c-.062.163-.143.348-.205.49-.061.165-.163.308-.225.472-.081.143-.163.307-.266.43-.715 1.105-1.697 1.821-2.862 2.149-1.166.327-2.495.266-3.722-.082-.164-.041-.307-.082-.47-.123-.144-.061-.307-.102-.45-.143l-.205-.082-.061-.02-.062-.021-.122-.062-.123-.061-.061-.02-.041-.02c-.02 0-.02 0 0 0l-.225-.103a13.669 13.669 0 0 1-1.616-.9 11.51 11.51 0 0 1-2.515-2.334 11.67 11.67 0 0 1-1.595-2.559 13.721 13.721 0 0 1-1.125-4.257c-.04-.532-.081-.921-.081-1.187v-.082c.797.082 1.595.143 2.372.143m0-3.377c-.88-.041-1.78-.143-2.68-.287l-.306-.061-.163-.02-.184-.042-.389-.081-.307-.082c-.45-.123-.88-.246-1.329-.39a16.61 16.61 0 0 1-2.474-1.043c-.777-.41-1.493-.88-2.086-1.412-.593-.533-1.084-1.106-1.35-1.638a2.767 2.767 0 0 1-.266-.696 1.27 1.27 0 0 1-.02-.47c.02-.348.593-1.188 2.208-1.638a10.774 10.774 0 0 1 2.495-.45c.88-.062 1.78-.02 2.68.102.899.123 1.82.307 2.74.553.92.266 1.82.593 2.719.962l.675.286.654.328.327.164.307.163.634.328c.245.123.47.266.716.389l.654.368c.41.225.798.47 1.166.737a15.633 15.633 0 0 1 2.126 1.72c.123.102.246.224.369.327-2.597 1.166-5.44 1.883-8.323 1.883h-.593m10.551-5.22c.123-.245.307-.614.532-1.084a41.499 41.499 0 0 1 2.25-3.93c.531-.799 1.145-1.658 1.901-2.375.184-.184.389-.348.593-.49.205-.144.41-.287.593-.37.41-.183.634-.183 1.023-.06.347.122.613.327.859.695.122.184.245.41.306.594l.103.266.02.061c0 .02 0 0 0 0 0-.02-.02-.02 0-.02v.061c.02.082.041.225.041.348.041.491 0 1.044-.184 1.576-.164.532-.45 1.065-.838 1.576l-.144.185-.163.184c-.061.061-.102.123-.143.164l-.082.081-.041.041-.061.062-.103.123-.06.06-.021.021-.062.062-.163.164-.41.409a19.895 19.895 0 0 1-1.86 1.576 30.231 30.231 0 0 1-2.434 1.699 17.872 17.872 0 0 0-1.492-1.556c0-.02.02-.061.04-.123M31.738.061a3.1 3.1 0 0 0-.961.41c-.573.348-1.023.818-1.411 1.269-.777.941-1.33 1.903-1.8 2.763a34.775 34.775 0 0 0-1.86 4.237c-.185.491-.307.86-.41 1.126a23.684 23.684 0 0 0-1.779-1.433c-.45-.307-.9-.635-1.37-.9-.47-.287-.92-.553-1.39-.84-.961-.532-1.923-1.044-2.945-1.494a26.935 26.935 0 0 0-3.108-1.167 21.934 21.934 0 0 0-3.252-.716c-2.208-.307-4.498-.225-6.687.45a8.933 8.933 0 0 0-1.595.635 2.664 2.664 0 0 0-.388.225c-.102.061-.225.143-.348.225-.245.164-.47.348-.695.553-.45.389-.838.86-1.125 1.391a4.719 4.719 0 0 0-.572 1.74 4.958 4.958 0 0 0 .102 1.822c.143.593.368 1.146.654 1.658.573 1.023 1.35 1.903 2.209 2.62 1.738 1.453 3.783 2.395 5.848 3.03 1.043.306 2.086.552 3.129.715.143.02.266.041.409.062v.082c-.02.266-.061.696-.061 1.228s.02 1.207.102 1.985c.102.778.266 1.679.593 2.62.327.962.777 1.986 1.452 2.989.654 1.023 1.533 2.005 2.597 2.906a13 13 0 0 0 3.803 2.17c1.452.511 3.13.757 4.806.43.43-.082.838-.205 1.247-.369a6.514 6.514 0 0 0 1.186-.614 7.61 7.61 0 0 0 2.004-1.883c.144-.184.266-.389.41-.594.122-.204.245-.409.347-.614.123-.204.225-.43.327-.655l.041-.082.02-.04.021-.041.061-.164c.041-.102.082-.225.123-.348.327-.921.532-1.904.614-2.907.143-2.005-.185-4.073-.9-6.038a10.932 10.932 0 0 0-.287-.737l-.081-.184-.02-.04s-.021-.042-.021-.062l-.041-.082-.164-.348c-.225-.47-.45-.942-.695-1.412a18.123 18.123 0 0 0-1.022-1.72 31.282 31.282 0 0 0 2.392-1.883c.695-.593 1.33-1.228 1.943-1.862.143-.164.307-.328.45-.492l.43-.49c.285-.349.551-.697.776-1.065a7.35 7.35 0 0 0 1.002-2.374c.184-.84.205-1.7.041-2.498a5.027 5.027 0 0 0-.164-.593c-.02-.041-.04-.102-.06-.143 0-.02-.021-.062-.042-.082l-.04-.062-.123-.245a5.243 5.243 0 0 0-.675-.983A3.308 3.308 0 0 0 32.863.041 3.98 3.98 0 0 0 32.35 0c-.245 0-.43.02-.613.061"/>
</svg>
