<?xml version="1.0" encoding="UTF-8" standalone="no"?>
<svg width="100px" height="100px" viewBox="0 0 100 100" version="1.1" xmlns="http://www.w3.org/2000/svg" xmlns:xlink="http://www.w3.org/1999/xlink">
    <!-- Generator: Sketch 41.1 (35376) - http://www.bohemiancoding.com/sketch -->
    <title>jugnoo_delivery_integration</title>
    <desc>Created with Sketch.</desc>
    <defs>
        <polygon id="path-1" points="99.5557608 96.8367185 0 96.8367185 0 0.999489304 99.5557608 0.999489304 99.5557608 96.8367185"></polygon>
        <linearGradient x1="50%" y1="0%" x2="50%" y2="100%" id="linearGradient-3">
            <stop stop-color="#35B8E2" offset="0%"></stop>
            <stop stop-color="#1785A9" offset="100%"></stop>
        </linearGradient>
    </defs>
    <g id="New_Features" stroke="none" stroke-width="1" fill="none" fill-rule="evenodd">
        <g id="jugnoo_delivery_integration">
            <g id="Page-1" transform="translate(0.000000, 2.000000)">
                <mask id="mask-2" fill="white">
                    <use xlink:href="#path-1"></use>
                </mask>
                <g id="Clip-2"></g>
            </g>
            <g id="Group-16-Copy" transform="translate(11.000000, 8.000000)" fill="url(#linearGradient-3)">
                <path d="M35.1361626,48.5937881 C35.0337131,48.8256881 34.9206319,49.0478443 34.7978858,49.2573337 C34.4296473,49.8877507 33.9763563,50.4217051 33.4525104,50.8796587 C32.7566266,51.4915627 31.9379966,51.9680293 31.0420462,52.3607002 C30.7288985,52.4980863 30.4060857,52.6033182 30.0803734,52.6910114 C29.8358476,52.7572685 29.5903552,52.8137819 29.3409969,52.8527567 C29.1476958,52.8829622 28.9534282,52.906347 28.7581942,52.9229113 C28.0632769,52.9794247 27.3055367,52.8858853 26.634782,52.6013694 C25.8151855,52.2535195 25.1299333,51.6153076 24.8854074,50.5551937 C24.8438477,50.3778585 24.8332162,50.202472 24.8206516,50.0650859 C24.8187186,50.0407267 24.8148526,50.0085725 24.8129195,49.9871364 C24.8312831,49.4366177 24.9356657,48.9348174 25.1154357,48.4749151 C25.2681435,48.0832186 25.4846407,47.725625 25.7378651,47.3875188 C25.7813579,47.3290567 25.8171185,47.2657227 25.8625443,47.2082349 C26.2472134,46.733717 26.6589447,46.3147382 27.0958051,45.9464265 C27.3441969,45.7369371 27.5993543,45.5410889 27.8641768,45.3676511 C29.0858395,44.5676938 30.4930712,44.1438432 32.103269,44.1448175 C32.5372299,44.1448175 32.9605592,44.230562 33.3703574,44.365025 C33.9454281,44.5540527 34.4132167,44.8590303 34.7592256,45.2439062 C34.8974358,45.3978566 35.0172825,45.5654481 35.115866,45.7427833 C35.5594919,46.5427406 35.5933196,47.5590079 35.1361626,48.5937881 M38.935495,39.3333815 L38.9335619,39.3333815 C26.3409644,39.3333815 16.1346685,49.4044635 16.1346685,62.1004965 C16.1346685,74.7965296 26.3409644,84.8656628 38.9335619,84.8656628 L38.935495,84.8656628 C51.529059,84.8656628 61.7363214,74.7955552 61.7363214,62.1004965 C61.7363214,49.4054378 51.529059,39.3333815 38.935495,39.3333815" id="Fill-16"></path>
                <path d="M50.257428,35.6469524 C49.350846,37.0237363 49.714252,37.3345602 51.0644599,36.339729 L75.9423062,17.9796867 C77.2925141,16.9838812 78.1275747,14.8656022 77.7989629,13.2725082 L75.3382404,1.34622698 C75.0096286,-0.24686696 73.9996306,-0.423227818 73.0930486,0.952581751 L50.257428,35.6469524 Z" id="Fill-20"></path>
                <path d="M54.5967468,38.0334753 C53.2262423,39.0029729 53.4446725,39.4180542 55.0838655,38.9562031 L72.2944253,34.1028692 C73.9316853,33.6400438 75.52062,31.9553591 75.8231361,30.3583677 L76.8814594,24.7820517 C77.1849421,23.1840859 76.3112213,22.6705933 74.9407168,23.6410652 L54.5967468,38.0334753 Z" id="Fill-24"></path>
                <path d="M27.6130787,35.6211316 C28.5186942,36.9969412 28.1562547,37.3087394 26.8060468,36.3139082 L1.92723391,17.9538659 C0.577992511,16.9580604 -0.257068066,14.8397814 0.0715437349,13.2466874 L2.53226622,1.32040619 C2.86184453,-0.272687749 3.87184256,-0.449048607 4.77745803,0.926760963 L27.6130787,35.6211316 Z" id="Fill-28"></path>
                <path d="M23.2744364,38.007752 C24.6449409,38.9772495 24.4265107,39.3923309 22.7873177,38.9304798 L5.57675791,34.0781202 C3.93853143,33.6152948 2.34959672,31.9296358 2.04708056,30.3326443 L0.988757262,24.7563284 C0.686241104,23.1583626 1.55996189,22.6448699 2.9304664,23.6143674 L23.2744364,38.007752 Z" id="Fill-32"></path>
            </g>
        </g>
    </g>
</svg>