<svg xmlns="http://www.w3.org/2000/svg" width="122" height="19" viewBox="0 0 122 19">
    <g fill="none" fill-rule="evenodd">
        <g fill="#08C187">
            <path d="M6.709 7.89c-.49.002-.87-.368-.908-.86-.096-1.129-.223-2.254-.335-3.38-.077-.79-.16-1.578-.232-2.366-.037-.4.255-.666.64-.585.998.213 1.977.489 2.908.91.57.257 1.124.548 1.674.844a4.5 4.5 0 0 1 .807.54c.312.269.456.655.384 1.062a112.947 112.947 0 0 1-.634 3.19c-.035.157-.145.297-.185.374-.253.215-.462.306-.706.303-1.136-.011-2.274-.033-3.413-.032zM10.582 10.303c.037-.183.072-.384.038-.562-.055-.292-.298-.438-.635-.44L8.636 9.29c-.67-.007-1.338-.018-2.005-.019-.428-.001-.709.319-.676.747.01.135.025.267.04.402.134 1.343.26 2.688.408 4.03.058.521.321.92.831 1.117.46.175.93.297 1.411.384a.732.732 0 0 0 .691-.2.705.705 0 0 0 .247-.429c.146-.729.294-1.454.437-2.183.19-.945.381-1.89.562-2.835M15.148 9.392a208.62 208.62 0 0 0-2.238-.027c-.418-.003-.806.325-.889.737l-1.04 5.214c-.093.462.177.814.606.788.84-.054 1.666-.18 2.455-.488.256-.099.512-.206.723-.4.058-.065.12-.126.17-.197.24-.356.416-.745.553-1.15a9.258 9.258 0 0 0 .474-3.695.837.837 0 0 0-.814-.782M13.829 4.386c-.005-.006-.012-.011-.02-.017l-.003-.002c-.066-.082-.21-.186-.315-.265a.225.225 0 0 0-.081-.043c-.023-.014-.051-.016-.085-.014a.132.132 0 0 0-.034.003c-.147.023-.263.152-.306.358-.185.906-.365 1.815-.546 2.72-.047.238-.067.468.124.661a.524.524 0 0 0 .417.196c.71.01 1.423.024 2.134.027.369.001.595-.252.548-.603-.016-.114-.06-.226-.1-.335a7.1 7.1 0 0 0-.671-1.382c-.298-.48-.672-.9-1.062-1.304M3.045.35C2.91.326 2.774.317 2.637.3 1.824.185 1.002.18.189.017A.161.161 0 0 0 0 .19v.003c.019.411.045.824.045 1.237 0 1.133.029 2.261.148 3.389.05.547.133 1.246.274 1.714l.004.013c.034.175.073.35.117.527.11.415.506.728.93.74.737.017 1.474.026 2.21.027.428.001.707-.316.666-.747-.06-.65-.122-1.299-.188-1.947-.128-1.291-.266-2.583-.384-3.876-.035-.444-.398-.858-.777-.92M4.963 14.245c-.136-1.405-.282-2.807-.41-4.211a.89.89 0 0 0-.876-.82C3 9.217 2.321 9.2 1.644 9.193c-.42-.006-.663.313-.513.686.253.635.545 1.252.899 1.842.389.65.822 1.264 1.343 1.811.148.165.286.345.448.492.235.21.48.411.737.594.174.124.34.042.391-.164a.63.63 0 0 0 .014-.208"/>
        </g>
        <path fill="#26323C" d="M25.53 4.92v7.834c0 2.644-.928 3.731-3.29 3.731-.97 0-2.12-.184-2.787-.472l.505-2.623c.505.225 1.191.328 1.696.328.868 0 1.03-.287 1.03-1.353V4.92h2.847zM30.218 4.92v6.19c0 1.7.545 2.172 1.413 2.172.646 0 1.353-.266 1.797-.737V4.919h2.888v10.844H33.63v-1.21c-.767.922-1.798 1.373-3.05 1.373-2.04 0-3.19-1.188-3.19-4.222V4.92h2.827zM41.108 4.92v1.373c.746-1.046 1.837-1.537 3.15-1.537 2.059 0 3.21 1.189 3.21 4.222v6.785h-2.827v-6.19c0-1.702-.545-2.174-1.413-2.174-.707 0-1.474.308-1.919.882v7.482h-2.867V4.919h2.666zM59.58 15.762h2.867V0H59.58zM66.517 9.203h3.714c-.161-1.517-.766-2.09-1.797-2.09-1.13 0-1.736.656-1.917 2.09zm0 1.906c.161 1.353.767 2.276 2.463 2.276.788 0 1.777-.205 2.343-.553l.908 2.397c-.808.41-2.12.738-3.433.738-3.836 0-4.926-2.747-4.926-5.657 0-2.85 1.03-5.555 4.542-5.555 3.17 0 4.26 2.09 4.26 4.92 0 .471-.02.943-.08 1.434h-6.077z"/>
        <path fill="#08C187" d="M85.51 5.354l-1.37 6.974-1.929-6.974h-2.348l-2.118 7.016-1.202-7.016H74.04l2.292 10.443h2.349l2.306-7.407 2.076 7.407h2.362L87.88 5.354zM92.841 13.69c-1.488 0-2.096-.894-2.096-3.086 0-2.207.608-3.1 2.096-3.1 1.496 0 2.14.929 2.14 3.1 0 2.163-.644 3.086-2.14 3.086m-.02-8.5c-3.013 0-4.536 1.81-4.536 5.371 0 3.611 1.523 5.442 4.535 5.442 3.04 0 4.579-1.83 4.579-5.442 0-3.561-1.538-5.37-4.579-5.37M103.605 5.19c-.888 0-1.817.497-2.426 1.299l-.251.333V5.354h-2.355v10.443h2.558V8.85l.02-.035c.637-.873 1.392-1.292 2.314-1.292.419 0 .762.072 1.062.235V5.325a3.389 3.389 0 0 0-.922-.135M110.831 9.866l3.32-4.512h-2.649l-2.712 3.668h-.552V.48h-2.537v15.317h2.537v-4.725h.56l.041.07 2.677 4.655h2.768zM120.735 10.54c-.378-.291-.895-.575-1.447-.866a42.243 42.243 0 0 1-1.16-.652c-.447-.256-.748-.511-.748-.93 0-.794.95-.794 1.265-.794.727 0 1.656.17 2.453.454l.23-2.108c-.614-.22-1.732-.432-2.787-.432-2.363 0-3.719 1.071-3.719 2.937 0 1.007.391 1.532 1.07 2.107.426.32.922.582 1.495.887.37.191.797.411 1.244.68.42.235.853.554.853 1.072 0 .958-1.223.958-1.622.958-.93 0-2.097-.248-2.977-.624l-.245 2.348a11.95 11.95 0 0 0 3.18.461c2.621 0 4.061-1.12 4.061-3.157 0-1.029-.356-1.745-1.146-2.341"/>
        <path fill="#26323C" d="M53.357 12.21c-.683 0-1.176-.188-1.506-.577-.335-.394-.505-1.042-.505-1.926 0-.81.174-1.437.517-1.865.336-.418.825-.622 1.494-.622.619 0 1.256.243 1.896.723v3.548c-.62.478-1.258.72-1.896.72zm1.896-7.19v.493c-.739-.503-1.511-.757-2.303-.757-.84 0-1.597.188-2.25.56-.658.375-1.18.943-1.552 1.687-.368.736-.555 1.646-.555 2.704 0 1.633.4 2.884 1.19 3.72.791.84 1.857 1.265 3.167 1.265.784 0 1.557-.26 2.303-.772v.498c0 .69-.16 1.2-.475 1.515-.316.316-.936.476-1.844.476a7.06 7.06 0 0 1-1.442-.168 8.242 8.242 0 0 1-1.576-.506l-.33-.144v2.628l.15.06a7.967 7.967 0 0 0 1.78.477c.606.09 1.307.134 2.085.134 1.452 0 2.547-.398 3.253-1.186.7-.78 1.055-1.83 1.055-3.12V5.02h-2.656z"/>
    </g>
</svg>
