<?xml version="1.0" encoding="UTF-8" standalone="no"?>
<svg width="124px" height="50px" viewBox="0 0 124 50" version="1.1" xmlns="http://www.w3.org/2000/svg" xmlns:xlink="http://www.w3.org/1999/xlink">
    <!-- Generator: Sketch 3.8.3 (29802) - http://www.bohemiancoding.com/sketch -->
    <title>logo_white</title>
    <desc>Created with Sketch.</desc>
    <defs></defs>
    <g id="Page-1" stroke="none" stroke-width="1" fill="none" fill-rule="evenodd">
        <g id="Dark" transform="translate(-37.000000, -110.000000)">
            <g id="logo_white" transform="translate(37.000000, 110.000000)">
                <path d="M44.8316476,17.6573427 L40.0909091,17.6573427 L40.0909091,15.3846154 L51.9677066,15.3846154 L51.9677066,17.6573427 L47.2269681,17.6573427 L47.2269681,34.5765346 L44.8316476,34.5765346 L44.8316476,17.6573427 Z M51.2191689,28.010878 C51.2191689,27.0849475 51.3938259,26.2053266 51.7431453,25.3719891 C52.0924646,24.5386516 52.5790092,23.8063357 53.2027937,23.1750194 C53.8265782,22.5437031 54.5667914,22.0428664 55.4234554,21.6724942 C56.2801194,21.302122 57.2240992,21.1169386 58.2554229,21.1169386 C59.2701123,21.1169386 60.2099335,21.302122 61.0749147,21.6724942 C61.9398959,22.0428664 62.6842675,22.5437031 63.308052,23.1750194 C63.9318365,23.8063357 64.4183811,24.5386516 64.7677005,25.3719891 C65.1170198,26.2053266 65.2916768,27.0849475 65.2916768,28.010878 C65.2916768,28.9536437 65.1253368,29.8416819 64.7926517,30.6750194 C64.4599667,31.5083569 63.9858975,32.2364641 63.3704302,32.8593629 C62.7549628,33.4822616 62.0147496,33.9746809 61.1497685,34.3366356 C60.2847873,34.6985903 59.3200151,34.8795649 58.2554229,34.8795649 C57.1908307,34.8795649 56.2260584,34.6985903 55.3610773,34.3366356 C54.4960961,33.9746809 53.7558829,33.4822616 53.1404155,32.8593629 C52.5249482,32.2364641 52.0508791,31.5083569 51.718194,30.6750194 C51.3855089,29.8416819 51.2191689,28.9536437 51.2191689,28.010878 L51.2191689,28.010878 Z M58.2554229,23.2381507 C57.6233212,23.2381507 57.0286556,23.3602034 56.4714081,23.6043124 C55.9141606,23.8484213 55.4234575,24.1809096 54.9992841,24.6017871 C54.5751106,25.0226646 54.238272,25.5277101 53.9887582,26.1169386 C53.7392444,26.7061672 53.6144894,27.337474 53.6144894,28.010878 C53.6144894,28.6506118 53.7392444,29.2566664 53.9887582,29.8290598 C54.238272,30.4014533 54.5751106,30.90229 54.9992841,31.3315851 C55.4234575,31.7608802 55.9141606,32.1059946 56.4714081,32.3669386 C57.0286556,32.6278827 57.6233212,32.7583528 58.2554229,32.7583528 C58.8708902,32.7583528 59.4613974,32.6278827 60.026962,32.3669386 C60.5925266,32.1059946 61.0873882,31.7608802 61.5115617,31.3315851 C61.9357351,30.90229 62.2725737,30.4014533 62.5220875,29.8290598 C62.7716013,29.2566664 62.8963563,28.6506118 62.8963563,28.010878 C62.8963563,27.337474 62.7716013,26.7061672 62.5220875,26.1169386 C62.2725737,25.5277101 61.9357351,25.0226646 61.5115617,24.6017871 C61.0873882,24.1809096 60.5925266,23.8484213 60.026962,23.6043124 C59.4613974,23.3602034 58.8708902,23.2381507 58.2554229,23.2381507 L58.2554229,23.2381507 Z M68.2858274,28.010878 C68.2858274,27.0849475 68.4604845,26.2053266 68.8098038,25.3719891 C69.1591231,24.5386516 69.6456677,23.8063357 70.2694522,23.1750194 C70.8932367,22.5437031 71.6334499,22.0428664 72.4901139,21.6724942 C73.346778,21.302122 74.2907577,21.1169386 75.3220814,21.1169386 C76.3367709,21.1169386 77.2765921,21.302122 78.1415732,21.6724942 C79.0065544,22.0428664 79.7509261,22.5437031 80.3747106,23.1750194 C80.9984951,23.8063357 81.4850397,24.5386516 81.834359,25.3719891 C82.1836783,26.2053266 82.3583354,27.0849475 82.3583354,28.010878 C82.3583354,28.9536437 82.1919953,29.8416819 81.8593103,30.6750194 C81.5266252,31.5083569 81.0525561,32.2364641 80.4370887,32.8593629 C79.8216213,33.4822616 79.0814082,33.9746809 78.216427,34.3366356 C77.3514458,34.6985903 76.3866736,34.8795649 75.3220814,34.8795649 C74.2574892,34.8795649 73.292717,34.6985903 72.4277358,34.3366356 C71.5627546,33.9746809 70.8225415,33.4822616 70.2070741,32.8593629 C69.5916067,32.2364641 69.1175376,31.5083569 68.7848525,30.6750194 C68.4521675,29.8416819 68.2858274,28.9536437 68.2858274,28.010878 L68.2858274,28.010878 Z M75.3220814,23.2381507 C74.6899798,23.2381507 74.0953141,23.3602034 73.5380667,23.6043124 C72.9808192,23.8484213 72.4901161,24.1809096 72.0659426,24.6017871 C71.6417691,25.0226646 71.3049306,25.5277101 71.0554168,26.1169386 C70.805903,26.7061672 70.6811479,27.337474 70.6811479,28.010878 C70.6811479,28.6506118 70.805903,29.2566664 71.0554168,29.8290598 C71.3049306,30.4014533 71.6417691,30.90229 72.0659426,31.3315851 C72.4901161,31.7608802 72.9808192,32.1059946 73.5380667,32.3669386 C74.0953141,32.6278827 74.6899798,32.7583528 75.3220814,32.7583528 C75.9375488,32.7583528 76.5280559,32.6278827 77.0936205,32.3669386 C77.6591851,32.1059946 78.1540467,31.7608802 78.5782202,31.3315851 C79.0023937,30.90229 79.3392322,30.4014533 79.588746,29.8290598 C79.8382598,29.2566664 79.9630149,28.6506118 79.9630149,28.010878 C79.9630149,27.337474 79.8382598,26.7061672 79.588746,26.1169386 C79.3392322,25.5277101 79.0023937,25.0226646 78.5782202,24.6017871 C78.1540467,24.1809096 77.6591851,23.8484213 77.0936205,23.6043124 C76.5280559,23.3602034 75.9375488,23.2381507 75.3220814,23.2381507 L75.3220814,23.2381507 Z M93.4616439,21.4199689 L96.405892,21.4199689 L90.3926395,27.5058275 L96.5306483,34.5765346 L93.3867902,34.5765346 L87.9723678,28.1876457 L87.9723678,34.5765346 L85.7267548,34.5765346 L85.7267548,15.3846154 L87.9723678,15.3846154 L87.9723678,27.1522922 L93.4616439,21.4199689 Z M107.259688,25.7634033 C107.259688,25.22468 107.139092,24.7827653 106.897895,24.4376457 C106.656698,24.0925261 106.348969,23.8231685 105.974698,23.6295649 C105.600428,23.4359612 105.180419,23.3012824 104.71466,23.2255245 C104.248901,23.1497665 103.799783,23.1118881 103.367292,23.1118881 C102.18626,23.1118881 100.988612,23.4149154 99.7743115,24.020979 L98.8012125,22.1270396 C99.7992677,21.7061621 100.685028,21.4325958 101.458521,21.3063326 C102.232014,21.1800693 102.90985,21.1169386 103.492049,21.1169386 C104.273858,21.1169386 105.026547,21.2011129 105.750137,21.3694639 C106.473727,21.5378149 107.114136,21.8071725 107.671384,22.1775447 C108.228631,22.5479169 108.673591,23.0150839 109.006276,23.5790598 C109.338961,24.1430357 109.505301,24.8122209 109.505301,25.5866356 L109.505301,34.5765346 L107.409396,34.5765346 L107.409396,33.1623932 C106.827197,33.7684568 106.20758,34.2061629 105.550527,34.4755245 C104.893474,34.7448861 104.132468,34.8795649 103.267487,34.8795649 C102.469043,34.8795649 101.72883,34.7701384 101.046825,34.5512821 C100.364821,34.3324257 99.765997,34.020981 99.2503351,33.6169386 C98.7346733,33.2128962 98.3312987,32.7204769 98.0401992,32.1396659 C97.7490998,31.5588549 97.6035523,30.8980871 97.6035523,30.1573427 C97.6035523,29.551279 97.7283073,28.9788942 97.9778211,28.4401709 C98.2273349,27.9014477 98.5891245,27.4216545 99.0632007,27.000777 C99.5372769,26.5798995 100.127784,26.2474112 100.83474,26.0033023 C101.541696,25.7591933 102.344286,25.6371406 103.242536,25.6371406 C103.941175,25.6371406 104.635644,25.7507759 105.325966,25.9780497 C106.016287,26.2053236 106.660855,26.5883164 107.259688,27.1270396 L107.259688,25.7634033 Z M107.334542,30.2583528 C107.334542,29.9384858 107.272164,29.6228324 107.147407,29.3113831 C107.02265,28.9999337 106.814725,28.71795 106.523626,28.4654235 C106.232527,28.212897 105.854103,28.0108788 105.388344,27.8593629 C104.922585,27.707847 104.348712,27.6320901 103.666707,27.6320901 C102.984703,27.6320901 102.406671,27.707847 101.932595,27.8593629 C101.458519,28.0108788 101.080095,28.212897 100.797313,28.4654235 C100.514531,28.71795 100.310764,28.9999337 100.186007,29.3113831 C100.06125,29.6228324 99.9988728,29.9384858 99.9988728,30.2583528 C99.9988728,30.5782197 100.06125,30.8938731 100.186007,31.2053225 C100.310764,31.5167718 100.514531,31.7987555 100.797313,32.0512821 C101.080095,32.3038086 101.458519,32.5058267 101.932595,32.6573427 C102.406671,32.8088586 102.984703,32.8846154 103.666707,32.8846154 C104.348712,32.8846154 104.922585,32.8088586 105.388344,32.6573427 C105.854103,32.5058267 106.232527,32.3038086 106.523626,32.0512821 C106.814725,31.7987555 107.02265,31.5167718 107.147407,31.2053225 C107.272164,30.8938731 107.334542,30.5782197 107.334542,30.2583528 L107.334542,30.2583528 Z M121.481903,26.9250194 C121.481903,26.4368015 121.427843,25.9696345 121.31972,25.5235043 C121.211598,25.0773741 121.041099,24.6859639 120.80822,24.3492618 C120.57534,24.0125598 120.263452,23.7432023 119.872548,23.541181 C119.481643,23.3391598 119.011732,23.2381507 118.462802,23.2381507 C117.414844,23.2381507 116.59146,23.5790564 115.992627,24.260878 C115.393794,24.9426996 115.094382,25.9149121 115.094382,27.1775447 L115.094382,34.5765346 L112.848769,34.5765346 L112.848769,21.4199689 L115.094382,21.4199689 L115.094382,22.960373 L115.144285,22.960373 C115.47697,22.3711444 115.971831,21.9166035 116.628884,21.5967366 C117.285937,21.2768697 117.980407,21.1169386 118.712314,21.1169386 C119.344416,21.1169386 119.959874,21.2095303 120.558707,21.3947164 C121.15754,21.5799025 121.693987,21.8703036 122.168063,22.2659285 C122.642139,22.6615534 123.020563,23.1708076 123.303345,23.7937063 C123.586127,24.416605 123.727516,25.1741732 123.727516,26.0664336 L123.727516,34.5765346 L121.481903,34.5765346 L121.481903,26.9250194 Z" id="text" fill="#FFFFFF"></path>
                <g id="Tookan_icon">
                    <path d="M34.9630971,17.3888208 C34.9630971,29.3117917 17.5449158,49.6549005 17.5449158,49.6549005 C17.5449158,49.6549005 0.392838656,29.682389 0.392838656,17.7593415 C0.392838656,8.1661562 8.12371464,0.389356815 17.6601565,0.389356815 C27.1965985,0.389356815 34.9630971,7.79563553 34.9630971,17.3888208" id="Fill-1" fill="#0382C5"></path>
                    <path d="M17.5449158,50 C17.445355,50 17.350818,49.9562021 17.2857381,49.8803216 C17.2426561,49.830245 12.9344468,44.7964012 8.68378184,38.369219 C6.18403096,34.5896631 4.19137,31.0726646 2.76121199,27.9160031 C0.962420455,23.9458652 0.0503893025,20.5286371 0.0503893025,17.7594181 C0.0503893025,13.0277182 1.8821394,8.57917305 5.20813783,5.23330781 C8.53421238,1.88744257 12.9563684,0.0447932619 17.6601565,0.0447932619 C22.3873886,0.0447932619 26.8144923,1.8202144 30.1260285,5.04402757 C33.4661085,8.2957121 35.3056226,12.6798622 35.3056226,17.3888208 C35.3056226,20.1582695 34.3794337,23.5951761 32.5528595,27.6039816 C31.1007038,30.7911179 29.0773678,34.3507657 26.5391018,38.1839969 C22.222748,44.7023737 17.8480889,49.8290199 17.8044739,49.8800153 C17.7394702,49.9559724 17.644781,50 17.5451441,50 L17.5449158,50 L17.5449158,50 Z M17.6601565,0.733920368 C13.1394293,0.733920368 8.889221,2.50490046 5.69254496,5.72052067 C2.49586893,8.93621746 0.735440243,13.2117152 0.735440243,17.7593415 C0.735440243,21.11049 2.2125623,27.3390505 9.24993838,37.9810873 C12.8804039,43.4711332 16.5528859,47.9387443 17.5446113,49.1222818 C18.5450901,47.9254211 22.2804446,43.3730475 25.9730214,37.7957887 C29.9180014,31.837366 34.6205716,23.4601072 34.6205716,17.3888208 C34.6205716,12.8682236 32.8551953,8.65995406 29.6496136,5.53920368 C26.4665625,2.44050536 22.2086664,0.733920368 17.6601565,0.733920368 L17.6601565,0.733920368 Z" id="Fill-2" fill="#FFFFFF"></path>
                    <path d="M25.5798782,2.23667688 C27.6295506,4.28973966 28.9045066,6.78920368 28.9045066,10.3352221 C28.9045066,16.5834609 23.8245494,21.6503063 17.5068574,21.6721286 L17.5068574,22.3591118 L17.5068574,49.6549005 C17.5068574,49.6549005 34.9410232,46.6287136 34.9410232,17.7593415 C34.9410232,10.6431853 31.1612166,5.11653905 25.5798782,2.23667688" id="Fill-3" fill="#41A446"></path>
                    <path d="M17.5449158,49.9993874 C17.4647648,49.9993874 17.3865168,49.9711332 17.3243293,49.9184533 C17.2469947,49.8529096 17.2023903,49.7564319 17.2023903,49.6548239 L17.2023903,21.6722052 C17.2023903,21.482389 17.3550044,21.3282542 17.5436979,21.3276417 C20.5059343,21.3173047 23.2826741,20.1689127 25.3621082,18.093951 C27.4378886,16.0227412 28.5810103,13.2673047 28.5810103,10.3352221 C28.5810103,7.19280245 27.5505414,4.69701378 25.3382075,2.48078101 C25.2185519,2.36102603 25.2035569,2.17136294 25.3028132,2.03407351 C25.4020695,1.89678407 25.5858153,1.85260337 25.736146,1.93009188 C28.6111525,3.41355283 31.0028937,5.59050536 32.6527247,8.22580398 C34.4110221,11.0340735 35.3025779,14.2416539 35.3025779,17.7593415 C35.3025779,24.3861409 34.3795859,30.201608 32.5593294,35.0441807 C31.0975069,38.9332312 29.0568923,42.2078101 26.494269,44.7771822 C22.1141294,49.1687596 17.7853686,49.9627871 17.6032212,49.9944104 C17.5838114,49.9977795 17.5643255,49.9993874 17.5449158,49.9993874 L17.5449158,49.9993874 Z M17.8874412,22.0107963 L17.8874412,49.2227412 C18.3402599,49.1050536 19.1478588,48.8595712 20.1637133,48.399464 C21.6272104,47.7366003 23.835358,46.4795559 26.0441144,44.255513 C28.5289464,41.7534456 30.5095809,38.5609495 31.9311377,34.7669219 C33.7137164,30.0092649 34.6175269,24.2871363 34.6175269,17.7593415 C34.6175269,14.37366 33.7614416,11.2895865 32.0730955,8.59303216 C30.8384815,6.62113323 29.1698496,4.91562021 27.1848004,3.58346095 C28.5978321,5.53866769 29.2660612,7.72741194 29.2660612,10.3352221 C29.2660612,13.4524502 28.0509331,16.3816233 25.8446124,18.5832312 C23.7165397,20.706585 20.9023504,21.9161562 17.8874412,22.0107963 L17.8874412,22.0107963 Z" id="Fill-4" fill="#FFFFFF"></path>
                    <path d="M22.2289896,17.1257274 C22.2289896,19.6326953 20.2086983,21.6649311 17.7166352,21.6649311 C15.224496,21.6649311 13.2042808,19.6326953 13.2042808,17.1257274 C13.2042808,14.6188361 15.224496,12.5865237 17.7166352,12.5865237 C20.2086983,12.5865237 22.2289896,14.6188361 22.2289896,17.1257274" id="Fill-5" fill="#056494"></path>
                    <path d="M17.7166352,22.0094946 C15.0396083,22.0094946 12.8617553,19.8186064 12.8617553,17.1257274 C12.8617553,14.4328484 15.0396083,12.2419602 17.7166352,12.2419602 C20.3935859,12.2419602 22.5715151,14.4328484 22.5715151,17.1257274 C22.5715151,19.8186064 20.3935859,22.0094946 17.7166352,22.0094946 L17.7166352,22.0094946 Z M17.7166352,12.9310873 C15.4173759,12.9310873 13.5468062,14.8128637 13.5468062,17.1257274 C13.5468062,19.4386677 15.4173759,21.3203675 17.7166352,21.3203675 C20.0158945,21.3203675 21.8864641,19.4386677 21.8864641,17.1257274 C21.8864641,14.8128637 20.0158945,12.9310873 17.7166352,12.9310873 L17.7166352,12.9310873 Z" id="Fill-6" fill="#FFFFFF"></path>
                </g>
            </g>
        </g>
    </g>
</svg>