<?xml version="1.0" encoding="UTF-8" standalone="no"?>
<svg width="70px" height="70px" viewBox="0 0 70 70" version="1.1" xmlns="http://www.w3.org/2000/svg" xmlns:xlink="http://www.w3.org/1999/xlink">
    <!-- Generator: Sketch 39.1 (31720) - http://www.bohemiancoding.com/sketch -->
    <title>mobile</title>
    <desc>Created with Sketch.</desc>
    <defs></defs>
    <g id="version-5" stroke="none" stroke-width="1" fill="none" fill-rule="evenodd">
        <g id="mobile">
            <g id="Group-12">
                <path d="M27.3316832,7.35 L48.6683168,7.35 C51.7376238,7.35 54.1633663,9.8 54.1633663,12.9 L54.1633663,14.75 L21.8366337,14.75 L21.8366337,12.9 C21.8366337,9.8 24.2623762,7.35 27.3316832,7.35 L27.3316832,7.35 L27.3316832,7.35 Z M21.8366337,16.1 L54.1633663,16.1 L54.1633663,55.9 L21.8366337,55.9 L21.8366337,16.1 L21.8366337,16.1 L21.8366337,16.1 Z M21.8366337,57.25 L54.1633663,57.25 L54.1633663,59.1 C54.1633663,62.2008333 51.7376238,64.65 48.6683168,64.65 L27.3316832,64.65 C24.2623762,64.65 21.8366337,62.2008333 21.8366337,59.1 L21.8366337,57.25 L21.8366337,57.25 L21.8366337,57.25 Z" id="Shape" fill="#DDDDDD"></path>
                <path d="M24.3316832,5 C20.5693069,5 17.5,8.1 17.5,11.9 L17.5,14.45 L17.5,55.55 L17.5,58.1 C17.5,61.9008333 20.5693069,65 24.3316832,65 L45.6683168,65 C49.4315182,65 52.5,61.9 52.5,58.1 L52.5,55.55 L52.5,14.45 L52.5,11.9 C52.5,8.1 49.4306931,5 45.6683168,5 L24.3316832,5 L24.3316832,5 L24.3316832,5 Z M24.3316832,6.35 L45.6683168,6.35 C48.7376238,6.35 51.1633663,8.8 51.1633663,11.9 L51.1633663,13.75 L18.8366337,13.75 L18.8366337,11.9 C18.8366337,8.8 21.2623762,6.35 24.3316832,6.35 L24.3316832,6.35 L24.3316832,6.35 Z M18.8366337,15.1 L51.1633663,15.1 L51.1633663,54.9 L18.8366337,54.9 L18.8366337,15.1 L18.8366337,15.1 L18.8366337,15.1 Z M18.8366337,56.25 L51.1633663,56.25 L51.1633663,58.1 C51.1633663,61.2008333 48.7376238,63.65 45.6683168,63.65 L24.3316832,63.65 C21.2623762,63.65 18.8366337,61.2008333 18.8366337,58.1 L18.8366337,56.25 L18.8366337,56.25 L18.8366337,56.25 Z M35.0247525,57.75 C33.8366337,57.75 32.8457096,58.7008333 32.8457096,59.9 C32.8457096,61.1 33.8358086,62.1 35.0247525,62.1 C36.1633663,62.1 37.1534653,61.1008333 37.1534653,59.9 C37.1534653,58.7 36.1633663,57.75 35.0247525,57.75 L35.0247525,57.75 L35.0247525,57.75 Z M35.0247525,59.05 C35.470297,59.05 35.8168317,59.4491667 35.8168317,59.9 C35.8168317,60.4008333 35.470297,60.7508333 35.0247525,60.7508333 C34.5288779,60.7508333 34.1823432,60.4008333 34.1823432,59.9 C34.1831683,59.45 34.529703,59.05 35.0247525,59.05 L35.0247525,59.05 L35.0247525,59.05 Z" id="Shape-Copy-3" fill="#404040"></path>
            </g>
        </g>
    </g>
</svg>