<?xml version="1.0" encoding="UTF-8" standalone="no"?>
<svg width="84px" height="84px" viewBox="0 0 84 84" version="1.1" xmlns="http://www.w3.org/2000/svg" xmlns:xlink="http://www.w3.org/1999/xlink">
    <!-- Generator: sketchtool 42 (36781) - http://www.bohemiancoding.com/sketch -->
    <title>A9C528D5-6399-407E-9C78-F02FF206A2F8</title>
    <desc>Created with sketchtool.</desc>
    <defs></defs>
    <g id="Page-1" stroke="none" stroke-width="1" fill="none" fill-rule="evenodd">
        <g id="16---Add-Ons" transform="translate(-966.000000, -577.000000)">
            <g id="pos-integrations" transform="translate(966.000000, 577.000000)">
                <path d="M42.35,36.925 C40.25,31.85 42.7,26.075 47.6875,23.975 C52.7625,21.875 58.5375,24.325 60.6375,29.3125 C62.7375,34.3875 60.2875,40.1625 55.3,42.2625 C50.3125,44.3625 44.45,41.9125 42.35,36.925 L42.35,36.925 Z M43.225,52.7625 C46.6375,53.2875 49.2625,56.2625 49.2625,59.85 C51.7125,60.025 54.25,59.9375 56.7,59.4125 L58.625,64.05 C59.0625,65.1875 60.375,65.7125 61.5125,65.275 L67.1125,63 C68.25,62.5625 68.775,61.25 68.3375,60.1125 L66.4125,55.475 C69.3875,53.4625 71.925,50.925 73.85,48.0375 L78.4875,49.9625 C79.625,50.4 80.9375,49.875 81.375,48.7375 L83.65,43.1375 C84.0875,42 83.5625,40.6875 82.425,40.25 L77.875,38.325 C78.575,34.9125 78.575,31.325 77.875,27.825 L82.5125,25.9 C83.65,25.4625 84.175,24.15 83.7375,23.0125 L81.375,17.4125 C80.9375,16.275 79.625,15.75 78.4875,16.1875 L73.85,18.1125 C71.8375,15.1375 69.3,12.6 66.4125,10.675 L68.3375,6.125 C68.775,4.9875 68.25,3.675 67.1125,3.2375 L61.5125,0.9625 C60.375,0.525 59.0625,1.05 58.625,2.1875 L56.7,6.825 C53.2875,6.125 49.7,6.125 46.2,6.825 L44.275,2.1875 C43.8375,1.05 42.525,0.525 41.3875,0.9625 L35.875,3.2375 C34.7375,3.675 34.2125,4.9875 34.65,6.125 L36.575,10.7625 C33.6,12.775 31.0625,15.3125 29.1375,18.2 L24.5,16.275 C23.3625,15.8375 22.05,16.3625 21.6125,17.5 L19.3375,23.1 C18.9,24.2375 19.425,25.55 20.5625,25.9875 L25.2,27.9125 C24.7625,29.925 24.5875,32.1125 24.675,34.2125 C27.825,34.65 30.3625,37.1 30.8,40.25 C30.8875,40.25 30.8875,40.3375 30.975,40.3375 C32.2,39.4625 33.6875,38.9375 35.175,38.9375 C35.7875,38.9375 36.4875,39.025 37.0125,39.2 L37.0125,39.1125 C33.6875,31.15 37.5375,21.9625 45.4125,18.725 C53.375,15.4 62.5625,19.25 65.8,27.2125 C69.125,35.175 65.275,44.3625 57.3125,47.6 C52.9375,49.4375 48.2125,49.0875 44.275,47.075 C44.625,49 44.1875,51.0125 42.9625,52.675 C43.225,52.675 43.225,52.675 43.225,52.7625 L43.225,52.7625 Z" id="Shape" fill="#4695F6"></path>
                <path d="M31.7625,75.95 C29.8375,77.2625 27.65,78.1375 25.4625,78.4875 L25.4625,81.375 C25.4625,82.425 24.5875,83.2125 23.625,83.2125 L20.475,83.2125 C19.425,83.2125 18.6375,82.3375 18.6375,81.375 L18.6375,78.4875 C16.45,78.05 14.2625,77.175 12.3375,75.8625 L10.2375,77.875 C9.5375,78.575 8.3125,78.575 7.6125,77.875 L5.425,75.6875 C4.725,74.9875 4.725,73.7625 5.425,73.0625 L7.4375,71.05 C6.125,69.125 5.25,66.9375 4.9,64.75 L2.0125,64.75 C0.9625,64.75 0.175,63.875 0.175,62.9125 L0.175,59.7625 C0.175,58.7125 1.05,57.925 2.0125,57.925 L4.9,57.925 C5.3375,55.7375 6.2125,53.55 7.525,51.625 L5.5125,49.6125 C4.8125,48.9125 4.8125,47.6875 5.5125,46.9875 L7.7,44.8 C8.4,44.1 9.625,44.1 10.325,44.8 L12.3375,46.8125 C14.2625,45.5 16.45,44.625 18.6375,44.275 L18.6375,41.3875 C18.6375,40.3375 19.5125,39.55 20.475,39.55 L23.625,39.55 C24.675,39.55 25.4625,40.425 25.4625,41.3875 L25.4625,44.275 C27.65,44.7125 29.8375,45.5875 31.7625,46.9 L33.775,44.8875 C34.475,44.1875 35.7,44.1875 36.4,44.8875 L38.5875,47.075 C39.2875,47.775 39.2875,49 38.5875,49.7 L36.75,51.625 C38.0625,53.55 38.9375,55.7375 39.2875,57.925 L42.175,57.925 C43.225,57.925 44.0125,58.8 44.0125,59.7625 L44.0125,62.9125 C44.0125,63.9625 43.1375,64.75 42.175,64.75 L39.2875,64.75 C38.85,66.9375 37.975,69.125 36.6625,71.05 L38.675,73.0625 C39.375,73.7625 39.375,74.9875 38.675,75.6875 L36.4875,77.875 C35.7875,78.575 34.5625,78.575 33.8625,77.875 L31.7625,75.95 Z M28,55.3875 C24.7625,52.15 19.5125,52.0625 16.1875,55.3 C12.95,58.5375 12.8625,63.7875 16.1,67.1125 C19.3375,70.4375 24.5875,70.4375 27.9125,67.2 C31.2375,63.9625 31.2375,58.7125 28,55.3875 Z" id="Combined-Shape" fill="#DDDDDD"></path>
            </g>
        </g>
    </g>
</svg>