<svg xmlns="http://www.w3.org/2000/svg" width="32" height="41" viewBox="0 0 32 41">
    <g fill="none" fill-rule="evenodd">
        <g fill="#F7D24E">
            <path d="M4.8 39.313L1.833 41l.711-3.302L0 35.438l3.406-.355L4.8 32l1.394 3.083 3.406.355-2.544 2.26.71 3.302zM16 39.313L13.033 41l.711-3.302-2.544-2.26 3.406-.355L16 32l1.394 3.083 3.406.355-2.544 2.26.71 3.302zM27.2 39.313L24.233 41l.711-3.302-2.544-2.26 3.406-.355L27.2 32l1.394 3.083 3.406.355-2.544 2.26.71 3.302z"/>
        </g>
        <g fill-rule="nonzero">
            <path fill="#FBC67D" d="M15.872 14.672c3.448 0 6.243-3.284 6.243-7.336 0-4.052-.917-7.336-6.243-7.336C10.547 0 9.63 3.284 9.63 7.336c0 4.052 2.795 7.336 6.243 7.336z"/>
            <path fill="#000" d="M4.082 25.96c-.002-.417-.005-.117 0 0zM27.664 26.062c.008-.067.002-.46 0 0z"/>
            <path fill="#FF7C63" d="M27.65 25.577c-.115-7.058-1.068-9.07-8.36-10.342 0 0-1.026 1.265-3.418 1.265-2.392 0-3.418-1.265-3.418-1.265-7.212 1.259-8.223 3.24-8.356 10.113-.01.56-.016.59-.018.525l.001.742S5.817 30 15.872 30s11.791-3.385 11.791-3.385v-.549c-.001.04-.005-.038-.013-.49z"/>
        </g>
    </g>
</svg>
