<?xml version="1.0" encoding="UTF-8" standalone="no"?>
<svg width="81px" height="47px" viewBox="0 0 81 47" version="1.1" xmlns="http://www.w3.org/2000/svg" xmlns:xlink="http://www.w3.org/1999/xlink">
    <!-- Generator: Sketch 41.2 (35397) - http://www.bohemiancoding.com/sketch -->
    <title>Group 11</title>
    <desc>Created with Sketch.</desc>
    <defs></defs>
    <g id="New_Features" stroke="none" stroke-width="1" fill="none" fill-rule="evenodd">
        <g id="Menu_items-Copy-5" transform="translate(-179.000000, -178.000000)">
            <g id="Group-19" transform="translate(0.000000, 178.000000)">
                <g id="Rectangle-2">
                    <g id="Group-11" transform="translate(179.000000, -19.000000)">
                        <polygon id="Rectangle-2" fill="#4CB037" transform="translate(45.805202, 33.429264) rotate(-60.000000) translate(-45.805202, -33.429264) " points="56.3365325 23.0724062 56.3365325 68.0030089 35.2738713 80.1053649 35.4431519 -13.2468364"></polygon>
                        <path d="M28.8320312,37.4809376 L28.8320312,41.1782032 L27.6777344,41.1782032 L27.6777344,32.6528126 L30.765625,32.6528126 C31.6992234,32.6528126 32.4121069,32.8598418 32.9042969,33.2739064 C33.3964868,33.6879709 33.6425781,34.2895274 33.6425781,35.0785939 C33.6425781,35.516096 33.5283215,35.8969516 33.2998047,36.221172 C33.0712879,36.5453924 32.7382834,36.8032023 32.3007812,36.9946095 C32.7695336,37.146954 33.1064443,37.3940218 33.3115234,37.7358204 C33.5166026,38.077619 33.6191406,38.5004663 33.6191406,39.0043751 L33.6191406,39.8071095 C33.6191406,40.0727358 33.6484372,40.3110147 33.7070312,40.5219532 C33.7656253,40.7328918 33.8671868,40.9047651 34.0117188,41.0375782 L34.0117188,41.1782032 L32.8222656,41.1782032 C32.6699211,41.0453901 32.5722658,40.8500795 32.5292969,40.5922657 C32.4863279,40.3344519 32.4648438,40.0688296 32.4648438,39.7953907 L32.4648438,39.0160939 C32.4648438,38.5551541 32.3300795,38.184064 32.0605469,37.9028126 C31.7910143,37.6215612 31.4296898,37.4809376 30.9765625,37.4809376 L28.8320312,37.4809376 Z M28.8320312,36.5727345 L30.6484375,36.5727345 C31.3007845,36.5727345 31.7705064,36.4487123 32.0576172,36.2006642 C32.344728,35.9526161 32.4882812,35.5746901 32.4882812,35.0668751 C32.4882812,34.586404 32.3486342,34.2143374 32.0693359,33.9506642 C31.7900377,33.686991 31.3554717,33.5551564 30.765625,33.5551564 L28.8320312,33.5551564 L28.8320312,36.5727345 Z M38.0429688,41.3012501 C37.1601518,41.3012501 36.4580104,41.0073077 35.9365234,40.4194142 C35.4150365,39.8315206 35.1542969,39.0688329 35.1542969,38.1313282 L35.1542969,37.8735157 C35.1542969,36.9711675 35.4228489,36.2201984 35.9599609,35.620586 C36.497073,35.0209737 37.1328088,34.721172 37.8671875,34.721172 C38.7226605,34.721172 39.3691384,34.9789819 39.8066406,35.4946095 C40.2441428,36.0102371 40.4628906,36.6977302 40.4628906,37.5571095 L40.4628906,38.2778126 L36.3496094,38.2778126 L36.3320312,38.3071095 C36.3437501,38.9164875 36.4980454,39.4174591 36.7949219,39.8100392 C37.0917984,40.2026193 37.5078098,40.3989064 38.0429688,40.3989064 C38.4335957,40.3989064 38.7763657,40.3432428 39.0712891,40.2319142 C39.3662124,40.1205855 39.6210927,39.9672667 39.8359375,39.7719532 L40.2871094,40.5219532 C40.0605457,40.7446106 39.7617206,40.9301556 39.390625,41.0785939 C39.0195294,41.2270321 38.5703151,41.3012501 38.0429688,41.3012501 Z M37.8671875,35.6293751 C37.4804668,35.6293751 37.150392,35.7924594 36.8769531,36.1186329 C36.6035143,36.4448064 36.4355472,36.853982 36.3730469,37.346172 L36.3847656,37.3754689 L39.3085938,37.3754689 L39.3085938,37.2231251 C39.3085938,36.7699978 39.1875012,36.3910954 38.9453125,36.0864064 C38.7031238,35.7817173 38.3437524,35.6293751 37.8671875,35.6293751 Z M44.3359375,40.3989064 C44.7187519,40.3989064 45.0556626,40.2807435 45.3466797,40.0444142 C45.6376968,39.8080849 45.7832031,39.5180487 45.7832031,39.174297 L46.8203125,39.174297 L46.8320312,39.2094532 C46.8515626,39.756331 46.608401,40.2416777 46.1025391,40.6655079 C45.5966772,41.0893382 45.0078159,41.3012501 44.3359375,41.3012501 C43.4140579,41.3012501 42.7089868,41.0004719 42.2207031,40.3989064 C41.7324194,39.7973408 41.4882812,39.041489 41.4882812,38.1313282 L41.4882812,37.8852345 C41.4882812,36.9828862 41.733396,36.2299641 42.2236328,35.6264454 C42.7138696,35.0229268 43.4179642,34.721172 44.3359375,34.721172 C45.0781287,34.721172 45.684568,34.9399198 46.1552734,35.377422 C46.6259789,35.8149242 46.8535157,36.3520282 46.8378906,36.9887501 L46.8261719,37.0239064 L45.7832031,37.0239064 C45.7832031,36.6371857 45.6464857,36.3080874 45.3730469,36.0366017 C45.099608,35.7651159 44.7539083,35.6293751 44.3359375,35.6293751 C43.7304657,35.6293751 43.2978529,35.8471464 43.0380859,36.2826954 C42.778319,36.7182445 42.6484375,37.2524188 42.6484375,37.8852345 L42.6484375,38.1313282 C42.6484375,38.779769 42.7773425,39.3198026 43.0351562,39.7514454 C43.29297,40.1830882 43.7265595,40.3989064 44.3359375,40.3989064 Z M52.1523438,40.2407032 C51.953124,40.5805487 51.6972672,40.8422648 51.3847656,41.0258595 C51.0722641,41.2094541 50.7109396,41.3012501 50.3007812,41.3012501 C49.6093715,41.3012501 49.0703144,41.0805492 48.6835938,40.6391407 C48.2968731,40.1977323 48.1035156,39.5102391 48.1035156,38.5766407 L48.1035156,34.8383595 L49.2578125,34.8383595 L49.2578125,38.5883595 C49.2578125,39.2641441 49.3574209,39.7289832 49.5566406,39.9828907 C49.7558604,40.2367982 50.0664041,40.3637501 50.4882812,40.3637501 C50.8984396,40.3637501 51.2373033,40.2807431 51.5048828,40.1147267 C51.7724623,39.9487102 51.9746087,39.713361 52.1113281,39.408672 L52.1113281,34.8383595 L53.265625,34.8383595 L53.265625,41.1782032 L52.2285156,41.1782032 L52.1523438,40.2407032 Z M57.9472656,35.8578907 L57.3554688,35.8227345 C57.0507797,35.8227345 56.7939464,35.8949994 56.5849609,36.0395314 C56.3759755,36.1840633 56.2148443,36.3871863 56.1015625,36.6489064 L56.1015625,41.1782032 L54.9472656,41.1782032 L54.9472656,34.8383595 L55.9785156,34.8383595 L56.0898438,35.7641407 C56.2695321,35.4360141 56.4912096,35.1801573 56.7548828,34.9965626 C57.018556,34.8129679 57.3222639,34.721172 57.6660156,34.721172 C57.7519536,34.721172 57.833984,34.7280078 57.9121094,34.7416798 C57.9902348,34.7553517 58.0546872,34.77 58.1054688,34.7856251 L57.9472656,35.8578907 Z M62.0605469,35.8578907 L61.46875,35.8227345 C61.164061,35.8227345 60.9072276,35.8949994 60.6982422,36.0395314 C60.4892568,36.1840633 60.3281256,36.3871863 60.2148438,36.6489064 L60.2148438,41.1782032 L59.0605469,41.1782032 L59.0605469,34.8383595 L60.0917969,34.8383595 L60.203125,35.7641407 C60.3828134,35.4360141 60.6044909,35.1801573 60.8681641,34.9965626 C61.1318373,34.8129679 61.4355452,34.721172 61.7792969,34.721172 C61.8652348,34.721172 61.9472652,34.7280078 62.0253906,34.7416798 C62.103516,34.7553517 62.1679685,34.77 62.21875,34.7856251 L62.0605469,35.8578907 Z M64.421875,41.1782032 L63.2675781,41.1782032 L63.2675781,34.8383595 L64.421875,34.8383595 L64.421875,41.1782032 Z M64.421875,33.2153126 L63.2675781,33.2153126 L63.2675781,32.0375782 L64.421875,32.0375782 L64.421875,33.2153126 Z M67.2285156,34.8383595 L67.3105469,35.7817189 C67.5214854,35.4457797 67.7861312,35.1850401 68.1044922,34.9994923 C68.4228532,34.8139445 68.7851542,34.721172 69.1914062,34.721172 C69.8750034,34.721172 70.404295,34.9213653 70.7792969,35.3217579 C71.1542988,35.7221505 71.3417969,36.3403084 71.3417969,37.1762501 L71.3417969,41.1782032 L70.1875,41.1782032 L70.1875,37.1996876 C70.1875,36.6410911 70.0771495,36.2446107 69.8564453,36.0102345 C69.6357411,35.7758583 69.2988304,35.658672 68.8457031,35.658672 C68.5136702,35.658672 68.2197278,35.7387493 67.9638672,35.8989064 C67.7080065,36.0590634 67.503907,36.2778112 67.3515625,36.5551564 L67.3515625,41.1782032 L66.1972656,41.1782032 L66.1972656,34.8383595 L67.2285156,34.8383595 Z M72.765625,38.1254689 C72.765625,37.1059325 72.988279,36.2836751 73.4335938,35.658672 C73.8789085,35.0336689 74.4941367,34.721172 75.2792969,34.721172 C75.6816426,34.721172 76.0351547,34.8022259 76.3398438,34.964336 C76.6445328,35.1264462 76.8984365,35.3598423 77.1015625,35.6645314 L77.2421875,34.8383595 L78.1621094,34.8383595 L78.1621094,41.2133595 C78.1621094,42.0258635 77.9257836,42.6498807 77.453125,43.0854298 C76.9804664,43.5209788 76.2988326,43.7387501 75.4082031,43.7387501 C75.1035141,43.7387501 74.7744158,43.6967583 74.4208984,43.6127735 C74.067381,43.5287887 73.7558607,43.4145321 73.4863281,43.2700001 L73.7792969,42.3735157 C73.9863292,42.4907038 74.2363267,42.5854294 74.5292969,42.6576954 C74.8222671,42.7299614 75.1113267,42.7660939 75.3964844,42.7660939 C75.9589872,42.7660939 76.3681628,42.6381654 76.6240234,42.3823048 C76.8798841,42.1264441 77.0078125,41.7367996 77.0078125,41.2133595 L77.0078125,40.4985157 C76.8007802,40.7641421 76.5527358,40.9643354 76.2636719,41.0991017 C75.9746079,41.233868 75.64258,41.3012501 75.2675781,41.3012501 C74.4902305,41.3012501 73.8789085,41.0200029 73.4335938,40.4575001 C72.988279,39.8949973 72.765625,39.1586765 72.765625,38.2485157 L72.765625,38.1254689 Z M73.9199219,38.2485157 C73.9199219,38.8852377 74.0546862,39.3969513 74.3242188,39.783672 C74.5937513,40.1703927 75.0039035,40.3637501 75.5546875,40.3637501 C75.9023455,40.3637501 76.1933582,40.2846493 76.4277344,40.1264454 C76.6621105,39.9682415 76.855468,39.7446109 77.0078125,39.455547 L77.0078125,36.5375782 C76.8593743,36.2680456 76.6660168,36.0541806 76.4277344,35.8959767 C76.1894519,35.7377728 75.9023454,35.658672 75.5664062,35.658672 C75.0156222,35.658672 74.603517,35.8891384 74.3300781,36.3500782 C74.0566393,36.811018 73.9199219,37.402809 73.9199219,38.1254689 L73.9199219,38.2485157 Z" id="Recurring" fill="#FFFFFF" transform="translate(52.919922, 37.888164) rotate(-330.000000) translate(-52.919922, -37.888164) "></path>
                    </g>
                </g>
            </g>
        </g>
    </g>
</svg>