<?xml version="1.0" encoding="UTF-8" standalone="no"?>
<svg width="100px" height="100px" viewBox="0 0 100 100" version="1.1" xmlns="http://www.w3.org/2000/svg" xmlns:xlink="http://www.w3.org/1999/xlink">
    <!-- Generator: Sketch 3.8.3 (29802) - http://www.bohemiancoding.com/sketch -->
    <title>route</title>
    <desc>Created with Sketch.</desc>
    <defs>
        <linearGradient x1="50%" y1="0%" x2="50%" y2="100%" id="linearGradient-1">
            <stop stop-color="#3AC2ED" offset="0%"></stop>
            <stop stop-color="#1583A7" offset="100%"></stop>
        </linearGradient>
    </defs>
    <g id="Page-1" stroke="none" stroke-width="1" fill="none" fill-rule="evenodd">
        <g id="route">
            <g id="routing-copy" transform="translate(5.000000, 5.000000)">
                <path d="M70.3125,45 C70.3125,31.02 58.98,19.6875 45,19.6875 C39.7678125,19.6875 34.9078125,21.2746875 30.8728125,23.994375 L9.375,9.3759375 L23.9934375,30.8728125 C21.2746875,34.9078125 19.6875,39.76875 19.6875,45 C19.6875,58.98 31.02,70.3125 45,70.3125 C50.23125,70.3125 55.0921875,68.7253125 59.1271875,66.005625 L80.625,80.6240625 L66.005625,59.12625 C68.7253125,55.0921875 70.3125,50.23125 70.3125,45 L70.3125,45 Z M26.0925,28.1775 L21.6609375,21.661875 L28.1775,26.0934375 L36.331875,31.6378125 L44.9578125,37.5028125 C40.8571875,37.5253125 37.52625,40.8553125 37.501875,44.9559375 L31.636875,36.331875 L26.0925,28.1775 L26.0925,28.1775 Z M45,40.3125 C47.589375,40.3125 49.6875,42.4115625 49.6875,45 C49.6875,47.589375 47.589375,49.6875 45,49.6875 C42.4115625,49.6875 40.3125,47.589375 40.3125,45 C40.3125,42.4115625 42.4115625,40.3125 45,40.3125 L45,40.3125 Z M45,60.9375 C36.1978125,60.9375 29.0625,53.803125 29.0625,45 C29.0625,43.134375 29.3990625,41.3521875 29.98875,39.688125 L38.2153125,51.785625 L50.311875,60.01125 C48.64875,60.6009375 46.865625,60.9375 45,60.9375 L45,60.9375 Z M60.0121875,50.3109375 L51.7865625,38.214375 L39.6890625,29.98875 C41.3521875,29.3990625 43.134375,29.0625 45,29.0625 C53.803125,29.0625 60.9375,36.1978125 60.9375,45 C60.9375,46.865625 60.6009375,48.6478125 60.0121875,50.3109375 L60.0121875,50.3109375 Z" id="Shape" fill="url(#linearGradient-1)"></path>
                <path d="M46.7025,84.6496875 L45.0009375,75.7125 L43.3003125,84.6440625 C22.73625,83.7759375 6.2240625,67.2646875 5.3559375,46.700625 L14.2875,45 L5.349375,43.2975 C5.694375,35.1375 8.5078125,27.61875 13.0565625,21.4584375 L9.9140625,16.8375 C4.2440625,23.8903125 0.6609375,32.6859375 0.09,42.29625 C0.0365625,43.1915625 0,44.0915625 0,45 C0,45.9084375 0.0346875,46.809375 0.088125,47.7046875 C1.434375,70.4025 19.5984375,88.565625 42.29625,89.911875 C43.1915625,89.9653125 44.0915625,90 45,90 C45.909375,90 46.809375,89.9634375 47.7046875,89.91 C57.315,89.338125 66.110625,85.7540625 73.1625,80.085 L68.5415625,76.9415625 C62.3821875,81.49125 54.8634375,84.3046875 46.7025,84.6496875 L46.7025,84.6496875 Z" id="Shape" fill="#DDDDDD"></path>
                <path d="M89.911875,42.2953125 C88.565625,19.5984375 70.4015625,1.434375 47.7046875,0.088125 C46.809375,0.0346875 45.9084375,0 45,0 C44.0915625,0 43.1915625,0.0365625 42.29625,0.09 C32.6859375,0.6609375 23.8903125,4.245 16.8375,9.915 L21.4584375,13.0575 C27.6196875,8.50875 35.1384375,5.6953125 43.2984375,5.3503125 L45,14.2875 L46.700625,5.3559375 C67.26375,6.2240625 83.7759375,22.7353125 84.6440625,43.2984375 L75.7125,45 L84.650625,46.7025 C84.305625,54.8625 81.49125,62.38125 76.9425,68.5415625 L80.085,73.1625 C85.7559375,66.110625 89.3390625,57.315 89.91,47.7046875 C89.9634375,46.8084375 90,45.9084375 90,45 C90,44.0915625 89.9653125,43.190625 89.911875,42.2953125 L89.911875,42.2953125 Z" id="Shape" fill="#DDDDDD"></path>
            </g>
        </g>
    </g>
</svg>