<?xml version="1.0" encoding="UTF-8" standalone="no"?>
<svg width="84px" height="84px" viewBox="0 0 84 84" version="1.1" xmlns="http://www.w3.org/2000/svg" xmlns:xlink="http://www.w3.org/1999/xlink">
    <!-- Generator: sketchtool 42 (36781) - http://www.bohemiancoding.com/sketch -->
    <title>7413EBB6-3A3E-4C2C-B142-4CC194729E55</title>
    <desc>Created with sketchtool.</desc>
    <defs></defs>
    <g id="Page-1" stroke="none" stroke-width="1" fill="none" fill-rule="evenodd">
        <g id="16---Add-Ons" transform="translate(-413.000000, -197.000000)">
            <g id="Group-6" transform="translate(335.000000, 161.000000)">
                <g id="route-optimization" transform="translate(78.000000, 36.000000)">
                    <path d="M28.814625,22.39475 L10.2911211,9.798832 C9.43998344,9.22006133 9.21965306,9.44151469 9.797957,10.2919289 L22.393875,28.814625 C19.856375,32.580625 18.375,37.1175 18.375,42 C18.375,55.048 28.952,65.625 42,65.625 C46.8825,65.625 51.419375,64.143625 55.185375,61.60525 L73.7088789,74.201168 C74.5600166,74.7799387 74.7803168,74.5584552 74.2019758,73.7080039 L61.60525,55.1845 C64.143625,51.419375 65.625,46.8825 65.625,42 C65.625,35.1043987 63.1190355,25.9595177 52.2666667,20.5333333 C46.6666667,17.7333333 42,17.7333333 37.3333333,18.6666667 C32.6666667,19.6 29.8020475,21.7292034 28.814625,22.39475 Z M21.2712959,21.7680409 C20.6889553,20.9118389 20.9145721,20.6922161 21.767389,21.2721709 L26.299,24.353875 L33.90975,29.528625 L41.1886733,34.4777549 C41.6150104,34.7676326 41.5652235,35.1522895 41.0911918,35.3394802 C41.0911918,35.3394802 38.3451257,36.3219226 37.3333333,37.3333333 C36.321541,38.344744 35.330965,41.10905 35.330965,41.10905 C35.1491446,41.5783954 34.7665391,41.6130142 34.4768799,41.1870911 L29.52775,33.90975 L24.353,26.299 L21.2712959,21.7680409 Z M46.375,42 C46.375,44.41675 44.41675,46.375 42,46.375 C39.584125,46.375 37.625,44.41675 37.625,42 C37.625,39.584125 39.584125,37.625 42,37.625 C44.41675,37.625 46.375,39.584125 46.375,42 Z M27.125,42 C27.125,40.25875 27.7668698,37.9343166 27.7668698,37.9343166 C27.8898251,37.4416418 28.1613076,37.4298632 28.3716592,37.8848565 C28.3716592,37.8848565 30.9515252,44.0181919 35.4666667,48.5333333 C39.9818081,53.0484748 46.1151435,55.6283408 46.1151435,55.6283408 C46.5805022,55.8394015 46.5451174,56.1165047 46.0466384,56.2376372 C46.0466384,56.2376372 43.74125,56.875 42,56.875 C33.784625,56.875 27.125,50.21625 27.125,42 Z M49.4666667,35.4666667 C44.7025914,30.7028112 37.9027493,28.3197972 37.9027493,28.3197972 C37.4279919,28.1373791 37.4556503,27.8834953 37.9540067,27.7623628 C37.9540067,27.7623628 40.25875,27.125 42,27.125 C50.21625,27.125 56.875,33.784625 56.875,42 C56.875,43.5398909 56.2248554,46.0597458 56.2248554,46.0597458 C56.1069534,46.5552166 55.8961551,46.5615819 55.7382411,46.0673645 C55.7382411,46.0673645 54.2307419,40.2305222 49.4666667,35.4666667 Z" id="Shape" fill="#4695F6"></path>
                    <path d="M42.9333333,74.6666667 L43.744661,79.006375 C47.0259434,78.8681539 51.5166502,78.4 56.1999821,76.5333333 C60.8833139,74.6666667 63.4767144,72.3888643 63.4767144,72.3888643 C63.8772095,72.0769981 64.5470226,72.0469597 64.9743855,72.3366431 L67.755044,74.2214819 C68.1892205,74.5157837 68.185285,74.9807873 67.7614722,75.2704122 C67.7614722,75.2704122 63.2210745,78.4714925 59.0099812,80.2666667 C54.7988878,82.0618408 48.5487668,83.6868031 44.6833764,83.916 C43.8447673,83.965875 43.0017675,84 42.1499866,84 C41.2990837,84 40.456084,83.967625 39.6174749,83.91775 C18.3571973,82.66125 1.34353082,65.709 0.0825437237,44.524375 C0.0324906146,43.68875 0,42.847875 0,42 C0,41.152125 0.0342468641,40.312125 0.0842999731,39.4765 C0.311510051,35.6655927 1.18621947,31.0213503 3.74666547,25.2 C6.30711148,19.3786497 8.78574348,16.5875089 8.78574348,16.5875089 C9.10238069,16.1856855 9.58007971,16.2210943 9.84334172,16.6583031 L11.6999847,19.7416969 C11.9561669,20.1671478 11.8970503,20.8311307 11.5521309,21.1984823 C11.5521309,21.1984823 10.6171742,22.0307395 9.36666368,24.2666667 C8.48429653,25.8443493 6.55666458,28.9333333 5.61999821,34.5333333 C4.68333184,40.1333333 5.0542902,39.3808295 5.01057965,40.411 L11.5453408,41.6512872 C12.5646308,41.8447468 12.5606464,42.1559521 11.5466897,42.3483287 L5.01672652,43.58725 C5.82987002,62.780375 21.2962807,78.190875 40.5579464,79.001125 L41.801292,72.494398 C41.992306,71.4947759 42.3116719,71.487393 42.5100376,72.5018661 L42.9333333,74.6666667 Z M40.1333333,9.33333333 L39.3220056,4.993625 C36.0407233,5.13184615 31.5500164,5.6 26.8666846,7.46666667 C22.1833528,9.33333333 19.5899522,11.6111357 19.5899522,11.6111357 C19.1894572,11.9230019 18.5196441,11.9530403 18.0922811,11.6633569 L15.3116227,9.77851805 C14.8774461,9.48421625 14.8813817,9.01921266 15.3051944,8.7295878 C15.3051944,8.7295878 19.8455921,5.5285075 24.0566855,3.73333333 C28.2677788,1.93815917 34.5178998,0.313196944 38.3832903,0.084 C39.2218994,0.034125 40.0648991,-2.84217094e-14 40.9166801,-2.84217094e-14 C41.767583,-2.84217094e-14 42.6105827,0.032375 43.4491918,0.08225 C64.7094694,1.33875 81.7231358,18.291 82.9841229,39.475625 C83.0341761,40.31125 83.0666667,41.152125 83.0666667,42 C83.0666667,42.847875 83.0324198,43.687875 82.9823667,44.5235 C82.7551566,48.3344073 81.8804472,52.9786497 79.3200012,58.8 C76.7595552,64.6213503 74.2809232,67.4124911 74.2809232,67.4124911 C73.964286,67.8143145 73.486587,67.7789057 73.2233249,67.3416969 L71.3666819,64.2583031 C71.1104998,63.8328522 71.1696163,63.1688693 71.5145358,62.8015177 C71.5145358,62.8015177 72.4494925,61.9692605 73.700003,59.7333333 C74.5823701,58.1556507 76.5100021,55.0666667 77.4466685,49.4666667 C78.3833348,43.8666667 78.0123765,44.6191705 78.056087,43.589 L71.5213259,42.3487128 C70.5020359,42.1552532 70.5060202,41.8440479 71.5199769,41.6516713 L78.0499401,40.41275 C77.2367967,21.219625 61.770386,5.809125 42.5087202,4.998875 L41.2653747,11.505602 C41.0743607,12.5052241 40.7549948,12.512607 40.5566291,11.4981339 L40.1333333,9.33333333 Z" id="Shape" fill="#DDDDDD"></path>
                </g>
            </g>
        </g>
    </g>
</svg>