<svg xmlns="http://www.w3.org/2000/svg" width="33" height="32" viewBox="0 0 33 32">
    <g fill="none" fill-rule="nonzero">
        <path fill="#76CC5B" d="M26.847 30.676c-1.678-1.655-5.033-5.407-5.033-7.504 0-2.758 2.237-4.965 5.033-4.965 2.797 0 5.034 2.207 5.034 4.965 0 2.097-3.356 5.849-5.034 7.504zm0-10.814c-1.845 0-3.355 1.49-3.355 3.31 0 1.821 1.51 3.31 3.355 3.31 1.846 0 3.356-1.489 3.356-3.31 0-1.82-1.51-3.31-3.356-3.31z"/>
        <path fill="#FF4A00" d="M6.153 13.572C4.475 11.917 1.119 8.166 1.119 6.07c0-2.759 2.237-4.966 5.034-4.966 2.796 0 5.033 2.207 5.033 4.966 0 2.152-3.355 5.848-5.033 7.503zM2.797 6.07c0 1.82 1.51 3.31 3.356 3.31 1.845 0 3.355-1.49 3.355-3.31s-1.51-3.31-3.355-3.31c-1.846 0-3.356 1.49-3.356 3.31z"/>
        <path fill="#76CC5B" d="M26.847 26.483c-1.845 0-3.355-1.49-3.355-3.31 0-1.821 1.51-3.31 3.355-3.31 1.846 0 3.356 1.489 3.356 3.31 0 1.82-1.51 3.31-3.356 3.31zm0-5.517c-1.23 0-2.237.993-2.237 2.206 0 1.214 1.007 2.207 2.237 2.207 1.231 0 2.238-.993 2.238-2.207 0-1.213-1.007-2.206-2.238-2.206z"/>
        <path fill="#76CC5B" d="M26.456 31.834c-.224-.22-5.761-5.406-5.761-8.662 0-3.365 2.74-6.069 6.152-6.069S33 19.807 33 23.173c0 3.255-5.537 8.44-5.761 8.661a.511.511 0 0 1-.392.166.511.511 0 0 1-.391-.166zm-4.642-8.662c0 2.152 3.355 5.849 5.033 7.504 1.678-1.655 5.034-5.407 5.034-7.504 0-2.758-2.237-4.965-5.034-4.965-2.796 0-5.033 2.207-5.033 4.965z"/>
        <path fill="#B6B6B6" d="M17.339 13.793c1.846 0 3.356 1.49 3.356 3.31 0 1.821-1.51 3.31-3.356 3.31V19.31c1.23 0 2.237-.993 2.237-2.207 0-1.213-1.007-2.206-2.237-2.206h-7.83v-1.104h7.83zM10.068 19.31h5.593v1.103h-5.593z"/>
        <path fill="#FF4A00" d="M6.153 8.276c1.23 0 2.237-.993 2.237-2.207S7.383 3.862 6.153 3.862c-1.231 0-2.238.993-2.238 2.207s1.007 2.207 2.238 2.207zM2.797 6.069c0-1.82 1.51-3.31 3.356-3.31 1.845 0 3.355 1.49 3.355 3.31s-1.51 3.31-3.355 3.31c-1.846 0-3.356-1.49-3.356-3.31z"/>
        <path fill="#B6B6B6" d="M1.678 22.62c0-1.82 1.51-3.31 3.356-3.31h3.915v1.104H5.034c-1.23 0-2.237.993-2.237 2.207 0 1.213 1.006 2.207 2.237 2.207h13.424v1.103H5.034c-1.846 0-3.356-1.49-3.356-3.31z"/>
        <path fill="#FF4A00" d="M5.761 14.731C5.537 14.511 0 9.324 0 6.069 0 2.703 2.74 0 6.153 0c3.411 0 6.152 2.703 6.152 6.069 0 3.255-5.537 8.441-5.76 8.662a.511.511 0 0 1-.392.166.511.511 0 0 1-.392-.166zm.392-1.159c1.678-1.655 5.033-5.406 5.033-7.503 0-2.759-2.237-4.966-5.033-4.966-2.797 0-5.034 2.207-5.034 4.966 0 2.152 3.356 5.848 5.034 7.503z"/>
    </g>
</svg>
