<?xml version="1.0" encoding="UTF-8" standalone="no"?>
<svg width="100px" height="100px" viewBox="0 0 100 100" version="1.1" xmlns="http://www.w3.org/2000/svg" xmlns:xlink="http://www.w3.org/1999/xlink">
    <!-- Generator: Sketch 3.8.3 (29802) - http://www.bohemiancoding.com/sketch -->
    <title>task</title>
    <desc>Created with Sketch.</desc>
    <defs>
        <linearGradient x1="50%" y1="0%" x2="50%" y2="100%" id="linearGradient-1">
            <stop stop-color="#3AC2ED" offset="0%"></stop>
            <stop stop-color="#1583A7" offset="100%"></stop>
        </linearGradient>
    </defs>
    <g id="Page-1" stroke="none" stroke-width="1" fill="none" fill-rule="evenodd">
        <g id="task">
            <g id="create_preferences-copy" transform="translate(5.000000, 5.000000)">
                <g id="Group-5">
                    <path d="M0,36 C0,55.872 16.128,72 36,72 C36,72 34.547168,57.8302734 46.5064453,46.2159668 C58.4657227,34.6016602 72,36 72,36 C72,16.128 55.872,0 36,0 C16.128,0 0,16.128 0,36 Z M26.3571429,54 L9,36.7255278 L13.8947143,31.8541267 L26.3571429,44.2226488 L52.7052857,18 L57.6,22.9059501 L26.3571429,54 L26.3571429,54 Z" id="Shape" fill="url(#linearGradient-1)"></path>
                    <path d="M76.9221557,82.2156313 C74.8670659,83.6224449 72.5317365,84.5603206 70.1964072,84.9354709 L70.1964072,88.0304609 C70.1964072,89.1559118 69.2622754,90 68.2347305,90 L64.8718563,90 C63.7508982,90 62.9101796,89.0621242 62.9101796,88.0304609 L62.9101796,84.9354709 C60.5748503,84.4665331 58.239521,83.5286573 56.1844311,82.1218437 L53.942515,84.2789579 C53.1952096,85.0292585 51.8874251,85.0292585 51.1401198,84.2789579 L48.8047904,81.9342685 C48.057485,81.1839679 48.057485,79.8709419 48.8047904,79.1206413 L50.9532934,76.9635271 C49.5520958,74.9002004 48.6179641,72.555511 48.2443114,70.2108216 L45.1616766,70.2108216 C44.0407186,70.2108216 43.2,69.2729459 43.2,68.2412826 L43.2,64.8649299 C43.2,63.739479 44.1341317,62.8953908 45.1616766,62.8953908 L48.2443114,62.8953908 C48.7113772,60.5507014 49.645509,58.206012 51.0467066,56.1426854 L48.8982036,53.9855711 C48.1508982,53.2352705 48.1508982,51.9222445 48.8982036,51.1719439 L51.2335329,48.8272545 C51.9808383,48.0769539 53.2886228,48.0769539 54.0359281,48.8272545 L56.1844311,50.9843687 C58.239521,49.5775551 60.5748503,48.6396794 62.9101796,48.2645291 L62.9101796,45.1695391 C62.9101796,44.0440882 63.8443114,43.2 64.8718563,43.2 L68.2347305,43.2 C69.3556886,43.2 70.1964072,44.1378758 70.1964072,45.1695391 L70.1964072,48.2645291 C72.5317365,48.7334669 74.8670659,49.6713427 76.9221557,51.0781563 L79.0706587,48.9210421 C79.8179641,48.1707415 81.1257485,48.1707415 81.8730539,48.9210421 L84.2083832,51.2657315 C84.9556886,52.0160321 84.9556886,53.3290581 84.2083832,54.0793587 L82.2467066,56.1426854 C83.6479042,58.206012 84.5820359,60.5507014 84.9556886,62.8953908 L88.0383234,62.8953908 C89.1592814,62.8953908 90,63.8332665 90,64.8649299 L90,68.2412826 C90,69.3667335 89.0658683,70.2108216 88.0383234,70.2108216 L84.9556886,70.2108216 C84.4886228,72.555511 83.554491,74.9002004 82.1532934,76.9635271 L84.3017964,79.1206413 C85.0491018,79.8709419 85.0491018,81.1839679 84.3017964,81.9342685 L81.9664671,84.2789579 C81.2191617,85.0292585 79.9113772,85.0292585 79.1640719,84.2789579 L76.9221557,82.2156313 Z M72.9053892,60.1755511 C69.4491018,56.7054108 63.8443114,56.6116232 60.2946108,60.0817635 C56.8383234,63.5519038 56.7449102,69.1791583 60.2011976,72.7430862 C63.657485,76.307014 69.2622754,76.307014 72.811976,72.8368737 C76.3616766,69.3667335 76.3616766,63.739479 72.9053892,60.1755511 Z" id="Combined-Shape" fill="#DDDDDD"></path>
                </g>
            </g>
        </g>
    </g>
</svg>