<?xml version="1.0" encoding="UTF-8" standalone="no"?>
<svg width="168px" height="36px" viewBox="0 0 168 36" version="1.1" xmlns="http://www.w3.org/2000/svg" xmlns:xlink="http://www.w3.org/1999/xlink">
    <!-- Generator: sketchtool 42 (36781) - http://www.bohemiancoding.com/sketch -->
    <title>648A4176-24B1-43BD-82A5-71952B77982A</title>
    <desc>Created with sketchtool.</desc>
    <defs></defs>
    <g id="Page-1" stroke="none" stroke-width="1" fill="none" fill-rule="evenodd">
        <g id="25---Login" transform="translate(-29.000000, -32.000000)">
            <g id="tookan-logo" transform="translate(28.000000, 32.000000)">
                <g id="Group-4" transform="translate(41.550827, 3.758242)" fill="#6D6D6D">
                    <path d="M12.8234728,22.6226906 C11.8034239,23.1136672 10.9290962,23.3780392 10.2004898,23.3780392 C8.99828918,23.4158067 8.30611309,22.7359929 8.30611309,21.0364586 L8.30611309,12.6520891 L13.6249399,12.6520891 L13.6249399,8.61097407 L8.30611309,8.61097407 L8.30611309,3.02139441 L2.73227404,3.02139441 L2.73227404,8.61097407 L0,8.61097407 L0,12.6143217 L2.73227404,12.6143217 L2.73227404,22.0184118 C2.73227404,26.2105965 5.39168744,28.2878052 8.88899822,28.2878052 C10.7105142,28.2878052 12.5320303,27.7590611 13.9892431,26.8904102 L12.8234728,22.6226906 Z M26.2298308,7.51571859 C19.9273854,7.51571859 15.7014682,11.6323685 15.7014682,17.8639944 C15.7014682,24.057853 19.9273854,28.2500377 26.2298308,28.2500377 C32.495846,28.2500377 36.7217631,24.057853 36.7217631,17.8639944 C36.7217631,11.6323685 32.495846,7.51571859 26.2298308,7.51571859 Z M26.2298308,12.3499496 C29.1078261,12.3499496 31.1114938,14.6159955 31.1114938,17.9395293 C31.1114938,21.2630632 29.1078261,23.529109 26.2298308,23.529109 C23.3154052,23.529109 21.3481679,21.2630632 21.3481679,17.9395293 C21.3481679,14.6159955 23.3154052,12.3499496 26.2298308,12.3499496 Z M49.2902237,7.51571859 C42.9877783,7.51571859 38.7618611,11.6323685 38.7618611,17.8639944 C38.7618611,24.057853 42.9877783,28.2500377 49.2902237,28.2500377 C55.5562389,28.2500377 59.7821561,24.057853 59.7821561,17.8639944 C59.7821561,11.6323685 55.5562389,7.51571859 49.2902237,7.51571859 Z M49.2902237,12.3499496 C52.1682191,12.3499496 54.1718867,14.6159955 54.1718867,17.9395293 C54.1718867,21.2630632 52.1682191,23.529109 49.2902237,23.529109 C46.3757981,23.529109 44.4085608,21.2630632 44.4085608,17.9395293 C44.4085608,14.6159955 46.3757981,12.3499496 49.2902237,12.3499496 Z M71.8041618,19.752366 L76.5401035,28.0234331 L83.1704219,28.0234331 L75.6657758,15.5601812 L82.842549,7.74232317 L76.4672429,7.74232317 L69.2904697,15.4091115 L69.2904697,0 L63.6802004,0 L63.6802004,28.0234331 L69.2904697,28.0234331 L69.2904697,22.5093884 L71.8041618,19.752366 Z M97.4146772,28.0234331 L102.915656,28.0234331 L102.879225,14.7670652 C102.842795,10.1972061 99.8190784,7.47795116 94.5731122,7.47795116 C91.1486621,7.47795116 88.63497,8.30883463 85.7205443,9.81953183 L87.4691997,13.8228794 C89.5092976,12.6520891 91.5493956,12.0478102 93.298051,12.0478102 C95.9938947,12.0478102 97.3782469,13.2941354 97.3782469,15.4468789 L97.3782469,15.8245532 L91.9865594,15.8245532 C87.1777571,15.8623207 84.5183437,18.1283665 84.5183437,21.9428769 C84.5183437,25.6440851 87.0684662,28.2878052 91.257953,28.2878052 C93.9902271,28.2878052 96.1031857,27.3436194 97.4146772,25.6440851 L97.4146772,28.0234331 Z M92.8244568,24.1333878 C90.9300802,24.1333878 89.7643099,23.1136672 89.7643099,21.5652026 C89.7643099,19.9412031 90.8207892,19.2613894 92.9701781,19.2613894 L97.3782469,19.2613894 L97.3782469,21.074226 C97.050374,22.8115278 95.1924277,24.1333878 92.8244568,24.1333878 Z M120.147197,7.47795116 C117.08705,7.51571859 114.75551,8.72427636 113.371158,11.2546942 L113.371158,7.70455574 L107.760888,7.70455574 L107.760888,28.0234331 L113.371158,28.0234331 L113.371158,18.0150642 C113.371158,15.0314372 115.046952,12.8409262 117.852087,12.8031588 C120.256488,12.8031588 121.713701,14.3893909 121.713701,16.9575761 L121.713701,28.0234331 L127.32397,28.0234331 L127.32397,15.2580418 C127.32397,10.4993456 124.518836,7.47795116 120.147197,7.47795116 Z" id="tookan"></path>
                </g>
                <g id="Tookan_final_logo-Copy">
                    <g id="Group">
                        <g transform="translate(0.006184, 0.000000)" id="Group-2">
                            <g>
                                <g id="Group-3" transform="translate(0.000000, 0.000000)">
                                    <path d="M4.64640147,34.5379104 L9.80435954,22.3051946 C9.7782433,22.3051946 9.73906893,22.3181255 9.71295269,22.3181255 C8.55077986,22.3698495 7.48001388,21.8396789 6.72264282,21.0250266 L1.55162663,33.2706734 C1.19905734,34.1111877 1.60385911,35.0939429 2.45263702,35.4430796 C3.30141493,35.7922163 4.29383218,35.3913557 4.64640147,34.5379104 Z" id="Shape" fill="#489AF2"></path>
                                    <path d="M9.71295269,14.0915921 C9.86965015,14.0786611 10.0132895,14.0915921 10.1699869,14.1045231 L4.64640147,1.01836199 C4.29383218,0.177847694 3.30141493,-0.223012973 2.45263702,0.126123737 C1.60385911,0.475260446 1.19905734,1.45801563 1.55162663,2.29852993 L6.98380525,15.1648642 C7.71506007,14.5312458 8.66830295,14.1433161 9.71295269,14.0915921 Z" id="Shape" fill="#489AF2"></path>
                                    <path d="M32.3088852,18.8233299 C32.7920357,18.0345396 32.5308732,17.0129914 31.7343278,16.5474758 L17.9318932,8.29750469 L17.4095683,7.98716095 C17.6837889,9.46129372 16.7566622,10.4699109 15.6075475,10.7931856 L16.2212792,11.1552533 L29.9975976,19.3793625 C30.8072012,19.8578091 31.8387928,19.6121203 32.3088852,18.8233299 Z" id="Shape" fill="#489AF2"></path>
                                    <path d="M12.1468874,8.28360956 C12.1860618,7.09395855 12.8912003,6.35689217 13.7791526,6.05947941 L13.4004671,5.8396526 L4.02473569,0.240534255 C3.22819027,-0.237912347 2.19659865,0.0207074378 1.72650627,0.809497782 C1.24335577,1.59828813 1.5045182,2.61983628 2.30106363,3.08535189 L11.8987831,8.81378012 L12.2382942,9.00774496 C12.1599455,8.78791814 12.1338293,8.54222935 12.1468874,8.28360956 Z" id="Shape" fill="#489AF2"></path>
                                    <path d="M15.0766943,24.3153284 C13.3921966,24.2636045 11.9819195,25.5825654 11.929687,27.250663 C11.8774545,28.9187606 13.2093829,30.3153074 14.8938806,30.3670314 C16.5783783,30.4187553 17.9886555,29.0997944 18.0408879,27.4316968 C18.0800623,25.7635992 16.761192,24.3670524 15.0766943,24.3153284 Z M15.0505781,25.1041188 C16.2910996,25.1429117 17.2704588,26.1644599 17.2312844,27.4058348 C17.19211,28.6342788 16.1605184,29.604103 14.9069387,29.56531 C13.6664172,29.5265171 12.6870581,28.5049689 12.7262324,27.263594 C12.7654068,26.03515 13.8100565,25.0653258 15.0505781,25.1041188 Z" id="Shape" fill="#489AF2"></path>
                                    <path d="M32.3943457,17.1399333 C32.8644381,17.9287237 32.6032756,18.9502718 31.8197883,19.4157874 L17.4558545,27.8985164 C17.730075,26.4243836 16.8029484,25.4157664 15.6668918,25.0924917 L30.0961163,16.5580388 C30.8926617,16.0925232 31.9242533,16.351143 32.3943457,17.1399333 Z" id="Shape" fill="#489AF2"></path>
                                    <path d="M12.2062317,27.5046162 C12.245406,28.6942672 12.9505446,29.4313336 13.8384969,29.7287464 L4.08407998,35.5606225 C3.28753455,36.0390691 2.25594294,35.7804493 1.78585056,34.991659 C1.30270006,34.2028687 1.56386249,33.1813205 2.36040791,32.7158049 L12.2845804,26.7804808 C12.2192898,27.0132386 12.1931736,27.2459964 12.2062317,27.5046162 Z" id="Shape" fill="#489AF2"></path>
                                    <path d="M10.0417251,13.451095 C7.39092637,13.3735091 5.1841038,15.4295364 5.10575507,18.0545272 C5.02740634,20.679518 7.10364769,22.8648552 9.75444639,22.9424411 C12.4052451,23.0200271 14.6120677,20.9639998 14.6904164,18.339009 C14.7687651,15.7140181 12.6925238,13.528681 10.0417251,13.451095 Z M10.0025507,14.69247 C11.961269,14.7441939 13.4890692,16.3605676 13.4368367,18.300216 C13.3846042,20.2398644 11.752339,21.7527901 9.79362076,21.7010662 C7.8349025,21.6493422 6.30710227,20.0329685 6.35933475,18.0933202 C6.42462536,16.1536718 8.05689057,14.627815 10.0025507,14.69247 Z" id="Shape" fill="#489AF2"></path>
                                    <ellipse id="Oval" fill="#489AF2" cx="9.93696897" cy="18.1747488" rx="1.9848345" ry="1.96551036"></ellipse>
                                    <path d="M15.01735,5.40455029 C13.3328523,5.35282633 11.9225752,6.67178723 11.8703427,8.33988484 C11.8181102,10.0079825 13.1500386,11.4045293 14.8345363,11.4562533 C16.519034,11.5079772 17.9293112,10.1890163 17.9815437,8.52091869 C18.0337761,6.83989009 16.7018477,5.45627424 15.01735,5.40455029 Z M14.9912338,6.19334063 C16.2317554,6.2321336 17.2111145,7.25368175 17.1719401,8.49505671 C17.1327658,9.72350069 16.1011741,10.6933249 14.8475945,10.6545319 C13.6070729,10.615739 12.6277138,9.5941908 12.6668881,8.35281583 C12.7191206,7.12437186 13.7507122,6.15454766 14.9912338,6.19334063 Z" id="Shape" fill="#499DF0"></path>
                                    <g id="Group" transform="translate(0.053160, 16.326697)">
                                        <g id="Line_33_" transform="translate(14.168062, 0.000000)"></g>
                                        <g id="Line_32_" transform="translate(0.000000, 10.474101)"></g>
                                    </g>
                                </g>
                            </g>
                        </g>
                    </g>
                </g>
            </g>
        </g>
    </g>
</svg>