<?xml version="1.0" encoding="UTF-8" standalone="no"?>
<svg width="100px" height="100px" viewBox="0 0 100 100" version="1.1" xmlns="http://www.w3.org/2000/svg" xmlns:xlink="http://www.w3.org/1999/xlink">
    <!-- Generator: Sketch 41.2 (35397) - http://www.bohemiancoding.com/sketch -->
    <title>tookan_partner</title>
    <desc>Created with Sketch.</desc>
    <defs>
        <rect id="path-1" x="41" y="43" width="2" height="2" rx="1"></rect>
        <mask id="mask-2" maskContentUnits="userSpaceOnUse" maskUnits="objectBoundingBox" x="0" y="0" width="2" height="2" fill="white">
            <use xlink:href="#path-1"></use>
        </mask>
        <linearGradient x1="50%" y1="0%" x2="50%" y2="100%" id="linearGradient-3">
            <stop stop-color="#3AC1EC" offset="0%"></stop>
            <stop stop-color="#1684A7" offset="100%"></stop>
        </linearGradient>
    </defs>
    <g id="New_Features" stroke="none" stroke-width="1" fill="none" fill-rule="evenodd">
        <g id="tookan_partner">
            <g id="Group" transform="translate(7.000000, 4.000000)">
                <ellipse id="Oval" fill="#DDDDDD" cx="77.0686391" cy="10.0732308" rx="9.06863905" ry="9.07323077"></ellipse>
                <ellipse id="Oval" fill="#DDDDDD" cx="9.06863905" cy="9.07323077" rx="9.06863905" ry="9.07323077"></ellipse>
                <ellipse id="Oval" fill="#DDDDDD" cx="26.0686391" cy="83.0732308" rx="9.06863905" ry="9.07323077"></ellipse>
                <use id="Rectangle" stroke="#979797" mask="url(#mask-2)" stroke-width="2" fill="#D8D8D8" xlink:href="#path-1"></use>
                <path d="M24.4850683,48.9990385 C20.3476678,39.0003205 25.1746351,27.6224689 35.0009615,23.4850683 C44.9996795,19.3476678 56.3775311,24.1746351 60.5149317,34.0009615 C64.6523322,43.9996795 59.8253649,55.3775311 49.9990385,59.5149317 C40.1727122,63.6523322 28.6224689,58.8253649 24.4850683,48.9990385 L24.4850683,48.9990385 Z" id="Path" fill="url(#linearGradient-3)"></path>
                <path d="M26.3303669,17.6698523 C26.2171946,17.5565862 26.0830414,17.5000001 25.9280637,17.5000001 L21.9226625,17.5000001 C21.7677161,17.5000001 21.6337195,17.5565862 21.5203594,17.6698523 C21.4071871,17.7830559 21.350601,17.9171778 21.350601,18.0721555 C21.350601,18.2271332 21.4071871,18.3612864 21.5203594,18.4744586 L22.8075917,19.7618788 L17.5893729,24.9801289 C17.5298432,25.0398152 17.5000001,25.108301 17.5000001,25.1857742 C17.5000001,25.2632473 17.5298432,25.3318584 17.5893729,25.3914194 L18.6087371,26.4106584 C18.6682982,26.4702507 18.73669,26.4999999 18.8142572,26.4999999 C18.8918243,26.4999999 18.9602161,26.4702507 19.0197772,26.4106584 L24.2382464,21.1924083 L25.5254161,22.4797346 C25.6387762,22.5929694 25.7729608,22.6497121 25.9279384,22.6497121 C26.0829161,22.6497121 26.2169441,22.5929694 26.3302416,22.4797346 C26.4434138,22.3665624 26.4999999,22.2324091 26.4999999,22.0774314 L26.4999999,18.0720615 C26.5000939,17.9169586 26.4438522,17.7830872 26.3303669,17.6698523 Z" id="Shape" fill="#B0B0B0" transform="translate(22.000000, 22.000000) scale(1, -1) translate(-22.000000, -22.000000) "></path>
                <path d="M69.3303669,18.6698523 C69.2171946,18.5565862 69.0830414,18.5000001 68.9280637,18.5000001 L64.9226625,18.5000001 C64.7677161,18.5000001 64.6337195,18.5565862 64.5203594,18.6698523 C64.4071871,18.7830559 64.350601,18.9171778 64.350601,19.0721555 C64.350601,19.2271332 64.4071871,19.3612864 64.5203594,19.4744586 L65.8075917,20.7618788 L60.5893729,25.9801289 C60.5298432,26.0398152 60.5000001,26.108301 60.5000001,26.1857742 C60.5000001,26.2632473 60.5298432,26.3318584 60.5893729,26.3914194 L61.6087371,27.4106584 C61.6682982,27.4702507 61.73669,27.4999999 61.8142572,27.4999999 C61.8918243,27.4999999 61.9602161,27.4702507 62.0197772,27.4106584 L67.2382464,22.1924083 L68.5254161,23.4797346 C68.6387762,23.5929694 68.7729608,23.6497121 68.9279384,23.6497121 C69.0829161,23.6497121 69.2169441,23.5929694 69.3302416,23.4797346 C69.4434138,23.3665624 69.4999999,23.2324091 69.4999999,23.0774314 L69.4999999,19.0720615 C69.5000939,18.9169586 69.4438522,18.7830872 69.3303669,18.6698523 Z" id="Shape-Copy" fill="#B0B0B0" transform="translate(65.000000, 23.000000) scale(-1, -1) translate(-65.000000, -23.000000) "></path>
                <path d="M37.6105958,63.6433333 C37.4934151,63.5260554 37.3545102,63.467465 37.1940434,63.467465 L33.0467743,63.467465 C32.8863399,63.467465 32.7475972,63.5260554 32.6302219,63.6433333 C32.5130413,63.7605464 32.4544509,63.8994188 32.4544509,64.0598857 C32.4544509,64.2203526 32.5130413,64.3592574 32.6302219,64.4764381 L33.9630469,65.8094576 L28.5600034,71.2125336 C28.4983652,71.2743339 28.467465,71.3452454 28.467465,71.4254626 C28.467465,71.5056798 28.4983652,71.576721 28.5600034,71.6383917 L29.6154726,72.6937312 C29.6771432,72.7554342 29.7479574,72.7862371 29.8282719,72.7862371 C29.9085864,72.7862371 29.9794007,72.7554342 30.0410713,72.6937312 L35.4443742,67.2906552 L36.7771343,68.6235774 C36.8945096,68.740823 37.0334468,68.7995754 37.1939137,68.7995754 C37.3543805,68.7995754 37.4931557,68.740823 37.6104661,68.6235774 C37.7276468,68.5063968 37.7862371,68.3674919 37.7862371,68.2070251 L37.7862371,64.0597884 C37.7863344,63.8991919 37.7281007,63.7605789 37.6105958,63.6433333 Z" id="Shape-Copy-2" fill="#B0B0B0" transform="translate(33.126851, 68.126851) rotate(-20.000000) translate(-33.126851, -68.126851) "></path>
            </g>
        </g>
    </g>
</svg>