<?xml version="1.0" encoding="UTF-8" standalone="no"?>
<svg width="124px" height="30px" viewBox="0 0 124 30" version="1.1" xmlns="http://www.w3.org/2000/svg" xmlns:xlink="http://www.w3.org/1999/xlink">
    <!-- Generator: Sketch 42 (36781) - http://www.bohemiancoding.com/sketch -->
    <title>logo-white-dev</title>
    <desc>Created with Sketch.</desc>
    <defs></defs>
    <g id="Page-1" stroke="none" stroke-width="1" fill="none" fill-rule="evenodd">
        <g id="logo-white-dev" fill-rule="nonzero">
            <g id="tookan-black" transform="translate(4.000000, 6.000000)">
                <g id="Group">
                    <path d="M16.901413,9.5 C16.901413,14.7319315 21.2380435,18.9696718 26.5920652,18.9696718 C31.946087,18.9696718 36.2827174,14.7319315 36.2827174,9.5 C36.2827174,4.26806848 31.946087,0.0303282172 26.5920652,0.0303282172 C21.2380435,0.0303282172 16.901413,4.26806848 16.901413,9.5 Z M32.2894565,9.5 C32.2894565,12.681412 29.7332609,15.2663093 26.5920652,15.2663093 C23.4508696,15.2663093 20.8946739,12.681412 20.8946739,9.5 C20.8946739,6.31858796 23.4508696,3.73369067 26.5920652,3.73369067 C29.7332609,3.73369067 32.2894565,6.31858796 32.2894565,9.5 Z" id="Shape" fill="#FFFFFF"></path>
                    <path d="M48.4786957,0.0303282172 C43.1246739,0.0303282172 38.7880435,4.26806848 38.7880435,9.5 C38.7880435,14.7319315 43.1246739,18.9696718 48.4786957,18.9696718 C53.8327174,18.9696718 58.1693478,14.7319315 58.1693478,9.5 C58.1693478,4.26806848 53.8327174,0.0303282172 48.4786957,0.0303282172 Z M48.4786957,15.0674711 C45.2230435,15.0674711 42.5778261,12.5695655 42.5778261,9.5 C42.5778261,6.43043447 45.2230435,3.93252893 48.4786957,3.93252893 C51.7343478,3.93252893 54.3795652,6.43043447 54.3795652,9.5 C54.3795652,12.5695655 51.7343478,15.0674711 48.4786957,15.0674711 Z" id="Shape" fill="#FFFFFF"></path>
                    <path d="M107.703587,0.0303282172 C102.692935,0.117319953 98.7632609,4.33020543 98.7632609,9.2265974 L98.7632609,18.7708335 L102.756522,18.7708335 L102.756522,9.10232349 C102.756522,6.56713577 104.613261,4.30535065 107.194891,3.98223849 C110.310652,3.59698937 112.981304,5.95819362 112.981304,8.92834002 L112.981304,17.0558536 C112.981304,18.0003353 113.769783,18.7708335 114.736304,18.7708335 L116.987283,18.7708335 L116.987283,8.92834002 C116.974565,3.95738371 112.803261,-0.0566635183 107.703587,0.0303282172 Z" id="Shape" fill="#FFFFFF"></path>
                    <path d="M10.5554348,3.73369067 L10.5554348,18.7708335 L6.33326087,18.7708335 L6.33326087,3.73369067 L0.0254347826,3.73369067 L0.0254347826,1.96900118 C0.0254347826,0.900245573 0.915652174,0.0303282172 2.00934783,0.0303282172 L16.901413,0.0303282172 L16.901413,1.79501771 C16.901413,2.86377332 16.0111957,3.73369067 14.9175,3.73369067 L10.5554348,3.73369067 Z" id="Shape" fill="#FFFFFF"></path>
                    <path d="M65.3546739,13.5637568 L65.3546739,18.7708335 L61.2342391,18.7708335 L61.2342391,0.167029516 L63.3707609,0.167029516 C64.4644565,0.167029516 65.3546739,1.03694687 65.3546739,2.10570248 L65.3546739,8.49338135 L73.7608696,0.167029516 L78.4917391,0.167029516 L71.4463043,7.37491617 L79.038587,18.7708335 L74.1678261,18.7708335 L68.5721739,10.2456434 L65.3546739,13.5637568 Z" id="Shape" fill="#FFFFFF"></path>
                    <path d="M96.2579348,5.83391972 C94.4775,6.79082881 93.1167391,7.23821488 90.2553261,7.23821488 L85.1302174,7.23821488 C81.8618478,7.23821488 79.2166304,9.82311216 79.2166304,13.0169516 L79.2166304,13.0169516 C79.2166304,16.210791 81.8618478,18.7956883 85.1302174,18.7956883 L88.8055435,18.7956883 C92.9132609,18.7956883 96.2452174,15.5397119 96.2452174,11.5256647 L96.2579348,5.83391972 L96.2579348,5.83391972 Z M93.0531522,10.3326352 C93.0531522,13.2654994 91.5397826,15.6391311 87.9661957,15.6391311 L85.638913,15.6391311 C84.24,15.6391311 83.1081522,14.4461015 83.1081522,12.9920968 C83.1081522,11.5380921 84.24,10.3450626 85.638913,10.3450626 L90.4333696,10.3450626 C91.4253261,10.3450626 92.2901087,10.2829256 93.0531522,10.1710791 L93.0531522,10.3326352 L93.0531522,10.3326352 Z" id="Shape" fill="#FFFFFF"></path>
                    <path d="M85.1683696,4.74030933 L90.6877174,4.74030933 C96.6267391,4.74030933 96.296087,0.167029516 96.296087,0.167029516 L87.1904348,0.167029516 C83.8711957,0.167029516 81.0606522,2.68978985 80.8571739,5.88362928 C82.1161957,5.16284061 83.591413,4.74030933 85.1683696,4.74030933 Z" id="Shape" fill="#2296FF"></path>
                </g>
            </g>
        </g>
    </g>
</svg>