<?xml version="1.0" encoding="UTF-8" standalone="no"?>
<svg width="88px" height="76px" viewBox="0 0 88 76" version="1.1" xmlns="http://www.w3.org/2000/svg" xmlns:xlink="http://www.w3.org/1999/xlink">
    <!-- Generator: Sketch 48.1 (47250) - http://www.bohemiancoding.com/sketch -->
    <title>WM-White</title>
    <desc>Created with Sketch.</desc>
    <defs></defs>
    <g id="Page-1" stroke="none" stroke-width="1" fill="none" fill-rule="evenodd">
        <g id="WM-White">
            <g transform="translate(1.000000, 14.000000)" id="Group">
                <g>
                    <path d="M47.8367647,0.657846154 L47.8367647,3.94830769 L47.9312647,3.94830769 C48.8126471,2.696 49.8719118,1.72369231 51.1164706,1.03446154 C52.3573235,0.344615385 53.7822353,0 55.3850294,0 C56.9266765,0 58.3336765,0.297846154 59.6085,0.891692308 C60.8820882,1.488 61.8487059,2.53784615 62.5083529,4.04123077 C63.2316176,2.976 64.2155294,2.03753846 65.4576176,1.22092308 C66.7009412,0.406769231 68.1703235,0 69.8694706,0 C71.1578824,0 72.3536471,0.158153846 73.4542941,0.468923077 C74.5561765,0.782153846 75.4980882,1.28307692 76.2837353,1.97292308 C77.0712353,2.66215385 77.6839412,3.56184615 78.1249412,4.67692308 C78.5659412,5.78892308 78.7845882,7.12923077 78.7845882,8.69538462 L78.7845882,24.9563077 L72.0855882,24.9563077 L72.0855882,11.1870769 C72.0855882,10.3723077 72.0540882,9.60492308 71.9904706,8.88430769 C71.9293235,8.16123077 71.7563824,7.53661538 71.4741176,7.00246154 C71.19,6.47138462 70.7737059,6.048 70.2227647,5.73415385 C69.6718235,5.42092308 68.9250882,5.26276923 67.9819412,5.26276923 C67.0381765,5.26276923 66.276,5.44430769 65.6947941,5.80492308 C65.1117353,6.16492308 64.6565294,6.63384615 64.3260882,7.21538462 C63.9956471,7.79323077 63.7757647,8.45415385 63.6645882,9.19076923 C63.5546471,9.92430769 63.4996765,10.6683077 63.4996765,11.4227692 L63.4996765,24.9563077 L56.8006765,24.9563077 L56.8006765,11.3267692 C56.8006765,10.6055385 56.7852353,9.89292308 56.7537353,9.19076923 C56.7222353,8.48246154 56.5894412,7.83446154 56.3535,7.23815385 C56.1163235,6.64184615 55.7235,6.16492308 55.1737941,5.80492308 C54.6228529,5.44430769 53.8118824,5.26276923 52.7439706,5.26276923 C52.4289706,5.26276923 52.0126765,5.33538462 51.4932353,5.47507692 C50.9750294,5.61538462 50.4691765,5.88246154 49.9843235,6.27384615 C49.4951471,6.66523077 49.0800882,7.23015385 48.7342059,7.96676923 C48.3864706,8.70338462 48.2153824,9.66769231 48.2153824,10.8578462 L48.2153824,24.9563077 L41.5157647,24.9563077 L41.5157647,0.657846154 L47.8367647,0.657846154 Z M23.2593529,24.9563077 L18.9172941,8.64861538 L18.8240294,8.64861538 L14.6722059,24.9563077 L7.73788235,24.9563077 L0,0.657846154 L7.07761765,0.657846154 L11.5586471,17.1550769 L11.6543824,17.1550769 L15.7104706,0.657846154 L22.2223235,0.657846154 L26.3741471,17.1083077 L26.4680294,17.1083077 L30.9490588,0.657846154 L37.8364412,0.657846154 L30.1473529,24.9563077 L23.2593529,24.9563077 Z" id="Fill-72" fill="#FEFEFE" fill-rule="nonzero"></path>
                    <path d="M39.7505294,39.3243077 C54.2312647,39.3243077 61.5615,33.8461538 61.5615,33.8461538 L64.6775294,38.0461538 C64.6775294,38.0461538 53.8637647,47.1772308 39.7505294,47.1772308 C25.6366765,47.1772308 14.8235294,38.0461538 14.8235294,38.0461538 L17.9395588,33.8461538 C17.9395588,33.8461538 25.2691765,39.3243077 39.7505294,39.3243077" id="Fill-74" fill="#000000" fill-rule="nonzero"></path>
                    <path d="M79.9826268,1.38760977 L79,1.38760977 L79,0.718769231 L81.724114,0.718769231 L81.724114,1.38760977 L80.7414871,1.38760977 L80.7414871,4.15021201 L79.9826268,4.15021201 L79.9826268,1.38760977 Z M82.1084086,0.718769231 L83.2564281,0.718769231 L84.0493398,2.95793104 L84.0590688,2.95793104 L84.856845,0.718769231 L86,0.718769231 L86,4.15021201 L85.2411397,4.15021201 L85.2411397,1.51846988 L85.2314107,1.51846988 L84.3266157,4.15021201 L83.7477415,4.15021201 L82.8769979,1.51846988 L82.8672689,1.51846988 L82.8672689,4.15021201 L82.1084086,4.15021201 L82.1084086,0.718769231 Z" id="TM" fill="#FFFFFF"></path>
                </g>
            </g>
        </g>
    </g>
</svg>