<?xml version="1.0" encoding="UTF-8" standalone="no"?>
<svg width="90px" height="65px" viewBox="0 0 90 65" version="1.1" xmlns="http://www.w3.org/2000/svg" xmlns:xlink="http://www.w3.org/1999/xlink">
    <!-- Generator: sketchtool 42 (36781) - http://www.bohemiancoding.com/sketch -->
    <title>7CC4089B-4E60-4368-8FA7-C5BB031581BA</title>
    <desc>Created with sketchtool.</desc>
    <defs></defs>
    <g id="Page-1" stroke="none" stroke-width="1" fill="none" fill-rule="evenodd">
        <g id="16---Add-Ons" transform="translate(-413.000000, -1347.000000)" fill="#4695F6">
            <g id="app-offline-sync" transform="translate(413.000000, 1347.000000)">
                <path d="M55.776461,65 L51.8594197,65 L51.0134859,65 L51.0134859,45.6332491 L57.3947691,45.6332491 C59.0130772,45.6332491 59.9693502,43.8079191 59.0130772,42.4936816 L46.5999183,25.4450997 C45.8091541,24.3499017 44.1724561,24.3499017 43.3816919,25.4450997 L30.9685329,42.4936816 C30.0122599,43.8079191 30.950143,45.6332491 32.586841,45.6332491 L38.9681242,45.6332491 L38.9681242,65 L38.1221904,65 L34.2051492,65 L17.3416428,65 C7.68696363,64.4706543 0,55.5082842 0,45.7975288 C0,39.0985678 3.65958316,33.2575119 9.08459338,30.0996911 C8.58806702,28.7672002 8.33060891,27.3434429 8.33060891,25.8466723 C8.33060891,19.0016849 13.902738,13.4709351 20.7989375,13.4709351 C22.2885166,13.4709351 23.722926,13.7264813 25.0653862,14.2193204 C29.0559869,5.82280258 37.6624438,0 47.6665304,0 C60.6129955,0.0182532996 71.2791173,9.8567818 72.4928484,22.3967987 C82.4417654,24.0943555 90,33.2392586 90,43.5888795 C90,54.6503791 81.3199837,64.2333614 70.3228443,65 L55.776461,65 Z" id="Shape"></path>
            </g>
        </g>
    </g>
</svg>