<svg xmlns="http://www.w3.org/2000/svg" width="34" height="36" viewBox="0 0 34 36">
    <g fill="none" fill-rule="evenodd">
        <ellipse cx="30.212" cy="3.899" fill="#FF4A00" rx="3.555" ry="3.512"/>
        <ellipse cx="3.555" cy="3.512" fill="#76CC5B" rx="3.555" ry="3.512"/>
        <ellipse cx="10.219" cy="32.157" fill="#FFD24D" rx="3.555" ry="3.512"/>
        <path fill="#1394FF" d="M9.599 18.967c-1.622-3.87.27-8.274 4.122-9.876 3.92-1.602 8.38.267 10.002 4.07 1.622 3.871-.27 8.275-4.123 9.877-3.852 1.602-8.38-.267-10.001-4.07z"/>
        <path fill="#A7A7A7" d="M10.322 10.192a.217.217 0 0 1-.158.066h-1.57a.217.217 0 0 1-.158-.066.212.212 0 0 1-.066-.155c0-.06.022-.112.066-.156l.505-.499-2.046-2.02a.109.109 0 0 1-.035-.08c0-.03.012-.056.035-.079l.4-.394a.111.111 0 0 1 .161 0l2.046 2.02.504-.499a.217.217 0 0 1 .158-.065c.06 0 .113.022.158.065a.212.212 0 0 1 .066.156v1.55a.21.21 0 0 1-.066.156zM23.783 10.58a.217.217 0 0 0 .158.065h1.57c.061 0 .114-.022.158-.066a.212.212 0 0 0 .067-.155.212.212 0 0 0-.067-.156l-.505-.498 2.046-2.02a.109.109 0 0 0 .035-.08.109.109 0 0 0-.035-.08l-.4-.394a.111.111 0 0 0-.16 0l-2.046 2.02-.505-.498a.217.217 0 0 0-.158-.066.217.217 0 0 0-.158.066.212.212 0 0 0-.066.155v1.55c0 .06.022.113.066.156zM14.044 24.14a.224.224 0 0 0-.176-.008l-1.528.556a.225.225 0 0 0-.13.12.22.22 0 0 0-.01.174.219.219 0 0 0 .12.128l.667.307-1.275 2.69a.113.113 0 0 0-.005.09c.01.028.03.05.062.064l.528.243a.115.115 0 0 0 .157-.057l1.275-2.69.668.306c.058.027.117.03.176.008a.225.225 0 0 0 .13-.12.219.219 0 0 0 .01-.175l-.549-1.508a.218.218 0 0 0-.12-.128z"/>
    </g>
</svg>
