<?xml version="1.0" encoding="UTF-8" standalone="no"?>
<svg width="100px" height="100px" viewBox="0 0 100 100" version="1.1" xmlns="http://www.w3.org/2000/svg" xmlns:xlink="http://www.w3.org/1999/xlink">
    <!-- Generator: Sketch 3.8.3 (29802) - http://www.bohemiancoding.com/sketch -->
    <title>csv</title>
    <desc>Created with Sketch.</desc>
    <defs>
        <linearGradient x1="50%" y1="0%" x2="50%" y2="100%" id="linearGradient-1">
            <stop stop-color="#3AC2ED" offset="0%"></stop>
            <stop stop-color="#1583A7" offset="100%"></stop>
        </linearGradient>
    </defs>
    <g id="Page-1" stroke="none" stroke-width="1" fill="none" fill-rule="evenodd">
        <g id="csv">
            <g id="csv-copy" transform="translate(10.000000, 5.000000)">
                <polygon id="Rectangle-402" fill="#219EC6" points="72.225 57.9775281 81 60.6741573 72.225 60.6741573"></polygon>
                <polygon id="Rectangle-402-Copy" fill="#219EC6" points="8.775 57.9775281 8.775 60.6741573 0 60.6741573"></polygon>
                <g id="Group-2" transform="translate(8.100000, 0.000000)">
                    <path d="M0,3.38674498 C0,1.51629738 1.50990126,0 3.38113172,0 L47.8125,0 L64.6875,16.8539326 L64.6875,86.5115472 C64.6875,88.376112 63.1837255,89.8876404 61.3006968,89.8876404 L3.38680315,89.8876404 C1.51632342,89.8876404 0,88.3651876 0,86.5008955 L0,3.38674498 Z" id="Rectangle-1" fill="#DDDDDD"></path>
                    <path d="M47.8237541,0 L64.6987541,16.8539326 L51.1981044,16.8539326 C49.3345022,16.8539326 47.8237541,15.3434261 47.8237541,13.483795 L47.8237541,0 Z" id="Rectangle-2" fill="#B0B0B0"></path>
                </g>
                <g id="Group-Copy" transform="translate(23.287500, 25.725843)" fill="#B0B0B0">
                    <rect id="Rectangle-3" x="0" y="0" width="34.6415094" height="2.16489951"></rect>
                    <rect id="Rectangle-3-Copy" x="0" y="5.62873872" width="34.6415094" height="0.865959804"></rect>
                    <rect id="Rectangle-3-Copy-2" x="0" y="7.79363823" width="34.6415094" height="0.865959804"></rect>
                    <rect id="Rectangle-3-Copy-3" x="0" y="9.95853774" width="17.3207547" height="0.865959804"></rect>
                    <rect id="Rectangle-3-Copy-6" x="0" y="12.5564172" width="34.6415094" height="0.865959804"></rect>
                    <rect id="Rectangle-3-Copy-5" x="0" y="14.7213167" width="34.6415094" height="0.865959804"></rect>
                    <rect id="Rectangle-3-Copy-4" x="0" y="16.8862162" width="17.3207547" height="0.865959804"></rect>
                    <rect id="Rectangle-3-Copy-9" x="0" y="19.4840956" width="34.6415094" height="0.865959804"></rect>
                    <rect id="Rectangle-3-Copy-8" x="0" y="21.6489951" width="34.6415094" height="0.865959804"></rect>
                    <rect id="Rectangle-3-Copy-7" x="0" y="23.8138946" width="17.3207547" height="0.865959804"></rect>
                    <rect id="Rectangle-3-Copy-12" x="0" y="26.411774" width="34.6415094" height="0.865959804"></rect>
                    <rect id="Rectangle-3-Copy-11" x="0" y="28.5766735" width="34.6415094" height="0.865959804"></rect>
                    <rect id="Rectangle-3-Copy-13" x="0" y="30.741573" width="34.6415094" height="0.865959804"></rect>
                </g>
                <polygon id="Rectangle-401" fill="url(#linearGradient-1)" points="0 60.6741573 81 60.6741573 74.025 83.258427 6.975 83.258427"></polygon>
                <path d="M24.7238525,67.07931 C25.752178,66.0408568 27.0604169,65.521638 28.6486084,65.521638 C30.7738143,65.521638 32.327705,66.2177336 33.3103271,67.6099456 C33.8530545,68.3916384 34.144409,69.1761723 34.1843994,69.9635709 L31.5450439,69.9635709 C31.3736564,69.3587575 31.1537123,68.9023014 30.8852051,68.5941889 C30.4053199,68.0464334 29.6940721,67.7725597 28.7514404,67.7725597 C27.79167,67.7725597 27.0347196,68.159121 26.4805664,68.9322551 C25.9264132,69.7053892 25.6493408,70.7994575 25.6493408,72.2144926 C25.6493408,73.6295278 25.9421235,74.6893618 26.5276978,75.3940265 C27.113272,76.0986912 27.8573685,76.4510183 28.7600098,76.4510183 C29.6855027,76.4510183 30.3910376,76.1486161 30.8766357,75.5438027 C31.1451429,75.2185728 31.3679435,74.7307353 31.5450439,74.0802756 L34.1586914,74.0802756 C33.9301746,75.4553703 33.3460374,76.5736878 32.4062622,77.4352616 C31.466487,78.2968354 30.2625073,78.7276159 28.7942871,78.7276159 C26.9775788,78.7276159 25.5493704,78.1456343 24.5096191,76.9816538 C23.4698678,75.8119675 22.95,74.2086654 22.95,72.1716994 C22.95,69.9692657 23.5412783,68.2718195 24.7238525,67.07931 L24.7238525,67.07931 Z M38.0834473,74.4825316 C38.1634281,75.0588161 38.3205311,75.4895965 38.5547607,75.7748859 C38.9832297,76.2941125 39.7173288,76.5537219 40.7570801,76.5537219 C41.3797883,76.5537219 41.885374,76.4852535 42.2738525,76.3483146 C43.0108191,76.0858484 43.3792969,75.5980109 43.3792969,74.8847876 C43.3792969,74.4682651 43.1964862,74.145893 42.8308594,73.9176615 C42.4652325,73.6951358 41.8910928,73.4982891 41.1084229,73.3271155 L39.7716064,73.0275632 C38.457635,72.7308623 37.5492945,72.4084902 37.0465576,72.0604371 C36.1953327,71.4784469 35.7697266,70.5683875 35.7697266,69.3302317 C35.7697266,68.2004859 36.1810506,67.261898 37.0037109,66.51444 C37.8263713,65.7669819 39.0346356,65.3932584 40.62854,65.3932584 C41.9596502,65.3932584 43.0950759,65.7455855 44.0348511,66.4502502 C44.9746263,67.1549149 45.4673582,68.1776618 45.5130615,69.5185218 L42.9765381,69.5185218 C42.9308347,68.7596521 42.5994904,68.2204633 41.9824951,67.9009393 C41.5711649,67.6898251 41.0598663,67.5842697 40.448584,67.5842697 C39.7687466,67.5842697 39.2260274,67.7212065 38.8204102,67.9950843 C38.4147929,68.268962 38.2119873,68.651244 38.2119873,69.1419417 C38.2119873,69.5926989 38.4119365,69.9293353 38.8118408,70.151861 C39.0689222,70.3002114 39.6173542,70.4742353 40.4571533,70.6739379 L42.6337646,71.1960147 C43.5878222,71.4242462 44.3076392,71.7295012 44.7932373,72.111789 C45.5473426,72.7051908 45.9243896,73.5638989 45.9243896,74.6879389 C45.9243896,75.8405079 45.4830733,76.7976393 44.6004272,77.5593618 C43.7177812,78.3210844 42.4709553,78.70194 40.8599121,78.70194 C39.2145914,78.70194 37.9206346,78.3267901 36.9780029,77.5764791 C36.0353713,76.8261681 35.5640625,75.7948626 35.5640625,74.4825316 L38.0834473,74.4825316 Z M55.2735352,65.7612798 L58.0157227,65.7612798 L53.7053467,78.3767117 L51.2116699,78.3767117 L46.9441406,65.7612798 L49.7634521,65.7612798 L52.5056396,75.3383954 L55.2735352,65.7612798 Z" id="CSV" fill="#FFFFFF"></path>
            </g>
        </g>
    </g>
</svg>