<?xml version="1.0" encoding="UTF-8" standalone="no"?>
<svg width="300px" height="300px" viewBox="0 0 300 300" version="1.1" xmlns="http://www.w3.org/2000/svg" xmlns:xlink="http://www.w3.org/1999/xlink">
    <!-- Generator: Sketch 43.2 (39069) - http://www.bohemiancoding.com/sketch -->
    <title>cycle-grey</title>
    <desc>Created with Sketch.</desc>
    <defs></defs>
    <g id="Page-1" stroke="none" stroke-width="1" fill="none" fill-rule="evenodd">
        <g id="cycle-grey" fill-rule="nonzero" fill="#CCCCCC">
            <path d="M196.914375,135.30177 C192.97875,135.30177 189.202188,135.955264 185.698125,137.151025 C180.9825,127.103742 177.61,116.58264 179.102187,109.186506 C179.402187,107.698075 178.984062,106.160963 177.960938,104.99382 C176.937813,103.826382 175.416875,103.151056 173.812187,103.151056 L157.977812,103.151056 C155.00375,103.151056 152.5925,105.427516 152.5925,108.235326 C152.5925,111.043137 155.00375,113.319596 157.977812,113.319596 L167.989688,113.319596 C168.004687,114.713323 168.105312,116.164286 168.289062,117.670714 C168.067187,117.884612 167.859375,118.116211 167.674688,118.372298 L153.457812,138.115776 C153.150625,138.064146 152.835625,138.032873 152.5125,138.032873 L123.95625,138.032873 L119.4625,128.218665 C119.63625,128.234596 119.809687,128.245512 119.9825,128.245512 C122.24125,128.245512 124.345,126.893385 125.09375,124.75795 C126.02875,122.092345 124.497812,119.215792 121.674375,118.333059 C113.79875,115.871025 105.328125,115.343804 97.1784375,116.809519 C94.256875,117.334969 92.3390625,119.996739 92.8959375,122.75528 C93.4521875,125.513525 96.2721875,127.32354 99.19375,126.798385 C101.702187,126.347283 104.249687,126.142531 106.792187,126.172919 L111.43375,136.309891 C108.765937,135.652562 105.968437,135.30177 103.085312,135.30177 C84.841875,135.301475 70,149.31368 70,166.537298 C70,183.760916 84.841875,197.773416 103.085313,197.773416 C119.495,197.773416 133.150313,186.435373 135.73,171.621863 L139.504375,171.621863 C141.2875,171.621863 142.955312,170.788401 143.958125,169.395854 L171.596875,131.012609 C172.835938,134.522003 174.393125,138.236739 176.266875,142.150326 C168.690938,147.879239 163.829375,156.681786 163.829375,166.537593 C163.829375,183.760916 178.67125,197.773416 196.914688,197.773416 C215.157813,197.773416 230,183.761211 230,166.537593 C229.999687,149.313975 215.157813,135.30177 196.914375,135.30177 Z M103.085312,171.621273 L124.739062,171.621273 C122.323125,180.789363 113.533125,187.604286 103.085312,187.604286 C90.7809375,187.604581 80.770625,178.153556 80.770625,166.537003 C80.770625,154.92045 90.7809375,145.46972 103.085312,145.46972 C113.533125,145.46972 122.323125,152.284938 124.739062,161.452733 L103.085312,161.452733 C100.11125,161.452733 97.7,163.729193 97.7,166.537003 C97.7,169.345109 100.110937,171.621273 103.085312,171.621273 Z M136.65375,161.452733 L135.73,161.452733 C134.878437,156.562003 132.819687,152.050683 129.8525,148.200823 L146.19625,148.200823 L136.65375,161.452733 Z M196.914687,187.604286 C184.610312,187.604286 174.6,178.153556 174.6,166.537003 C174.6,160.705714 177.123437,155.421118 181.192812,151.602531 C186.857187,161.698494 192.228437,169.07722 192.482812,169.425357 C193.527812,170.854783 195.209062,171.621863 196.919687,171.621863 C197.974375,171.621863 199.040312,171.330078 199.974375,170.721134 C202.422187,169.125901 203.036875,165.959627 201.347187,163.648649 C198.660312,159.973742 194.477812,153.657717 190.437187,146.377826 C192.488125,145.789829 194.662187,145.470016 196.914687,145.470016 C209.219062,145.470016 219.229375,154.920745 219.229375,166.537298 C219.229375,178.153556 209.219062,187.604286 196.914687,187.604286 Z" id="Shape"></path>
        </g>
    </g>
</svg>