<?xml version="1.0" encoding="UTF-8" standalone="no"?>
<svg width="15px" height="14px" viewBox="0 0 15 14" version="1.1" xmlns="http://www.w3.org/2000/svg" xmlns:xlink="http://www.w3.org/1999/xlink">
    <!-- Generator: Sketch 41.2 (35397) - http://www.bohemiancoding.com/sketch -->
    <title>Enter Lat Long</title>
    <desc>Created with Sketch.</desc>
    <defs></defs>
    <g id="Page-1" stroke="none" stroke-width="1" fill="none" fill-rule="evenodd">
        <g id="task_view---Add-Lat-Long--Copy" transform="translate(-680.000000, -429.000000)">
            <g id="Enter-Lat-Long" transform="translate(681.000000, 430.000000)">
                <g id="Group-5">
                    <path d="M7,0 C7,0 11.1592475,5.03888636 7,11" id="Line" stroke="#AAAAAA" stroke-width="0.7"></path>
                    <path d="M2.15144554,0 C2.15144554,0 6.31069308,5.03888636 2.15144554,11" id="Line-Copy" stroke="#AAAAAA" stroke-width="0.7" transform="translate(3.075723, 5.500000) scale(-1, 1) translate(-3.075723, -5.500000) "></path>
                    <rect id="Rectangle" fill="#AAAAAA" x="5" y="0" width="1" height="11"></rect>
                    <circle id="Oval" stroke="#AAAAAA" cx="5.5" cy="5.5" r="5.5"></circle>
                </g>
                <g id="Group-5-Copy" transform="translate(5.500000, 5.500000) rotate(-90.000000) translate(-5.500000, -5.500000) " stroke="#AAAAAA">
                    <path d="M7.84855446,1 C7.84855446,1 10.0985545,5.12272521 7.84855446,10" id="Line" stroke-width="0.7" transform="translate(8.348554, 5.500000) scale(-1, -1) translate(-8.348554, -5.500000) "></path>
                    <path d="M2,0 C2,0 6.5,5.03888636 2,11" id="Line-Copy" stroke-width="0.7" transform="translate(3.000000, 5.500000) scale(-1, 1) translate(-3.000000, -5.500000) "></path>
                    <path d="M4.70001221,-2.87792745e-16 C4.70001221,-2.87792745e-16 9.20001221,5.03888636 4.70001221,11" id="Line-Copy-2" stroke-width="0.7" transform="translate(5.700012, 5.500000) scale(-1, 1) translate(-5.700012, -5.500000) "></path>
                    <circle id="Oval" cx="5.5" cy="5.5" r="5.5"></circle>
                </g>
                <circle id="Oval-2" stroke="#B6B6B6" stroke-width="0.25" fill="#FFFFFF" cx="10" cy="9" r="3"></circle>
                <polygon id="Path" fill="#AAAAAA" points="9.65874477 10.1866667 9 10.1866667 9 9.5279219 10.5324965 8 11.1866667 8.65417015"></polygon>
            </g>
        </g>
    </g>
</svg>