<svg xmlns="http://www.w3.org/2000/svg" xmlns:xlink="http://www.w3.org/1999/xlink" width="36" height="36" viewBox="0 0 36 36">
    <defs>
        <path id="a" d="M5.268 19.678c0 4.537 2.235 8.583 5.727 11.226v3.456a1.2 1.2 0 0 0 1.783 1.048l3.449-1.917c1.396.391 2.875.603 4.407.603C29.12 34.094 36 27.64 36 19.678c0-7.961-6.88-14.415-15.366-14.415S5.268 11.717 5.268 19.678z"/>
    </defs>
    <g fill="none" fill-rule="evenodd">
        <g>
            <use fill="#FFF" xlink:href="#a"/>
            <path stroke="#0084FF" d="M5.768 19.678c0 4.256 2.055 8.199 5.528 10.827l.199.15v3.705a.7.7 0 0 0 1.04.611l3.628-2.017.199.055c1.376.386 2.81.585 4.272.585 8.217 0 14.866-6.238 14.866-13.916S28.851 5.763 20.634 5.763C12.417 5.763 5.768 12 5.768 19.678z"/>
        </g>
        <path fill="#0084FF" d="M0 14.415c0 4.537 2.234 8.583 5.726 11.226v3.456a1.2 1.2 0 0 0 1.784 1.049l3.448-1.918c1.397.392 2.876.603 4.408.603 8.486 0 15.366-6.454 15.366-14.416C30.732 6.454 23.852 0 15.366 0S0 6.454 0 14.415z"/>
        <path fill="#FFF" d="M12.705 15.336L9.162 17.3a.695.695 0 0 1-.846-1.082l4.847-5.214a.8.8 0 0 1 1.167-.005l3.208 3.384a.4.4 0 0 0 .486.073l3.498-1.962a.677.677 0 0 1 .827 1.052l-4.575 4.92a1.2 1.2 0 0 1-1.76-.002l-2.821-3.049a.4.4 0 0 0-.488-.078z"/>
    </g>
</svg>
