<?xml version="1.0" encoding="UTF-8"?>
<svg width="24px" height="24px" viewBox="0 0 24 24" version="1.1" xmlns="http://www.w3.org/2000/svg" xmlns:xlink="http://www.w3.org/1999/xlink">
    <!-- Generator: Sketch 47.1 (45422) - http://www.bohemiancoding.com/sketch -->
    <title>history</title>
    <desc>Created with Sketch.</desc>
    <defs></defs>
    <g id="Page-1" stroke="none" stroke-width="1" fill="none" fill-rule="evenodd">
        <g id="history" fill-rule="nonzero" fill="#FFFFFF">
            <path d="M22.9463415,3.44 L22.9463415,6.41333333 C22.9463415,6.81333333 22.6243902,7.13333333 22.2219512,7.13333333 C21.8195122,7.13333333 21.497561,6.81333333 21.497561,6.41333333 L21.497561,3.44 C21.497561,2.34666667 20.6121951,1.44 19.4853659,1.44 L4.46097561,1.44 C3.36097561,1.44 2.44878049,2.32 2.44878049,3.44 L2.44878049,18.3733333 C2.44878049,19.4666667 3.33414634,20.3733333 4.46097561,20.3733333 L7.32682927,20.3733333 L6.38780488,19.4133333 C6.09268293,19.12 6.09268293,18.6666667 6.38780488,18.3733333 C6.68292683,18.08 7.13902439,18.08 7.43414634,18.3733333 L9.63414634,20.56 C9.92926829,20.8533333 9.92926829,21.3066667 9.63414634,21.6 L7.43414634,23.7866667 C7.3,23.92 7.11219512,24 6.92439024,24 C6.73658537,24 6.54878049,23.92 6.41463415,23.7866667 C6.1195122,23.4933333 6.1195122,23.04 6.41463415,22.7466667 L7.35365854,21.8133333 L4.46097561,21.8133333 C2.55609756,21.8133333 1,20.2666667 1,18.3733333 L1,3.44 C1,1.54666667 2.55609756,0 4.46097561,0 L19.4853659,0 C21.3902439,0 22.9463415,1.54666667 22.9463415,3.44 Z M8.56801552,4 C8.38120843,4 8.23176275,4.14853994 8.23176275,4.33421488 L8.23176275,6.75063361 C7.76474501,6.88060606 7.37245011,7.25195592 7.26036585,7.71614325 L5.33625277,7.71614325 C5.14944568,7.71614325 5,7.8646832 5,8.05035813 C5,8.23603306 5.14944568,8.384573 5.33625277,8.384573 L7.26036585,8.384573 C7.40981153,8.96016529 7.95155211,9.40578512 8.56801552,9.40578512 C9.3152439,9.40578512 9.93170732,8.79305785 9.93170732,8.05035813 C9.93170732,7.41906336 9.502051,6.89917355 8.90426829,6.75063361 L8.90426829,4.35278237 C8.90426829,4.16710744 8.75482262,4 8.56801552,4 Z" id="Shape"></path>
            <g id="noun_1162011_cc" transform="translate(11.000000, 6.000000)" stroke-width="0.5" stroke="#FFFFFF">
                <g id="Group">
                    <path d="M8.23636364,8.28205128 L3.70909091,8.28205128 C1.69090909,8.28205128 0,9.82051282 0,11.7692308 L0,14.8974359 L11.8909091,14.8974359 L11.8909091,11.7179487 C11.9454545,9.82051282 10.3090909,8.28205128 8.23636364,8.28205128 Z M11.2909091,14.3749671 L0.635279218,14.3749671 L0.635279218,11.7179487 C0.635279218,10.1794872 2.18181818,8.8974359 3.81818182,8.8974359 L8.34545455,8.8974359 C9.98181818,8.8974359 11.3454545,10.1794872 11.3454545,11.7179487 L11.3454545,14.3749671 L11.2909091,14.3749671 Z" id="Shape"></path>
                    <path d="M6,7.03846154 C7.90909091,7.03846154 9.43636364,5.6025641 9.43636364,3.80769231 C9.43636364,2.01282051 7.90909091,0.576923077 6,0.576923077 C4.09090909,0.576923077 2.56363636,2.01282051 2.56363636,3.80769231 C2.56363636,5.55128205 4.09090909,7.03846154 6,7.03846154 Z M6,1.14102564 C7.52727273,1.14102564 8.78181818,2.32051282 8.78181818,3.75641026 C8.78181818,5.19230769 7.52727273,6.37179487 6,6.37179487 C4.47272727,6.37179487 3.21818182,5.19230769 3.21818182,3.75641026 C3.21818182,2.32051282 4.47272727,1.14102564 6,1.14102564 Z" id="Shape"></path>
                </g>
            </g>
        </g>
    </g>
</svg>