<?xml version="1.0" encoding="UTF-8" standalone="no"?>
<svg width="84px" height="84px" viewBox="0 0 84 84" version="1.1" xmlns="http://www.w3.org/2000/svg" xmlns:xlink="http://www.w3.org/1999/xlink">
    <!-- Generator: Sketch 44.1 (41455) - http://www.bohemiancoding.com/sketch -->
    <title>home-services</title>
    <desc>Created with Sketch.</desc>
    <defs></defs>
    <g id="Page-1" stroke="none" stroke-width="1" fill="none" fill-rule="evenodd">
        <g id="home-services" fill-rule="nonzero">
            <g id="screwdriver-and-wrench-crossed" transform="translate(6.000000, 6.000000)">
                <path d="M1.97534292,60.4774867 C-0.658349076,63.1111786 -0.658349076,67.3763285 1.97534292,70.0100205 C3.29218891,71.3268665 5.01797125,71.9829979 6.74390144,71.9829979 C8.46983162,71.9829979 10.195614,71.3268665 11.51246,70.0100205 L33.6472115,47.8706858 L24.1100945,38.3425873 L1.97534292,60.4774867 Z" id="Shape" fill="#DDDDDD"></path>
                <polygon id="Shape" fill="#DDDDDD" points="57.2966242 19.4528624 66.9370842 14.4684517 71.9841807 4.71119507 67.2786037 0.00561806982 57.5257823 5.05729774 52.532501 14.6887392 40.8067023 26.4279918 45.561807 31.192115"></polygon>
                <path d="M59.4088706,45.0393265 L58.500961,44.9494374 C56.8560493,44.9494374 55.2964435,45.2865216 53.8403285,45.8258563 L26.1683778,18.1494702 C26.7077125,16.6933552 27.0447967,15.1337495 27.0447967,13.4888378 L26.9549076,12.5809281 C26.4785544,5.56514168 20.6987433,0.00561806982 13.5617248,0.00561806982 C11.4852567,0.00561806982 9.53918686,0.513462012 7.78191376,1.35395483 L16.7391869,10.3112279 C17.2111047,10.7831458 17.5347351,11.3403696 17.7504394,11.929232 C18.339154,13.5201807 18.0201068,15.3809446 16.7391869,16.6662998 C15.862768,17.5427187 14.7122464,17.9831458 13.5617248,17.9831458 C13.0314086,17.9831458 12.5055277,17.8663491 12.0021191,17.6775524 C11.4134045,17.4528296 10.8560329,17.1382177 10.384115,16.6618645 L1.42698973,7.70902669 C0.58649692,9.46629979 0.0786529774,11.4123696 0.0786529774,13.4888378 C0.0786529774,20.6258563 5.63817659,26.4056674 12.653963,26.8820205 L13.5618727,26.9719097 C15.2067844,26.9719097 16.7663901,26.6348255 18.2225051,26.1000739 L45.8898727,53.7720246 C45.3595565,55.2281396 45.0224723,56.7877454 45.0224723,58.4326571 L45.1167967,59.3405667 C45.5842793,66.3607885 51.3685257,71.9158768 58.5055441,71.9158768 C60.5820123,71.9158768 62.5325175,71.4170513 64.2853552,70.56754 L55.3280821,61.6102669 C54.8605996,61.1427844 54.5325339,60.5811253 54.3078111,59.996846 C53.7190965,58.4058973 54.0381437,56.5406982 55.3280821,55.2553429 C56.1954825,54.378924 57.3550226,53.9384969 58.5055441,53.9384969 C59.0358604,53.9384969 59.5571581,54.0508583 60.0695852,54.2440903 C60.6582998,54.4643778 61.2201068,54.7789897 61.6830062,55.2553429 L70.6402793,64.212616 C71.4852074,62.4507598 71.988616,60.5092731 71.988616,58.4328049 C71.9841807,51.2954908 66.4246571,45.5156797 59.4088706,45.0393265 Z" id="Shape" fill="#4695F6"></path>
            </g>
        </g>
    </g>
</svg>