<?xml version="1.0" encoding="UTF-8" standalone="no"?>
<svg width="75px" height="84px" viewBox="0 0 75 84" version="1.1" xmlns="http://www.w3.org/2000/svg" xmlns:xlink="http://www.w3.org/1999/xlink">
    <!-- Generator: sketchtool 42 (36781) - http://www.bohemiancoding.com/sketch -->
    <title>DFA17F0F-2B13-4B9F-A6D3-4CDAD39A7621</title>
    <desc>Created with sketchtool.</desc>
    <defs></defs>
    <g id="Page-1" stroke="none" stroke-width="1" fill="none" fill-rule="evenodd">
        <g id="16---Add-Ons" transform="translate(-420.000000, -957.000000)">
            <g id="invoice" transform="translate(420.000000, 957.000000)">
                <polygon id="Rectangle-402-Copy" fill="#4695F6" transform="translate(70.370370, 55.522846) scale(-1, 1) translate(-70.370370, -55.522846) " points="74.0740741 54.1123596 74.0740741 56.9333333 66.6666667 56.9333333"></polygon>
                <polygon id="Rectangle-402-Copy" fill="#4695F6" points="8.125 54.1123596 8.125 56.9333333 0.925925926 56.9333333"></polygon>
                <g id="Group-2" transform="translate(7.500000, 0.000000)">
                    <path d="M0,3.16096198 C0,1.41521088 1.41041798,0 3.14835875,0 L44.2708333,0 L59.8958333,15.7303371 L59.8958333,80.7441108 C59.8958333,82.4843712 58.4743306,83.8951311 56.7389143,83.8951311 L3.156919,83.8951311 C1.41340078,83.8951311 0,82.4741751 0,80.7341691 L0,3.16096198 Z" id="Rectangle-1" fill="#DDDDDD"></path>
                    <path d="M44.2812538,0 L59.9062538,15.7303371 L47.4432057,15.7303371 C45.6969079,15.7303371 44.2812538,14.3205311 44.2812538,12.5848753 L44.2812538,0 Z" id="Rectangle-2" fill="#B0B0B0"></path>
                </g>
                <g id="Group-Copy" transform="translate(21.562500, 24.010787)" fill="#B0B0B0">
                    <rect id="Rectangle-3" x="0" y="0" width="15.625" height="2.02057288"></rect>
                    <rect id="Rectangle-3-Copy" x="0" y="5.25348948" width="15.625" height="0.80822915"></rect>
                    <rect id="Rectangle-3-Copy-2" x="0" y="7.27406235" width="15.625" height="0.80822915"></rect>
                    <rect id="Rectangle-3-Copy-3" x="0" y="9.29463523" width="9.375" height="0.80822915"></rect>
                    <rect id="Rectangle-3-Copy-9" x="0" y="16.921998" width="32.0754717" height="0.80822915"></rect>
                    <rect id="Rectangle-3-Copy-8" x="0" y="18.9425709" width="32.0754717" height="0.80822915"></rect>
                    <rect id="Rectangle-3-Copy-7" x="0" y="20.9631437" width="16.0377358" height="0.80822915"></rect>
                    <rect id="Rectangle-3-Copy-12" x="0" y="23.3878312" width="32.0754717" height="0.80822915"></rect>
                    <rect id="Rectangle-3-Copy-11" x="0" y="25.4084041" width="32.0754717" height="0.80822915"></rect>
                    <rect id="Rectangle-3-Copy-13" x="0" y="27.4289769" width="32.0754717" height="0.80822915"></rect>
                </g>
                <path d="M0.278501157,57.815625 C0.124689215,57.3283488 0.421787845,56.9333333 0.934701384,56.9333333 L74.0652986,56.9333333 C74.5815199,56.9333333 74.8763114,57.3251788 74.7214988,57.815625 L68.7970197,76.584375 C68.6432077,77.0716512 68.1059612,77.4666667 67.5934115,77.4666667 L7.40658852,77.4666667 C6.89566601,77.4666667 6.3577929,77.0748212 6.20298032,76.584375 L0.278501157,57.815625 Z" id="Rectangle" fill="#4695F6"></path>
                <path d="M12.1125,62.9810526 L12.1125,72 L14.075,72 L14.075,62.9810526 L12.1125,62.9810526 Z M15.8,62.9810526 L15.8,72 L17.6375,72 L17.6375,65.9621053 L17.6625,65.9621053 L21.375,72 L23.3375,72 L23.3375,62.9810526 L21.5,62.9810526 L21.5,69.0315789 L21.475,69.0315789 L17.75,62.9810526 L15.8,62.9810526 Z M29.2125,72 L32.175,62.9810526 L30.15,62.9810526 L28.1375,69.3221053 L28.1125,69.3221053 L26.125,62.9810526 L24.1125,62.9810526 L27,72 L29.2125,72 Z M34.5125,67.5284211 C34.5125,67.1326296 34.5562496,66.7494755 34.64375,66.3789474 C34.7312504,66.0084192 34.8708324,65.6778962 35.0625,65.3873684 C35.2541676,65.0968407 35.5041651,64.865264 35.8125,64.6926316 C36.1208349,64.5199991 36.4958311,64.4336842 36.9375,64.4336842 C37.3791689,64.4336842 37.7541651,64.5199991 38.0625,64.6926316 C38.3708349,64.865264 38.6208324,65.0968407 38.8125,65.3873684 C39.0041676,65.6778962 39.1437496,66.0084192 39.23125,66.3789474 C39.3187504,66.7494755 39.3625,67.1326296 39.3625,67.5284211 C39.3625,67.9073703 39.3187504,68.2757877 39.23125,68.6336842 C39.1437496,68.9915807 39.0041676,69.3136828 38.8125,69.6 C38.6208324,69.8863172 38.3708349,70.1157886 38.0625,70.2884211 C37.7541651,70.4610535 37.3791689,70.5473684 36.9375,70.5473684 C36.4958311,70.5473684 36.1208349,70.4610535 35.8125,70.2884211 C35.5041651,70.1157886 35.2541676,69.8863172 35.0625,69.6 C34.8708324,69.3136828 34.7312504,68.9915807 34.64375,68.6336842 C34.5562496,68.2757877 34.5125,67.9073703 34.5125,67.5284211 L34.5125,67.5284211 Z M32.55,67.5284211 C32.55,68.1852664 32.649999,68.7978919 32.85,69.3663158 C33.050001,69.9347397 33.3374981,70.4294716 33.7125,70.8505263 C34.0875019,71.2715811 34.5479139,71.6021041 35.09375,71.8421053 C35.6395861,72.0821065 36.2541633,72.2021053 36.9375,72.2021053 C37.6291701,72.2021053 38.2458306,72.0821065 38.7875,71.8421053 C39.3291694,71.6021041 39.7874981,71.2715811 40.1625,70.8505263 C40.5375019,70.4294716 40.824999,69.9347397 41.025,69.3663158 C41.225001,68.7978919 41.325,68.1852664 41.325,67.5284211 C41.325,66.8547335 41.225001,66.2294766 41.025,65.6526316 C40.824999,65.0757866 40.5375019,64.5726337 40.1625,64.1431579 C39.7874981,63.7136821 39.3291694,63.3768433 38.7875,63.1326316 C38.2458306,62.8884198 37.6291701,62.7663158 36.9375,62.7663158 C36.2541633,62.7663158 35.6395861,62.8884198 35.09375,63.1326316 C34.5479139,63.3768433 34.0875019,63.7136821 33.7125,64.1431579 C33.3374981,64.5726337 33.050001,65.0757866 32.85,65.6526316 C32.649999,66.2294766 32.55,66.8547335 32.55,67.5284211 L32.55,67.5284211 Z M42.6625,62.9810526 L42.6625,72 L44.625,72 L44.625,62.9810526 L42.6625,62.9810526 Z M52.3,66.0126316 L54.2,66.0126316 C54.1416664,65.4905237 54.0000011,65.0273704 53.775,64.6231579 C53.5499989,64.2189453 53.2645851,63.8800014 52.91875,63.6063158 C52.5729149,63.3326302 52.1812522,63.1242112 51.74375,62.9810526 C51.3062478,62.837894 50.8416691,62.7663158 50.35,62.7663158 C49.6666633,62.7663158 49.0520861,62.8884198 48.50625,63.1326316 C47.9604139,63.3768433 47.5000019,63.7136821 47.125,64.1431579 C46.7499981,64.5726337 46.462501,65.0757866 46.2625,65.6526316 C46.062499,66.2294766 45.9625,66.8547335 45.9625,67.5284211 C45.9625,68.1852664 46.062499,68.7978919 46.2625,69.3663158 C46.462501,69.9347397 46.7499981,70.4294716 47.125,70.8505263 C47.5000019,71.2715811 47.9604139,71.6021041 48.50625,71.8421053 C49.0520861,72.0821065 49.6666633,72.2021053 50.35,72.2021053 C50.9000028,72.2021053 51.4041644,72.1178956 51.8625,71.9494737 C52.3208356,71.7810518 52.7208316,71.5368437 53.0625,71.2168421 C53.4041684,70.8968405 53.6791656,70.509476 53.8875,70.0547368 C54.0958344,69.5999977 54.2249998,69.0905291 54.275,68.5263158 L52.375,68.5263158 C52.2999996,69.1326346 52.0937517,69.6210508 51.75625,69.9915789 C51.4187483,70.3621071 50.950003,70.5473684 50.35,70.5473684 C49.9083311,70.5473684 49.5333349,70.4610535 49.225,70.2884211 C48.9166651,70.1157886 48.6666676,69.8863172 48.475,69.6 C48.2833324,69.3136828 48.1437504,68.9915807 48.05625,68.6336842 C47.9687496,68.2757877 47.925,67.9073703 47.925,67.5284211 C47.925,67.1326296 47.9687496,66.7494755 48.05625,66.3789474 C48.1437504,66.0084192 48.2833324,65.6778962 48.475,65.3873684 C48.6666676,65.0968407 48.9166651,64.865264 49.225,64.6926316 C49.5333349,64.5199991 49.9083311,64.4336842 50.35,64.4336842 C50.5916679,64.4336842 50.8229156,64.4736838 51.04375,64.5536842 C51.2645844,64.6336846 51.4624991,64.7452624 51.6375,64.8884211 C51.8125009,65.0315797 51.9583328,65.1978938 52.075,65.3873684 C52.1916673,65.5768431 52.2666665,65.785262 52.3,66.0126316 L52.3,66.0126316 Z M55.6125,62.9810526 L55.6125,72 L62.3875,72 L62.3875,70.3326316 L57.575,70.3326316 L57.575,68.1221053 L61.9,68.1221053 L61.9,66.5810526 L57.575,66.5810526 L57.575,64.6484211 L62.2875,64.6484211 L62.2875,62.9810526 L55.6125,62.9810526 Z" id="INVOICE" fill="#FFFFFF"></path>
            </g>
        </g>
    </g>
</svg>