<svg width="78" height="73" viewBox="0 0 78 73" xmlns="http://www.w3.org/2000/svg"><title>831C2BD9-7771-4EEE-AB69-4F1B8A6B426C</title><path d="M67.935 1.204c-.697.14-1.394.42-2.09.84-1.255.699-2.231 1.818-3.067 2.798-1.673 2.098-2.788 4.057-3.904 6.016-1.951 3.778-3.206 6.996-4.042 9.094-.418 1.12-.697 1.82-.836 2.379-1.255-1.12-2.51-2.099-3.764-3.078-.976-.7-1.952-1.4-2.928-1.959-.975-.56-1.951-1.26-2.927-1.819-2.09-1.12-4.042-2.238-6.273-3.218a47.367 47.367 0 0 0-6.69-2.518c-2.231-.7-4.6-1.26-6.97-1.54-4.74-.699-9.619-.42-14.22.98-1.114.42-2.369.84-3.345 1.4l-.836.419c-.279.14-.418.28-.697.42-.558.42-.976.7-1.533 1.259-.976.84-1.812 1.819-2.37 3.078-.697 1.12-1.115 2.379-1.255 3.778C.05 20.932.05 22.19.468 23.45c.278 1.26.836 2.519 1.393 3.638 1.255 2.239 2.927 4.058 4.74 5.597 3.763 3.078 8.085 5.177 12.545 6.576 2.23.7 4.461 1.259 6.691 1.539.28 0 .558.14.837.14v.14c0 .56-.14 1.539-.14 2.658 0 1.12 0 2.658.28 4.337.278 1.68.557 3.638 1.254 5.597.697 2.099 1.672 4.337 3.066 6.436 1.394 2.239 3.207 4.337 5.576 6.296 2.23 1.959 5.019 3.498 8.085 4.757 3.067 1.12 6.691 1.68 10.316.98a8.387 8.387 0 0 0 2.648-.84c.837-.42 1.812-.84 2.51-1.259 1.672-1.12 3.066-2.379 4.32-4.058l.837-1.259c.279-.42.558-.84.697-1.259.279-.42.418-.98.697-1.4l.14-.14v-.279l.139-.42c.14-.28.14-.42.279-.7.697-1.958 1.115-4.057 1.254-6.295.279-4.338-.418-8.815-1.951-13.013-.14-.56-.419-1.119-.558-1.539l-.14-.7v-.279l-.139-.14-.418-.7a31.611 31.611 0 0 0-1.533-3.078c-.697-1.259-1.394-2.518-2.23-3.777 1.812-1.26 3.484-2.659 5.157-4.058 1.533-1.26 2.788-2.658 4.182-4.057.279-.42.697-.7.976-1.12.279-.42.557-.7.976-1.119.557-.7 1.115-1.54 1.672-2.239.976-1.539 1.812-3.358 2.091-5.176.418-1.82.418-3.638.14-5.457l-.419-1.26c0-.14-.139-.28-.139-.28s0-.14-.14-.14l-.139-.14-.279-.559c-.418-.7-.836-1.399-1.394-2.098-1.115-1.26-2.509-2.1-4.042-2.379-.418 0-.697-.14-1.115-.14-.418.28-.837.28-1.255.42M54.971 22.75c.28-.56.697-1.26 1.115-2.379.976-2.099 2.51-5.037 4.74-8.535 1.115-1.679 2.51-3.637 4.042-5.176.419-.42.837-.7 1.255-1.12l1.255-.84c.836-.419 1.394-.419 2.23-.14.697.28 1.255.7 1.812 1.54.279.42.558.84.697 1.26l.279.559v.28c0 .14.14.42.14.7.139 1.118 0 2.238-.419 3.357a13.237 13.237 0 0 1-1.812 3.358l-.279.42-.418.42c-.14.14-.279.28-.279.42l-.14.14-.139.14-.139.139-.279.28-.14.14-.139.14-.418.42-.836.839c-1.255 1.26-2.51 2.378-4.043 3.358-1.672 1.26-3.345 2.518-5.157 3.638-.976-1.26-2.091-2.239-3.206-3.358.139.14.278.14.278 0M32.39 33.944c-1.812-.14-3.764-.28-5.715-.56l-.697-.14h-.418l-.419-.14-.836-.14-.697-.14c-.976-.28-1.812-.56-2.788-.839-1.812-.56-3.624-1.399-5.297-2.239-1.673-.839-3.206-1.958-4.46-3.078-1.255-1.119-2.37-2.378-2.928-3.498-.279-.56-.418-1.119-.558-1.539-.139-.42-.139-.7 0-.979 0-.7 1.255-2.518 4.74-3.498 1.673-.56 3.485-.84 5.297-.98 1.812-.14 3.764 0 5.715.28 1.952.28 3.903.7 5.855 1.26 1.951.56 3.903 1.259 5.855 2.099l1.394.56 1.394.699.696.42.697.42 1.394.699c.558.28.976.56 1.534.84l1.394.839c.836.42 1.673.98 2.509 1.539a30.111 30.111 0 0 1 4.6 3.778c.279.28.558.42.836.7-5.575 2.518-11.57 4.057-17.703 4.057-.558-.42-.976-.42-1.394-.42m0 7.415c4.46 0 8.921-.7 12.964-1.958a52.3 52.3 0 0 0 10.315-4.478c.837 1.12 1.534 2.239 2.23 3.358.419.84.976 1.68 1.395 2.659l.418.84.14.14v-.28.14l.139.279c.139.42.418.84.557 1.26 1.394 3.357 2.091 6.855 1.952 10.213a16.03 16.03 0 0 1-.697 4.617v.56l-.279.42v.14c0-.14 0 0 0 0v.14c-.14.42-.279.699-.418 1.119-.14.42-.418.7-.418.98-.14.279-.419.699-.558.979-1.533 2.378-3.624 3.917-6.133 4.617-2.51.7-5.298.56-7.946-.14-.418-.14-.697-.14-.976-.28s-.697-.28-.976-.28l-.418-.14h-.279l-.278-.14-.28-.14h-.278l-.418-.28c-1.255-.56-2.37-1.259-3.485-1.958-2.091-1.4-3.903-3.218-5.437-5.037-1.533-1.819-2.509-3.778-3.345-5.597-1.673-3.638-2.23-6.995-2.37-9.234-.14-1.12-.14-1.959-.14-2.519v-.14c1.674 0 3.346.14 5.019.14" fill-rule="nonzero" fill="#4695F6"/></svg>