<?xml version="1.0" encoding="UTF-8" standalone="no"?>
<svg width="310px" height="73px" viewBox="0 0 310 73" version="1.1" xmlns="http://www.w3.org/2000/svg" xmlns:xlink="http://www.w3.org/1999/xlink">
    <!-- Generator: Sketch 42 (36781) - http://www.bohemiancoding.com/sketch -->
    <title>admin_outer_logo</title>
    <desc>Created with Sketch.</desc>
    <defs></defs>
    <g id="Page-1" stroke="none" stroke-width="1" fill="none" fill-rule="evenodd">
        <g id="admin_outer_logo">
            <g id="Group-5" transform="translate(10.000000, 6.000000)">
                <g id="Group-4" transform="translate(70.476331, 7.664835)" fill="#6D6D6D">
                    <path d="M21.802912,38.9613005 C20.0685895,39.8068713 18.5820273,40.2621787 17.3432255,40.2621787 C15.2992025,40.3272226 14.1223407,39.1564323 14.1223407,36.2294564 L14.1223407,21.789709 L23.165594,21.789709 L23.165594,14.8300109 L14.1223407,14.8300109 L14.1223407,5.20351259 L4.64550683,5.20351259 L4.64550683,14.8300109 L0,14.8300109 L0,21.7246651 L4.64550683,21.7246651 L4.64550683,37.920598 C4.64550683,45.1404718 9.16713347,48.7178867 15.1133822,48.7178867 C18.2103868,48.7178867 21.3073913,47.807272 23.7849949,46.3112621 L21.802912,38.9613005 Z M44.5968655,12.9437376 C33.8812298,12.9437376 26.6961792,20.0335235 26.6961792,30.7657682 C26.6961792,41.432969 33.8812298,48.6528428 44.5968655,48.6528428 C55.2505612,48.6528428 62.4356117,41.432969 62.4356117,30.7657682 C62.4356117,20.0335235 55.2505612,12.9437376 44.5968655,12.9437376 Z M44.5968655,21.2693577 C49.4901327,21.2693577 52.8968377,25.1719922 52.8968377,30.895856 C52.8968377,36.6197199 49.4901327,40.5223543 44.5968655,40.5223543 C39.6416582,40.5223543 36.2968933,36.6197199 36.2968933,30.895856 C36.2968933,25.1719922 39.6416582,21.2693577 44.5968655,21.2693577 Z M83.8049431,12.9437376 C73.0893074,12.9437376 65.9042568,20.0335235 65.9042568,30.7657682 C65.9042568,41.432969 73.0893074,48.6528428 83.8049431,48.6528428 C94.4586388,48.6528428 101.643689,41.432969 101.643689,30.7657682 C101.643689,20.0335235 94.4586388,12.9437376 83.8049431,12.9437376 Z M83.8049431,21.2693577 C88.6982103,21.2693577 92.1049153,25.1719922 92.1049153,30.895856 C92.1049153,36.6197199 88.6982103,40.5223543 83.8049431,40.5223543 C78.8497358,40.5223543 75.5049709,36.6197199 75.5049709,30.895856 C75.5049709,25.1719922 78.8497358,21.2693577 83.8049431,21.2693577 Z M122.083919,34.0179636 L130.136131,48.2625793 L141.409228,48.2625793 L128.649569,26.7980899 L140.851767,13.334001 L130.012251,13.334001 L117.810053,26.5379142 L117.810053,0 L108.271279,0 L108.271279,48.2625793 L117.810053,48.2625793 L117.810053,38.7661688 L122.083919,34.0179636 Z M165.627803,48.2625793 L174.980757,48.2625793 L174.918817,25.4321678 C174.856877,17.561855 169.715849,12.8786937 160.796476,12.8786937 C154.974108,12.8786937 150.700241,14.3096596 145.745034,16.9114159 L148.718158,23.8060701 C152.186804,21.789709 155.655449,20.7490065 158.628573,20.7490065 C163.21214,20.7490065 165.565863,22.8954554 165.565863,26.6029581 L165.565863,27.2533972 L156.39873,27.2533972 C148.222638,27.3184411 143.701011,31.2210756 143.701011,37.7905102 C143.701011,44.1648131 148.036817,48.7178867 155.159928,48.7178867 C159.805435,48.7178867 163.39796,47.091789 165.627803,44.1648131 L165.627803,48.2625793 Z M157.823352,41.5630568 C154.602467,41.5630568 152.620384,39.8068713 152.620384,37.1400711 C152.620384,34.3431831 154.416647,33.1723928 158.071112,33.1723928 L165.565863,33.1723928 L165.565863,36.2945003 C165.008402,39.2865201 161.849458,41.5630568 157.823352,41.5630568 Z M204.27842,12.8786937 C199.075452,12.9437376 195.111287,15.0251426 192.757563,19.3830844 L192.757563,13.2689571 L183.218789,13.2689571 L183.218789,48.2625793 L192.757563,48.2625793 L192.757563,31.0259438 C192.757563,25.8874752 195.606807,22.1149285 200.376194,22.0498846 C204.46424,22.0498846 206.941844,24.7817287 206.941844,29.2047144 L206.941844,48.2625793 L216.480618,48.2625793 L216.480618,26.2777386 C216.480618,18.0822063 211.711231,12.8786937 204.27842,12.8786937 Z" id="tookan"></path>
                </g>
                <g id="Tookan_final_logo-Copy">
                    <g id="Group">
                        <g transform="translate(0.010515, 0.000000)" id="Group-2">
                            <g>
                                <g id="Group-3">
                                    <path d="M7.89997248,59.4819568 L16.6697112,38.4145017 C16.6253074,38.4145017 16.5587018,38.4367718 16.5142981,38.4367718 C14.5383316,38.5258519 12.7177783,37.6127804 11.4300698,36.2097681 L2.63812926,57.2994931 C2.03867876,58.7470455 2.72693674,60.4395683 4.1700583,61.0408593 C5.61317985,61.6421503 7.30052198,60.9517792 7.89997248,59.4819568 Z" id="Shape" fill="#489AF2"></path>
                                    <path d="M16.5142981,24.2688531 C16.7807205,24.2465831 17.0249411,24.2688531 17.2913635,24.2911231 L7.89997248,1.75384566 C7.30052198,0.30629325 5.61317985,-0.384077897 4.1700583,0.217213102 C2.72693674,0.818504102 2.03867876,2.51102692 2.63812926,3.95857932 L11.8741072,26.1172662 C13.117412,25.0260344 14.7381485,24.3579332 16.5142981,24.2688531 Z" id="Shape" fill="#489AF2"></path>
                                    <path d="M54.932684,32.4179571 C55.7541532,31.0594848 55.3101158,29.3001519 53.9558017,28.4984306 L30.488425,14.290147 L29.6003502,13.7556661 C30.0665894,16.2944503 28.4902567,18.0315132 26.5364921,18.5882641 L27.57998,19.2118252 L51.002953,33.3755687 C52.3794689,34.1995601 54.1334167,33.7764294 54.932684,32.4179571 Z" id="Shape" fill="#489AF2"></path>
                                    <path d="M20.652558,14.2662165 C20.7191637,12.2173731 21.9180646,10.947981 23.4277918,10.4357701 L22.7839376,10.0571795 L6.84299482,0.414253439 C5.48868074,-0.409737931 3.734733,0.0356628095 2.93546568,1.39413507 C2.11399648,2.75260733 2.55803388,4.51194025 3.91234796,5.31366158 L20.2307225,15.179288 L20.8079711,15.5133385 C20.6747599,15.1347479 20.6303562,14.7116172 20.652558,14.2662165 Z" id="Shape" fill="#489AF2"></path>
                                    <path d="M25.6339171,41.8763989 C22.7698759,41.7873188 20.3720739,44.0588626 20.2832664,46.9316973 C20.1944589,49.8045321 22.4590497,52.2096961 25.3230909,52.2987763 C28.1871322,52.3878564 30.5849342,50.1163126 30.6737416,47.2434779 C30.7403473,44.3706431 28.4979584,41.9654791 25.6339171,41.8763989 Z M25.5895134,43.2348712 C27.698691,43.3016813 29.3638313,45.0610142 29.2972257,47.1989378 C29.2306201,49.3145913 27.4766723,50.9848441 25.3452928,50.918034 C23.2361152,50.8512239 21.5709749,49.0918909 21.6375805,46.9539674 C21.7041861,44.8383139 23.4803357,43.1680611 25.5895134,43.2348712 Z" id="Shape" fill="#489AF2"></path>
                                    <path d="M55.0779869,29.5187741 C55.8772543,30.8772463 55.4332169,32.6365792 54.1011046,33.4383006 L29.6790475,48.0474449 C30.1452868,45.5086606 28.568954,43.7715978 26.6373913,43.2148468 L51.1704578,28.5166224 C52.5247719,27.7149011 54.2787196,28.1603018 55.0779869,29.5187741 Z" id="Shape" fill="#489AF2"></path>
                                    <path d="M20.7534573,47.3690613 C20.8200629,49.4179047 22.0189638,50.6872968 23.528691,51.1995076 L6.94389403,61.2432943 C5.58957995,62.0672857 3.83563221,61.621885 3.03636489,60.2634127 C2.21489569,58.9049405 2.65893309,57.1456075 4.01324717,56.3438862 L20.8866685,46.1219392 C20.7756591,46.5227999 20.7312554,46.9236605 20.7534573,47.3690613 Z" id="Shape" fill="#489AF2"></path>
                                    <path d="M17.0732883,23.1657748 C12.5663086,23.0321545 8.81419258,26.5730904 8.68098136,31.0939079 C8.54777013,35.6147255 12.0778675,39.3783617 16.5848471,39.5119819 C21.0918268,39.6456022 24.8439428,36.1046663 24.977154,31.5838488 C25.1103653,27.0630312 21.5802679,23.299395 17.0732883,23.1657748 Z M17.0066827,25.3036983 C20.3369632,25.3927785 22.934582,28.1765331 22.8457745,31.5170386 C22.756967,34.8575442 19.9817333,37.4631385 16.6514527,37.3740584 C13.3211722,37.2849782 10.7235534,34.5012236 10.8123609,31.160718 C10.9233702,27.8202125 13.698604,25.1923481 17.0066827,25.3036983 Z" id="Shape" fill="#489AF2"></path>
                                    <ellipse id="Oval" fill="#489AF2" cx="16.8951783" cy="31.3009562" rx="3.37468426" ry="3.38504563"></ellipse>
                                    <path d="M25.5330179,9.3078366 C22.6689767,9.21875646 20.2711747,11.4903002 20.1823672,14.363135 C20.0935597,17.2359698 22.3581505,19.6411338 25.2221917,19.7302139 C28.086233,19.8192941 30.484035,17.5477503 30.5728424,14.6749155 C30.6616499,11.7798107 28.3970592,9.39691675 25.5330179,9.3078366 Z M25.4886142,10.6663089 C27.5977918,10.733119 29.2629321,12.4924519 29.1963265,14.6303755 C29.1297209,16.746029 27.3757731,18.4162817 25.2443936,18.3494716 C23.1352159,18.2826615 21.4700757,16.5233286 21.5366813,14.385405 C21.6254888,12.2697515 23.3794365,10.5994988 25.4886142,10.6663089 Z" id="Shape" fill="#499DF0"></path>
                                    <g id="Group" transform="translate(0.090385, 28.118200)">
                                        <g id="Line_33_" transform="translate(24.089029, 0.000000)"></g>
                                        <g id="Line_32_" transform="translate(0.000000, 18.038730)"></g>
                                    </g>
                                </g>
                            </g>
                        </g>
                    </g>
                </g>
            </g>
        </g>
    </g>
</svg>