<svg xmlns="http://www.w3.org/2000/svg" width="24" height="29" viewBox="0 0 24 29">
    <g fill="none" fill-rule="evenodd">
        <path fill="#D0021B" d="M0 0v29l12-5.2L24 29V0z"/>
        <path fill="#FFF" d="M7.852 14.5h-.95L3.98 10.465V14.5h-.983V8.858h1.008l2.865 3.908V8.858h.983V14.5zm5.097 0h-3.84V8.858h3.84v.871h-2.856v1.455h2.797v.872h-2.797v1.573h2.856v.871zm6.407 0h-1.05l-1.084-4.17-1.092 4.17h-1.05l-1.596-5.642h1.092l1.092 4.34 1.16-4.34h.78l1.16 4.34 1.092-4.34h1.1L19.356 14.5z"/>
    </g>
</svg>
