<?xml version="1.0" encoding="UTF-8" standalone="no"?>
<svg width="91px" height="84px" viewBox="0 0 91 84" version="1.1" xmlns="http://www.w3.org/2000/svg" xmlns:xlink="http://www.w3.org/1999/xlink">
    <!-- Generator: sketchtool 42 (36781) - http://www.bohemiancoding.com/sketch -->
    <title>DB976D7A-F5BC-498E-9DAA-480BF6A1D045</title>
    <desc>Created with sketchtool.</desc>
    <defs></defs>
    <g id="Page-1" stroke="none" stroke-width="1" fill="none" fill-rule="evenodd">
        <g id="16---Add-Ons" transform="translate(-1237.000000, -197.000000)">
            <g id="Group-6-Copy-3" transform="translate(1160.000000, 161.000000)">
                <g id="number-masking" transform="translate(77.000000, 36.000000)">
                    <path d="M0,4.01582395 C0,1.79794562 1.79791147,0 4.01741909,0 L50.0196943,0 C52.2384536,0 54.0371134,1.79003493 54.0371134,4.01582395 L54.0371134,79.8302701 C54.0371134,82.0481484 52.2392019,83.8460941 50.0196943,83.8460941 L4.01741909,83.8460941 C1.79865979,83.8460941 0,82.0560591 0,79.8302701 L0,4.01582395 Z M3.00206186,10.2478559 L3.00206186,73.5982381 L51.0350515,73.5982381 L51.0350515,10.2478559 L3.00206186,10.2478559 Z" id="Combined-Shape" fill="#DDDDDD"></path>
                    <path d="M90.3745704,38.0692765 C90.3745704,46.9469254 79.010746,59.8183952 69.3709953,59.8183952 C66.9731611,59.8183952 64.6573616,59.3526435 62.5527006,58.5388167 C62.5527006,58.5388167 58.2599991,56.7947251 50.7263887,57.0263623 L49.9679039,57.0263623 L49.9679039,57.0660007 C42.4341589,56.8331249 38.0984228,58.5772164 38.0984228,58.5772164 C35.9951067,59.3909193 33.7223418,59.8567949 31.2801282,59.8567949 C21.6834121,59.8182713 10.3195876,46.985449 10.3195876,38.1076763 C10.3195876,29.2299036 21.6834121,27.6406497 31.3231628,27.6406497 C33.9738253,27.6406497 38.0150433,23.6086767 40.2878082,24.6169797 C40.2878082,24.6169797 44.3290262,29.9669309 49.8845243,30.2766062 L50.8097682,30.2766062 C56.3664767,29.9669309 60.4063499,24.6169797 60.4063499,24.6169797 C62.6791148,23.6470765 66.6772982,27.6406497 69.3709953,27.6406497 C79.010746,27.6407736 90.3745704,29.1916277 90.3745704,38.0692765 L90.3745704,38.0692765 Z M72.2758309,43.7289031 C72.2758309,41.4422604 69.2028914,39.5804922 65.9633273,39.5804922 C62.7221494,39.5804922 59.6493443,41.4422604 59.6493443,43.7289031 C59.6493443,46.0167845 62.7222839,47.877314 65.9633273,47.877314 C69.2028914,47.8774378 72.2758309,46.0167845 72.2758309,43.7289031 L72.2758309,43.7289031 Z M40.2878082,43.7289031 C40.2878082,41.4422604 37.2148687,39.5804922 33.9738253,39.5804922 C30.7327818,39.5804922 27.6611872,41.4422604 27.6611872,43.7289031 C27.6611872,46.0167845 30.7327818,47.877314 33.9738253,47.877314 C37.2148687,47.877314 40.2878082,46.0167845 40.2878082,43.7289031 L40.2878082,43.7289031 Z" id="Shape" fill="#4695F6"></path>
                </g>
            </g>
        </g>
    </g>
</svg>