<svg xmlns="http://www.w3.org/2000/svg" xmlns:xlink="http://www.w3.org/1999/xlink" width="36" height="36" viewBox="0 0 36 36">
    <defs>
        <path id="a" d="M18.15 15.825c-.9-2.175.15-4.65 2.288-5.55 2.175-.9 4.65.15 5.55 2.287.9 2.176-.15 4.65-2.288 5.55-2.137.9-4.65-.15-5.55-2.287zm.375 6.788a3.07 3.07 0 0 1 2.588 3.037c1.05.075 2.137.038 3.187-.188l.825 1.988c.188.488.75.713 1.238.525l2.4-.975c.487-.188.712-.75.524-1.238l-.825-1.987a11.72 11.72 0 0 0 3.188-3.188l1.988.826c.487.187 1.05-.038 1.237-.526l.975-2.4c.188-.487-.038-1.05-.525-1.237l-1.95-.825c.3-1.463.3-3 0-4.5l1.987-.825c.488-.188.713-.75.526-1.237l-1.013-2.4c-.188-.488-.75-.713-1.237-.526l-1.988.825a11.72 11.72 0 0 0-3.188-3.187l.826-1.95c.187-.487-.038-1.05-.526-1.238l-2.4-.975c-.487-.187-1.05.038-1.237.526L24.3 2.925c-1.463-.3-3-.3-4.5 0L18.975.938c-.188-.488-.75-.713-1.238-.525l-2.362.974c-.488.188-.713.75-.525 1.238l.825 1.987A11.72 11.72 0 0 0 12.487 7.8L10.5 6.975c-.488-.188-1.05.038-1.238.525l-.975 2.4c-.187.487.038 1.05.525 1.237l1.988.825c-.188.863-.263 1.8-.225 2.7 1.35.188 2.438 1.238 2.625 2.588.038 0 .038.038.075.038a3.14 3.14 0 0 1 1.8-.6c.263 0 .563.037.788.112v-.038c-1.425-3.412.224-7.35 3.6-8.737 3.412-1.425 7.35.225 8.737 3.637 1.425 3.413-.225 7.35-3.637 8.738-1.875.788-3.9.638-5.588-.225a3.094 3.094 0 0 1-.563 2.4c.113 0 .113 0 .113.038z"/>
    </defs>
    <g fill="none" fill-rule="evenodd">
        <g>
            <use fill="#CECFD4" xlink:href="#a"/>
            <path stroke="#A7A7A7" d="M18.612 15.634l-.001-.003c.796 1.89 3.02 2.81 4.895 2.02 1.897-.798 2.809-2.99 2.02-4.894-.798-1.898-2.99-2.81-4.894-2.021a3.764 3.764 0 0 0-2.02 4.898zm-2.84 1.166h-.41v-.038h.5l-.09.038zm3.41 5.459a3.576 3.576 0 0 1 2.4 2.916c.924.037 1.8-.027 2.613-.201l.407-.088.16.385.83 2c.084.219.35.33.582.24l2.409-.978a.452.452 0 0 0 .243-.579l-.982-2.364.338-.23a11.22 11.22 0 0 0 3.052-3.05l.228-.342.38.158 1.975.82a.456.456 0 0 0 .595-.247l.971-2.391a.458.458 0 0 0-.253-.598l-2.327-.984.082-.401a10.862 10.862 0 0 0 0-4.302l-.08-.402.378-.158 2-.83a.451.451 0 0 0 .244-.576l-1.019-2.415a.452.452 0 0 0-.579-.243l-2.364.982-.23-.338a11.22 11.22 0 0 0-3.05-3.052l-.344-.23.161-.38.819-1.935a.456.456 0 0 0-.247-.595L26.183.879a.457.457 0 0 0-.596.25l-.983 2.369-.404-.083a10.862 10.862 0 0 0-4.302 0l-.402.08-.158-.378-.83-2c-.084-.22-.35-.33-.58-.242l-2.374.98a.452.452 0 0 0-.242.578l.981 2.365-.338.229a11.22 11.22 0 0 0-3.051 3.05l-.229.342-.38-.157-1.974-.82a.456.456 0 0 0-.595.246l-.972 2.391a.457.457 0 0 0 .25.597l2.373.985-.088.408c-.15.69-.226 1.44-.223 2.183a3.573 3.573 0 0 1 2.48 2.296 3.536 3.536 0 0 1 1.585-.36c-1.005-3.464.75-7.231 4.139-8.624 3.665-1.53 7.9.236 9.391 3.906 1.53 3.665-.236 7.9-3.905 9.391a7.076 7.076 0 0 1-5.238.099 3.584 3.584 0 0 1-.337 1.299zm-5.938-5.015l-.044-.061v-.433c.122 0 .211.03.287.079a.553.553 0 0 0-.212-.041v.452l-.031.004-.044-.061v-.433zm5.78 5.312a3.685 3.685 0 0 1-.034.056h-.465l.076-.494c.059.01.117.02.175.032.183.094.238.237.248.406a3.685 3.685 0 0 1-.034.056z"/>
        </g>
        <path fill="#A7A7A7" d="M13.613 32.55a6.73 6.73 0 0 1-2.7 1.088v1.237c0 .45-.376.788-.788.788h-1.35a.792.792 0 0 1-.788-.788v-1.237a7.396 7.396 0 0 1-2.7-1.125l-.9.862c-.3.3-.824.3-1.124 0l-.938-.938c-.3-.3-.3-.824 0-1.124l.862-.863a6.73 6.73 0 0 1-1.087-2.7H.862a.792.792 0 0 1-.787-.788v-1.35c0-.45.375-.787.788-.787H2.1a7.396 7.396 0 0 1 1.125-2.7l-.863-.863c-.3-.3-.3-.825 0-1.125L3.3 19.2c.3-.3.825-.3 1.125 0l.862.863a6.73 6.73 0 0 1 2.7-1.088v-1.238c0-.45.376-.787.788-.787h1.35c.45 0 .787.375.787.788v1.237a7.396 7.396 0 0 1 2.7 1.125l.863-.863c.3-.3.825-.3 1.125 0l.938.938c.3.3.3.825 0 1.125l-.788.825a6.73 6.73 0 0 1 1.087 2.7h1.238c.45 0 .788.375.788.788v1.35c0 .45-.375.787-.788.787h-1.238a7.396 7.396 0 0 1-1.124 2.7l.862.863c.3.3.3.825 0 1.125l-.938.937c-.3.3-.825.3-1.125 0l-.9-.825zM12 23.738a3.599 3.599 0 0 0-5.063-.038 3.599 3.599 0 0 0-.037 5.063c1.387 1.424 3.637 1.424 5.063.037 1.425-1.387 1.425-3.637.037-5.063z"/>
    </g>
</svg>
