<?xml version="1.0" encoding="UTF-8" standalone="no"?>
<svg width="100px" height="100px" viewBox="0 0 100 100" version="1.1" xmlns="http://www.w3.org/2000/svg" xmlns:xlink="http://www.w3.org/1999/xlink">
    <!-- Generator: Sketch 3.8.3 (29802) - http://www.bohemiancoding.com/sketch -->
    <title>pos</title>
    <desc>Created with Sketch.</desc>
    <defs>
        <linearGradient x1="50%" y1="0%" x2="50%" y2="100%" id="linearGradient-1">
            <stop stop-color="#3AC2ED" offset="0%"></stop>
            <stop stop-color="#1583A7" offset="100%"></stop>
        </linearGradient>
    </defs>
    <g id="Page-1" stroke="none" stroke-width="1" fill="none" fill-rule="evenodd">
        <g id="pos">
            <g id="pos_integrations-copy" transform="translate(3.000000, 3.000000)">
                <path d="M47.3916667,41.3208333 C45.0416667,35.6416667 47.7833333,29.1791667 53.3645833,26.8291667 C59.04375,24.4791667 65.50625,27.2208333 67.85625,32.8020833 C70.20625,38.48125 67.4645833,44.94375 61.8833333,47.29375 C56.3020833,49.64375 49.7416667,46.9020833 47.3916667,41.3208333 L47.3916667,41.3208333 Z M48.3708333,59.04375 C52.1895833,59.63125 55.1270833,62.9604167 55.1270833,66.975 C57.86875,67.1708333 60.7083333,67.0729167 63.45,66.4854167 L65.6041667,71.675 C66.09375,72.9479167 67.5625,73.5354167 68.8354167,73.0458333 L75.1020833,70.5 C76.375,70.0104167 76.9625,68.5416667 76.4729167,67.26875 L74.31875,62.0791667 C77.6479167,59.8270833 80.4875,56.9875 82.6416667,53.75625 L87.83125,55.9104167 C89.1041667,56.4 90.5729167,55.8125 91.0625,54.5395833 L93.6083333,48.2729167 C94.0979167,47 93.5104167,45.53125 92.2375,45.0416667 L87.1458333,42.8875 C87.9291667,39.06875 87.9291667,35.0541667 87.1458333,31.1375 L92.3354167,28.9833333 C93.6083333,28.49375 94.1958333,27.025 93.70625,25.7520833 L91.0625,19.4854167 C90.5729167,18.2125 89.1041667,17.625 87.83125,18.1145833 L82.6416667,20.26875 C80.3895833,16.9395833 77.55,14.1 74.31875,11.9458333 L76.4729167,6.85416667 C76.9625,5.58125 76.375,4.1125 75.1020833,3.62291667 L68.8354167,1.07708333 C67.5625,0.5875 66.09375,1.175 65.6041667,2.44791667 L63.45,7.6375 C59.63125,6.85416667 55.6166667,6.85416667 51.7,7.6375 L49.5458333,2.44791667 C49.05625,1.175 47.5875,0.5875 46.3145833,1.07708333 L40.1458333,3.62291667 C38.8729167,4.1125 38.2854167,5.58125 38.775,6.85416667 L40.9291667,12.04375 C37.6,14.2958333 34.7604167,17.1354167 32.60625,20.3666667 L27.4166667,18.2125 C26.14375,17.7229167 24.675,18.3104167 24.1854167,19.5833333 L21.6395833,25.85 C21.15,27.1229167 21.7375,28.5916667 23.0104167,29.08125 L28.2,31.2354167 C27.7104167,33.4875 27.5145833,35.9354167 27.6125,38.2854167 C31.1375,38.775 33.9770833,41.5166667 34.4666667,45.0416667 C34.5645833,45.0416667 34.5645833,45.1395833 34.6625,45.1395833 C36.0333333,44.1604167 37.6979167,43.5729167 39.3625,43.5729167 C40.0479167,43.5729167 40.83125,43.6708333 41.41875,43.8666667 L41.41875,43.76875 C37.6979167,34.8583333 42.00625,24.5770833 50.81875,20.9541667 C59.7291667,17.2333333 70.0104167,21.5416667 73.6333333,30.4520833 C77.3541667,39.3625 73.0458333,49.64375 64.1354167,53.2666667 C59.2395833,55.3229167 53.9520833,54.93125 49.5458333,52.6791667 C49.9375,54.8333333 49.4479167,57.0854167 48.0770833,58.9458333 C48.3708333,58.9458333 48.3708333,58.9458333 48.3708333,59.04375 L48.3708333,59.04375 Z" id="Shape" fill="url(#linearGradient-1)"></path>
                <path d="M35.54375,84.9916667 C33.3895833,86.4604167 30.9416667,87.4395833 28.49375,87.83125 L28.49375,91.0625 C28.49375,92.2375 27.5145833,93.11875 26.4375,93.11875 L22.9125,93.11875 C21.7375,93.11875 20.85625,92.1395833 20.85625,91.0625 L20.85625,87.83125 C18.4083333,87.3416667 15.9604167,86.3625 13.80625,84.89375 L11.45625,87.1458333 C10.6729167,87.9291667 9.30208333,87.9291667 8.51875,87.1458333 L6.07083333,84.6979167 C5.2875,83.9145833 5.2875,82.54375 6.07083333,81.7604167 L8.32291667,79.5083333 C6.85416667,77.3541667 5.875,74.90625 5.48333333,72.4583333 L2.25208333,72.4583333 C1.07708333,72.4583333 0.195833333,71.4791667 0.195833333,70.4020833 L0.195833333,66.8770833 C0.195833333,65.7020833 1.175,64.8208333 2.25208333,64.8208333 L5.48333333,64.8208333 C5.97291667,62.3729167 6.95208333,59.925 8.42083333,57.7708333 L6.16875,55.51875 C5.38541667,54.7354167 5.38541667,53.3645833 6.16875,52.58125 L8.61666667,50.1333333 C9.4,49.35 10.7708333,49.35 11.5541667,50.1333333 L13.80625,52.3854167 C15.9604167,50.9166667 18.4083333,49.9375 20.85625,49.5458333 L20.85625,46.3145833 C20.85625,45.1395833 21.8354167,44.2583333 22.9125,44.2583333 L26.4375,44.2583333 C27.6125,44.2583333 28.49375,45.2375 28.49375,46.3145833 L28.49375,49.5458333 C30.9416667,50.0354167 33.3895833,51.0145833 35.54375,52.4833333 L37.7958333,50.23125 C38.5791667,49.4479167 39.95,49.4479167 40.7333333,50.23125 L43.18125,52.6791667 C43.9645833,53.4625 43.9645833,54.8333333 43.18125,55.6166667 L41.125,57.7708333 C42.59375,59.925 43.5729167,62.3729167 43.9645833,64.8208333 L47.1958333,64.8208333 C48.3708333,64.8208333 49.2520833,65.8 49.2520833,66.8770833 L49.2520833,70.4020833 C49.2520833,71.5770833 48.2729167,72.4583333 47.1958333,72.4583333 L43.9645833,72.4583333 C43.475,74.90625 42.4958333,77.3541667 41.0270833,79.5083333 L43.2791667,81.7604167 C44.0625,82.54375 44.0625,83.9145833 43.2791667,84.6979167 L40.83125,87.1458333 C40.0479167,87.9291667 38.6770833,87.9291667 37.89375,87.1458333 L35.54375,84.9916667 Z M31.3333333,61.98125 C27.7104167,58.3583333 21.8354167,58.2604167 18.1145833,61.8833333 C14.4916667,65.50625 14.39375,71.38125 18.0166667,75.1020833 C21.6395833,78.8229167 27.5145833,78.8229167 31.2354167,75.2 C34.95625,71.5770833 34.95625,65.7020833 31.3333333,61.98125 Z" id="Combined-Shape" fill="#DDDDDD"></path>
            </g>
        </g>
    </g>
</svg>