<?xml version="1.0" encoding="UTF-8" standalone="no"?>
<svg width="300px" height="300px" viewBox="0 0 300 300" version="1.1" xmlns="http://www.w3.org/2000/svg" xmlns:xlink="http://www.w3.org/1999/xlink">
    <!-- Generator: Sketch 43.2 (39069) - http://www.bohemiancoding.com/sketch -->
    <title>scooter-grey</title>
    <desc>Created with Sketch.</desc>
    <defs></defs>
    <g id="Page-1" stroke="none" stroke-width="1" fill="none" fill-rule="evenodd" opacity="0.200000003">
        <g id="scooter-grey" fill-rule="nonzero" fill="#000000">
            <g id="motorbiking-(1)" transform="translate(74.000000, 98.000000)">
                <path d="M14.9702344,90.9102093 C16.938543,98.3081163 23.5474473,103.763884 31.3790977,103.763884 C39.2113379,103.763884 45.8199473,98.307814 47.7885508,90.9102093 L14.9702344,90.9102093 Z" id="Shape"></path>
                <path d="M111.64415,90.9102093 C113.612459,98.3081163 120.221068,103.763884 128.053014,103.763884 C135.884959,103.763884 142.493568,98.307814 144.461877,90.9102093 L111.64415,90.9102093 Z" id="Shape"></path>
                <path d="M139.29927,47.515907 L120.004301,33.5013023 L120.024945,21.7910233 C120.93301,22.4906047 122.057842,22.9105349 123.281473,22.9105349 C126.280828,22.9105349 128.712459,20.4178605 128.712459,17.3432093 L128.712459,5.80344186 C128.712459,2.7287907 126.280828,0.236116279 123.281473,0.236116279 C121.676803,0.236116279 120.239354,0.953837209 119.245172,2.08816279 C118.190826,1.28639535 116.889631,0.806604651 115.47607,0.806604651 C112.473766,0.806604651 109.715656,1.79762791 107.477789,3.46616279 L86.0405078,10.0375116 C83.1667891,10.918186 81.5343965,14.0203488 82.3935039,16.9662093 C83.0974824,19.3802791 85.2563105,20.9399767 87.5944512,20.9399767 C88.1096797,20.9399767 88.6334609,20.8643953 89.1528184,20.7050698 L101.911434,16.794186 L101.675496,43.368 L98.2116387,53.4780698 C93.567209,64.883907 82.691375,72.3111395 70.6343789,72.3114419 L61.8678262,72.3114419 C59.8883105,63.4227674 61.4337012,53.9711628 66.3556523,46.1521163 L17.7590156,46.1521163 C7.36685352,50.3072791 0,60.6610233 0,72.7848837 L0,80.6577442 C0,82.7002558 1.1351543,84.4676512 2.79232031,85.3428837 L99.648793,85.3428837 L99.648793,85.3428837 C101.021359,70.513814 113.234074,58.8733721 128.053014,58.8733721 C133.72967,58.8733721 139.020273,60.5884651 143.470055,63.5294884 L143.616336,63.4345581 C146.039709,57.7499302 144.237146,51.1023953 139.29927,47.515907 Z" id="Shape"></path>
                <path d="M67.678082,30.8278372 L34.1083047,30.8278372 C31.1089492,30.8278372 28.6773184,33.3205116 28.6773184,36.3951628 C28.6773184,38.0676279 29.4004668,39.5635349 30.5391602,40.5844884 L71.2469316,40.5844884 C72.3859199,39.5641395 73.1090684,38.0676279 73.1090684,36.3951628 C73.1090684,33.3205116 70.6774375,30.8278372 67.678082,30.8278372 Z" id="Shape"></path>
                <path d="M128.053014,64.4406977 C116.23107,64.4406977 106.45382,73.5890698 105.106027,85.3428837 L151,85.3428837 C149.651912,73.5893721 139.874957,64.4406977 128.053014,64.4406977 Z" id="Shape"></path>
            </g>
        </g>
    </g>
</svg>