<svg xmlns="http://www.w3.org/2000/svg" width="30" height="29" viewBox="0 0 30 29">
    <g fill="none" fill-rule="nonzero" stroke-width=".757">
        <path fill="#FF7C63" stroke="#FF7C63" d="M1.76 23.614a2.553 2.553 0 0 0 0 3.634c.506.502 1.17.752 1.834.752.663 0 1.327-.25 1.834-.752l8.513-8.44-3.668-3.633-8.513 8.439z"/>
        <path fill="#D3DBE4" stroke="#D3DBE4" d="M22.789 8.156l3.58-1.834 1.874-3.59L26.496 1l-3.622 1.859-1.855 3.544-4.354 4.32 1.766 1.752z"/>
        <path fill="#5C5F6E" stroke="#3A5469" d="M24.234 17.909l-.344-.034c-.623 0-1.214.127-1.766.329L11.641 7.812a4.982 4.982 0 0 0 .332-1.75l-.034-.34A5.074 5.074 0 0 0 6.865 1c-.787 0-1.524.19-2.19.506L8.07 4.87c.178.178.301.387.383.608a1.674 1.674 0 0 1-.383 1.779c-.332.329-.768.494-1.204.494-.201 0-.4-.044-.591-.115a1.696 1.696 0 0 1-.613-.381L2.268 3.892c-.319.66-.511 1.39-.511 2.17 0 2.68 2.106 4.85 4.764 5.03l.344.033c.623 0 1.214-.127 1.766-.327l10.481 10.39a5.058 5.058 0 0 0-.328 1.75l.036.34a5.069 5.069 0 0 0 7.262 4.216l-3.394-3.363a1.72 1.72 0 0 1-.386-.606 1.671 1.671 0 0 1 .386-1.78 1.7 1.7 0 0 1 1.204-.495c.2 0 .398.042.592.115.223.083.436.2.612.38l3.393 3.363c.32-.662.511-1.39.511-2.17-.002-2.68-2.108-4.85-4.766-5.03z" opacity=".3"/>
    </g>
</svg>
