<svg xmlns="http://www.w3.org/2000/svg" xmlns:xlink="http://www.w3.org/1999/xlink" width="36" height="36" viewBox="0 0 36 36">
    <defs>
        <path id="a" d="M1.59 0h18.198c.878 0 1.59.712 1.59 1.59v29.76a1.59 1.59 0 0 1-1.59 1.59H1.59A1.59 1.59 0 0 1 0 31.35V1.59C0 .712.712 0 1.59 0zm-.402 4.026v24.888H20.19V4.026H1.188z"/>
    </defs>
    <g fill="none" fill-rule="evenodd">
        <g transform="translate(0 3)">
            <path fill="#DDD" d="M0 2h21v29H0z"/>
            <use fill="#CBCBCB" xlink:href="#a"/>
            <path stroke="#A7A7A7" d="M1.59.5A1.09 1.09 0 0 0 .5 1.59v29.76c0 .602.488 1.09 1.09 1.09h18.198a1.09 1.09 0 0 0 1.09-1.09V1.59A1.09 1.09 0 0 0 19.787.5H1.59zM.688 3.526H20.69v25.888H.688V3.526z"/>
            <circle cx="11" cy="31" r="1" fill="#A7A7A7"/>
        </g>
        <g fill-rule="nonzero" transform="translate(13)">
            <ellipse cx="17.322" cy="4.551" fill="#E6B629" rx="4.435" ry="4.513"/>
            <ellipse cx="17.322" cy="4.551" fill="#FFD24D" rx="3.612" ry="3.676"/>
            <path fill="#E6B629" d="M17.187 7.131v-.454a2.635 2.635 0 0 1-1.505-.678l.447-.542c.342.303.695.483 1.058.542V4.79c-.46-.112-.798-.26-1.013-.442-.214-.183-.32-.454-.32-.813 0-.359.122-.652.37-.88.246-.23.567-.354.963-.374V1.97h.392v.318a2.53 2.53 0 0 1 1.272.467l-.398.573a1.954 1.954 0 0 0-.874-.362v1.17h.018c.469.113.814.265 1.034.455.22.191.33.469.33.832s-.126.659-.38.887c-.252.228-.586.353-1.002.373v.449h-.392zm-.431-4.018a.449.449 0 0 0-.156.348c0 .14.04.25.122.33.081.081.237.16.465.234V2.948a.726.726 0 0 0-.431.165zm1.288 2.73a.45.45 0 0 0 .17-.361.454.454 0 0 0-.134-.346c-.09-.085-.257-.165-.501-.24v1.12a.847.847 0 0 0 .465-.173z"/>
            <ellipse cx="17.322" cy="30.222" fill="#E6B629" rx="5.644" ry="5.743"/>
            <ellipse cx="17.322" cy="30.222" fill="#FFD24D" rx="4.596" ry="4.676"/>
            <path fill="#E6B629" d="M17.15 33.505v-.578c-.71-.074-1.35-.362-1.914-.863l.568-.69c.436.386.884.616 1.347.69v-1.537c-.587-.143-1.017-.33-1.289-.562-.272-.233-.409-.577-.409-1.034 0-.457.157-.83.471-1.121.314-.29.723-.449 1.227-.475v-.396h.498v.403c.57.043 1.11.24 1.619.595l-.506.729a2.486 2.486 0 0 0-1.113-.46v1.489h.023c.597.143 1.035.335 1.315.578.28.243.42.596.42 1.058 0 .462-.16.838-.482 1.128-.322.291-.747.45-1.276.476v.57h-.498zm-.549-5.113a.57.57 0 0 0-.198.444c0 .177.052.317.156.42.103.103.3.202.592.297v-1.37c-.234.02-.417.09-.55.21zm1.64 3.474a.574.574 0 0 0 .217-.46.578.578 0 0 0-.17-.44c-.116-.108-.328-.21-.64-.304v1.425c.25-.026.446-.1.592-.221z"/>
            <ellipse cx="8.369" cy="15.714" fill="#E6B629" rx="8.299" ry="8.445"/>
            <ellipse cx="8.369" cy="15.714" fill="#FFD24D" rx="6.758" ry="6.877"/>
            <path fill="#E6B629" d="M8.118 20.543v-.85c-1.046-.11-1.985-.533-2.817-1.27l.836-1.014c.641.567 1.3.905 1.981 1.014v-2.26c-.863-.21-1.494-.486-1.895-.828-.4-.341-.601-.848-.601-1.52s.23-1.221.692-1.649c.462-.427 1.063-.66 1.804-.698v-.583h.732v.594c.84.063 1.634.354 2.382.874l-.745 1.072a3.658 3.658 0 0 0-1.637-.676v2.19h.035c.877.21 1.522.493 1.934.85.413.358.619.876.619 1.556s-.237 1.233-.71 1.66c-.474.427-1.099.66-1.878.699v.839h-.732zm-.808-7.52a.84.84 0 0 0-.291.652c0 .26.076.466.229.617.152.152.442.298.87.438v-2.016c-.344.031-.613.134-.808.309zm2.41 5.108a.843.843 0 0 0 .321-.675c0-.272-.084-.488-.251-.647-.17-.16-.482-.308-.94-.448v2.096c.366-.038.656-.147.87-.326z"/>
        </g>
    </g>
</svg>
