<?xml version="1.0" encoding="UTF-8" standalone="no"?>
<svg width="100px" height="100px" viewBox="0 0 100 100" version="1.1" xmlns="http://www.w3.org/2000/svg" xmlns:xlink="http://www.w3.org/1999/xlink">
    <!-- Generator: Sketch 41.2 (35397) - http://www.bohemiancoding.com/sketch -->
    <title>tookan_client</title>
    <desc>Created with Sketch.</desc>
    <defs>
        <linearGradient x1="50%" y1="0%" x2="50%" y2="100%" id="linearGradient-1">
            <stop stop-color="#4695f6" offset="0%"></stop>
            <stop stop-color="#1684A7" offset="100%"></stop>
        </linearGradient>
    </defs>
    <g id="New_Features" stroke="none" stroke-width="1" fill="none" fill-rule="evenodd">
        <g id="tookan_client">
            <g id="Group" transform="translate(2.000000, 8.000000)">
                <path d="M30.4505319,26.2877888 C26.4093499,16.5524722 31.1240622,5.4743533 40.7218693,1.44594642 C50.4880591,-2.58246046 61.6013094,2.11734757 65.6424914,11.6848139 C69.6836733,21.4201305 64.9689611,32.4982494 55.3711539,36.5266563 C45.7733468,40.5550632 34.4917138,35.8552552 30.4505319,26.2877888 L30.4505319,26.2877888 Z" id="Path" fill="url(#linearGradient-1)"></path>
                <g id="Group-2" transform="translate(36.000000, 43.000000)">
                    <path d="M11.6336444,41.2054795 C18.0587288,41.2054795 23.2672889,36.0107559 23.2672889,29.6027397 C23.2672889,23.1947235 18.0587288,18 11.6336444,18 C5.20856003,18 0,23.1947235 0,29.6027397 C0,36.0107559 5.20856003,41.2054795 11.6336444,41.2054795 Z" id="Oval-Copy" fill="#DDDDDD"></path>
                    <path d="M16.1431308,2.17586831 C16.0259501,2.05859034 15.8870453,2 15.7265784,2 L11.5793093,2 C11.4188749,2 11.2801322,2.05859034 11.162757,2.17586831 C11.0455763,2.29308142 10.9869859,2.43195383 10.9869859,2.59242069 C10.9869859,2.75288755 11.0455763,2.89179238 11.162757,3.00897307 L12.4955819,4.34199257 L7.09253837,9.74506854 C7.03090017,9.80686887 7,9.87778037 7,9.95799759 C7,10.0382148 7.03090017,10.109256 7.09253837,10.1709266 L8.1480076,11.2262662 C8.20967823,11.2879692 8.28049246,11.3187721 8.36080695,11.3187721 C8.44112144,11.3187721 8.51193567,11.2879692 8.57360631,11.2262662 L13.9769092,5.8231902 L15.3096694,7.15611243 C15.4270446,7.27335796 15.5659818,7.33211043 15.7264487,7.33211043 C15.8869156,7.33211043 16.0256907,7.27335796 16.1430011,7.15611243 C16.2601818,7.03893174 16.3187721,6.9000269 16.3187721,6.73956004 L16.3187721,2.59232342 C16.3188694,2.43172686 16.2606357,2.29311384 16.1431308,2.17586831 Z" id="Shape-Copy-4" fill="#B0B0B0" transform="translate(11.659386, 6.659386) scale(-1, -1) rotate(-45.000000) translate(-11.659386, -6.659386) "></path>
                </g>
                <g id="Group-2-Copy-2" transform="translate(75.000000, 57.000000) rotate(-30.000000) translate(-75.000000, -57.000000) translate(63.000000, 36.000000)">
                    <path d="M11.6336444,41.2054795 C18.0587288,41.2054795 23.2672889,36.0107559 23.2672889,29.6027397 C23.2672889,23.1947235 18.0587288,18 11.6336444,18 C5.20856003,18 9.59232693e-13,23.1947235 9.59232693e-13,29.6027397 C9.59232693e-13,36.0107559 5.20856003,41.2054795 11.6336444,41.2054795 Z" id="Oval-Copy" fill="#DDDDDD"></path>
                    <path d="M16.1431308,2.17586831 C16.0259501,2.05859034 15.8870453,2 15.7265784,2 L11.5793093,2 C11.4188749,2 11.2801322,2.05859034 11.162757,2.17586831 C11.0455763,2.29308142 10.9869859,2.43195383 10.9869859,2.59242069 C10.9869859,2.75288755 11.0455763,2.89179238 11.162757,3.00897307 L12.4955819,4.34199257 L7.09253837,9.74506854 C7.03090017,9.80686887 7,9.87778037 7,9.95799759 C7,10.0382148 7.03090017,10.109256 7.09253837,10.1709266 L8.1480076,11.2262662 C8.20967823,11.2879692 8.28049246,11.3187721 8.36080695,11.3187721 C8.44112144,11.3187721 8.51193567,11.2879692 8.57360631,11.2262662 L13.9769092,5.8231902 L15.3096694,7.15611243 C15.4270446,7.27335796 15.5659818,7.33211043 15.7264487,7.33211043 C15.8869156,7.33211043 16.0256907,7.27335796 16.1430011,7.15611243 C16.2601818,7.03893174 16.3187721,6.9000269 16.3187721,6.73956004 L16.3187721,2.59232342 C16.3188694,2.43172686 16.2606357,2.29311384 16.1431308,2.17586831 Z" id="Shape-Copy-4" fill="#B0B0B0" transform="translate(11.659386, 6.659386) scale(-1, -1) rotate(-45.000000) translate(-11.659386, -6.659386) "></path>
                </g>
                <g id="Group-2-Copy" transform="translate(21.000000, 57.000000) rotate(-330.000000) translate(-21.000000, -57.000000) translate(9.000000, 36.000000)">
                    <path d="M11.6336444,41.2054795 C18.0587288,41.2054795 23.2672889,36.0107559 23.2672889,29.6027397 C23.2672889,23.1947235 18.0587288,18 11.6336444,18 C5.20856003,18 2.20268248e-13,23.1947235 2.20268248e-13,29.6027397 C2.20268248e-13,36.0107559 5.20856003,41.2054795 11.6336444,41.2054795 Z" id="Oval-Copy" fill="#DDDDDD"></path>
                    <path d="M16.1431308,2.17586831 C16.0259501,2.05859034 15.8870453,2 15.7265784,2 L11.5793093,2 C11.4188749,2 11.2801322,2.05859034 11.162757,2.17586831 C11.0455763,2.29308142 10.9869859,2.43195383 10.9869859,2.59242069 C10.9869859,2.75288755 11.0455763,2.89179238 11.162757,3.00897307 L12.4955819,4.34199257 L7.09253837,9.74506854 C7.03090017,9.80686887 7,9.87778037 7,9.95799759 C7,10.0382148 7.03090017,10.109256 7.09253837,10.1709266 L8.1480076,11.2262662 C8.20967823,11.2879692 8.28049246,11.3187721 8.36080695,11.3187721 C8.44112144,11.3187721 8.51193567,11.2879692 8.57360631,11.2262662 L13.9769092,5.8231902 L15.3096694,7.15611243 C15.4270446,7.27335796 15.5659818,7.33211043 15.7264487,7.33211043 C15.8869156,7.33211043 16.0256907,7.27335796 16.1430011,7.15611243 C16.2601818,7.03893174 16.3187721,6.9000269 16.3187721,6.73956004 L16.3187721,2.59232342 C16.3188694,2.43172686 16.2606357,2.29311384 16.1431308,2.17586831 Z" id="Shape-Copy-4" fill="#B0B0B0" transform="translate(11.659386, 6.659386) scale(-1, -1) rotate(-45.000000) translate(-11.659386, -6.659386) "></path>
                </g>
            </g>
        </g>
    </g>
</svg>