<svg xmlns="http://www.w3.org/2000/svg" width="36" height="33" viewBox="0 0 36 33">
    <g fill="none" fill-rule="nonzero">
        <path fill="#C29F4F" d="M35.987 14.16v18.206a.592.592 0 0 1-.596.588H.596A.592.592 0 0 1 0 32.366V14.16c0-.204.106-.385.267-.49l4.594-3.004V.622c0-.325.267-.588.596-.588H30.53c.33 0 .596.263.596.588v10.043l4.595 3.005c.16.105.267.286.267.49zm-1.192 17.11V15.139l-13.707 7.171 13.707 8.962zm-3.67-17.698h2.288l-2.288-1.496v1.496zM2.573 31.778h30.84l-15.42-10.082-15.42 10.082zm28.552-16.05l1.87-.98h-1.87v.98zm-1.192.622V1.21H6.053v15.14l9.976 5.22 1.635-1.07c.2-.13.46-.13.659 0l1.634 1.07 9.976-5.22zM1.193 31.27l13.705-8.96-13.706-7.172V31.27zM4.86 15.727v-.978h-1.87l1.87.978zm0-2.154v-1.495l-2.287 1.495h2.287z"/>
        <path fill="#FFDC8D" d="M34.795 15.138V31.27l-13.707-8.962z"/>
        <path fill="#C29F4F" d="M33.413 13.572h-2.288v-1.496z"/>
        <path fill="#FFDC8D" d="M33.413 31.778H2.573l15.42-10.082z"/>
        <path fill="#C29F4F" d="M32.995 14.748l-1.87.98v-.98z"/>
        <path fill="#FFF" d="M29.933 1.21v15.14l-9.976 5.22-1.634-1.07a.605.605 0 0 0-.66 0l-1.634 1.07-9.976-5.22V1.21h23.88zm-6.595 9.273v-.434c0-2.907-2.398-5.271-5.345-5.271-2.947 0-5.345 2.364-5.345 5.27v.175c0 2.906 2.398 5.271 5.345 5.271h4.749a.592.592 0 0 0 .596-.588.592.592 0 0 0-.596-.587h-4.75c-2.289 0-4.151-1.838-4.151-4.096v-.174c0-2.258 1.862-4.096 4.152-4.096s4.153 1.838 4.153 4.096v.434a.894.894 0 0 1-.899.887.895.895 0 0 1-.9-.887V9.66c0-1.4-1.154-2.54-2.573-2.54-1.42 0-2.575 1.14-2.575 2.54 0 1.4 1.154 2.54 2.575 2.54.649 0 1.242-.239 1.695-.632a2.098 2.098 0 0 0 1.778.978c1.152 0 2.091-.924 2.091-2.062z"/>
        <path fill="#A7A7A7" d="M23.338 10.049v.434c0 1.138-.939 2.062-2.09 2.062-.751 0-1.41-.391-1.779-.978a2.583 2.583 0 0 1-1.695.631c-1.42 0-2.575-1.139-2.575-2.539 0-1.4 1.154-2.54 2.575-2.54 1.419 0 2.574 1.14 2.574 2.54v.824c0 .489.403.887.9.887a.894.894 0 0 0 .898-.887v-.434c0-2.258-1.863-4.096-4.153-4.096-2.29 0-4.152 1.838-4.152 4.096v.174c0 2.258 1.862 4.096 4.152 4.096h4.749c.329 0 .596.263.596.587a.592.592 0 0 1-.596.588h-4.75c-2.946 0-5.344-2.365-5.344-5.271v-.174c0-2.907 2.398-5.271 5.345-5.271 2.947 0 5.345 2.364 5.345 5.27zm-4.183-.39c0-.752-.62-1.364-1.381-1.364-.763 0-1.383.612-1.383 1.364 0 .752.62 1.363 1.383 1.363.762 0 1.381-.61 1.381-1.363z"/>
        <path fill="#FFF" d="M17.774 8.295c.762 0 1.381.612 1.381 1.364 0 .752-.62 1.363-1.381 1.363A1.374 1.374 0 0 1 16.39 9.66c0-.752.62-1.364 1.383-1.364z"/>
        <path fill="#FFDC8D" d="M14.898 22.31L1.192 31.27V15.139z"/>
        <path fill="#C29F4F" d="M4.861 14.748v.978l-1.87-.978zM4.861 12.077v1.495H2.574z"/>
    </g>
</svg>
