<?xml version="1.0" encoding="UTF-8" standalone="no"?>
<svg width="300px" height="300px" viewBox="0 0 300 300" version="1.1" xmlns="http://www.w3.org/2000/svg" xmlns:xlink="http://www.w3.org/1999/xlink">
    <!-- Generator: Sketch 43.2 (39069) - http://www.bohemiancoding.com/sketch -->
    <title>truck-grey</title>
    <desc>Created with Sketch.</desc>
    <defs></defs>
    <g id="Page-1" stroke="none" stroke-width="1" fill="none" fill-rule="evenodd">
        <g id="truck-grey" fill-rule="nonzero" fill="#CCCCCC">
            <g id="delivery-truck-(1)" transform="translate(10.000000, 87.000000)">
                <path d="M249.144582,24.656625 C247.579011,22.21065 244.661037,20.6913 241.528729,20.6913 L200.458106,20.6913 L200.458106,50.779575 C200.832026,50.722875 201.214683,50.686125 201.606658,50.686125 L265.799746,50.686125 L265.799746,50.686125 L249.144582,24.656625 Z" id="Shape"></path>
                <path d="M272.820938,88.717125 L272.820938,63.130725 L201.606658,63.130725 C201.214683,63.130725 200.832026,63.0945 200.458106,63.037275 L200.458106,88.5066 L188.377929,88.5066 L188.377929,0.4809 L12.0661991,0.4809 L12.0661991,88.5066 L10.3544378,88.5066 C4.63614158,88.5066 0,92.6856 0,97.84005 C0,102.9945 4.63614158,107.1735 10.3544378,107.1735 L31.8169777,107.1735 C32.4279466,92.968575 45.4312754,81.580275 61.336852,81.580275 C77.2424287,81.580275 90.2469224,92.968575 90.8567264,107.1735 L189.308069,107.1735 L206.534597,107.1735 C207.145566,92.968575 220.148894,81.580275 236.055054,81.580275 C251.96063,81.580275 264.965124,92.968575 265.574928,107.1735 L270.64498,107.1735 C276.363276,107.1735 280.999418,102.9945 280.999418,97.84005 C281,93.35865 277.493772,89.618025 272.820938,88.717125 Z" id="Shape"></path>
                <path d="M61.336852,90.913725 C50.7529369,90.913725 42.1411291,98.67585 42.1411291,108.216675 C42.1411291,117.756975 50.7523544,125.519625 61.336852,125.519625 C71.9213496,125.519625 80.5325749,117.7575 80.5325749,108.216675 C80.5325749,98.67585 71.9207672,90.913725 61.336852,90.913725 Z" id="Shape"></path>
                <path d="M236.055636,90.913725 C225.471721,90.913725 216.859913,98.67585 216.859913,108.216675 C216.859913,117.756975 225.471138,125.519625 236.055636,125.519625 C246.639551,125.519625 255.251359,117.7575 255.251359,108.216675 C255.250776,98.67585 246.639551,90.913725 236.055636,90.913725 Z" id="Shape"></path>
            </g>
        </g>
    </g>
</svg>