<?xml version="1.0" encoding="UTF-8" standalone="no"?>
<svg width="100px" height="100px" viewBox="0 0 100 100" version="1.1" xmlns="http://www.w3.org/2000/svg" xmlns:xlink="http://www.w3.org/1999/xlink">
    <!-- Generator: Sketch 3.8.3 (29802) - http://www.bohemiancoding.com/sketch -->
    <title>vendor_form</title>
    <desc>Created with Sketch.</desc>
    <defs>
        <linearGradient x1="50%" y1="0%" x2="50%" y2="100%" id="linearGradient-1">
            <stop stop-color="#3AC2ED" offset="0%"></stop>
            <stop stop-color="#1583A7" offset="100%"></stop>
        </linearGradient>
        <ellipse id="path-2" cx="28.2271089" cy="28.2926108" rx="28.2271089" ry="28.2926108"></ellipse>
        <mask id="mask-4" maskContentUnits="userSpaceOnUse" maskUnits="objectBoundingBox" x="-1.20358999" y="-1.20358999" width="58.8613977" height="58.9924016">
            <rect x="-1.20358999" y="-1.20358999" width="58.8613977" height="58.9924016" fill="white"></rect>
            <use xlink:href="#path-2" fill="black"></use>
        </mask>
    </defs>
    <g id="Page-1" stroke="none" stroke-width="1" fill="none" fill-rule="evenodd">
        <g id="vendor_form">
            <g id="Group-33-Copy" transform="translate(1.000000, 3.000000)">
                <g id="Group-31" transform="translate(20.525595, 0.393596)">
                    <g id="csv-copy-5" transform="translate(13.318673, 0.000000)">
                        <g id="Group-2">
                            <path d="M0,2.5144218 C0,1.12574498 1.11952055,0 2.50694965,0 L35.450713,0 L47.9627293,12.5128688 L47.9627293,64.2287865 C47.9627293,65.6130957 46.8477515,66.7353001 45.4515746,66.7353001 L2.51115475,66.7353001 C1.12428228,66.7353001 0,65.6049851 0,64.2208783 L0,2.5144218 Z" id="Rectangle-1" fill="url(#linearGradient-1)"></path>
                            <path d="M35.4590574,0 L47.9710737,12.5128688 L37.9609789,12.5128688 C36.5792058,12.5128688 35.4590574,11.380366 35.4590574,10.0107768 L35.4590574,0 Z" id="Rectangle-2" fill="#2B94B7"></path>
                        </g>
                        <g id="Group-Copy" transform="translate(11.410959, 21.670936)" fill="#2B94B7">
                            <rect id="Rectangle-3" x="0" y="0" width="25.6850449" height="1.6072868"></rect>
                            <rect id="Rectangle-3-Copy" x="0" y="4.17894569" width="25.6850449" height="0.642914722"></rect>
                            <rect id="Rectangle-3-Copy-2" x="0" y="5.7862325" width="25.6850449" height="0.642914722"></rect>
                            <rect id="Rectangle-3-Copy-3" x="0" y="7.3935193" width="12.8425224" height="0.642914722"></rect>
                            <rect id="Rectangle-3-Copy-6" x="0" y="9.32226347" width="25.6850449" height="0.642914722"></rect>
                            <rect id="Rectangle-3-Copy-5" x="0" y="10.9295503" width="25.6850449" height="0.642914722"></rect>
                            <rect id="Rectangle-3-Copy-4" x="0" y="12.5368371" width="12.8425224" height="0.642914722"></rect>
                            <rect id="Rectangle-3-Copy-9" x="0" y="14.4655812" width="25.6850449" height="0.642914722"></rect>
                            <rect id="Rectangle-3-Copy-8" x="0" y="16.072868" width="25.6850449" height="0.642914722"></rect>
                            <rect id="Rectangle-3-Copy-7" x="0" y="17.6801549" width="12.8425224" height="0.642914722"></rect>
                            <rect id="Rectangle-3-Copy-12" x="0" y="19.608899" width="25.6850449" height="0.642914722"></rect>
                            <rect id="Rectangle-3-Copy-11" x="0" y="21.2161858" width="25.6850449" height="0.642914722"></rect>
                            <rect id="Rectangle-3-Copy-13" x="0" y="22.8234726" width="25.6850449" height="0.642914722"></rect>
                        </g>
                    </g>
                    <g id="csv-copy-6" transform="translate(28.757030, 26.185714)">
                        <g id="Group-2">
                            <path d="M0,2.5144218 C0,1.12574498 1.11952055,0 2.50694965,0 L35.450713,0 L47.9627293,12.5128688 L47.9627293,64.2287865 C47.9627293,65.6130957 46.8477515,66.7353001 45.4515746,66.7353001 L2.51115475,66.7353001 C1.12428228,66.7353001 0,65.6049851 0,64.2208783 L0,2.5144218 Z" id="Rectangle-1" fill="#DDDDDD"></path>
                            <path d="M35.4590574,0 L47.9710737,12.5128688 L37.9609789,12.5128688 C36.5792058,12.5128688 35.4590574,11.380366 35.4590574,10.0107768 L35.4590574,0 Z" id="Rectangle-2" fill="#B0B0B0"></path>
                        </g>
                        <g id="Group-Copy" transform="translate(11.410959, 21.670936)" fill="#B0B0B0">
                            <rect id="Rectangle-3" x="0" y="0" width="25.6850449" height="1.6072868"></rect>
                            <rect id="Rectangle-3-Copy" x="0" y="4.17894569" width="25.6850449" height="0.642914722"></rect>
                            <rect id="Rectangle-3-Copy-2" x="0" y="5.7862325" width="25.6850449" height="0.642914722"></rect>
                            <rect id="Rectangle-3-Copy-3" x="0" y="7.3935193" width="12.8425224" height="0.642914722"></rect>
                            <rect id="Rectangle-3-Copy-6" x="0" y="9.32226347" width="25.6850449" height="0.642914722"></rect>
                            <rect id="Rectangle-3-Copy-5" x="0" y="10.9295503" width="25.6850449" height="0.642914722"></rect>
                            <rect id="Rectangle-3-Copy-4" x="0" y="12.5368371" width="12.8425224" height="0.642914722"></rect>
                            <rect id="Rectangle-3-Copy-9" x="0" y="14.4655812" width="25.6850449" height="0.642914722"></rect>
                            <rect id="Rectangle-3-Copy-8" x="0" y="16.072868" width="25.6850449" height="0.642914722"></rect>
                            <rect id="Rectangle-3-Copy-7" x="0" y="17.6801549" width="12.8425224" height="0.642914722"></rect>
                            <rect id="Rectangle-3-Copy-12" x="0" y="19.608899" width="25.6850449" height="0.642914722"></rect>
                            <rect id="Rectangle-3-Copy-11" x="0" y="21.2161858" width="25.6850449" height="0.642914722"></rect>
                            <rect id="Rectangle-3-Copy-13" x="0" y="22.8234726" width="25.6850449" height="0.642914722"></rect>
                        </g>
                    </g>
                    <g id="csv-copy-7" transform="translate(0.000000, 22.087685)">
                        <g id="Group-2">
                            <path d="M0,2.5144218 C0,1.12574498 1.11952055,0 2.50694965,0 L35.450713,0 L47.9627293,12.5128688 L47.9627293,64.2287865 C47.9627293,65.6130957 46.8477515,66.7353001 45.4515746,66.7353001 L2.51115475,66.7353001 C1.12428228,66.7353001 0,65.6049851 0,64.2208783 L0,2.5144218 Z" id="Rectangle-1" fill="url(#linearGradient-1)"></path>
                            <path d="M35.4590574,0 L47.9710737,12.5128688 L37.9609789,12.5128688 C36.5792058,12.5128688 35.4590574,11.380366 35.4590574,10.0107768 L35.4590574,0 Z" id="Rectangle-2" fill="#2B94B7"></path>
                        </g>
                        <g id="Group-Copy" transform="translate(11.410959, 21.670936)" fill="#2B94B7">
                            <rect id="Rectangle-3" x="0" y="0" width="25.6850449" height="1.6072868"></rect>
                            <rect id="Rectangle-3-Copy" x="0" y="4.17894569" width="25.6850449" height="0.642914722"></rect>
                            <rect id="Rectangle-3-Copy-2" x="0" y="5.7862325" width="25.6850449" height="0.642914722"></rect>
                            <rect id="Rectangle-3-Copy-3" x="0" y="7.3935193" width="12.8425224" height="0.642914722"></rect>
                            <rect id="Rectangle-3-Copy-6" x="0" y="9.32226347" width="25.6850449" height="0.642914722"></rect>
                            <rect id="Rectangle-3-Copy-5" x="0" y="10.9295503" width="25.6850449" height="0.642914722"></rect>
                            <rect id="Rectangle-3-Copy-4" x="0" y="12.5368371" width="12.8425224" height="0.642914722"></rect>
                            <rect id="Rectangle-3-Copy-9" x="0" y="14.4655812" width="25.6850449" height="0.642914722"></rect>
                            <rect id="Rectangle-3-Copy-8" x="0" y="16.072868" width="25.6850449" height="0.642914722"></rect>
                            <rect id="Rectangle-3-Copy-7" x="0" y="17.6801549" width="12.8425224" height="0.642914722"></rect>
                            <rect id="Rectangle-3-Copy-12" x="0" y="19.608899" width="25.6850449" height="0.642914722"></rect>
                            <rect id="Rectangle-3-Copy-11" x="0" y="21.2161858" width="25.6850449" height="0.642914722"></rect>
                            <rect id="Rectangle-3-Copy-13" x="0" y="22.8234726" width="25.6850449" height="0.642914722"></rect>
                        </g>
                    </g>
                </g>
                <g id="Group-32" transform="translate(0.000000, 4.028571)">
                    <mask id="mask-3" fill="white">
                        <use xlink:href="#path-2"></use>
                    </mask>
                    <g id="Oval-199">
                        <use fill="#D8D8D8" fill-rule="evenodd" xlink:href="#path-2"></use>
                        <use stroke-opacity="0.2" stroke="#FFFFFF" mask="url(#mask-4)" stroke-width="2.40717997" xlink:href="#path-2"></use>
                    </g>
                    <g id="Group-31-Copy" mask="url(#mask-3)">
                        <g transform="translate(-8.408075, -32.506404)">
                            <g id="csv-copy-8" transform="translate(36.034607, 0.000000)">
                                <g id="Group-2" fill="#607D8B">
                                    <path d="M0,5.00870825 C0,2.24247507 2.23904109,0 5.0138993,0 L70.9014259,0 L95.9254586,25.0257375 L95.9254586,128.457573 C95.9254586,131.226191 93.6722414,133.4706 90.9031491,133.4706 L5.0223095,133.4706 C2.24856455,133.4706 0,131.22387 0,128.461892 L0,5.00870825 Z" id="Rectangle-1"></path>
                                </g>
                                <g id="Group-Copy" transform="translate(22.821918, 43.341872)" fill="#000000" opacity="0.2">
                                    <rect id="Rectangle-3" x="0" y="0" width="51.3700897" height="3.21457361"></rect>
                                    <rect id="Rectangle-3-Copy" x="0" y="8.35789139" width="51.3700897" height="1.28582944"></rect>
                                    <rect id="Rectangle-3-Copy-2" x="0" y="11.572465" width="51.3700897" height="1.28582944"></rect>
                                    <rect id="Rectangle-3-Copy-3" x="0" y="14.7870386" width="25.6850449" height="1.28582944"></rect>
                                    <rect id="Rectangle-3-Copy-6" x="0" y="18.6445269" width="51.3700897" height="1.28582944"></rect>
                                    <rect id="Rectangle-3-Copy-5" x="0" y="21.8591005" width="51.3700897" height="1.28582944"></rect>
                                    <rect id="Rectangle-3-Copy-4" x="0" y="25.0736742" width="25.6850449" height="1.28582944"></rect>
                                    <rect id="Rectangle-3-Copy-9" x="0" y="28.9311625" width="51.3700897" height="1.28582944"></rect>
                                    <rect id="Rectangle-3-Copy-8" x="0" y="32.1457361" width="51.3700897" height="1.28582944"></rect>
                                    <rect id="Rectangle-3-Copy-7" x="0" y="35.3603097" width="25.6850449" height="1.28582944"></rect>
                                    <rect id="Rectangle-3-Copy-12" x="0" y="39.217798" width="51.3700897" height="1.28582944"></rect>
                                    <rect id="Rectangle-3-Copy-11" x="0" y="42.4323716" width="51.3700897" height="1.28582944"></rect>
                                    <rect id="Rectangle-3-Copy-13" x="0" y="45.6469453" width="51.3700897" height="1.28582944"></rect>
                                </g>
                            </g>
                            <g id="csv-copy-9" transform="translate(0.000000, 36.118227)">
                                <g id="Group-2" transform="translate(-0.000000, 0.000000)">
                                    <path d="M0,5.00870825 C0,2.24247507 2.23904109,0 5.0138993,0 L70.9014259,0 L95.9254586,25.0257375 L95.9254586,128.457573 C95.9254586,131.226191 93.6722414,133.4706 90.9031491,133.4706 L5.0223095,133.4706 C2.24856455,133.4706 0,131.22387 0,128.461892 L0,5.00870825 Z" id="Rectangle-1" fill="url(#linearGradient-1)"></path>
                                    <path d="M70.9181147,0 L95.9421474,25.0257375 L75.9369709,25.0257375 C73.1651332,25.0257375 70.9181147,22.7828463 70.9181147,20.0065395 L70.9181147,0 Z" id="Rectangle-2" fill="#2B94B7"></path>
                                </g>
                                <g id="Group-Copy" transform="translate(22.821918, 43.341872)" fill="#2B94B7">
                                    <rect id="Rectangle-3" x="0" y="0" width="51.3700897" height="3.21457361"></rect>
                                    <rect id="Rectangle-3-Copy" x="0" y="8.35789139" width="51.3700897" height="1.28582944"></rect>
                                    <rect id="Rectangle-3-Copy-2" x="0" y="11.572465" width="51.3700897" height="1.28582944"></rect>
                                    <rect id="Rectangle-3-Copy-3" x="0" y="14.7870386" width="25.6850449" height="1.28582944"></rect>
                                    <rect id="Rectangle-3-Copy-6" x="0" y="18.6445269" width="51.3700897" height="1.28582944"></rect>
                                    <rect id="Rectangle-3-Copy-5" x="0" y="21.8591005" width="51.3700897" height="1.28582944"></rect>
                                    <rect id="Rectangle-3-Copy-4" x="0" y="25.0736742" width="25.6850449" height="1.28582944"></rect>
                                    <rect id="Rectangle-3-Copy-9" x="0" y="28.9311625" width="51.3700897" height="1.28582944"></rect>
                                    <rect id="Rectangle-3-Copy-8" x="0" y="32.1457361" width="51.3700897" height="1.28582944"></rect>
                                    <rect id="Rectangle-3-Copy-7" x="0" y="35.3603097" width="25.6850449" height="1.28582944"></rect>
                                    <rect id="Rectangle-3-Copy-12" x="0" y="39.217798" width="51.3700897" height="1.28582944"></rect>
                                    <rect id="Rectangle-3-Copy-11" x="0" y="42.4323716" width="51.3700897" height="1.28582944"></rect>
                                    <rect id="Rectangle-3-Copy-13" x="0" y="45.6469453" width="51.3700897" height="1.28582944"></rect>
                                </g>
                            </g>
                        </g>
                    </g>
                    <path d="M14.5099351,19.0583842 L15.3026965,19.0583842 L17.9932805,23.4046108 L17.9932805,27.08867 L19.6028262,27.08867 L19.6028262,23.3684926 L23.0981831,17.7701675 L21.2604182,17.7701675 L18.8100649,21.8996847 L16.4077578,17.7701675 L14.5099351,17.7701675 L14.5099351,19.0583842 Z M25.3323288,27.2331429 C27.3022206,27.2331429 28.7436049,25.8124926 28.7436049,23.8861872 C28.7436049,21.9839606 27.2781975,20.5512709 25.3443403,20.5512709 C23.566633,20.5512709 21.9570872,21.996 21.9570872,23.8861872 C21.9570872,25.8004532 23.5185869,27.2331429 25.3323288,27.2331429 L25.3323288,27.2331429 Z M27.1821053,23.8982266 C27.1821053,24.9336158 26.4854362,25.8365714 25.3563518,25.8365714 C24.2272675,25.8365714 23.5185869,24.9336158 23.5185869,23.8982266 C23.5185869,22.8748768 24.2272675,21.9478424 25.3563518,21.9478424 C26.4854362,21.9478424 27.1821053,22.8628374 27.1821053,23.8982266 L27.1821053,23.8982266 Z M34.2929344,27.08867 L36.3709301,27.08867 L36.3709301,25.8004532 L35.674261,25.8004532 L35.674261,20.6957438 L34.1367844,20.6957438 L34.1367844,24.8493399 C33.5962653,25.4513103 33.0917808,25.8365714 32.5152271,25.8365714 C31.794535,25.8365714 31.5903389,25.4633498 31.5903389,24.6567094 L31.5903389,20.6957438 L30.0528623,20.6957438 L30.0528623,25.1262463 C30.0528623,26.1857143 30.4011968,27.2331429 31.9386734,27.2331429 C32.6833886,27.2331429 33.2599423,27.0164335 34.2208652,26.3301872 L34.2929344,27.08867 Z M36.8754146,21.9839606 L37.5720836,21.9839606 L37.5720836,27.08867 L39.1455948,27.08867 L39.1455948,24.1269754 C39.1455948,22.9952709 39.5659986,21.9598818 40.8031867,21.9598818 L41.0314059,21.9598818 L41.0314059,20.5512709 C40.0224369,20.5512709 39.4699063,20.9846897 39.1455948,21.7672512 L39.0735256,20.6957438 L36.8754146,20.6957438 L36.8754146,21.9839606 Z M17.2245422,29.8095764 L15.6149964,29.8095764 L15.6149964,39.1280788 L20.7439221,39.1280788 L20.7439221,37.6592709 L17.2245422,37.6592709 L17.2245422,29.8095764 Z M24.4074405,39.2725517 C26.3773324,39.2725517 27.8187167,37.8519015 27.8187167,35.9255961 C27.8187167,34.0233695 26.3533093,32.5906798 24.4194521,32.5906798 C22.6417448,32.5906798 21.032199,34.0354089 21.032199,35.9255961 C21.032199,37.8398621 22.5936986,39.2725517 24.4074405,39.2725517 L24.4074405,39.2725517 Z M26.257217,35.9376355 C26.257217,36.9730246 25.5605479,37.8759803 24.4314636,37.8759803 C23.3023792,37.8759803 22.5936986,36.9730246 22.5936986,35.9376355 C22.5936986,34.9142857 23.3023792,33.9872512 24.4314636,33.9872512 C25.5605479,33.9872512 26.257217,34.9022463 26.257217,35.9376355 L26.257217,35.9376355 Z M35.2658688,34.0233695 L35.9625379,34.0233695 L35.9625379,32.7351527 L33.8845422,32.7351527 L33.812473,33.6621872 C33.3079885,33.0842956 32.7554578,32.5906798 31.7104542,32.5906798 C29.7045278,32.5906798 28.6355011,34.3002759 28.6355011,36.0098719 C28.6355011,37.8759803 29.8967123,39.2725517 31.6624081,39.2725517 C32.4431579,39.2725517 33.139827,39.0197241 33.7283922,38.3695961 L33.7283922,38.8632118 C33.7283922,39.7661675 33.2479308,40.4764926 31.8545926,40.4764926 C30.4132084,40.4764926 29.5964239,39.7180099 29.5964239,39.7180099 L28.9838356,40.9941872 C28.9838356,40.9941872 30.0768854,41.8489852 31.9987311,41.8489852 C34.2809229,41.8489852 35.2658688,40.6450443 35.2658688,38.9836059 L35.2658688,34.0233695 Z M33.7404037,36.0219113 C33.7404037,37.1054581 33.139827,37.8759803 32.0467772,37.8759803 C30.9056813,37.8759803 30.1970007,37.0573005 30.1970007,36.0098719 C30.1970007,34.9985616 30.8576352,33.9872512 31.9867195,33.9872512 C33.0197116,33.9872512 33.7404037,34.8420493 33.7404037,36.0219113 L33.7404037,36.0219113 Z M39.8422639,39.2725517 C41.8121557,39.2725517 43.25354,37.8519015 43.25354,35.9255961 C43.25354,34.0233695 41.7881327,32.5906798 39.8542754,32.5906798 C38.0765681,32.5906798 36.4670224,34.0354089 36.4670224,35.9255961 C36.4670224,37.8398621 38.028522,39.2725517 39.8422639,39.2725517 L39.8422639,39.2725517 Z M41.6920404,35.9376355 C41.6920404,36.9730246 40.9953713,37.8759803 39.866287,37.8759803 C38.7372026,37.8759803 38.028522,36.9730246 38.028522,35.9376355 C38.028522,34.9142857 38.7372026,33.9872512 39.866287,33.9872512 C40.9953713,33.9872512 41.6920404,34.9022463 41.6920404,35.9376355 L41.6920404,35.9376355 Z" id="Your" fill="#FFFFFF" mask="url(#mask-3)"></path>
                </g>
            </g>
        </g>
    </g>
</svg>